<svg xmlns="http://www.w3.org/2000/svg" width="17" height="15" viewBox="0 0 17 15">
    <g fill="none" fill-rule="evenodd">
        <path fill="#FFF" fill-rule="nonzero" d="M7.96 8.563V1.671c0-.39-.211-.744-.542-.907a.885.885 0 0 0-.996.145l-4.26 3.87c-.217.198-.33.48-.33.763 0 .229.074.459.223.647a.892.892 0 0 0 1.316.115l2.721-2.472v4.731c0 .553.418 1 .934 1s.934-.447.934-1zM9.833 1.671v6.892c0 .39.211.744.541.908.33.164.72.107.997-.145l4.26-3.87c.217-.198.329-.48.329-.763a1.04 1.04 0 0 0-.222-.647.892.892 0 0 0-1.316-.116L11.7 6.403V1.671c0-.552-.418-1-.934-1s-.934.448-.934 1z"/>
        <path stroke="#FFF" stroke-linecap="round" stroke-linejoin="round" stroke-width="2" d="M1.662 11v2.624h13.922V11"/>
    </g>
</svg>
