<svg xmlns="http://www.w3.org/2000/svg" width="16" height="15" viewBox="0 0 16 15">
    <g fill="#FFF" fill-rule="nonzero">
        <path d="M8.375 0C4.362 0 1.119 3.16 1.119 7.059h-.23a.89.89 0 0 0-.62 1.527l1.526 1.483c.03.03.055.064.074.102a.046.046 0 0 0 .074.012l1.582-1.54A.923.923 0 0 0 2.88 7.06h-.149c0-3.032 2.53-5.49 5.647-5.49 3.118 0 5.647 2.458 5.647 5.49 0 3.031-2.529 5.49-5.647 5.49a5.705 5.705 0 0 1-3.99-1.612l-1.14 1.11a7.319 7.319 0 0 0 5.126 2.07c4.013 0 7.265-3.16 7.265-7.058C15.64 3.16 12.388 0 8.375 0z"/>
        <path stroke="#FFF" stroke-width=".7" d="M7.588 4.33v3.18l2.767 1.633a.532.532 0 0 0 .727-.186.527.527 0 0 0-.185-.724l-2.18-1.285V4.329a.565.565 0 0 0-1.13 0z"/>
    </g>
</svg>
