<svg xmlns="http://www.w3.org/2000/svg" width="16" height="13" viewBox="0 0 16 13">
    <path fill="#FFF" fill-rule="nonzero" d="M7.983 6.087c1.4 0 2.488-1.464 2.488-2.978v-.475C10.47 1.12 9.382.045 7.983.045c-1.4 0-2.488 1.075-2.488 2.59v.474c0 1.514 1.088 2.978 2.488 2.978zm-4.985.49c.4 0 1.495-.524 1.495-1.61v-.804c0-1.086-.79-1.61-1.495-1.61-.682 0-1.495.524-1.495 1.61v.804c0 1.086 1.116 1.61 1.495 1.61zm8.959 2.011c0-.007-.003-.015-.004-.023a1.953 1.953 0 0 0-.054-.278l-.001-.002a1.726 1.726 0 0 0-.272-.562c-.216-.302-.542-.61-1.071-.91-.28-.158-.403-.23-.576-.23-.276 0-.516.215-.92.59h-.001l-.368.34c-.013.013-.41.578-.707.578s-.694-.565-.707-.577l-.368-.341c-.405-.375-.645-.59-.92-.59-.174 0-.328.072-.577.23-.513.327-.855.607-1.07.908-.002.001-.002.003-.002.003a1.726 1.726 0 0 0-.272.564c-.025.09-.043.181-.054.275l-.004.026c-.011.1-.017.201-.017.307v2.213c0 .715.267 1.005.998 1.005h5.986c.737 0 .998-.275.998-1.005V8.896c0-.106-.006-.207-.017-.308zm1.02-2.012c.4 0 1.495-.523 1.495-1.609v-.804c0-1.086-.79-1.61-1.496-1.61-.682 0-1.495.524-1.495 1.61v.804c0 1.086 1.116 1.61 1.495 1.61zM1.134 7.666A2.18 2.18 0 0 0 0 9.6v1.006c0 .73.244 1.006.998 1.006h1.996V8.594l-.5-.503c-.527-.469-.972-.647-1.359-.426zm1.859 1.002c.035.016 0-.407 0 0zm12.971.932a2.18 2.18 0 0 0-1.135-1.935c-.386-.221-.831-.043-1.36.426l-.498.503v3.018h1.996c.754 0 .997-.276.997-1.006V9.6zm-2.982-.932c0-.407-.035.016 0 0z" opacity=".3"/>
</svg>
