<svg xmlns="http://www.w3.org/2000/svg" width="67" height="67" viewBox="0 0 67 67">
    <g fill="#5045D2" fill-rule="evenodd">
        <path d="M40 24.844a1.5 1.5 0 1 0 .001 3 1.5 1.5 0 0 0-.001-3z"/>
        <path fill-rule="nonzero" d="M64.99 58.042L47.782 40.835a25.55 25.55 0 0 0 4.28-14.21C52.063 12.409 40.496.844 26.28.844S.5 12.409.5 26.625s11.565 25.781 25.781 25.781c5.1 0 9.989-1.476 14.21-4.28l4.757 4.757.002.002 12.448 12.448a5.123 5.123 0 0 0 3.646 1.51 5.122 5.122 0 0 0 3.645-1.51 5.12 5.12 0 0 0 1.511-3.645 5.12 5.12 0 0 0-1.51-3.646zM39.885 45.41a23.004 23.004 0 0 1-13.605 4.418c-12.794 0-23.203-10.409-23.203-23.203 0-12.794 10.409-23.203 23.203-23.203 12.794 0 23.203 10.409 23.203 23.203 0 4.921-1.527 9.625-4.418 13.604a23.316 23.316 0 0 1-5.18 5.181zm2.704 1.169a25.868 25.868 0 0 0 3.645-3.645l3.657 3.657a31.29 31.29 0 0 1-3.645 3.645l-3.657-3.657zM63.166 63.51a2.56 2.56 0 0 1-1.822.756 2.56 2.56 0 0 1-1.823-.756L48.075 52.064a33.873 33.873 0 0 0 3.645-3.645l11.447 11.446c.487.487.755 1.134.755 1.822a2.56 2.56 0 0 1-.756 1.823z"/>
        <path d="M40.407 20.195c-1.192-2.72-3.269-5.044-6.005-6.723-2.802-1.72-6.093-2.628-9.517-2.628-.765 0-1.385.543-1.385 1.213s.62 1.213 1.385 1.213c5.693 0 10.891 3.133 12.937 7.795.211.483.736.779 1.293.779.165 0 .333-.026.496-.081.714-.24 1.07-.943.796-1.568z"/>
    </g>
</svg>
