<svg xmlns="http://www.w3.org/2000/svg" width="63" height="64" viewBox="0 0 63 64">
    <g fill="none" fill-rule="evenodd">
        <path fill-rule="nonzero" stroke="#5045D2" stroke-width="2.6" d="M61.376 15.826a1.25 1.25 0 0 0-.927-1.083c-20.351-5.4-28.022-12.5-28.081-12.56-.493-.452-1.243-.452-1.713 0-.07.06-7.741 7.16-28.104 12.56a1.25 1.25 0 0 0-.927 1.083c-.035.333-3.554 34.185 29.442 46.817.14.06.293.083.434.083.14 0 .305-.024.434-.083C64.93 50.01 61.411 16.159 61.376 15.826z"/>
        <g fill="#5045D2">
            <path d="M24.6 30.204c.4.4 1 .4 1.4 0 .4-.4.4-1 0-1.4-.8-.8-1.9-1.2-3-1.2s-2.2.4-3 1.2c-.8.8-1.2 1.9-1.2 3s.4 2.2 1.2 3c.8.8 1.9 1.2 3 1.2s2.2-.4 3-1.2c.4-.4.4-1 0-1.4-.4-.4-1-.4-1.4 0-.9.9-2.3.9-3.2 0-.4-.4-.7-1-.7-1.6 0-.6.2-1.2.7-1.6.8-.9 2.3-.9 3.2 0z"/>
            <path d="M53.3 31.304l-3-4.5c-.2-.3-.5-.4-.8-.4H30.7c-.6-.8-1.3-1.5-2.1-2.1 0 0 0-.1-.1-.1-3.8-2.8-9-2.4-12.3 1-3.7 3.7-3.7 9.7 0 13.4 1.8 1.9 4.3 2.8 6.7 2.8 2.4 0 4.9-.9 6.7-2.8l.4-.4c.4-.4.3-1-.1-1.4-.4-.4-1-.3-1.4.1l-.3.3c-2.9 2.9-7.7 2.9-10.6 0-2.9-2.9-2.9-7.7 0-10.6 1.1-1.1 2.3-1.7 3.7-2 3-.6 6.2.7 7.8 3.2l.1.1c.2.3.5.5.9.5h18.8l2.3 3.5-2.3 3.4c-.2-.1-.4-.3-.7-.6-.5-.6-1.2-1.3-2.6-1.3-1.4 0-2.1.8-2.6 1.3s-.7.7-1.2.7-.7-.2-1.2-.7c-.5-.6-1.2-1.3-2.6-1.3-1.4 0-2.1.8-2.6 1.3s-.7.7-1.2.7-.7-.2-1.2-.7c-.4-.5-1-1-1.9-1.2-.5-.1-1.1.2-1.2.8-.1.5.2 1.1.8 1.2.3.1.5.3.9.7.5.6 1.2 1.3 2.6 1.3 1.4 0 2.1-.8 2.6-1.3s.7-.7 1.2-.7.7.2 1.2.7c.5.6 1.2 1.3 2.6 1.3 1.4 0 2.1-.8 2.6-1.3s.7-.7 1.2-.7.7.2 1.2.7c.5.6 1.2 1.3 2.6 1.3.3 0 .6-.2.8-.4l3-4.5c.4-.6.4-1 .1-1.3z"/>
        </g>
    </g>
</svg>
