<svg xmlns="http://www.w3.org/2000/svg" width="13" height="13" viewBox="0 0 13 13">
    <g fill="#9B9B9B" fill-rule="evenodd">
        <path d="M8.271 8.224c.178-.407.254-.839.254-1.27a3.2 3.2 0 0 0-.114-.853 4.186 4.186 0 0 0-.203-.559 3.454 3.454 0 0 0-.623-.877 3.165 3.165 0 0 0-.877-.623L6.25 4.5a1.042 1.042 0 0 0-.28.991c.166.077.33.19.47.318.14.14.242.292.318.47.09.178.128.369.14.572.038.445-.127.903-.457 1.233L4.483 10.03c-.318.318-.724.47-1.131.47-.407 0-.826-.152-1.131-.47a1.619 1.619 0 0 1 0-2.275l1.22-1.22a3.864 3.864 0 0 1-.127-2.149 1.996 1.996 0 0 0-.305.267L1.064 6.61a3.225 3.225 0 0 0 0 4.576c1.258 1.258 3.317 1.258 4.589 0L7.597 9.24a3.037 3.037 0 0 0 .674-1.017z"/>
        <path d="M12.186 3.305c0-.826-.318-1.665-.953-2.288a3.222 3.222 0 0 0-4.576 0L4.712 2.962c-.102.101-.19.203-.267.305a2.69 2.69 0 0 0-.42.712 3.154 3.154 0 0 0-.254 1.27c0 .293.038.573.115.852.05.191.127.382.203.56.153.317.369.61.623.877.267.267.56.47.877.623l.458-.458c.267-.267.368-.648.28-.991a1.916 1.916 0 0 1-.471-.318 1.465 1.465 0 0 1-.318-.47 1.457 1.457 0 0 1-.14-.573 1.568 1.568 0 0 1 .458-1.233L7.8 2.174c.318-.318.724-.47 1.131-.47.407 0 .826.152 1.131.47.623.622.623 1.64 0 2.275l-1.22 1.22c.242.687.292 1.437.127 2.148.102-.076.216-.165.305-.267l1.958-1.957a3.225 3.225 0 0 0 .953-2.288z"/>
    </g>
</svg>
