<svg xmlns="http://www.w3.org/2000/svg" width="225" height="29" viewBox="0 0 225 29">
    <g fill="none" fill-rule="evenodd">
        <path fill="#00D8D0" d="M9.373 18.915l-.008-6.638a1.703 1.703 0 0 1 3.406-.082l.008 6.743a7.228 7.228 0 0 0 5.576-7.033 7.227 7.227 0 0 0-7.23-7.224 7.227 7.227 0 0 0-7.232 7.224 7.228 7.228 0 0 0 5.48 7.01zm1.751 4.103C4.98 23.018 0 18.042 0 11.905 0 5.767 4.98.79 11.124.79s11.124 4.976 11.124 11.114c0 6.137-4.98 11.113-11.124 11.113z"/>
        <path fill="#FFF" d="M36.518 4.682h-5.195V18.57h5.195c8.45 0 8.826-13.888 0-13.888zm.282 17.67h-7.448c-1.033 0-2.16-.558-2.16-1.922V2.822C27.192 1.706 28.32.9 29.352.9h7.166c14.302 0 13.99 21.452.282 21.452zm28.365 0H53.398c-1.095 0-1.94-.837-1.94-1.922V2.822c0-1.116.845-1.922 1.94-1.922h11.235c2.88 0 2.817 4.03 0 4.03H55.62v4.65h7.886c2.786 0 2.786 4.06 0 4.06H55.62v4.65h9.545c2.848 0 3.067 4.062 0 4.062zm8.806-20.708l5.445 6.696 5.446-6.758c1.627-2.108 4.788.589 3.004 2.604-1.878 2.2-3.85 4.588-5.727 7.037l6.384 7.874c1.721 2.325-1.721 4.557-3.411 2.263l-5.759-7.316-5.664 7.47c-1.596 2.264-5.133-.278-3.349-2.386l6.29-7.905c-1.97-2.45-3.88-4.836-5.789-7.037-1.972-2.325 1.69-4.712 3.13-2.542z"/>
        <path fill="#00D8D0" d="M117.276.611l-1.326 5.713h-1.16c-.111-.945-.435-1.874-.973-2.789-.537-.914-1.103-1.412-1.696-1.492-.301-.04-.695-.075-1.183-.105a22.18 22.18 0 0 0-1.364-.046h-3.331l-1.975 8.517h2.126a5.6 5.6 0 0 0 1.56-.211c.487-.141.957-.397 1.409-.77.312-.25.653-.667 1.025-1.25.372-.583.633-1.09.784-1.523h1.145l-2.08 9h-1.13v-.468c0-.523-.053-1.023-.158-1.5-.106-.477-.219-.801-.34-.972a2.085 2.085 0 0 0-.957-.769c-.397-.16-.912-.241-1.545-.241h-2.125l-1.598 6.888a7.49 7.49 0 0 0-.098.483 2.28 2.28 0 0 0-.038.346c0 .453.186.784.558.995.372.211 1.08.372 2.126.483l-.257 1.1h-11.56l.255-1.1c.252-.01.626-.048 1.123-.113.498-.066.867-.139 1.108-.219.392-.13.691-.327.897-.588.206-.261.35-.568.43-.92l3.451-14.952c.05-.211.086-.387.106-.528.02-.14.03-.246.03-.316 0-.422-.213-.751-.64-.987-.428-.236-1.124-.425-2.088-.566l.256-1.1h19.233zm8.754 19.505h-.12a34.56 34.56 0 0 1-1.003.829 7.542 7.542 0 0 1-1.198.754 8.002 8.002 0 0 1-1.334.55 5.171 5.171 0 0 1-1.545.218c-1.749 0-3.065-.515-3.95-1.545-.884-1.03-1.326-2.44-1.326-4.228 0-1.376.246-2.668.739-3.874a10.807 10.807 0 0 1 1.974-3.18 9.42 9.42 0 0 1 2.924-2.148 8.15 8.15 0 0 1 3.528-.791c.904 0 1.695.105 2.374.316.678.211 1.233.498 1.665.86l4.628-.95.21.24-2.215 9.271c-.08.311-.166.7-.256 1.168-.09.467-.136.822-.136 1.063 0 .573.13.967.392 1.183.261.216.713.324 1.357.324.281 0 .62-.055 1.017-.166a7.15 7.15 0 0 0 .837-.271l-.332 1.357c-.995.392-1.791.69-2.39.896-.597.206-1.288.31-2.072.31-1.035 0-1.861-.204-2.48-.611-.617-.407-1.047-.932-1.288-1.575zm1.794-9.557c0-.22-.03-.482-.09-.783a1.97 1.97 0 0 0-.317-.77 1.738 1.738 0 0 0-.709-.595c-.291-.135-.653-.203-1.085-.203-.663 0-1.274.239-1.831.716-.558.477-1.053 1.113-1.485 1.907-.422.784-.754 1.695-.995 2.736a14.067 14.067 0 0 0-.362 3.188c0 .492.038.95.113 1.371.076.422.199.779.37 1.07.18.312.424.553.73.724.307.17.692.256 1.154.256.472 0 .927-.138 1.364-.414a6.072 6.072 0 0 0 1.213-1.018l1.93-8.185zm27.896 9.135l-.331 1.356a65.67 65.67 0 0 1-2.382.897c-.593.206-1.281.31-2.065.31-1.196 0-2.125-.3-2.789-.898-.663-.598-.994-1.339-.994-2.223 0-.241.012-.55.037-.927.025-.377.108-.847.249-1.41l1.085-4.009c.11-.432.194-.821.249-1.168a5.63 5.63 0 0 0 .083-.852c0-.482-.116-.859-.347-1.13-.23-.271-.623-.407-1.176-.407-.341 0-.829.133-1.462.4-.633.266-1.341.76-2.125 1.484L141.265 22h-4.99l2.141-9.27.234-1.1c.095-.453.143-.83.143-1.13 0-.574-.118-.968-.354-1.184-.236-.216-.666-.324-1.289-.324-.322 0-.65.05-.987.15-.337.101-.626.196-.867.287l.332-1.357a31.406 31.406 0 0 1 2.336-.851c.744-.236 1.447-.355 2.11-.355 1.186 0 2.073.234 2.66.701.588.468.978 1.123 1.169 1.967h.105c.985-.894 2.003-1.59 3.053-2.087a7.737 7.737 0 0 1 3.353-.746c1.116 0 1.988.306 2.616.92.628.612.942 1.356.942 2.23 0 .231-.018.555-.053.972a7.336 7.336 0 0 1-.249 1.334l-1.145 4.236c-.1.351-.191.753-.272 1.206-.08.452-.12.793-.12 1.025 0 .582.128.98.384 1.19.256.211.706.317 1.35.317.3 0 .642-.053 1.024-.158.382-.106.658-.199.83-.28zm6.493 2.698c-1.206 0-2.17-.294-2.894-.882-.724-.588-1.086-1.334-1.086-2.238 0-.372.026-.724.076-1.055.05-.332.13-.76.24-1.282l1.87-8.019h-2.758l.361-1.552h2.82l1.084-4.567h4.884l-1.055 4.567h4.085l-.362 1.552h-4.07l-1.839 8.02c-.07.28-.138.622-.203 1.024s-.098.664-.098.784c0 .573.158.97.475 1.191.316.221.801.332 1.454.332.312 0 .741-.06 1.289-.181.548-.12.932-.221 1.153-.302l-.332 1.357a16.22 16.22 0 0 1-2.66.92c-.89.22-1.7.33-2.434.33zm18.084-2.276h-.121c-.352.301-.686.578-1.002.829a7.542 7.542 0 0 1-1.199.754 8.002 8.002 0 0 1-1.334.55 5.171 5.171 0 0 1-1.545.218c-1.748 0-3.065-.515-3.949-1.545-.884-1.03-1.326-2.44-1.326-4.228 0-1.376.246-2.668.738-3.874a10.807 10.807 0 0 1 1.975-3.18 9.42 9.42 0 0 1 2.924-2.148 8.15 8.15 0 0 1 3.527-.791c.905 0 1.696.105 2.374.316.679.211 1.234.498 1.666.86l4.627-.95.211.24-2.215 9.271c-.08.311-.166.7-.257 1.168-.09.467-.135.822-.135 1.063 0 .573.13.967.392 1.183.26.216.713.324 1.356.324.282 0 .62-.055 1.018-.166a7.15 7.15 0 0 0 .836-.271l-.331 1.357c-.995.392-1.792.69-2.39.896-.597.206-1.288.31-2.072.31-1.035 0-1.862-.204-2.48-.611-.618-.407-1.047-.932-1.288-1.575zm1.793-9.557c0-.22-.03-.482-.09-.783a1.97 1.97 0 0 0-.317-.77 1.738 1.738 0 0 0-.708-.595c-.292-.135-.653-.203-1.085-.203-.664 0-1.274.239-1.832.716s-1.052 1.113-1.485 1.907c-.422.784-.753 1.695-.994 2.736a14.067 14.067 0 0 0-.362 3.188c0 .492.038.95.113 1.371.075.422.198.779.37 1.07.18.312.424.553.73.724.307.17.691.256 1.153.256.473 0 .927-.138 1.365-.414a6.072 6.072 0 0 0 1.213-1.018l1.93-8.185zm13.592 11.938c-1.266 0-2.313-.103-3.142-.309-.83-.206-1.485-.47-1.968-.79-.492-.322-.829-.667-1.01-1.033-.18-.367-.27-.711-.27-1.033 0-.583.218-1.093.655-1.53.437-.437 1.017-.656 1.74-.656.604 0 1.109.156 1.516.468.407.311.746.703 1.017 1.175.251.433.462.91.633 1.432.171.523.292.91.362 1.161 1.136 0 1.995-.244 2.578-.731.582-.487.874-1.153.874-1.997 0-.372-.088-.684-.264-.935a2.54 2.54 0 0 0-.7-.663 6.488 6.488 0 0 0-1.116-.528c-.453-.17-.9-.331-1.342-.482-1.216-.412-2.178-.982-2.886-1.71-.709-.73-1.063-1.636-1.063-2.721 0-.644.148-1.249.445-1.817.296-.568.76-1.093 1.394-1.575.623-.462 1.412-.831 2.366-1.108.955-.276 2.07-.414 3.347-.414.763 0 1.472.045 2.125.135a7.07 7.07 0 0 1 1.824.498c.532.24.947.555 1.243.942.297.387.445.856.445 1.41 0 .552-.208 1.027-.625 1.424-.418.397-.963.595-1.636.595-.583 0-1.068-.15-1.455-.452a3.749 3.749 0 0 1-.942-1.07 6.64 6.64 0 0 1-.572-1.304c-.141-.447-.257-.822-.347-1.123-.703.04-1.344.294-1.922.761-.578.467-.867 1.048-.867 1.74 0 .423.068.755.204.996.136.241.319.442.55.603.261.18.59.349.987.505.397.155.892.334 1.485.535 1.367.482 2.397 1.06 3.09 1.733.693.673 1.04 1.563 1.04 2.668 0 .724-.168 1.417-.505 2.08a4.517 4.517 0 0 1-1.44 1.658 7.699 7.699 0 0 1-2.396 1.093c-.904.246-2.055.37-3.452.37zm21.415-2.909h-.105c-1.136 1.035-2.18 1.754-3.135 2.156-.955.402-2.01.603-3.166.603-1.115 0-1.982-.312-2.6-.935a3.075 3.075 0 0 1-.927-2.246c0-.311.018-.628.053-.95.035-.32.128-.773.279-1.356l1.13-4.115c.07-.281.153-.666.249-1.153.095-.487.143-.847.143-1.078 0-.573-.113-.967-.34-1.183-.225-.216-.665-.324-1.318-.324-.322 0-.65.05-.987.15-.337.101-.626.197-.867.287l.332-1.357a31.406 31.406 0 0 1 2.336-.851c.744-.236 1.447-.354 2.11-.354 1.196 0 2.118.298 2.766.896.648.598.972 1.34.972 2.224 0 .18-.02.512-.06.995-.04.482-.12.929-.241 1.341l-1.1 3.92c-.1.35-.181.728-.242 1.13-.06.402-.09.693-.09.874 0 .502.123.884.37 1.145.245.262.635.392 1.167.392.443 0 1.003-.168 1.681-.505a7.307 7.307 0 0 0 1.877-1.349l2.29-10.807 4.779-.211.211.24-2.638 12.255c-.402 1.83-.964 3.34-1.688 4.53-.723 1.19-1.563 2.138-2.517 2.841a9.08 9.08 0 0 1-2.97 1.455 12.033 12.033 0 0 1-3.24.445c-1.196 0-2.188-.088-2.977-.264-.79-.176-1.405-.42-1.847-.731-.402-.282-.676-.596-.821-.942a2.615 2.615 0 0 1-.219-1.018c0-.583.206-1.1.618-1.552.412-.453.975-.679 1.688-.679a2.52 2.52 0 0 1 1.455.437c.427.292.801.644 1.123 1.056.311.391.59.826.836 1.303.247.478.435.867.566 1.169.18-.03.404-.093.67-.189.267-.095.49-.203.671-.324.261-.17.493-.342.694-.512.2-.171.432-.432.693-.784.502-.673.95-1.508 1.341-2.502.392-.995.724-2.186.995-3.573z"/>
    </g>
</svg>
