<svg xmlns="http://www.w3.org/2000/svg" width="21" height="18" viewBox="0 0 21 18">
    <g fill="#FF3282" fill-rule="evenodd">
        <path d="M19.731 13.803c.212.371.327.795.331 1.224.015 1.381-1.081 2.517-2.443 2.532H3.257a2.452 2.452 0 0 1-1.208-.336 2.484 2.484 0 0 1-1.151-1.52 2.517 2.517 0 0 1 .253-1.911L8.323 1.658l.002-.004c.206-.343.493-.634.831-.842a2.427 2.427 0 0 1 1.87-.291c.64.159 1.183.561 1.525 1.133l.002.004 7.172 12.134.006.01zm-2.126 2.18a.924.924 0 0 0 .902-.938.94.94 0 0 0-.12-.45L11.22 2.47a.91.91 0 0 0-1.564 0L2.489 14.595a.933.933 0 0 0 .338 1.264c.135.079.288.122.444.124h14.334z"/>
        <path d="M10.438 5.795c-.591 0-1.07.377-1.07.841v3.665c0 .465.479.841 1.07.841.59 0 1.069-.376 1.069-.841V6.636c0-.464-.479-.841-1.07-.841zM11.194 12.525a1.075 1.075 0 0 0-.757-.313c-.28 0-.557.114-.756.313-.198.199-.313.475-.313.756 0 .282.115.557.313.756.2.2.475.314.757.314.281 0 .557-.115.756-.314.199-.199.313-.474.313-.756 0-.281-.114-.557-.313-.756z"/>
    </g>
</svg>
