<svg xmlns="http://www.w3.org/2000/svg" width="38" height="32" viewBox="0 0 38 32">
    <g fill="#2EBEED" fill-rule="evenodd">
        <path d="M2.884.654C1.58.654.53 1.624.53 2.815v20.014c0 1.19 1.05 2.147 2.355 2.147H16.67v5.155h1.701v-5.155-.707a.822.822 0 0 0-.808-.833H3.54c-.825 0-1.492-.529-1.492-1.186V3.38c0-.658.667-1.186 1.492-1.186h31.363c.825 0 1.491.528 1.491 1.186v18.87c0 .657-.666 1.186-1.491 1.186H21.326a.774.774 0 0 0-.767.777c0 .425.344.763.767.763h14.218c1.306 0 2.37-.957 2.37-2.147V2.815c0-1.19-1.064-2.161-2.37-2.161H2.884z"/>
        <path d="M14.276 30.11a.774.774 0 0 0-.766.778c0 .425.343.762.766.762h7.416a.762.762 0 0 0 .767-.762.774.774 0 0 0-.767-.777h-7.415z"/>
        <g>
            <path d="M5.424 14.553H7.65v5.412H5.424zM8.92 9.56h2.225v6.765H8.919zM10.086 16.121v2.114M30.387 9.56h2.225v6.764h-2.225zM31.555 16.121v2.114M31.555 8.133v2.114M26.893 5.566h2.225v6.765h-2.225zM28.06 12.626v2.114M28.06 5.137v2.114M10.086 8.562v2.255M20.57 13.126v2.114M20.57 8.562v2.255M23.398 12.556h2.225v2.255h-2.225zM24.565 10.559v2.255M24.565 14.054v2.255M15.909 12.057h2.225v4.51H15.91zM17.076 15.622v2.114M17.076 10.559v2.255M6.591 12.556v2.255M6.591 18.048v2.255M19.903 10.559h2.225v3.157h-2.225zM12.414 9.56h2.225v3.157h-2.225zM13.581 11.628v2.114M13.581 7.135v2.113"/>
        </g>
    </g>
</svg>
