<svg xmlns="http://www.w3.org/2000/svg" width="32" height="35" viewBox="0 0 32 35">
    <g fill="#72747A" fill-rule="nonzero">
        <path d="M15.825 25.35c4.057 0 7.358-3.507 7.358-7.818 0-4.31-3.3-7.818-7.358-7.818-4.057 0-7.358 3.507-7.358 7.818 0 4.31 3.301 7.817 7.358 7.817zm0-14.235c3.33 0 6.04 2.879 6.04 6.417s-2.71 6.416-6.04 6.416-6.039-2.878-6.039-6.416c0-3.538 2.709-6.417 6.04-6.417z"/>
        <path d="M.497 21.078l3.729 1.005c.11.313.233.628.37.942l-1.97 3.515a.734.734 0 0 0 .1.854l3.817 4.055a.63.63 0 0 0 .804.107l3.308-2.093c.295.145.591.276.887.393l.945 3.962a.669.669 0 0 0 .64.528h5.397a.669.669 0 0 0 .639-.528l.945-3.962c.296-.117.593-.248.888-.393l3.308 2.093c.26.163.59.12.803-.107l3.817-4.055a.734.734 0 0 0 .1-.854l-1.97-3.515c.137-.314.26-.629.37-.942l3.73-1.005a.694.694 0 0 0 .497-.68v-5.734c0-.32-.205-.6-.497-.679l-3.73-1.004a13.64 13.64 0 0 0-.37-.943l1.97-3.515a.734.734 0 0 0-.1-.853l-3.817-4.056a.631.631 0 0 0-.803-.106L20.996 5.6c-.295-.145-.59-.276-.888-.393l-.945-3.962a.669.669 0 0 0-.64-.529h-5.396a.669.669 0 0 0-.64.529l-.945 3.962c-.297.117-.593.248-.887.393L7.347 3.508a.63.63 0 0 0-.804.106L2.726 7.67a.734.734 0 0 0-.1.853l1.97 3.515c-.137.314-.26.629-.37.943L.497 13.985a.694.694 0 0 0-.497.68v5.734c0 .32.205.6.497.679zm.822-5.869l3.573-.962a.677.677 0 0 0 .463-.456c.154-.488.349-.984.579-1.477a.739.739 0 0 0-.024-.67l-1.889-3.37 3.092-3.283 3.17 2.006c.193.121.43.131.632.025.459-.242.927-.45 1.39-.615a.686.686 0 0 0 .429-.492l.906-3.797h4.37l.906 3.797c.056.23.217.416.43.492.462.166.93.373 1.39.615.2.106.438.096.63-.025l3.171-2.006 3.092 3.284-1.889 3.37a.739.739 0 0 0-.024.67c.23.492.425.988.58 1.476a.677.677 0 0 0 .462.456l3.574.962v4.645l-3.574.963a.677.677 0 0 0-.463.456c-.153.486-.348.983-.579 1.476-.1.214-.09.466.024.67l1.888 3.37-3.09 3.284-3.171-2.007a.625.625 0 0 0-.631-.025c-.462.244-.93.45-1.39.615a.686.686 0 0 0-.43.492l-.906 3.797h-4.37l-.906-3.797a.686.686 0 0 0-.43-.492c-.46-.164-.928-.371-1.39-.615a.625.625 0 0 0-.63.025l-3.171 2.007-3.09-3.284 1.887-3.37a.739.739 0 0 0 .024-.67c-.23-.493-.426-.99-.579-1.476a.677.677 0 0 0-.463-.456l-3.573-.963v-4.645z"/>
    </g>
</svg>
