<svg xmlns="http://www.w3.org/2000/svg" width="32" height="27" viewBox="0 0 32 27">
    <g fill="#ADADAD" fill-rule="evenodd">
        <path d="M2.538.57C1.455.57.584 1.377.584 2.365V18.97c0 .988.87 1.781 1.954 1.781h11.439v4.278h1.41V20.75v-.586a.682.682 0 0 0-.67-.691H3.082c-.684 0-1.238-.439-1.238-.984V2.833c0-.546.554-.985 1.238-.985h26.023c.684 0 1.238.44 1.238.985V18.49c0 .545-.554.984-1.238.984H17.84a.642.642 0 0 0-.636.645c0 .352.285.632.636.632h11.797c1.084 0 1.966-.793 1.966-1.781V2.364c0-.988-.882-1.793-1.966-1.793H2.538z"/>
        <path d="M11.99 25.012a.642.642 0 0 0-.636.645c0 .353.285.633.636.633h6.154c.35 0 .636-.28.636-.633a.642.642 0 0 0-.636-.645H11.99z"/>
        <g>
            <path d="M4.646 12.104h1.846v4.49H4.646zM7.546 7.96h1.846v5.614H7.546zM8.514 13.405v1.754M25.359 7.96h1.846v5.614h-1.846zM26.327 13.405v1.754M26.327 6.777V8.53M22.459 4.647h1.846v5.612H22.46zM23.427 10.505v1.754M23.427 4.291v1.754M8.514 7.132v1.871M17.213 10.92v1.753M17.213 7.132v1.871M19.56 10.446h1.845v1.871H19.56zM20.527 8.79v1.87M20.527 11.69v1.87M13.345 10.032h1.847v3.742h-1.847zM14.313 12.99v1.754M14.313 8.79v1.87M5.614 10.446v1.871M5.614 15.003v1.871M16.66 8.79h1.846v2.619h-1.847zM10.445 7.96h1.847v2.62h-1.847zM11.414 9.676v1.754M11.414 5.948v1.754"/>
        </g>
    </g>
</svg>
