<?xml version="1.0" encoding="UTF-8"?>
<svg width="16px" height="17px" viewBox="0 0 16 17" version="1.1" xmlns="http://www.w3.org/2000/svg" xmlns:xlink="http://www.w3.org/1999/xlink">
    <!-- Generator: Sketch 52.6 (67491) - http://www.bohemiancoding.com/sketch -->
    <title>bank</title>
    <desc>Created with Sketch.</desc>
    <g id="-&gt;-TRADING-V2.1" stroke="none" stroke-width="1" fill="none" fill-rule="evenodd">
        <g id="Wallets" transform="translate(-969.000000, -302.000000)" fill="#FFFFFF">
            <g id="bank" transform="translate(969.500000, 301.566406)">
                <g id="Group">
                    <polygon id="Path" points="14.2586202 15.7058914 14.2586202 14.571912 1.15458466 14.571912 1.15458466 15.7058914 0.215948721 15.7058914 0.215948721 16.8398708 15.1972561 16.8398708 15.1972561 15.7058914"></polygon>
                    <polygon id="Path" points="4.89888741 8.01564336 4.89888741 7.21927854 4.47155761 7.21927854 2.10532363 7.21927854 1.67799383 7.21927854 1.67799383 8.01564336 2.10532363 8.01564336 2.10532363 13.3584206 1.67799383 13.3584206 1.67799383 14.1547854 2.10532363 14.1547854 4.47155761 14.1547854 4.89888741 14.1547854 4.89888741 13.3584206 4.47155761 13.3584206 4.47155761 8.01564336"></polygon>
                    <polygon id="Path" points="13.735211 8.01564336 13.735211 7.21927854 13.3078812 7.21927854 10.9416472 7.21927854 10.5143174 7.21927854 10.5143174 8.01564336 10.9416472 8.01564336 10.9416472 13.3584206 10.5143174 13.3584206 10.5143174 14.1547854 10.9416472 14.1547854 13.3078812 14.1547854 13.735211 14.1547854 13.735211 13.3584206 13.3078812 13.3584206 13.3078812 8.01564336"></polygon>
                    <polygon id="Path" points="7.87939633 0.83608631 0.0802086691 5.42643489 0.0802086691 6.77618165 15.3329962 6.77618165 15.3329962 5.42643489"></polygon>
                    <path d="M7.71423663,10.2355748 C7.39024803,10.2355748 7.13180195,9.96893398 7.12621594,9.62829546 C7.12360913,9.28712331 7.3742348,9.00856461 7.68518937,9.00589642 C7.97584811,9.00589642 8.22088777,9.23642776 8.25663823,9.54184621 L8.27823747,9.72363867 L9.12228364,9.71563411 L9.10515321,9.49968886 C9.05878932,8.91126473 8.71450488,8.41462623 8.20617794,8.20348371 L8.09818174,8.15865817 L8.08831312,7.46475172 C8.08645112,7.33934694 7.97882732,7.23884524 7.84755608,7.2400904 L7.4816724,7.24364798 C7.35021495,7.24489313 7.24463936,7.34770726 7.24575656,7.47328992 L7.25208737,8.16719637 L7.14502217,8.21415646 C6.61323399,8.44788962 6.27472176,9.00500703 6.28310077,9.6339876 C6.28756958,10.0315474 6.43355065,10.407406 6.69441734,10.6921905 C6.95770462,10.9807104 7.3237745,11.1459601 7.6985958,11.1459601 C8.0225844,11.1459601 8.28084428,11.4093991 8.28661649,11.7457685 C8.28922329,12.0871185 8.03841143,12.3656772 7.72745685,12.3681676 C7.43698431,12.3681676 7.19194466,12.1378141 7.15619419,11.8323956 L7.13459495,11.6504253 L6.2957624,11.6584299 L6.31103083,11.8729521 C6.3532983,12.461732 6.69404494,12.9617502 7.20013747,13.1775175 L7.30627167,13.2228767 L7.31595409,13.9093123 C7.31781609,14.034717 7.42543989,14.1352187 7.55671114,14.1339736 L7.92259481,14.130416 C8.05423846,14.1291708 8.15981405,14.0263567 8.15851065,13.9005962 L8.15199364,13.2143385 L8.25812784,13.1668448 C8.79550203,12.9270637 9.13755207,12.3669224 9.12917305,11.7400764 C9.12060784,10.9104482 8.48566466,10.2355748 7.71423663,10.2355748 Z" id="Path"></path>
                </g>
            </g>
        </g>
    </g>
</svg>