<svg xmlns="http://www.w3.org/2000/svg" width="220" height="25" viewBox="0 0 220 25">
    <g fill="none" fill-rule="evenodd">
        <path fill="#66D7D7" d="M10.19 20.416l-.01-7.223a1.852 1.852 0 0 1 3.703-.09l.009 7.338a7.86 7.86 0 1 0-3.703-.025zm1.903 4.464C5.414 24.88 0 19.466 0 12.787S5.414.694 12.093.694s12.093 5.414 12.093 12.093c0 6.68-5.414 12.093-12.093 12.093z"/>
        <path fill="#FFF" d="M111.306 2.331h-1.943v5.242h1.943c3.159 0 3.299-5.242 0-5.242zM111.41 9h-2.785c-.386 0-.807-.21-.807-.725V1.629c0-.421.421-.725.807-.725h2.68c5.347 0 5.23 8.096.105 8.096zm11.645 0h-4.4a.714.714 0 0 1-.725-.725V1.629c0-.421.316-.725.726-.725h4.2c1.077 0 1.053 1.52 0 1.52h-3.37V4.18h2.949c1.041 0 1.041 1.532 0 1.532h-2.948v1.755h3.568c1.065 0 1.147 1.533 0 1.533zm7.188.082c-2.832 0-4.107-1.93-4.107-4.189 0-2.258 1.416-4.2 4.107-4.2 1.017 0 1.825.304 2.679 1.041a.798.798 0 0 1 .035 1.135.793.793 0 0 1-1.076-.035c-.48-.503-.972-.643-1.638-.643-1.802 0-2.668 1.275-2.668 2.702 0 1.451.854 2.785 2.668 2.785.666 0 1.287-.27 1.825-.749.362-.28.866-.14 1.076.14.187.258.281.69-.129 1.1-.819.76-1.801.913-2.772.913zM141.07 9h-4.4a.714.714 0 0 1-.725-.725V1.629c0-.421.316-.725.726-.725h4.2c1.076 0 1.053 1.52 0 1.52h-3.37V4.18h2.949c1.041 0 1.041 1.532 0 1.532H137.5v1.755h3.569c1.064 0 1.146 1.533 0 1.533zm3.385-.807v-6.47c0-.422.093-.831.702-.831.421 0 .515.105.83.41l3.873 4.843v-4.54c0-.385.34-.807.737-.807.421 0 .831.422.831.808v6.587c0 .515-.316.713-.62.807-.41 0-.609-.094-.948-.41l-3.873-4.913v4.516c0 .515-.315.807-.737.807-.42 0-.795-.292-.795-.807zm12.09.082V2.366h-2.048c-1.018 0-1.018-1.497 0-1.497h5.534c1.041 0 1.041 1.497 0 1.497h-1.942v5.909c0 1.018-1.544 1.04-1.544 0zm8.228-2.153V8.24c0 1.017-1.556 1.053-1.556.023V1.617a.7.7 0 0 1 .702-.713h3.112c2.972 0 3.58 3.978 1.1 4.972l1.556 1.896c.609.9-.608 1.766-1.31.877l-1.767-2.527h-1.837zm0-3.803v2.457h2.258c1.521 0 1.615-2.457 0-2.457h-2.258zm8.522 6.283c-.188.398-.62.48-1.042.398-.374-.21-.608-.632-.374-1.123l3.358-6.564c.316-.62 1.158-.643 1.45 0l3.3 6.564c.48.912-.936 1.638-1.357.725l-.515-1.03h-4.317l-.503 1.03zm1.228-2.574h2.761l-1.322-2.89-1.439 2.89zm7.82 2.258v-6.68a.73.73 0 0 1 .737-.714c.374 0 .69.328.69.714v5.861h3.182c1.147 0 1.17 1.533 0 1.533h-3.872c-.41 0-.738-.292-.738-.714zm8.053 0v-6.68c0-.96 1.544-.995 1.544 0v6.68c0 .971-1.544.995-1.544 0zM200.18 9h-5.055c-.737 0-1.03-.714-.608-1.217l4.165-5.534h-3.451c-1.018 0-.936-1.439 0-1.439h4.715c.889 0 1.146.842.514 1.521l-3.99 5.183h3.803c.936 0 1.053 1.486-.093 1.486zm8.322 0h-4.4a.714.714 0 0 1-.725-.725V1.629c0-.421.316-.725.726-.725h4.2c1.077 0 1.053 1.52 0 1.52h-3.37V4.18h2.949c1.041 0 1.041 1.532 0 1.532h-2.948v1.755h3.568c1.065 0 1.147 1.533 0 1.533zm6.86-6.669h-1.942v5.242h1.942c3.159 0 3.3-5.242 0-5.242zM215.468 9h-2.784c-.386 0-.808-.21-.808-.725V1.629c0-.421.422-.725.808-.725h2.679c5.347 0 5.23 8.096.105 8.096zM112.932 24h-4.4a.714.714 0 0 1-.725-.725v-6.646c0-.421.316-.725.726-.725h4.2c1.076 0 1.053 1.52 0 1.52h-3.37v1.756h2.949c1.041 0 1.041 1.532 0 1.532h-2.949v1.755h3.569c1.065 0 1.147 1.533 0 1.533zm4.333-7.816l2.035 2.528 2.036-2.551c.609-.796 1.79.222 1.123.983-.702.83-1.439 1.731-2.14 2.656l2.386 2.972c.644.877-.643 1.72-1.275.854l-2.153-2.762-2.118 2.82c-.596.854-1.919-.105-1.252-.9l2.352-2.984c-.737-.925-1.45-1.825-2.164-2.656-.738-.878.631-1.779 1.17-.96zm11.692 7.898c-2.832 0-4.107-1.93-4.107-4.189 0-2.258 1.416-4.2 4.107-4.2 1.017 0 1.825.304 2.679 1.041a.798.798 0 0 1 .035 1.135.793.793 0 0 1-1.076-.035c-.48-.503-.972-.643-1.638-.643-1.802 0-2.668 1.275-2.668 2.702 0 1.451.854 2.785 2.668 2.785.666 0 1.287-.27 1.825-.749.362-.28.866-.14 1.076.14.187.258.281.69-.129 1.1-.819.76-1.801.913-2.772.913zm6.555-.082c-.526 0-.83-.316-.83-.725v-6.646c0-.421.304-.725.83-.725.41 0 .714.304.714.725v2.55h3.814v-2.55c0-.421.375-.725.796-.725.41 0 .725.304.725.725v6.646c0 .41-.316.725-.725.725-.421 0-.796-.316-.796-.725v-2.563h-3.814v2.563c0 .41-.304.725-.714.725zm9.844-.398c-.188.398-.62.48-1.042.398-.374-.21-.608-.632-.374-1.123l3.358-6.564c.316-.62 1.158-.643 1.45 0l3.3 6.564c.48.912-.936 1.638-1.357.725l-.515-1.03h-4.317l-.503 1.03zm1.228-2.574h2.761l-1.322-2.89-1.439 2.89zm7.831 2.165v-6.47c0-.422.094-.831.702-.831.421 0 .515.105.83.41l3.874 4.843v-4.54c0-.386.339-.807.737-.807.42 0 .83.421.83.808v6.587c0 .515-.316.713-.62.807-.41 0-.608-.094-.947-.41l-3.873-4.913v4.516c0 .515-.316.807-.737.807s-.796-.292-.796-.807zm17.086-.726c0 .21-.094.41-.293.632-.83.69-1.848.983-2.878.983-2.457 0-4.2-1.404-4.2-4.189 0-2.363 1.837-4.2 4.305-4.2.925 0 1.943.316 2.668 1.03.714.702-.316 1.743-1.018 1.123-.433-.421-1.041-.737-1.65-.737-1.415 0-2.784 1.135-2.784 2.784 0 1.732 1.146 2.785 2.68 2.785.713 0 1.321-.21 1.754-.527v-1.439h-1.755c-1.041 0-.936-1.427 0-1.427h2.34c.433 0 .83.328.83.69v2.492zM179.6 24h-4.4a.714.714 0 0 1-.725-.725v-6.646c0-.421.316-.725.726-.725h4.2c1.076 0 1.053 1.52 0 1.52h-3.37v1.756h2.949c1.041 0 1.041 1.532 0 1.532h-2.949v1.755h3.569c1.065 0 1.147 1.533 0 1.533z" opacity=".319"/>
        <path fill="#FFF" d="M39.402 4.791h-5.595v15.098h5.595c9.099 0 9.503-15.098 0-15.098zM39.705 24h-8.02c-1.113 0-2.326-.607-2.326-2.09V2.77c0-1.213 1.213-2.09 2.325-2.09h7.718C54.802.68 54.465 24 39.705 24zm30.544 0H57.58c-1.18 0-2.09-.91-2.09-2.09V2.77c0-1.213.91-2.09 2.09-2.09h12.098c3.1 0 3.032 4.382 0 4.382H59.97v5.055h8.492c3 0 3 4.414 0 4.414h-8.492v5.055h10.278c3.067 0 3.303 4.415 0 4.415zm9.482-22.512l5.864 7.28L91.46 1.42c1.752-2.292 5.156.64 3.235 2.83-2.022 2.394-4.145 4.988-6.167 7.65l6.875 8.56c1.853 2.528-1.854 4.954-3.673 2.46l-6.201-7.953-6.1 8.122c-1.719 2.46-5.527-.303-3.606-2.595l6.774-8.593c-2.123-2.663-4.179-5.257-6.235-7.65-2.123-2.528 1.82-5.123 3.37-2.764z"/>
    </g>
</svg>
