<svg xmlns="http://www.w3.org/2000/svg" width="27" height="28" viewBox="0 0 27 28">
    <g fill="#ADADAD" fill-rule="evenodd" transform="translate(.55 .339)">
        <path d="M13.076 12.152a7.216 7.216 0 0 1-1.865-.243c-.348-.093-.538-.4-.424-.684.114-.285.49-.44.838-.347.467.125.955.189 1.45.189 2.58 0 4.68-1.714 4.68-3.82 0-2.107-2.1-3.821-4.68-3.821-2.58 0-4.678 1.714-4.678 3.82 0 .334.053.665.158.984.094.29-.116.587-.47.664-.355.078-.72-.094-.814-.384a4.058 4.058 0 0 1-.203-1.264c0-2.705 2.695-4.905 6.008-4.905 3.312 0 6.007 2.2 6.007 4.905s-2.695 4.906-6.007 4.906z"/>
        <path d="M13.076 14.448c-.339 0-.68-.016-1.015-.048-.364-.034-.626-.303-.584-.6.041-.298.37-.512.735-.477.285.026.575.04.864.04 4.13 0 7.49-2.744 7.49-6.117 0-3.372-3.36-6.116-7.49-6.116-4.13 0-7.49 2.744-7.49 6.116 0 1.677.814 3.242 2.292 4.406.264.207.272.55.018.766a.774.774 0 0 1-.94.015c-1.74-1.37-2.7-3.212-2.7-5.187 0-3.97 3.957-7.201 8.82-7.201s8.819 3.23 8.819 7.201c0 3.971-3.956 7.202-8.82 7.202z"/>
        <path fill-rule="nonzero" d="M14.015 16.493h-1.92a.746.746 0 0 1-.47-.16.496.496 0 0 1-.193-.387l.02-2.092a.507.507 0 0 1 .226-.402.77.77 0 0 1 .517-.132 9.215 9.215 0 0 0 1.764 0 .768.768 0 0 1 .52.135.504.504 0 0 1 .222.408l-.022 2.092c-.003.298-.3.538-.664.538zm-1.25-1.085h.591l.01-.964a10.35 10.35 0 0 1-.59 0l-.01.964z"/>
        <path d="M13.01 26.735c-2.015 0-3.654-1.288-3.654-2.872v-7.912c0-.3.297-.543.664-.543H16c.367 0 .664.243.664.543v.542c0 .3-.297.542-.664.542-.367 0-.664-.242-.665-.542h-4.65v7.37c0 .985 1.043 1.787 2.325 1.787 1.282 0 2.325-.802 2.325-1.787v-3.03c0-.3.298-.543.665-.543.366 0 .664.243.664.542v3.031c0 1.584-1.64 2.872-3.654 2.872z"/>
        <ellipse cx="13.009" cy="23.099" rx="1" ry="1"/>
        <path d="M11.35 9.266a.715.715 0 0 1-.554-.241L9.467 7.397c-.203-.249-.12-.586.185-.752.305-.166.717-.099.92.15l.985 1.207 4.112-1.919c.318-.148.724-.058.906.202.182.26.072.591-.247.74l-4.65 2.17a.778.778 0 0 1-.329.071z"/>
        <path fill-rule="nonzero" d="M7.363 22.828H4.04c-.366 0-.664-.243-.664-.543 0-.3.298-.542.664-.542h3.322c.367 0 .664.242.664.542 0 .3-.297.543-.664.543zM.72 21.2c-.367 0-.664-.243-.664-.542V1.672c0-.3.297-.542.664-.542h3.321c.367 0 .665.243.665.542 0 .3-.298.543-.665.543H1.384v18.443c0 .3-.297.542-.664.542zM21.977 22.828h-3.321c-.367 0-.665-.243-.665-.543 0-.3.298-.542.665-.542h3.321c.367 0 .665.242.665.542 0 .3-.298.543-.665.543zM25.3 21.2c-.367 0-.665-.243-.665-.542V2.215h-2.657c-.367 0-.664-.243-.664-.543 0-.3.297-.542.664-.542H25.3c.366 0 .664.243.664.542v18.986c0 .3-.298.542-.664.542z"/>
        <path d="M2.713 17.403h1.329v1.085H2.713zM4.706 17.403h1.329v1.085H4.706zM6.699 17.403h1.329v1.085H6.699zM17.991 17.403h1.329v1.085h-1.329zM19.984 17.403h1.329v1.085h-1.329zM21.977 17.403h1.329v1.085h-1.329z"/>
    </g>
</svg>
