<svg xmlns="http://www.w3.org/2000/svg" width="16" height="19" viewBox="0 0 16 19">
    <path fill="#5045D2" fill-rule="nonzero" d="M7.574 0c3.625 0 6.06 2.349 6.06 5.846H11.74c0-2.22-1.865-4.02-4.166-4.02s-4.166 1.8-4.166 4.02H1.515C1.515 2.35 3.949 0 7.574 0zm7.574 16.808c0 1.21-1.018 2.192-2.272 2.192H2.272C1.018 19 0 18.018 0 16.808V9.5c0-1.21 1.018-2.192 2.272-2.192h10.604c1.254 0 2.272.982 2.272 2.192v7.308zm-7.574-6.646c-1.007 0-1.822.757-1.822 1.69 0 .624.368 1.162.91 1.455v1.924c0 .466.41.846.912.846.501 0 .912-.38.912-.845V13.31c.542-.294.912-.832.912-1.456-.002-.934-.817-1.69-1.824-1.69z"/>
</svg>
