<svg xmlns="http://www.w3.org/2000/svg" width="182" height="21" viewBox="0 0 182 21">
    <g fill="none" fill-rule="evenodd">
        <path fill="#66D7D7" d="M133.836 4.11h-4.417v11.77h4.417c7.185 0 7.504-11.77 0-11.77zm.24 14.976h-6.334c-.878 0-1.836-.473-1.836-1.629V2.534c0-.946.958-1.63 1.836-1.63h6.094c12.16 0 11.894 18.182.24 18.182zm24.795-.092h-10.005c-.931 0-1.65-.71-1.65-1.629V2.442c0-.946.719-1.63 1.65-1.63h9.553c2.448 0 2.395 3.416 0 3.416h-7.664V8.17h6.706c2.368 0 2.368 3.441 0 3.441h-6.706v3.941h8.116c2.422 0 2.608 3.442 0 3.442zM169.23 1.535l4.63 5.676 4.63-5.728c1.384-1.787 4.072.499 2.555 2.207a148.641 148.641 0 0 0-4.87 5.964l5.429 6.674c1.463 1.97-1.464 3.862-2.9 1.918l-4.897-6.201-4.816 6.332c-1.357 1.918-4.364-.237-2.847-2.023l5.348-6.7c-1.676-2.076-3.3-4.099-4.923-5.964-1.676-1.97 1.437-3.994 2.661-2.155z"/>
        <g fill="#FFF">
            <path d="M47.318 18.667c-.42.881-1.395 1.063-2.343.881-.842-.466-1.369-1.399-.842-2.487l7.556-14.536c.711-1.373 2.607-1.425 3.265 0l7.425 14.536c1.08 2.021-2.106 3.627-3.054 1.606l-1.159-2.28h-9.715l-1.133 2.28zm2.765-5.7h6.214l-2.975-6.4-3.239 6.4zM66.459 17.8V3.28c0-.946.209-1.865 1.567-1.865.94 0 1.149.236 1.854.92l8.644 10.87V3.017c0-.867.757-1.812 1.645-1.812.94 0 1.854.945 1.854 1.812V17.8c0 1.155-.705 1.602-1.384 1.812-.914 0-1.358-.21-2.115-.92L69.88 7.666V17.8c0 1.155-.705 1.812-1.645 1.812-.94 0-1.776-.657-1.776-1.812zM92.171 17.9V4.796h-4.58c-2.277 0-2.277-3.321 0-3.321h12.38c2.33 0 2.33 3.32 0 3.32h-4.345V17.9c0 2.258-3.455 2.31-3.455 0zM36.622 12.63V3.27c0-2.301 3.44-2.482 3.44 0v9.36c0 9.67-15.835 9.67-15.835 0V3.27c0-2.327 3.44-2.43 3.44 0v9.36c0 5.094 8.955 5.404 8.955 0zM106.774 18.397c-.42.88-1.395 1.062-2.343.88-.842-.466-1.369-1.398-.842-2.487l7.556-14.535c.711-1.374 2.607-1.426 3.265 0l7.425 14.535c1.08 2.021-2.106 3.628-3.054 1.607l-1.159-2.28h-9.715l-1.133 2.28zm2.765-5.7h6.214l-2.975-6.4-3.239 6.4zM10.312 20.424c-5.382 0-9.744-4.363-9.744-9.745C.568 5.297 4.93.934 10.312.934s9.745 4.363 9.745 9.745c0 5.382-4.363 9.745-9.745 9.745zm0-3.41a6.334 6.334 0 1 0 0-12.669 6.334 6.334 0 0 0 0 12.668z"/>
            <path d="M8.633 10.582a1.46 1.46 0 0 1 1.455-1.506c.831-.012 1.528.643 1.556 1.463l.077 7.14a1.46 1.46 0 0 1-1.455 1.506c-.831.012-1.528-.643-1.556-1.463l-.077-7.14z"/>
        </g>
    </g>
</svg>
