<svg xmlns="http://www.w3.org/2000/svg" width="364" height="46" viewBox="0 0 364 46">
    <g fill="none" fill-rule="evenodd">
        <path fill="#00D8D0" d="M15.166 29.354l-.013-10.75a2.756 2.756 0 0 1 5.512-.134l.012 10.922C25.85 28.182 29.7 23.541 29.7 18c0-6.462-5.238-11.7-11.7-11.7-6.462 0-11.7 5.238-11.7 11.7 0 5.484 3.774 10.088 8.866 11.354zM18 36C8.059 36 0 27.941 0 18S8.059 0 18 0s18 8.059 18 18-8.059 18-18 18z"/>
        <path fill="#0B0B0B" d="M59.09 6.301h-8.406v22.494h8.407c13.672 0 14.28-22.494 0-22.494zm.456 28.62H47.494c-1.671 0-3.494-.904-3.494-3.113V3.288C44 1.482 45.823.177 47.494.177h11.597c23.142 0 22.636 34.745.455 34.745zm45.899 0h-19.04c-1.773 0-3.14-1.356-3.14-3.113V3.288c0-1.807 1.367-3.112 3.14-3.112h18.179c4.659 0 4.557 6.527 0 6.527H90v7.531h12.76c4.508 0 4.508 6.578 0 6.578H90v7.531h15.445c4.608 0 4.962 6.578 0 6.578zm14.248-33.54l8.811 10.845 8.812-10.946c2.633-3.414 7.748.954 4.861 4.218-3.038 3.565-6.229 7.431-9.267 11.398l10.33 12.753c2.786 3.766-2.785 7.38-5.52 3.665l-9.317-11.85-9.166 12.101c-2.582 3.666-8.305-.452-5.418-3.866l10.178-12.803c-3.19-3.967-6.279-7.833-9.368-11.398-3.19-3.766 2.735-7.632 5.064-4.117z"/>
        <path fill="#00D8D0" d="M189.7.356L187.55 9.61h-1.88c-.179-1.53-.703-3.035-1.574-4.516-.871-1.481-1.787-2.287-2.747-2.417a28.348 28.348 0 0 0-1.916-.171 35.925 35.925 0 0 0-2.21-.073h-5.395l-3.199 13.794h3.443c.895 0 1.737-.114 2.527-.342.79-.228 1.55-.643 2.282-1.245.505-.407 1.058-1.083 1.66-2.027.603-.944 1.026-1.766 1.27-2.466h1.856l-3.37 14.576h-1.83v-.757c0-.847-.086-1.656-.257-2.43-.17-.772-.354-1.297-.55-1.574a3.377 3.377 0 0 0-1.55-1.245c-.643-.26-1.477-.39-2.502-.39h-3.442l-2.588 11.156c-.065.277-.118.538-.159.782-.04.244-.061.431-.061.561 0 .733.301 1.27.903 1.612.602.341 1.75.602 3.443.78L169.29 35h-18.726l.415-1.782a22.056 22.056 0 0 0 1.819-.183c.806-.106 1.404-.224 1.794-.354.635-.212 1.12-.53 1.453-.952a3.7 3.7 0 0 0 .696-1.49l5.59-24.218a9.81 9.81 0 0 0 .172-.855c.032-.228.048-.399.048-.513 0-.683-.346-1.216-1.037-1.599-.692-.382-1.82-.687-3.382-.915l.415-1.783H189.7zm14.178 31.592h-.196c-.57.489-1.11.936-1.623 1.343-.513.407-1.16.814-1.941 1.22a12.96 12.96 0 0 1-2.16.892c-.757.236-1.592.354-2.503.354-2.832 0-4.964-.834-6.397-2.503-1.432-1.668-2.148-3.95-2.148-6.848 0-2.23.399-4.321 1.196-6.274.798-1.953 1.864-3.67 3.199-5.152a15.256 15.256 0 0 1 4.736-3.479 13.2 13.2 0 0 1 5.713-1.281c1.465 0 2.746.17 3.845.512 1.099.342 1.998.806 2.698 1.392l7.495-1.538.342.39-3.59 15.015a32.48 32.48 0 0 0-.414 1.892c-.147.757-.22 1.33-.22 1.721 0 .928.212 1.567.635 1.917.423.35 1.155.525 2.197.525.456 0 1.005-.09 1.648-.269.643-.179 1.095-.325 1.355-.44l-.537 2.198a100.11 100.11 0 0 1-3.87 1.453c-.968.333-2.087.5-3.357.5-1.676 0-3.015-.33-4.016-.988-1-.66-1.697-1.51-2.087-2.552zm2.905-15.478c0-.358-.049-.782-.146-1.27-.098-.488-.269-.903-.513-1.245a2.815 2.815 0 0 0-1.148-.964c-.472-.22-1.058-.33-1.757-.33-1.075 0-2.063.387-2.967 1.16-.903.773-1.705 1.802-2.405 3.088-.683 1.27-1.22 2.747-1.61 4.431a22.783 22.783 0 0 0-.587 5.164c0 .797.061 1.538.183 2.222.122.683.322 1.261.598 1.733a3.09 3.09 0 0 0 1.185 1.172c.496.277 1.119.415 1.867.415.765 0 1.502-.224 2.21-.671a9.835 9.835 0 0 0 1.965-1.648l3.125-13.257zm45.184 14.795l-.537 2.197a106.363 106.363 0 0 1-3.858 1.453c-.96.333-2.075.5-3.344.5-1.937 0-3.443-.484-4.517-1.453-1.074-.968-1.611-2.168-1.611-3.6 0-.391.02-.892.06-1.502.041-.61.176-1.371.404-2.283l1.757-6.494c.18-.7.314-1.33.403-1.892a9.12 9.12 0 0 0 .134-1.38c0-.78-.187-1.391-.561-1.83-.374-.44-1.01-.66-1.904-.66-.554 0-1.343.216-2.368.647-1.026.432-2.173 1.233-3.443 2.405L228.554 35h-8.081l3.467-15.015.378-1.782c.155-.732.232-1.343.232-1.83 0-.929-.191-1.567-.574-1.917-.382-.35-1.078-.525-2.087-.525-.521 0-1.054.081-1.6.244-.545.163-1.013.317-1.403.464l.537-2.198a50.868 50.868 0 0 1 3.784-1.379c1.205-.382 2.344-.574 3.418-.574 1.92 0 3.357.379 4.31 1.136.951.756 1.582 1.818 1.891 3.186h.171c1.595-1.449 3.243-2.576 4.944-3.382a12.531 12.531 0 0 1 5.432-1.208c1.807 0 3.219.496 4.236 1.489 1.017.993 1.526 2.197 1.526 3.613 0 .375-.029.9-.086 1.575a11.882 11.882 0 0 1-.402 2.16l-1.856 6.861c-.163.57-.31 1.22-.44 1.953-.13.733-.195 1.286-.195 1.66 0 .944.208 1.587.623 1.929.415.342 1.143.513 2.185.513.488 0 1.042-.086 1.66-.257.619-.17 1.066-.321 1.343-.451zm10.516 4.37c-1.953 0-3.516-.476-4.688-1.428-1.172-.953-1.758-2.161-1.758-3.626 0-.602.041-1.172.123-1.709a37.85 37.85 0 0 1 .39-2.075l3.028-12.988h-4.468l.586-2.515h4.565l1.758-7.398h7.91l-1.709 7.398h6.616l-.586 2.515h-6.591l-2.979 12.988c-.114.456-.224 1.009-.33 1.66-.105.651-.158 1.074-.158 1.27 0 .927.256 1.57.769 1.928.513.358 1.298.537 2.356.537.504 0 1.2-.097 2.087-.293.887-.195 1.51-.358 1.868-.488l-.537 2.197a26.272 26.272 0 0 1-4.31 1.49c-1.44.358-2.754.537-3.942.537zm29.29-3.687h-.195c-.57.489-1.111.936-1.624 1.343-.512.407-1.16.814-1.94 1.22a12.96 12.96 0 0 1-2.161.892c-.757.236-1.591.354-2.503.354-2.832 0-4.964-.834-6.396-2.503-1.433-1.668-2.149-3.95-2.149-6.848 0-2.23.4-4.321 1.197-6.274.797-1.953 1.863-3.67 3.198-5.152a15.256 15.256 0 0 1 4.736-3.479 13.2 13.2 0 0 1 5.713-1.281c1.465 0 2.747.17 3.845.512 1.099.342 1.998.806 2.698 1.392l7.495-1.538.342.39-3.589 15.015a32.48 32.48 0 0 0-.415 1.892c-.146.757-.22 1.33-.22 1.721 0 .928.212 1.567.635 1.917.423.35 1.156.525 2.197.525.456 0 1.005-.09 1.648-.269.643-.179 1.095-.325 1.355-.44l-.537 2.198a100.111 100.111 0 0 1-3.87 1.453c-.968.333-2.087.5-3.356.5-1.677 0-3.016-.33-4.017-.988-1-.66-1.696-1.51-2.087-2.552zm2.905-15.478c0-.358-.048-.782-.146-1.27-.098-.488-.269-.903-.513-1.245a2.815 2.815 0 0 0-1.147-.964c-.472-.22-1.058-.33-1.758-.33-1.074 0-2.063.387-2.966 1.16-.904.773-1.705 1.802-2.405 3.088-.684 1.27-1.22 2.747-1.612 4.431a22.783 22.783 0 0 0-.585 5.164c0 .797.06 1.538.183 2.222.122.683.321 1.261.598 1.733a3.09 3.09 0 0 0 1.184 1.172c.496.277 1.119.415 1.868.415.765 0 1.501-.224 2.209-.671a9.835 9.835 0 0 0 1.965-1.648l3.125-13.257zm22.015 19.336c-2.05 0-3.747-.167-5.09-.5-1.343-.334-2.405-.762-3.186-1.283-.798-.52-1.343-1.078-1.636-1.672-.293-.594-.44-1.151-.44-1.672 0-.944.355-1.77 1.063-2.478.708-.708 1.648-1.062 2.82-1.062.976 0 1.794.252 2.453.757a6.343 6.343 0 0 1 1.648 1.904c.407.7.749 1.473 1.025 2.32.277.845.472 1.472.586 1.879 1.84 0 3.231-.395 4.175-1.184.944-.79 1.416-1.868 1.416-3.235 0-.602-.142-1.107-.427-1.514a4.113 4.113 0 0 0-1.135-1.074c-.472-.293-1.074-.578-1.807-.854a70.734 70.734 0 0 0-2.173-.782c-1.97-.667-3.528-1.59-4.675-2.77-1.148-1.18-1.721-2.65-1.721-4.407 0-1.042.24-2.023.72-2.942.48-.92 1.233-1.77 2.258-2.551 1.01-.75 2.287-1.347 3.833-1.795 1.547-.447 3.353-.671 5.42-.671 1.237 0 2.385.073 3.443.22a11.45 11.45 0 0 1 2.954.805c.862.39 1.534.9 2.014 1.526.48.627.72 1.388.72 2.283s-.338 1.664-1.013 2.307c-.676.643-1.559.964-2.649.964-.944 0-1.73-.244-2.356-.732a6.072 6.072 0 0 1-1.526-1.734c-.39-.683-.7-1.387-.928-2.111-.227-.725-.415-1.331-.561-1.82-1.14.066-2.177.477-3.113 1.234-.936.756-1.404 1.696-1.404 2.82 0 .683.11 1.22.33 1.61.22.391.517.717.891.977.423.293.956.566 1.6.818a55.77 55.77 0 0 0 2.404.867c2.213.781 3.882 1.717 5.005 2.808 1.123 1.09 1.684 2.53 1.684 4.32a7.35 7.35 0 0 1-.818 3.37 7.316 7.316 0 0 1-2.331 2.686c-1.123.78-2.417 1.37-3.882 1.77-1.465.398-3.328.598-5.59.598zm34.686-4.712h-.17c-1.84 1.676-3.533 2.84-5.079 3.491-1.546.651-3.255.977-5.127.977-1.807 0-3.21-.505-4.211-1.514-1.001-1.01-1.502-2.222-1.502-3.638 0-.504.029-1.017.086-1.538.057-.52.207-1.253.451-2.197l1.831-6.665c.114-.456.249-1.079.403-1.868.155-.79.232-1.371.232-1.746 0-.927-.183-1.566-.55-1.916-.365-.35-1.077-.525-2.135-.525-.521 0-1.054.081-1.6.244-.545.163-1.013.318-1.403.464l.537-2.197a50.868 50.868 0 0 1 3.784-1.38c1.204-.382 2.344-.573 3.418-.573 1.937 0 3.43.484 4.48 1.452 1.05.969 1.575 2.17 1.575 3.601 0 .293-.033.83-.098 1.612a10.972 10.972 0 0 1-.39 2.173l-1.783 6.347c-.163.57-.293 1.18-.39 1.831-.098.651-.147 1.123-.147 1.416 0 .814.2 1.433.598 1.856.399.423 1.03.635 1.892.635.716 0 1.624-.273 2.722-.818a11.835 11.835 0 0 0 3.04-2.185l3.71-17.505 7.74-.342.342.39-4.273 19.85c-.65 2.961-1.562 5.407-2.734 7.336-1.172 1.928-2.53 3.462-4.077 4.602a14.707 14.707 0 0 1-4.81 2.356 19.49 19.49 0 0 1-5.249.72c-1.937 0-3.544-.143-4.821-.427-1.278-.285-2.275-.68-2.991-1.184-.651-.456-1.095-.965-1.33-1.526a4.235 4.235 0 0 1-.355-1.648c0-.944.334-1.783 1.001-2.515.668-.732 1.579-1.099 2.735-1.099.879 0 1.664.236 2.356.708a8.054 8.054 0 0 1 1.818 1.71c.505.634.957 1.338 1.355 2.111.4.773.704 1.404.916 1.892.293-.049.655-.15 1.086-.305.432-.154.794-.33 1.087-.525a11.19 11.19 0 0 0 1.123-.83c.325-.277.7-.7 1.123-1.27.814-1.09 1.538-2.44 2.173-4.052.635-1.611 1.172-3.54 1.611-5.786z"/>
    </g>
</svg>
