<?xml version="1.0" encoding="UTF-8"?>
<svg width="147px" height="30px" viewBox="0 0 147 30" version="1.1" xmlns="http://www.w3.org/2000/svg" xmlns:xlink="http://www.w3.org/1999/xlink">
    <!-- Generator: Sketch 52.6 (67491) - http://www.bohemiancoding.com/sketch -->
    <title>quantadice_link</title>
    <desc>Created with Sketch.</desc>
    <defs>
        <linearGradient x1="69.8970169%" y1="-63.1673177%" x2="82.5929778%" y2="174.462891%" id="linearGradient-1">
            <stop stop-color="#D3AE0D" offset="0%"></stop>
            <stop stop-color="#FFED47" offset="53.7694932%"></stop>
            <stop stop-color="#DAB511" offset="100%"></stop>
            <stop stop-color="#D9B310" offset="100%"></stop>
        </linearGradient>
        <path d="M108.389786,7.78142853 L105.069786,7.78142853 L105.069786,16.7414285 L108.389786,16.7414285 C113.789786,16.7414285 114.029786,7.78142853 108.389786,7.78142853 Z M108.569786,19.1814285 L103.809786,19.1814285 C103.149786,19.1814285 102.429786,18.8214285 102.429786,17.9414285 L102.429786,6.58142853 C102.429786,5.86142853 103.149786,5.34142853 103.809786,5.34142853 L108.389786,5.34142853 C117.529786,5.34142853 117.329786,19.1814285 108.569786,19.1814285 Z M117.669786,17.9614285 L117.669786,6.54142853 C117.669786,4.90142853 120.309786,4.84142853 120.309786,6.54142853 L120.309786,17.9614285 C120.309786,19.6214285 117.669786,19.6614285 117.669786,17.9614285 Z M129.789786,19.3214285 C124.949786,19.3214285 122.769786,16.0214285 122.769786,12.1614285 C122.769786,8.30142853 125.189786,4.98142853 129.789786,4.98142853 C131.529786,4.98142853 132.909786,5.50142853 134.369786,6.76142853 C134.909786,7.26142853 134.969786,8.14142853 134.429786,8.70142853 C133.889786,9.18142853 133.069786,9.12142853 132.589786,8.64142853 C131.769786,7.78142853 130.929786,7.54142853 129.789786,7.54142853 C126.709786,7.54142853 125.229786,9.72142853 125.229786,12.1614285 C125.229786,14.6414285 126.689786,16.9214285 129.789786,16.9214285 C130.929786,16.9214285 131.989786,16.4614285 132.909786,15.6414285 C133.529786,15.1614285 134.389786,15.4014285 134.749786,15.8814285 C135.069786,16.3214285 135.229786,17.0614285 134.529786,17.7614285 C133.129786,19.0614285 131.449786,19.3214285 129.789786,19.3214285 Z M146.089786,19.1814285 L138.569786,19.1814285 C137.869786,19.1814285 137.329786,18.6414285 137.329786,17.9414285 L137.329786,6.58142853 C137.329786,5.86142853 137.869786,5.34142853 138.569786,5.34142853 L145.749786,5.34142853 C147.589786,5.34142853 147.549786,7.94142853 145.749786,7.94142853 L139.989786,7.94142853 L139.989786,10.9414285 L145.029786,10.9414285 C146.809786,10.9414285 146.809786,13.5614285 145.029786,13.5614285 L139.989786,13.5614285 L139.989786,16.5614285 L146.089786,16.5614285 C147.909786,16.5614285 148.049786,19.1814285 146.089786,19.1814285 Z" id="path-2"></path>
    </defs>
    <g id="--&gt;-EXCHANGE-MOBILE-V2" stroke="none" stroke-width="1" fill="none" fill-rule="evenodd">
        <g id="mobile_web_1" transform="translate(-100.000000, -120.000000)">
            <g id="property_selection" transform="translate(20.565406, 43.339000)">
                <g id="quantadice_link" transform="translate(78.000000, 72.000000)">
                    <g id="Group-13" transform="translate(0.467050, 0.420235)">
                        <g id="DICE">
                            <use fill="#FFFD37" xlink:href="#path-2"></use>
                            <use fill="url(#linearGradient-1)" xlink:href="#path-2"></use>
                        </g>
                        <g id="logo" transform="translate(0.928169, 4.209632)" fill="#FFFFFF">
                            <g id="Group-34" transform="translate(0.667129, 0.600081)">
                                <g id="quanta" transform="translate(0.026185, 0.146652)">
                                    <path d="M37.3634887,14.1723444 C37.0268086,14.8764084 36.2482359,15.0213627 35.4907056,14.8764084 C34.8173454,14.5036686 34.3964953,13.7581891 34.8173454,12.888463 L40.8565448,1.27140757 C41.4246925,0.173896086 42.939753,0.132480559 43.4658156,1.27140757 L49.3998025,12.888463 C50.2625453,14.5036686 47.716402,15.78755 46.9588717,14.1723444 L46.0330015,12.3500612 L38.2683165,12.3500612 L37.3634887,14.1723444 Z M39.5729519,9.61663636 L44.5389835,9.61663636 L42.1611802,4.50181871 L39.5729519,9.61663636 Z" id="Combined-Shape-Copy-67"></path>
                                    <path d="M52.6605048,13.4791597 L52.6605048,1.87418863 C52.6605048,1.11871131 52.8274752,0.384219471 53.9127831,0.384219471 C54.6641501,0.384219471 54.8311206,0.573088801 55.3946458,1.11871131 L62.303048,9.8067005 L62.303048,1.66433382 C62.303048,0.971812942 62.9083159,0.216335622 63.6179403,0.216335622 C64.3693073,0.216335622 65.099803,0.971812942 65.099803,1.66433382 L65.099803,13.4791597 C65.099803,14.4025209 64.5362777,14.759274 63.9936238,14.9271579 C63.2631281,14.9271579 62.9083159,14.759274 62.303048,14.1926661 L55.3946458,5.37876398 L55.3946458,13.4791597 C55.3946458,14.4025209 54.8311206,14.9271579 54.0797535,14.9271579 C53.3283865,14.9271579 52.6605048,14.4025209 52.6605048,13.4791597 Z" id="Path-Copy-22"></path>
                                    <path d="M73.2099515,13.5585397 L73.2099515,3.0868753 L69.5492309,3.0868753 C67.7293299,3.0868753 67.7293299,0.432671243 69.5492309,0.432671243 L79.4436356,0.432671243 C81.3053735,0.432671243 81.3053735,3.0868753 79.4436356,3.0868753 L75.9711807,3.0868753 L75.9711807,13.5585397 C75.9711807,15.3625691 73.2099515,15.404041 73.2099515,13.5585397 Z" id="Path-Copy-21"></path>
                                    <path d="M28.8149429,9.34719245 L28.8149429,1.86676113 C28.8149429,0.0276495575 31.5643426,-0.116999667 31.5643426,1.86676113 L31.5643426,9.34719245 C31.5643426,17.0755939 18.9087087,17.0755939 18.9087087,9.34719245 L18.9087087,1.86676113 C18.9087087,0.00698538254 21.6581085,-0.0756713172 21.6581085,1.86676113 L21.6581085,9.34719245 C21.6581085,13.4180349 28.8149429,13.666005 28.8149429,9.34719245 Z" id="UANTA-Copy-16"></path>
                                    <path d="M84.8808399,13.9560088 C84.5441598,14.6600727 83.7655871,14.8050271 83.0080568,14.6600727 C82.3346966,14.287333 81.9138465,13.5418535 82.3346966,12.6721274 L88.373896,1.05507194 C88.9420437,-0.0424395356 90.4571042,-0.0838550632 90.9831668,1.05507194 L96.9171537,12.6721274 C97.7798965,14.287333 95.2337532,15.5712143 94.4762229,13.9560088 L93.5503526,12.1337256 L85.7856677,12.1337256 L84.8808399,13.9560088 Z M87.0903031,9.40030074 L92.0563347,9.40030074 L89.6785314,4.28548309 L87.0903031,9.40030074 Z" id="Combined-Shape-Copy-64"></path>
                                    <g id="Group-9">
                                        <path d="M7.78808238,15.5761648 C3.48684325,15.5761648 1.10134124e-13,12.0893215 1.10134124e-13,7.78808238 C1.10134124e-13,3.48684325 3.48684325,-1.42108547e-14 7.78808238,-1.42108547e-14 C12.0893215,-1.42108547e-14 15.5761648,3.48684325 15.5761648,7.78808238 C15.5761648,12.0893215 12.0893215,15.5761648 7.78808238,15.5761648 Z M7.78808238,12.8503359 C10.5838878,12.8503359 12.8503359,10.5838878 12.8503359,7.78808238 C12.8503359,4.99227695 10.5838878,2.72582883 7.78808238,2.72582883 C4.99227695,2.72582883 2.72582883,4.99227695 2.72582883,7.78808238 C2.72582883,10.5838878 4.99227695,12.8503359 7.78808238,12.8503359 Z" id="Combined-Shape-Copy-66"></path>
                                        <path d="M5.32785838,8.53836599 C5.02062585,7.95948124 5.25228098,7.24706708 5.84527459,6.94714442 C6.4382682,6.64722176 7.16804567,6.87336521 7.4752782,7.45224995 L10.0319708,12.5543571 C10.3392033,13.1332419 10.1075482,13.845656 9.51455455,14.1455787 C8.92156094,14.4455014 8.19178346,14.2193579 7.88455094,13.6404732 L5.32785838,8.53836599 Z" id="Path-6-Copy-25" transform="translate(7.679915, 10.546362) rotate(26.000000) translate(-7.679915, -10.546362) "></path>
                                    </g>
                                </g>
                            </g>
                        </g>
                    </g>
                    <path d="M6.74319988,26.9683406 C7.89017254,26.9683406 8.62405926,27.658282 8.62405926,28.7217585 C8.62405926,29.5391414 8.18900067,30.1455867 7.48148113,30.3828914 L8.72952801,32.9624812 L7.99124676,32.9624812 L6.83987957,30.5191218 L5.27982098,30.5191218 L5.27982098,32.9624812 L4.63821942,32.9624812 L4.63821942,26.9683406 L6.74319988,26.9683406 Z M5.27982098,29.9302546 L6.62894207,29.9302546 C7.4902702,29.9302546 7.96048504,29.5215632 7.96048504,28.7657039 C7.96048504,27.9966609 7.48148113,27.5528132 6.65970379,27.5528132 L5.27982098,27.5528132 L5.27982098,29.9302546 Z M11.8144889,28.2866999 C12.9087272,28.2866999 13.7524772,29.0117976 13.7524772,30.2993953 L13.7524772,31.0244929 C13.7524772,32.3120906 12.9131218,33.0371882 11.8144889,33.0371882 C10.6938835,33.0371882 9.87210613,32.3252742 9.87210613,31.0244929 L9.87210613,30.2993953 C9.87210613,29.0513484 10.7070671,28.2866999 11.8144889,28.2866999 Z M11.8188835,28.8535945 C11.0322624,28.8535945 10.5049186,29.4512507 10.5049186,30.3741023 L10.5049186,30.9585749 C10.5049186,31.8990046 11.0058952,32.4746882 11.8188835,32.4746882 C12.6230827,32.4746882 13.1152702,31.9033992 13.1152702,30.9585749 L13.1152702,30.3741023 C13.1152702,29.4512507 12.60111,28.8535945 11.8188835,28.8535945 Z M15.1850944,32.9624812 L15.1850944,26.6475398 L15.8223014,26.6475398 L15.8223014,32.9624812 L15.1850944,32.9624812 Z M17.5098014,32.9624812 L17.5098014,26.6475398 L18.1470085,26.6475398 L18.1470085,32.9624812 L17.5098014,32.9624812 Z M26.0044304,32.9624812 L25.4243522,32.3384578 C24.8135124,32.8965632 24.0752311,33.076739 23.4995475,33.076739 C22.4184929,33.076739 21.5176139,32.4527156 21.5176139,31.3936335 C21.5176139,30.6421687 21.9790397,30.1324031 22.7085319,29.7412898 C22.7700554,29.7061335 22.8799186,29.6533992 22.9414421,29.6182429 C22.5327507,29.1919734 22.1811882,28.7744929 22.1811882,28.220782 C22.1811882,27.4912898 22.792028,26.9156062 23.6621452,26.9156062 C24.5146843,26.9156062 25.1387077,27.4737117 25.1387077,28.2383601 C25.1387077,28.9590632 24.5806022,29.3721492 23.8379264,29.7632624 L25.389196,31.4463679 C25.5957389,31.0640437 25.6924186,30.479571 25.6968132,29.7412898 C25.6968132,29.7281062 25.7012077,29.5699031 25.7012077,29.5567195 L26.307653,29.5567195 L26.307653,29.7412898 C26.3032585,30.6377742 26.1494499,31.3628718 25.8154655,31.877032 L26.8349968,32.9624812 L26.0044304,32.9624812 Z M23.0776725,30.1324031 C22.5239616,30.4356257 22.16361,30.7871882 22.16361,31.3540828 C22.16361,32.1319148 22.8271843,32.5274226 23.5478874,32.5274226 C24.0312858,32.5274226 24.6465202,32.3516414 25.042028,31.9253718 L23.3017936,30.0137507 C23.2446647,30.0445124 23.1348014,30.1016414 23.0776725,30.1324031 Z M23.4775749,29.3853328 C24.1103874,29.0689265 24.5190788,28.7744929 24.5190788,28.2515437 C24.5190788,27.7681453 24.1587272,27.4341609 23.6621452,27.4341609 C23.1567741,27.4341609 22.8096061,27.7813289 22.8096061,28.2559382 C22.8096061,28.5987117 22.9853874,28.8843562 23.4775749,29.3853328 Z M31.3921257,32.9624812 L30.8164421,32.9624812 L29.1597038,26.9683406 L29.9199577,26.9683406 L31.1020866,31.951739 L31.1372429,31.951739 L32.3984733,26.9683406 L33.0708366,26.9683406 L34.3320671,31.951739 L34.3672233,31.951739 L35.5493522,26.9683406 L36.3096061,26.9683406 L34.6528679,32.9624812 L34.0771843,32.9624812 L32.7500358,28.0274226 L32.7192741,28.0274226 L31.3921257,32.9624812 Z M37.4302116,32.9624812 L37.4302116,28.361407 L38.0630241,28.361407 L38.0630241,32.9624812 L37.4302116,32.9624812 Z M37.2588249,26.9419734 C37.2588249,26.6563289 37.4741569,26.4497859 37.7422233,26.4497859 C38.0234733,26.4497859 38.2344108,26.6563289 38.2344108,26.9419734 C38.2344108,27.2144343 38.0234733,27.4253718 37.7422233,27.4253718 C37.4741569,27.4253718 37.2588249,27.2144343 37.2588249,26.9419734 Z M39.8032585,32.9624812 L39.8032585,28.361407 L40.436071,28.361407 L40.436071,29.2183406 L40.4712272,29.2183406 C40.5898796,28.8360164 40.9194694,28.2866999 41.8862663,28.2866999 C42.8135124,28.2866999 43.4595085,28.7964656 43.4595085,29.8203914 L43.4595085,32.9624812 L42.8223014,32.9624812 L42.8223014,30.0225398 C42.8223014,29.279864 42.4355827,28.8535945 41.7456413,28.8535945 C40.857946,28.8535945 40.436071,29.5391414 40.436071,30.3697078 L40.436071,32.9624812 L39.8032585,32.9624812 Z M50.710485,28.361407 L50.710485,32.9624812 L50.073278,32.9624812 L50.073278,32.1758601 L50.0381218,32.1758601 C49.9062858,32.5625789 49.4668327,33.0371882 48.6450554,33.0371882 C47.7309929,33.0371882 47.0630241,32.6284968 47.0630241,31.5650203 L47.0630241,28.361407 L47.7002311,28.361407 L47.7002311,31.3980281 C47.7002311,32.1802546 48.1748405,32.4746882 48.7856804,32.4746882 C49.5371452,32.4746882 50.073278,31.9033992 50.073278,31.2749812 L50.073278,28.361407 L50.710485,28.361407 Z M54.357946,33.0371882 C53.6767936,33.0371882 53.2109733,32.720782 53.0088249,32.2549617 L52.9736686,32.2549617 L52.9736686,34.482989 L52.3408561,34.482989 L52.3408561,28.3570124 L52.9429069,28.3570124 L52.9429069,29.1216609 L52.9780632,29.1216609 C53.1494499,28.651446 53.6680046,28.2866999 54.3843132,28.2866999 C55.4565788,28.2866999 56.1553093,29.0425593 56.1553093,30.2334773 L56.1553093,31.0860164 C56.1553093,32.298907 55.4390007,33.0371882 54.357946,33.0371882 Z M54.2744499,32.4746882 C55.0390983,32.4746882 55.5181022,31.9253718 55.5181022,30.9366023 L55.5181022,30.3916804 C55.5181022,29.4073054 55.0478874,28.8535945 54.2524772,28.8535945 C53.4570671,28.8535945 52.9736686,29.4160945 52.9736686,30.2774226 L52.9736686,31.1343562 C52.9736686,31.9165828 53.5010124,32.4746882 54.2744499,32.4746882 Z M59.842321,28.361407 L59.842321,27.2100398 L60.4751335,27.2100398 L60.4751335,28.361407 L61.5561882,28.361407 L61.5561882,28.8931453 L60.4751335,28.8931453 L60.4751335,31.745196 C60.4751335,32.3120906 60.6597038,32.4615046 61.2529655,32.4615046 C61.3628288,32.4615046 61.5517936,32.448321 61.6308952,32.439532 L61.6308952,32.9712703 C61.5605827,32.9844539 61.2441764,33.0064265 61.0991569,33.0064265 C60.0488639,33.0064265 59.842321,32.5977351 59.842321,31.7144343 L59.842321,28.8931453 L59.1084343,28.8931453 L59.1084343,28.361407 L59.842321,28.361407 Z M64.6147819,28.2866999 C65.7090202,28.2866999 66.5527702,29.0117976 66.5527702,30.2993953 L66.5527702,31.0244929 C66.5527702,32.3120906 65.7134147,33.0371882 64.6147819,33.0371882 C63.4941764,33.0371882 62.6723991,32.3252742 62.6723991,31.0244929 L62.6723991,30.2993953 C62.6723991,29.0513484 63.50736,28.2866999 64.6147819,28.2866999 Z M64.6191764,28.8535945 C63.8325554,28.8535945 63.3052116,29.4512507 63.3052116,30.3741023 L63.3052116,30.9585749 C63.3052116,31.8990046 63.8061882,32.4746882 64.6191764,32.4746882 C65.4233757,32.4746882 65.9155632,31.9033992 65.9155632,30.9585749 L65.9155632,30.3741023 C65.9155632,29.4512507 65.401403,28.8535945 64.6191764,28.8535945 Z M71.9624382,32.9624812 L71.3296257,32.9624812 L71.3296257,27.6934382 L71.2944694,27.6934382 L69.8882194,28.7041804 L69.8882194,28.0274226 L71.3296257,26.9683406 L71.9624382,26.9683406 L71.9624382,32.9624812 Z M74.4321647,29.8555476 L74.4321647,30.0796687 C74.4321647,31.604571 75.0122429,32.5186335 75.8867546,32.5186335 C76.7656608,32.5186335 77.3369499,31.604571 77.3369499,30.0796687 L77.3369499,29.8555476 C77.3369499,28.3350398 76.7656608,27.4077937 75.8867546,27.4077937 C75.0122429,27.4077937 74.4321647,28.3350398 74.4321647,29.8555476 Z M73.7993522,30.0884578 L73.7993522,29.8555476 C73.7993522,28.0274226 74.5727897,26.8365046 75.8911491,26.8365046 C77.2051139,26.8365046 77.9741569,28.0230281 77.9741569,29.8555476 L77.9741569,30.0884578 C77.9741569,31.9121882 77.2051139,33.0899226 75.8867546,33.0899226 C74.5727897,33.0899226 73.7993522,31.9121882 73.7993522,30.0884578 Z M79.8330436,29.8555476 L79.8330436,30.0796687 C79.8330436,31.604571 80.4131218,32.5186335 81.2876335,32.5186335 C82.1665397,32.5186335 82.7378288,31.604571 82.7378288,30.0796687 L82.7378288,29.8555476 C82.7378288,28.3350398 82.1665397,27.4077937 81.2876335,27.4077937 C80.4131218,27.4077937 79.8330436,28.3350398 79.8330436,29.8555476 Z M79.2002311,30.0884578 L79.2002311,29.8555476 C79.2002311,28.0274226 79.9736686,26.8365046 81.292028,26.8365046 C82.6059929,26.8365046 83.3750358,28.0230281 83.3750358,29.8555476 L83.3750358,30.0884578 C83.3750358,31.9121882 82.6059929,33.0899226 81.2876335,33.0899226 C79.9736686,33.0899226 79.2002311,31.9121882 79.2002311,30.0884578 Z M88.9385124,26.9683406 L86.9258171,29.9961726 L88.8989616,32.9624812 L88.1123405,32.9624812 L86.5303093,30.5059382 L86.495153,30.5059382 L84.9043327,32.9624812 L84.1660514,32.9624812 L86.1567741,29.9434382 L84.1924186,26.9683406 L84.9702507,26.9683406 L86.56986,29.4248835 L86.6050163,29.4248835 L88.1914421,26.9683406 L88.9385124,26.9683406 Z M92.4321647,29.5259578 L92.4321647,30.4400203 C92.4321647,31.7188289 93.0254264,32.5054499 94.1240593,32.5054499 C94.9590202,32.5054499 95.5478874,32.0352351 95.6269889,31.3672664 L96.2685905,31.3672664 C96.1850944,32.3516414 95.3017936,33.0899226 94.1240593,33.0899226 C92.6123405,33.0899226 91.7905632,32.1011531 91.7905632,30.4444148 L91.7905632,29.5171687 C91.7905632,27.873614 92.6343132,26.8365046 94.1196647,26.8365046 C95.3149772,26.8365046 96.1806999,27.6275203 96.2598014,28.651446 L96.2598014,28.6558406 L95.6181999,28.6558406 C95.5434929,27.9658992 94.9502311,27.4253718 94.1196647,27.4253718 C93.0430046,27.4253718 92.4321647,28.2427546 92.4321647,29.5259578 Z M97.7407585,32.9624812 L97.7407585,28.361407 L98.373571,28.361407 L98.373571,29.0996882 L98.4043327,29.0996882 C98.5185905,28.7788874 98.8657585,28.2910945 99.7051139,28.2910945 C99.8061882,28.2910945 99.9028679,28.3042781 99.9907585,28.3130671 L99.9907585,28.9063289 C99.920446,28.8931453 99.7754264,28.8843562 99.6304069,28.8843562 C98.8218132,28.8843562 98.373571,29.3809382 98.373571,30.0664851 L98.373571,32.9624812 L97.7407585,32.9624812 Z M104.596227,28.361407 L102.935094,33.002032 L102.820837,33.3008601 C102.482458,34.2061335 102.051794,34.5620906 101.331091,34.5620906 C101.208044,34.5620906 101.036657,34.548907 100.926794,34.5269343 L100.926794,33.986407 C101.001501,33.9995906 101.172887,34.0127742 101.256383,34.0127742 C101.761755,34.0127742 102.03861,33.7886531 102.192419,33.2657039 L102.262731,33.0327937 L100.548864,28.361407 L101.256383,28.361407 L102.574743,32.3033015 L102.605505,32.3033015 L103.919469,28.361407 L104.596227,28.361407 Z M107.764684,33.0371882 C107.083532,33.0371882 106.617712,32.720782 106.415563,32.2549617 L106.380407,32.2549617 L106.380407,34.482989 L105.747594,34.482989 L105.747594,28.3570124 L106.349645,28.3570124 L106.349645,29.1216609 L106.384801,29.1216609 C106.556188,28.651446 107.074743,28.2866999 107.791051,28.2866999 C108.863317,28.2866999 109.562048,29.0425593 109.562048,30.2334773 L109.562048,31.0860164 C109.562048,32.298907 108.845739,33.0371882 107.764684,33.0371882 Z M107.681188,32.4746882 C108.445837,32.4746882 108.924841,31.9253718 108.924841,30.9366023 L108.924841,30.3916804 C108.924841,29.4073054 108.454626,28.8535945 107.659216,28.8535945 C106.863805,28.8535945 106.380407,29.4160945 106.380407,30.2774226 L106.380407,31.1343562 C106.380407,31.9165828 106.907751,32.4746882 107.681188,32.4746882 Z M111.205602,28.361407 L111.205602,27.2100398 L111.838415,27.2100398 L111.838415,28.361407 L112.919469,28.361407 L112.919469,28.8931453 L111.838415,28.8931453 L111.838415,31.745196 C111.838415,32.3120906 112.022985,32.4615046 112.616247,32.4615046 C112.72611,32.4615046 112.915075,32.448321 112.994176,32.439532 L112.994176,32.9712703 C112.923864,32.9844539 112.607458,33.0064265 112.462438,33.0064265 C111.412145,33.0064265 111.205602,32.5977351 111.205602,31.7144343 L111.205602,28.8931453 L110.471716,28.8931453 L110.471716,28.361407 L111.205602,28.361407 Z M115.978063,28.2866999 C117.072301,28.2866999 117.916051,29.0117976 117.916051,30.2993953 L117.916051,31.0244929 C117.916051,32.3120906 117.076696,33.0371882 115.978063,33.0371882 C114.857458,33.0371882 114.03568,32.3252742 114.03568,31.0244929 L114.03568,30.2993953 C114.03568,29.0513484 114.870641,28.2866999 115.978063,28.2866999 Z M115.982458,28.8535945 C115.195837,28.8535945 114.668493,29.4512507 114.668493,30.3741023 L114.668493,30.9585749 C114.668493,31.8990046 115.169469,32.4746882 115.982458,32.4746882 C116.786657,32.4746882 117.278844,31.9033992 117.278844,30.9585749 L117.278844,30.3741023 C117.278844,29.4512507 116.764684,28.8535945 115.982458,28.8535945 Z M119.093786,29.6490046 C119.093786,28.7085749 119.880407,28.2866999 120.750524,28.2866999 C121.752477,28.2866999 122.354528,28.8360164 122.354528,29.5479304 L121.756872,29.5479304 C121.730505,29.213946 121.418493,28.8228328 120.724157,28.8228328 C120.152868,28.8228328 119.717809,29.0865046 119.717809,29.5786921 C119.717809,30.1499812 120.297887,30.2466609 120.864782,30.3565242 C121.72611,30.5191218 122.468786,30.7344539 122.468786,31.6353328 C122.468786,32.5406062 121.721716,33.0371882 120.689001,33.0371882 C119.669469,33.0371882 119.001501,32.5625789 119.001501,31.7759578 L119.625524,31.7759578 C119.682653,32.1978328 119.981481,32.5098445 120.715368,32.5098445 C121.480016,32.5098445 121.835973,32.167071 121.835973,31.7100398 C121.835973,31.1563289 121.30863,31.042071 120.653844,30.9102351 C119.783727,30.7256648 119.093786,30.5323054 119.093786,29.6490046 Z" id="Roll-&amp;-Win-up-to-100" fill="#FFFFFF" opacity="0.578497024"></path>
                </g>
            </g>
        </g>
    </g>
</svg>