<?xml version="1.0" encoding="UTF-8"?>
<svg width="174px" height="30px" viewBox="0 0 174 30" version="1.1" xmlns="http://www.w3.org/2000/svg" xmlns:xlink="http://www.w3.org/1999/xlink">
    <!-- Generator: Sketch 52.6 (67491) - http://www.bohemiancoding.com/sketch -->
    <title>quantadex_link</title>
    <desc>Created with Sketch.</desc>
    <g id="--&gt;-EXCHANGE-MOBILE-V2" stroke="none" stroke-width="1" fill="none" fill-rule="evenodd">
        <g id="mobile_web_1" transform="translate(-98.000000, -71.000000)">
            <g id="property_selection" transform="translate(20.565406, 43.339000)">
                <g id="quantadex_link" transform="translate(77.000000, 26.000000)">
                    <path d="M5.18287018,29.7592758 L4.53687408,29.7592758 L4.53687408,24.3496078 L2.67359283,24.3496078 L2.67359283,23.7651352 L7.04615143,23.7651352 L7.04615143,24.3496078 L5.18287018,24.3496078 L5.18287018,29.7592758 Z M8.13599518,29.7592758 L8.13599518,25.1582016 L8.76880768,25.1582016 L8.76880768,25.8964828 L8.79956939,25.8964828 C8.91382721,25.575682 9.26099518,25.0878891 10.1003506,25.0878891 C10.2014249,25.0878891 10.2981046,25.1010727 10.3859952,25.1098617 L10.3859952,25.7031234 C10.3156827,25.6899398 10.1706631,25.6811508 10.0256436,25.6811508 C9.21704986,25.6811508 8.76880768,26.1777328 8.76880768,26.8632797 L8.76880768,29.7592758 L8.13599518,29.7592758 Z M12.7063077,29.8339828 C11.8142178,29.8339828 11.203378,29.2758773 11.203378,28.4277328 C11.203378,27.6367172 11.7570889,27.0917953 12.8073819,27.0917953 L14.0642178,27.0917953 L14.0642178,26.5952133 C14.0642178,25.9448227 13.6511319,25.6503891 13.0095303,25.6503891 C12.3635342,25.6503891 12.0998624,25.9140609 12.0031827,26.2392562 L11.3835538,26.2392562 C11.4538663,25.4921859 12.0734952,25.0834945 13.0402921,25.0834945 C13.9587491,25.0834945 14.7058194,25.4965805 14.7058194,26.5820297 L14.7058194,29.7592758 L14.090585,29.7592758 L14.090585,29.1176742 L14.0598233,29.1176742 C13.8444913,29.4824203 13.4182217,29.8339828 12.7063077,29.8339828 Z M12.8601163,29.2714828 C13.5412686,29.2714828 14.0642178,28.8056625 14.0642178,28.1816391 L14.0642178,27.6235336 L12.8205655,27.6235336 C12.1394131,27.6235336 11.8625577,27.966307 11.8625577,28.4145492 C11.8625577,28.9946273 12.328378,29.2714828 12.8601163,29.2714828 Z M17.878671,25.0834945 C18.5686124,25.0834945 19.0651944,25.4174789 19.2409756,25.8701156 L19.2717374,25.8701156 L19.2717374,23.4443344 L19.9089444,23.4443344 L19.9089444,29.7592758 L19.3024991,29.7592758 L19.3024991,28.9990219 L19.2717374,28.9990219 C19.1486905,29.438475 18.5861905,29.8295883 17.8566983,29.8295883 C16.7888272,29.8295883 16.0813077,29.082518 16.0813077,27.9311508 L16.0813077,26.9863266 C16.0813077,25.8217758 16.8195889,25.0834945 17.878671,25.0834945 Z M17.9577725,25.6503891 C17.2063077,25.6503891 16.7185147,26.1953109 16.7185147,27.1445297 L16.7185147,27.7641586 C16.7185147,28.7089828 17.2063077,29.2670883 17.9797452,29.2670883 C18.7751553,29.2670883 19.2717374,28.6870102 19.2717374,27.8388656 L19.2717374,26.9907211 C19.2717374,26.2172836 18.7268155,25.6503891 17.9577725,25.6503891 Z M23.2399991,29.8339828 C22.0271085,29.8339828 21.3239835,29.0473617 21.3239835,27.8212875 L21.3239835,27.1093734 C21.3239835,25.8613266 22.097421,25.0834945 23.1828702,25.0834945 C24.2683194,25.0834945 25.0417569,25.8613266 25.0417569,27.1093734 L25.0417569,27.6235336 L21.9611905,27.6235336 L21.9611905,27.8652328 C21.9611905,28.669432 22.4050381,29.2714828 23.2356046,29.2714828 C23.8420499,29.2714828 24.2199796,28.9682602 24.3034756,28.6650375 L24.9758389,28.6650375 C24.9055264,29.1396469 24.3606046,29.8339828 23.2399991,29.8339828 Z M21.9611905,27.1269516 L24.4045499,27.1269516 L24.4045499,27.0522445 C24.4045499,26.1953109 23.9167569,25.6503891 23.1828702,25.6503891 C22.4489835,25.6503891 21.9611905,26.1953109 21.9611905,27.0522445 L21.9611905,27.1269516 Z M30.1789639,25.0834945 C31.2732022,25.0834945 32.1169522,25.8085922 32.1169522,27.0961898 L32.1169522,27.8212875 C32.1169522,29.1088852 31.2775967,29.8339828 30.1789639,29.8339828 C29.0583585,29.8339828 28.2365811,29.1220687 28.2365811,27.8212875 L28.2365811,27.0961898 C28.2365811,25.848143 29.0715421,25.0834945 30.1789639,25.0834945 Z M30.1833585,25.6503891 C29.3967374,25.6503891 28.8693936,26.2480453 28.8693936,27.1708969 L28.8693936,27.7553695 C28.8693936,28.6957992 29.3703702,29.2714828 30.1833585,29.2714828 C30.9875577,29.2714828 31.4797452,28.7001937 31.4797452,27.7553695 L31.4797452,27.1708969 C31.4797452,26.2480453 30.965585,25.6503891 30.1833585,25.6503891 Z M33.5188077,29.7592758 L33.5188077,25.1582016 L34.1516202,25.1582016 L34.1516202,26.0151352 L34.1867764,26.0151352 C34.3054288,25.6328109 34.6350186,25.0834945 35.6018155,25.0834945 C36.5290616,25.0834945 37.1750577,25.5932602 37.1750577,26.6171859 L37.1750577,29.7592758 L36.5378506,29.7592758 L36.5378506,26.8193344 C36.5378506,26.0766586 36.1511319,25.6503891 35.4611905,25.6503891 C34.5734952,25.6503891 34.1516202,26.3359359 34.1516202,27.1665023 L34.1516202,29.7592758 L33.5188077,29.7592758 Z M41.1784756,27.5795883 L38.409921,27.5795883 L38.409921,27.0126937 L41.1784756,27.0126937 L41.1784756,27.5795883 Z M42.215585,27.8520492 L42.215585,27.0522445 C42.215585,25.848143 42.9406827,25.0834945 44.0876553,25.0834945 C45.2214444,25.0834945 45.7883389,25.7954086 45.8103116,26.4370102 L45.1774991,26.4370102 C45.1203702,26.138182 44.8742764,25.6635727 44.0964444,25.6635727 C43.2834561,25.6635727 42.8483975,26.2128891 42.8483975,27.0874008 L42.8483975,27.8520492 C42.8483975,28.7177719 43.3230069,29.2539047 44.1008389,29.2539047 C44.8435147,29.2539047 45.1203702,28.9023422 45.2082608,28.5419906 L45.8410733,28.5419906 C45.8103116,29.157225 45.2873624,29.8339828 44.0876553,29.8339828 C42.9362881,29.8339828 42.215585,29.0781234 42.215585,27.8520492 Z M47.1726163,29.7592758 L47.1726163,23.4443344 L47.8054288,23.4443344 L47.8054288,26.0151352 L47.840585,26.0151352 C47.9372647,25.6767562 48.3239835,25.0834945 49.2907803,25.0834945 C50.1828702,25.0834945 50.8464444,25.5976547 50.8464444,26.625975 L50.8464444,29.7592758 L50.2092374,29.7592758 L50.2092374,26.8281234 C50.2092374,26.0854477 49.7961514,25.6503891 49.10621,25.6503891 C48.2448819,25.6503891 47.8054288,26.3315414 47.8054288,27.1665023 L47.8054288,29.7592758 L47.1726163,29.7592758 Z M53.6809171,29.8339828 C52.7888272,29.8339828 52.1779874,29.2758773 52.1779874,28.4277328 C52.1779874,27.6367172 52.7316983,27.0917953 53.7819913,27.0917953 L55.0388272,27.0917953 L55.0388272,26.5952133 C55.0388272,25.9448227 54.6257413,25.6503891 53.9841397,25.6503891 C53.3381436,25.6503891 53.0744717,25.9140609 52.9777921,26.2392562 L52.3581631,26.2392562 C52.4284756,25.4921859 53.0481046,25.0834945 54.0149014,25.0834945 C54.9333585,25.0834945 55.6804288,25.4965805 55.6804288,26.5820297 L55.6804288,29.7592758 L55.0651944,29.7592758 L55.0651944,29.1176742 L55.0344327,29.1176742 C54.8191006,29.4824203 54.3928311,29.8339828 53.6809171,29.8339828 Z M53.8347256,29.2714828 C54.515878,29.2714828 55.0388272,28.8056625 55.0388272,28.1816391 L55.0388272,27.6235336 L53.7951749,27.6235336 C53.1140225,27.6235336 52.8371671,27.966307 52.8371671,28.4145492 C52.8371671,28.9946273 53.3029874,29.2714828 53.8347256,29.2714828 Z M57.3986905,29.7592758 L57.3986905,25.1582016 L58.031503,25.1582016 L58.031503,29.7592758 L57.3986905,29.7592758 Z M57.2273038,23.738768 C57.2273038,23.4531234 57.4426358,23.2465805 57.7107022,23.2465805 C57.9919522,23.2465805 58.2028897,23.4531234 58.2028897,23.738768 C58.2028897,24.0112289 57.9919522,24.2221664 57.7107022,24.2221664 C57.4426358,24.2221664 57.2273038,24.0112289 57.2273038,23.738768 Z M59.7717374,29.7592758 L59.7717374,25.1582016 L60.4045499,25.1582016 L60.4045499,26.0151352 L60.4397061,26.0151352 C60.5583585,25.6328109 60.8879483,25.0834945 61.8547452,25.0834945 C62.7819913,25.0834945 63.4279874,25.5932602 63.4279874,26.6171859 L63.4279874,29.7592758 L62.7907803,29.7592758 L62.7907803,26.8193344 C62.7907803,26.0766586 62.4040616,25.6503891 61.7141202,25.6503891 C60.8264249,25.6503891 60.4045499,26.3359359 60.4045499,27.1665023 L60.4045499,29.7592758 L59.7717374,29.7592758 Z M64.9528897,31.3984359 L64.4519131,31.3984359 L65.0232022,29.0693344 L65.7790616,29.0693344 L64.9528897,31.3984359 Z M70.4460538,29.8339828 C69.5539639,29.8339828 68.9431241,29.2758773 68.9431241,28.4277328 C68.9431241,27.6367172 69.496835,27.0917953 70.547128,27.0917953 L71.8039639,27.0917953 L71.8039639,26.5952133 C71.8039639,25.9448227 71.390878,25.6503891 70.7492764,25.6503891 C70.1032803,25.6503891 69.8396085,25.9140609 69.7429288,26.2392562 L69.1232999,26.2392562 C69.1936124,25.4921859 69.8132413,25.0834945 70.7800381,25.0834945 C71.6984952,25.0834945 72.4455655,25.4965805 72.4455655,26.5820297 L72.4455655,29.7592758 L71.8303311,29.7592758 L71.8303311,29.1176742 L71.7995694,29.1176742 C71.5842374,29.4824203 71.1579678,29.8339828 70.4460538,29.8339828 Z M70.5998624,29.2714828 C71.2810147,29.2714828 71.8039639,28.8056625 71.8039639,28.1816391 L71.8039639,27.6235336 L70.5603116,27.6235336 C69.8791592,27.6235336 69.6023038,27.966307 69.6023038,28.4145492 C69.6023038,28.9946273 70.0681241,29.2714828 70.5998624,29.2714828 Z M74.0495694,29.7592758 L74.0495694,25.1582016 L74.6823819,25.1582016 L74.6823819,26.0151352 L74.7175381,26.0151352 C74.8361905,25.6328109 75.1657803,25.0834945 76.1325772,25.0834945 C77.0598233,25.0834945 77.7058194,25.5932602 77.7058194,26.6171859 L77.7058194,29.7592758 L77.0686124,29.7592758 L77.0686124,26.8193344 C77.0686124,26.0766586 76.6818936,25.6503891 75.9919522,25.6503891 C75.1042569,25.6503891 74.6823819,26.3359359 74.6823819,27.1665023 L74.6823819,29.7592758 L74.0495694,29.7592758 Z M80.8742764,25.0834945 C81.5642178,25.0834945 82.0607999,25.4174789 82.2365811,25.8701156 L82.2673428,25.8701156 L82.2673428,23.4443344 L82.9045499,23.4443344 L82.9045499,29.7592758 L82.2981046,29.7592758 L82.2981046,28.9990219 L82.2673428,28.9990219 C82.144296,29.438475 81.581796,29.8295883 80.8523038,29.8295883 C79.7844327,29.8295883 79.0769131,29.082518 79.0769131,27.9311508 L79.0769131,26.9863266 C79.0769131,25.8217758 79.8151944,25.0834945 80.8742764,25.0834945 Z M80.953378,25.6503891 C80.2019131,25.6503891 79.7141202,26.1953109 79.7141202,27.1445297 L79.7141202,27.7641586 C79.7141202,28.7089828 80.2019131,29.2670883 80.9753506,29.2670883 C81.7707608,29.2670883 82.2673428,28.6870102 82.2673428,27.8388656 L82.2673428,26.9907211 C82.2673428,26.2172836 81.722421,25.6503891 80.953378,25.6503891 Z M88.6086514,29.8339828 C87.9274991,29.8339828 87.4616788,29.5175766 87.2595303,29.0517562 L87.2243741,29.0517562 L87.2243741,31.2797836 L86.5915616,31.2797836 L86.5915616,25.153807 L87.1936124,25.153807 L87.1936124,25.9184555 L87.2287686,25.9184555 C87.4001553,25.4482406 87.91871,25.0834945 88.6350186,25.0834945 C89.7072842,25.0834945 90.4060147,25.8393539 90.4060147,27.0302719 L90.4060147,27.8828109 C90.4060147,29.0957016 89.6897061,29.8339828 88.6086514,29.8339828 Z M88.5251553,29.2714828 C89.2898038,29.2714828 89.7688077,28.7221664 89.7688077,27.7333969 L89.7688077,27.188475 C89.7688077,26.2041 89.2985928,25.6503891 88.5031827,25.6503891 C87.7077725,25.6503891 87.2243741,26.2128891 87.2243741,27.0742172 L87.2243741,27.9311508 C87.2243741,28.7133773 87.7517178,29.2714828 88.5251553,29.2714828 Z M93.0427335,29.8339828 C92.1506436,29.8339828 91.5398038,29.2758773 91.5398038,28.4277328 C91.5398038,27.6367172 92.0935147,27.0917953 93.1438077,27.0917953 L94.4006436,27.0917953 L94.4006436,26.5952133 C94.4006436,25.9448227 93.9875577,25.6503891 93.3459561,25.6503891 C92.69996,25.6503891 92.4362881,25.9140609 92.3396085,26.2392562 L91.7199796,26.2392562 C91.7902921,25.4921859 92.409921,25.0834945 93.3767178,25.0834945 C94.2951749,25.0834945 95.0422452,25.4965805 95.0422452,26.5820297 L95.0422452,29.7592758 L94.4270108,29.7592758 L94.4270108,29.1176742 L94.3962491,29.1176742 C94.1809171,29.4824203 93.7546475,29.8339828 93.0427335,29.8339828 Z M93.1965421,29.2714828 C93.8776944,29.2714828 94.4006436,28.8056625 94.4006436,28.1816391 L94.4006436,27.6235336 L93.1569913,27.6235336 C92.4758389,27.6235336 92.1989835,27.966307 92.1989835,28.4145492 C92.1989835,28.9946273 92.6648038,29.2714828 93.1965421,29.2714828 Z M100.161874,25.1582016 L98.5007413,29.7988266 L98.3864835,30.0976547 C98.0481046,31.0029281 97.6174405,31.3588852 96.8967374,31.3588852 C96.7736905,31.3588852 96.6023038,31.3457016 96.4924405,31.3237289 L96.4924405,30.7832016 C96.5671475,30.7963852 96.7385342,30.8095687 96.8220303,30.8095687 C97.3274014,30.8095687 97.6042569,30.5854477 97.7580655,30.0624984 L97.828378,29.8295883 L96.1145108,25.1582016 L96.8220303,25.1582016 L98.1403897,29.1000961 L98.1711514,29.1000961 L99.4851163,25.1582016 L100.161874,25.1582016 Z M103.101815,29.7592758 L103.101815,29.3066391 L105.646249,25.7646469 L105.646249,25.7207016 L103.084237,25.7207016 L103.084237,25.1582016 L106.441659,25.1582016 L106.441659,25.6152328 L103.892831,29.1616195 L103.892831,29.1967758 L106.454843,29.1967758 L106.454843,29.7592758 L103.101815,29.7592758 Z M109.500253,29.8339828 C108.287362,29.8339828 107.584237,29.0473617 107.584237,27.8212875 L107.584237,27.1093734 C107.584237,25.8613266 108.357675,25.0834945 109.443124,25.0834945 C110.528573,25.0834945 111.302011,25.8613266 111.302011,27.1093734 L111.302011,27.6235336 L108.221444,27.6235336 L108.221444,27.8652328 C108.221444,28.669432 108.665292,29.2714828 109.495858,29.2714828 C110.102304,29.2714828 110.480233,28.9682602 110.56373,28.6650375 L111.236093,28.6650375 C111.16578,29.1396469 110.620858,29.8339828 109.500253,29.8339828 Z M108.221444,27.1269516 L110.664804,27.1269516 L110.664804,27.0522445 C110.664804,26.1953109 110.177011,25.6503891 109.443124,25.6503891 C108.709237,25.6503891 108.221444,26.1953109 108.221444,27.0522445 L108.221444,27.1269516 Z M112.747812,29.7592758 L112.747812,25.1582016 L113.380624,25.1582016 L113.380624,25.8964828 L113.411386,25.8964828 C113.525644,25.575682 113.872812,25.0878891 114.712167,25.0878891 C114.813241,25.0878891 114.909921,25.1010727 114.997812,25.1098617 L114.997812,25.7031234 C114.927499,25.6899398 114.78248,25.6811508 114.63746,25.6811508 C113.828866,25.6811508 113.380624,26.1777328 113.380624,26.8632797 L113.380624,29.7592758 L112.747812,29.7592758 Z M117.805917,25.0834945 C118.900155,25.0834945 119.743905,25.8085922 119.743905,27.0961898 L119.743905,27.8212875 C119.743905,29.1088852 118.90455,29.8339828 117.805917,29.8339828 C116.685312,29.8339828 115.863534,29.1220687 115.863534,27.8212875 L115.863534,27.0961898 C115.863534,25.848143 116.698495,25.0834945 117.805917,25.0834945 Z M117.810312,25.6503891 C117.02369,25.6503891 116.496347,26.2480453 116.496347,27.1708969 L116.496347,27.7553695 C116.496347,28.6957992 116.997323,29.2714828 117.810312,29.2714828 C118.614511,29.2714828 119.106698,28.7001937 119.106698,27.7553695 L119.106698,27.1708969 C119.106698,26.2480453 118.592538,25.6503891 117.810312,25.6503891 Z M123.426523,25.1582016 L123.426523,24.0068344 L124.059335,24.0068344 L124.059335,25.1582016 L125.14039,25.1582016 L125.14039,25.6899398 L124.059335,25.6899398 L124.059335,28.5419906 C124.059335,29.1088852 124.243905,29.2582992 124.837167,29.2582992 C124.94703,29.2582992 125.135995,29.2451156 125.215097,29.2363266 L125.215097,29.7680648 C125.144784,29.7812484 124.828378,29.8032211 124.683358,29.8032211 C123.633065,29.8032211 123.426523,29.3945297 123.426523,28.5112289 L123.426523,25.6899398 L122.692636,25.6899398 L122.692636,25.1582016 L123.426523,25.1582016 Z M126.551034,29.7592758 L126.551034,25.1582016 L127.183847,25.1582016 L127.183847,25.8964828 L127.214608,25.8964828 C127.328866,25.575682 127.676034,25.0878891 128.51539,25.0878891 C128.616464,25.0878891 128.713144,25.1010727 128.801034,25.1098617 L128.801034,25.7031234 C128.730722,25.6899398 128.585702,25.6811508 128.440683,25.6811508 C127.632089,25.6811508 127.183847,26.1777328 127.183847,26.8632797 L127.183847,29.7592758 L126.551034,29.7592758 Z M131.121347,29.8339828 C130.229257,29.8339828 129.618417,29.2758773 129.618417,28.4277328 C129.618417,27.6367172 130.172128,27.0917953 131.222421,27.0917953 L132.479257,27.0917953 L132.479257,26.5952133 C132.479257,25.9448227 132.066171,25.6503891 131.424569,25.6503891 C130.778573,25.6503891 130.514901,25.9140609 130.418222,26.2392562 L129.798593,26.2392562 C129.868905,25.4921859 130.488534,25.0834945 131.455331,25.0834945 C132.373788,25.0834945 133.120858,25.4965805 133.120858,26.5820297 L133.120858,29.7592758 L132.505624,29.7592758 L132.505624,29.1176742 L132.474862,29.1176742 C132.25953,29.4824203 131.833261,29.8339828 131.121347,29.8339828 Z M131.275155,29.2714828 C131.956308,29.2714828 132.479257,28.8056625 132.479257,28.1816391 L132.479257,27.6235336 L131.235605,27.6235336 C130.554452,27.6235336 130.277597,27.966307 130.277597,28.4145492 C130.277597,28.9946273 130.743417,29.2714828 131.275155,29.2714828 Z M136.29371,25.0834945 C136.983651,25.0834945 137.480233,25.4174789 137.656015,25.8701156 L137.686776,25.8701156 L137.686776,23.4443344 L138.323983,23.4443344 L138.323983,29.7592758 L137.717538,29.7592758 L137.717538,28.9990219 L137.686776,28.9990219 C137.56373,29.438475 137.00123,29.8295883 136.271737,29.8295883 C135.203866,29.8295883 134.496347,29.082518 134.496347,27.9311508 L134.496347,26.9863266 C134.496347,25.8217758 135.234628,25.0834945 136.29371,25.0834945 Z M136.372812,25.6503891 C135.621347,25.6503891 135.133554,26.1953109 135.133554,27.1445297 L135.133554,27.7641586 C135.133554,28.7089828 135.621347,29.2670883 136.394784,29.2670883 C137.190194,29.2670883 137.686776,28.6870102 137.686776,27.8388656 L137.686776,26.9907211 C137.686776,26.2172836 137.141855,25.6503891 136.372812,25.6503891 Z M140.077401,29.7592758 L140.077401,25.1582016 L140.710214,25.1582016 L140.710214,29.7592758 L140.077401,29.7592758 Z M139.906015,23.738768 C139.906015,23.4531234 140.121347,23.2465805 140.389413,23.2465805 C140.670663,23.2465805 140.881601,23.4531234 140.881601,23.738768 C140.881601,24.0112289 140.670663,24.2221664 140.389413,24.2221664 C140.121347,24.2221664 139.906015,24.0112289 139.906015,23.738768 Z M142.450448,29.7592758 L142.450448,25.1582016 L143.083261,25.1582016 L143.083261,26.0151352 L143.118417,26.0151352 C143.237069,25.6328109 143.566659,25.0834945 144.533456,25.0834945 C145.460702,25.0834945 146.106698,25.5932602 146.106698,26.6171859 L146.106698,29.7592758 L145.469491,29.7592758 L145.469491,26.8193344 C145.469491,26.0766586 145.082773,25.6503891 144.392831,25.6503891 C143.505136,25.6503891 143.083261,26.3359359 143.083261,27.1665023 L143.083261,29.7592758 L142.450448,29.7592758 Z M149.310312,30.8666977 C150.17164,30.8666977 150.606698,30.4052719 150.606698,29.645018 L150.606698,28.9067367 L150.571542,28.9067367 C150.40455,29.2846664 149.93873,29.6669906 149.248788,29.6669906 C148.229257,29.6669906 147.420663,28.9462875 147.420663,27.7597641 L147.420663,26.9995102 C147.420663,25.7998031 148.238046,25.0834945 149.244394,25.0834945 C149.973886,25.0834945 150.461679,25.5185531 150.611093,25.8789047 L150.63746,25.8789047 L150.63746,25.1582016 L151.243905,25.1582016 L151.243905,29.6230453 C151.243905,30.844725 150.466073,31.4291977 149.283944,31.4291977 C148.15455,31.4291977 147.59205,30.8403305 147.526132,30.1987289 L148.189706,30.1987289 C148.246835,30.5415023 148.637948,30.8666977 149.310312,30.8666977 Z M149.363046,25.6503891 C148.576425,25.6503891 148.05787,26.2392562 148.05787,27.1489242 L148.05787,27.61035 C148.05787,28.5068344 148.607187,29.1000961 149.371835,29.1000961 C150.176034,29.1000961 150.606698,28.4365219 150.606698,27.7465805 L150.606698,27.0258773 C150.606698,26.3095687 150.145273,25.6503891 149.363046,25.6503891 Z M155.203378,29.7592758 L155.203378,25.6899398 L154.416757,25.6899398 L154.416757,25.1582016 L155.203378,25.1582016 L155.203378,24.6791977 C155.203378,23.8178695 155.60328,23.4135727 156.574472,23.4135727 C156.767831,23.4135727 156.983163,23.4311508 157.066659,23.4399398 L157.066659,23.9804672 C156.991952,23.9716781 156.767831,23.9628891 156.649179,23.9628891 C156.07789,23.9628891 155.83619,24.1386703 155.83619,24.723143 L155.83619,25.1582016 L156.948007,25.1582016 L156.948007,25.6899398 L155.83619,25.6899398 L155.83619,29.7592758 L155.203378,29.7592758 Z M159.923105,29.8339828 C158.710214,29.8339828 158.007089,29.0473617 158.007089,27.8212875 L158.007089,27.1093734 C158.007089,25.8613266 158.780526,25.0834945 159.865976,25.0834945 C160.951425,25.0834945 161.724862,25.8613266 161.724862,27.1093734 L161.724862,27.6235336 L158.644296,27.6235336 L158.644296,27.8652328 C158.644296,28.669432 159.088144,29.2714828 159.91871,29.2714828 C160.525155,29.2714828 160.903085,28.9682602 160.986581,28.6650375 L161.658944,28.6650375 C161.588632,29.1396469 161.04371,29.8339828 159.923105,29.8339828 Z M158.644296,27.1269516 L161.087655,27.1269516 L161.087655,27.0522445 C161.087655,26.1953109 160.599862,25.6503891 159.865976,25.6503891 C159.132089,25.6503891 158.644296,26.1953109 158.644296,27.0522445 L158.644296,27.1269516 Z M164.792245,29.8339828 C163.579355,29.8339828 162.87623,29.0473617 162.87623,27.8212875 L162.87623,27.1093734 C162.87623,25.8613266 163.649667,25.0834945 164.735116,25.0834945 C165.820565,25.0834945 166.594003,25.8613266 166.594003,27.1093734 L166.594003,27.6235336 L163.513437,27.6235336 L163.513437,27.8652328 C163.513437,28.669432 163.957284,29.2714828 164.787851,29.2714828 C165.394296,29.2714828 165.772226,28.9682602 165.855722,28.6650375 L166.528085,28.6650375 C166.457773,29.1396469 165.912851,29.8339828 164.792245,29.8339828 Z M163.513437,27.1269516 L165.956796,27.1269516 L165.956796,27.0522445 C165.956796,26.1953109 165.469003,25.6503891 164.735116,25.6503891 C164.00123,25.6503891 163.513437,26.1953109 163.513437,27.0522445 L163.513437,27.1269516 Z M167.74537,26.4457992 C167.74537,25.5053695 168.531991,25.0834945 169.402108,25.0834945 C170.404062,25.0834945 171.006112,25.6328109 171.006112,26.344725 L170.408456,26.344725 C170.382089,26.0107406 170.070077,25.6196273 169.375741,25.6196273 C168.804452,25.6196273 168.369394,25.8832992 168.369394,26.3754867 C168.369394,26.9467758 168.949472,27.0434555 169.516366,27.1533187 C170.377694,27.3159164 171.12037,27.5312484 171.12037,28.4321273 C171.12037,29.3374008 170.3733,29.8339828 169.340585,29.8339828 C168.321054,29.8339828 167.653085,29.3593734 167.653085,28.5727523 L168.277108,28.5727523 C168.334237,28.9946273 168.633065,29.3066391 169.366952,29.3066391 C170.131601,29.3066391 170.487558,28.9638656 170.487558,28.5068344 C170.487558,27.9531234 169.960214,27.8388656 169.305429,27.7070297 C168.435312,27.5224594 167.74537,27.3291 167.74537,26.4457992 Z M172.368417,29.2846664 C172.368417,28.9594711 172.614511,28.7177719 172.917733,28.7177719 C173.238534,28.7177719 173.484628,28.9594711 173.484628,29.2846664 C173.484628,29.5922836 173.238534,29.8339828 172.917733,29.8339828 C172.614511,29.8339828 172.368417,29.5922836 172.368417,29.2846664 Z" id="Trade-on-chain,-and" fill="#FFFFFF" opacity="0.578497024"></path>
                    <g id="logo" transform="translate(0.467050, 0.953306)">
                        <path d="M119.859225,3.67274753 L115.912207,3.67274753 L115.912207,14.190593 L119.859225,14.190593 C126.279073,14.190593 126.5644,3.67274753 119.859225,3.67274753 Z M120.07322,17.0548278 L114.414242,17.0548278 C113.629594,17.0548278 112.773614,16.6322358 112.773614,15.5992331 L112.773614,2.26410751 C112.773614,1.41892349 113.629594,0.808512814 114.414242,0.808512814 L119.859225,0.808512814 C130.725413,0.808512814 130.487641,17.0548278 120.07322,17.0548278 Z M142.229939,16.9726724 L133.289705,16.9726724 C132.457502,16.9726724 131.815517,16.3387844 131.815517,15.5170777 L131.815517,2.18195216 C131.815517,1.33676815 132.457502,0.726357472 133.289705,0.726357472 L141.825726,0.726357472 C144.01323,0.726357472 143.965676,3.77841086 141.825726,3.77841086 L134.977887,3.77841086 L134.977887,7.30001092 L140.969746,7.30001092 C143.085918,7.30001092 143.085918,10.3755416 140.969746,10.3755416 L134.977887,10.3755416 L134.977887,13.8971417 L142.229939,13.8971417 C144.393665,13.8971417 144.560106,16.9726724 142.229939,16.9726724 Z M151.48554,1.37196882 L155.622776,6.44307291 L159.760012,1.32501416 C160.996427,-0.271444538 163.397926,1.7710835 162.042625,3.29711019 C160.615991,4.96400089 159.118027,6.77175558 157.691394,8.62646495 L162.541946,14.5897077 C163.849693,16.3505077 161.234199,18.0408758 159.950229,16.3035531 L155.575221,10.7629023 L151.271545,16.4209398 C150.058907,18.1347851 147.372081,16.2096437 148.727383,14.6131851 L153.506604,8.62646495 C152.008639,6.77175558 150.558229,4.96400089 149.107818,3.29711019 C147.609854,1.53631016 150.391788,-0.271444538 151.48554,1.37196882 Z" id="DEX" fill="#66D7D7"></path>
                        <g id="Group-34" transform="translate(0.745897, 0.670933)" fill="#FFFFFF">
                            <g id="quanta" transform="translate(0.029277, 0.163967)">
                                <path d="M41.7750353,15.8456881 C41.398603,16.6328816 40.5281034,16.7949509 39.6811307,16.6328816 C38.9282662,16.2161321 38.4577258,15.382633 38.9282662,14.4102175 L45.6805202,1.421524 C46.3157497,0.194428181 48.009695,0.148122678 48.5978704,1.421524 L55.2324894,14.4102175 C56.1970971,16.2161321 53.350328,17.6516027 52.5033553,15.8456881 L51.4681666,13.8082459 L42.7866971,13.8082459 L41.7750353,15.8456881 Z M44.2453722,10.7520828 L49.7977483,10.7520828 L47.1391953,5.0333532 L44.2453722,10.7520828 Z" id="Combined-Shape-Copy-67"></path>
                                <path d="M58.8781862,15.0706583 L58.8781862,2.09547606 C58.8781862,1.25079874 59.064871,0.42958467 60.2783224,0.42958467 C61.1184041,0.42958467 61.3050889,0.640754001 61.9351502,1.25079874 L69.6592347,10.964588 L69.6592347,1.86084347 C69.6592347,1.08655592 70.3359672,0.241878597 71.1293777,0.241878597 C71.9694594,0.241878597 72.7862055,1.08655592 72.7862055,1.86084347 L72.7862055,15.0706583 C72.7862055,16.1030417 72.1561442,16.5019171 71.5494186,16.6896232 C70.7326725,16.6896232 70.3359672,16.5019171 69.6592347,15.8684091 L61.9351502,6.01384033 L61.9351502,15.0706583 C61.9351502,16.1030417 61.3050889,16.6896232 60.4650072,16.6896232 C59.6249255,16.6896232 58.8781862,16.1030417 58.8781862,15.0706583 Z" id="Path-Copy-22"></path>
                                <path d="M81.8539278,15.1594109 L81.8539278,3.45134593 L77.7609821,3.45134593 C75.7262034,3.45134593 75.7262034,0.483757194 77.7609821,0.483757194 L88.8236296,0.483757194 C90.9051848,0.483757194 90.9051848,3.45134593 88.8236296,3.45134593 L84.9411782,3.45134593 L84.9411782,15.1594109 C84.9411782,17.1764438 81.8539278,17.2228124 81.8539278,15.1594109 Z" id="Path-Copy-21"></path>
                                <path d="M32.2171536,10.4508253 L32.2171536,2.08717158 C32.2171536,0.0309141699 35.2911779,-0.130813941 35.2911779,2.08717158 L35.2911779,10.4508253 C35.2911779,19.0917273 21.14128,19.0917273 21.14128,10.4508253 L21.14128,2.08717158 C21.14128,0.00781015404 24.2153042,-0.0846059095 24.2153042,2.08717158 L24.2153042,10.4508253 C24.2153042,15.0023165 32.2171536,15.2795647 32.2171536,10.4508253 Z" id="UANTA-Copy-16"></path>
                                <path d="M94.9028103,15.6038095 C94.5263781,16.391003 93.6558784,16.5530723 92.8089058,16.391003 C92.0560412,15.9742535 91.5855009,15.1407544 92.0560412,14.1683389 L98.8082953,1.1796454 C99.4435247,-0.0474504164 101.13747,-0.093755919 101.725645,1.1796454 L108.360264,14.1683389 C109.324872,15.9742535 106.478103,17.4097241 105.63113,15.6038095 L104.595942,13.5663673 L95.9144721,13.5663673 L94.9028103,15.6038095 Z M97.3731472,10.5102042 L102.925523,10.5102042 L100.26697,4.79147461 L97.3731472,10.5102042 Z" id="Combined-Shape-Copy-64"></path>
                                <g id="Group-9">
                                    <path d="M8.70762949,17.415259 C3.89853852,17.415259 1.10134124e-13,13.5167205 1.10134124e-13,8.70762949 C1.10134124e-13,3.89853852 3.89853852,-1.42108547e-14 8.70762949,-1.42108547e-14 C13.5167205,-1.42108547e-14 17.415259,3.89853852 17.415259,8.70762949 C17.415259,13.5167205 13.5167205,17.415259 8.70762949,17.415259 Z M8.70762949,14.3675887 C11.8335386,14.3675887 14.3675887,11.8335386 14.3675887,8.70762949 C14.3675887,5.58172036 11.8335386,3.04767032 8.70762949,3.04767032 C5.58172036,3.04767032 3.04767032,5.58172036 3.04767032,8.70762949 C3.04767032,11.8335386 5.58172036,14.3675887 8.70762949,14.3675887 Z" id="Combined-Shape-Copy-66"></path>
                                    <path d="M5.95692424,9.54649988 C5.61341645,8.8992656 5.87242335,8.10273595 6.53543234,7.7674011 C7.19844133,7.43206625 8.0143844,7.6849107 8.35789219,8.33214498 L11.2164561,14.0366633 C11.5599639,14.6838976 11.300957,15.4804273 10.6379481,15.8157621 C9.97493906,16.151097 9.15899599,15.8982525 8.8154882,15.2510182 L5.95692424,9.54649988 Z" id="Path-6-Copy-25" transform="translate(8.586690, 11.791582) rotate(26.000000) translate(-8.586690, -11.791582) "></path>
                                </g>
                            </g>
                        </g>
                    </g>
                </g>
            </g>
        </g>
    </g>
</svg>