<?xml version="1.0" encoding="UTF-8"?>
<svg width="168px" height="29px" viewBox="0 0 168 29" version="1.1" xmlns="http://www.w3.org/2000/svg" xmlns:xlink="http://www.w3.org/1999/xlink">
    <!-- Generator: Sketch 52.6 (67491) - http://www.bohemiancoding.com/sketch -->
    <title>quantexplorer_link</title>
    <desc>Created with Sketch.</desc>
    <g id="--&gt;-EXCHANGE-MOBILE-V2" stroke="none" stroke-width="1" fill="none" fill-rule="evenodd">
        <g id="mobile_web_1" transform="translate(-100.000000, -166.000000)" fill="#FFFFFF">
            <g id="property_selection" transform="translate(20.565406, 43.339000)">
                <g id="quantexplorer_link" transform="translate(79.000000, 122.000000)">
                    <g id="quanta_explorer">
                        <path d="M106.530196,12.661562 L106.530196,14.424715 L98.9814205,14.424715 L98.9814205,2.33072573 L106.530196,2.33072573 L106.530196,4.09387875 L100.983795,4.09387875 L100.983795,7.45184355 L106.202374,7.45184355 L106.202374,9.12639592 L100.983795,9.12639592 L100.983795,12.661562 L106.530196,12.661562 Z M114.601716,14.424715 L112.599341,11.1464908 L112.519601,11.1464908 L110.508366,14.424715 L108.37309,14.424715 L111.394372,9.77318069 L108.311069,5.05076582 L110.614686,5.05076582 L112.572761,8.32012996 L112.652501,8.32012996 L114.672596,5.05076582 L116.861033,5.05076582 L113.74229,9.66685991 L116.852173,14.424715 L114.601716,14.424715 Z M123.718723,14.557616 C122.434014,14.557616 121.468267,13.9994319 121.042983,13.0071046 L120.945523,13.0071046 L120.945523,17.534598 L118.978588,17.534598 L118.978588,5.04190575 L120.892362,5.04190575 L120.892362,6.53925681 L120.989823,6.53925681 C121.370806,5.52920935 122.425154,4.9267249 123.763024,4.9267249 C125.9426,4.9267249 127.28933,6.48609642 127.28933,9.03779526 L127.28933,10.4288255 C127.28933,12.9982445 125.93374,14.557616 123.718723,14.557616 Z M123.160539,12.8742036 C124.516129,12.8742036 125.295815,11.8907363 125.295815,10.1896038 L125.295815,9.30359722 C125.295815,7.58474453 124.516129,6.61013733 123.125099,6.61013733 C121.778369,6.61013733 120.945523,7.55816433 120.945523,9.12639592 L120.945523,10.490846 C120.945523,11.9173165 121.840389,12.8742036 123.160539,12.8742036 Z M129.894189,14.424715 L129.894189,1.69280102 L131.861123,1.69280102 L131.861123,14.424715 L129.894189,14.424715 Z M138.621353,4.89128464 C141.066731,4.89128464 142.776724,6.49495648 142.776724,9.13525598 L142.776724,10.3047846 C142.776724,13.0425448 141.066731,14.5841962 138.621353,14.5841962 C136.140535,14.5841962 134.448262,13.060265 134.448262,10.3047846 L134.448262,9.14411605 C134.448262,6.56583701 136.167115,4.89128464 138.621353,4.89128464 Z M138.630213,6.53925681 C137.230323,6.53925681 136.432917,7.69992538 136.432917,9.22385664 L136.432917,10.2516242 C136.432917,11.7755555 137.177163,12.9362241 138.630213,12.9362241 C140.065544,12.9362241 140.800929,11.7844155 140.800929,10.2516242 L140.800929,9.22385664 C140.800929,7.69992538 140.030104,6.53925681 138.630213,6.53925681 Z M145.425884,14.424715 L145.425884,5.05076582 L147.383958,5.05076582 L147.383958,6.51267661 L147.490279,6.51267661 C147.69406,5.88361197 148.376285,4.90900477 149.944517,4.90900477 C150.210319,4.90900477 150.42296,4.93558496 150.609022,4.97102523 L150.609022,6.78733864 C150.440681,6.73417825 150.095138,6.71645812 149.767316,6.71645812 C148.190224,6.71645812 147.419398,7.63790492 147.419398,8.90489428 L147.419398,14.424715 L145.425884,14.424715 Z M156.323764,14.5841962 C153.772065,14.5841962 152.186113,13.0248247 152.186113,10.3490849 L152.186113,9.12639592 C152.186113,6.43293602 153.922686,4.89128464 156.208583,4.89128464 C158.556501,4.89128464 160.213333,6.52153668 160.213333,9.12639592 L160.213333,10.216184 L154.135328,10.216184 L154.135328,10.6769074 C154.135328,11.9881971 154.932734,12.9539442 156.314904,12.9539442 C157.342672,12.9539442 158.051477,12.4666406 158.184378,11.8818763 L160.107012,11.8818763 C159.991831,12.9893844 158.848883,14.5841962 156.323764,14.5841962 Z M154.135328,8.89603421 L158.290699,8.89603421 L158.290699,8.78085336 C158.290699,7.40754322 157.466712,6.49495648 156.217443,6.49495648 C154.968174,6.49495648 154.135328,7.40754322 154.135328,8.78085336 L154.135328,8.89603421 Z M162.818192,14.424715 L162.818192,5.05076582 L164.776266,5.05076582 L164.776266,6.51267661 L164.882587,6.51267661 C165.086369,5.88361197 165.768594,4.90900477 167.336825,4.90900477 C167.602627,4.90900477 167.815269,4.93558496 168.00133,4.97102523 L168.00133,6.78733864 C167.832989,6.73417825 167.487446,6.71645812 167.159624,6.71645812 C165.582532,6.71645812 164.811707,7.63790492 164.811707,8.90489428 L164.811707,14.424715 L162.818192,14.424715 Z" id="Explorer"></path>
                        <g id="logo" transform="translate(0.282112, 0.621024)">
                            <g id="Group-34" transform="translate(0.642339, 0.577783)">
                                <g id="quanta" transform="translate(0.025212, 0.141202)">
                                    <path d="M35.9751242,13.6457239 C35.6509546,14.323626 34.9013123,14.4631941 34.1719306,14.323626 C33.5235913,13.9647366 33.1183793,13.2469579 33.5235913,12.4095494 L39.3383842,1.22416419 C39.8854205,0.167434399 41.3441839,0.127557803 41.8506989,1.22416419 L47.5641888,12.4095494 C48.3948735,13.9647366 45.9433406,15.2009111 45.2139589,13.6457239 L44.3224924,11.8911536 L36.8463301,11.8911536 L35.9751242,13.6457239 Z M38.1024875,9.2592983 L42.8839896,9.2592983 L40.5945416,4.33453869 L38.1024875,9.2592983 Z" id="Combined-Shape-Copy-67"></path>
                                    <path d="M50.7037288,12.9782968 L50.7037288,1.80454693 C50.7037288,1.07714188 50.8644949,0.36994252 51.9094746,0.36994252 C52.6329221,0.36994252 52.7936882,0.551793783 53.3362738,1.07714188 L59.9879714,9.44229997 L59.9879714,1.60248997 C59.9879714,0.935702005 60.5707485,0.208296953 61.2540044,0.208296953 C61.9774519,0.208296953 62.6808036,0.935702005 62.6808036,1.60248997 L62.6808036,12.9782968 C62.6808036,13.8673474 62.138218,14.2108442 61.6157282,14.3724898 C60.9123765,14.3724898 60.5707485,14.2108442 59.9879714,13.6652904 L53.3362738,5.17889814 L53.3362738,12.9782968 C53.3362738,13.8673474 52.7936882,14.3724898 52.0702407,14.3724898 C51.3467932,14.3724898 50.7037288,13.8673474 50.7037288,12.9782968 Z" id="Path-Copy-22"></path>
                                    <path d="M70.4895926,13.0547272 L70.4895926,2.9721722 L66.9648983,2.9721722 C65.2126217,2.9721722 65.2126217,0.416593906 66.9648983,0.416593906 L76.4916435,0.416593906 C78.2842023,0.416593906 78.2842023,2.9721722 76.4916435,2.9721722 L73.1482192,2.9721722 L73.1482192,13.0547272 C73.1482192,14.7917218 70.4895926,14.8316527 70.4895926,13.0547272 Z" id="Path-Copy-21"></path>
                                    <path d="M27.744228,8.99986647 L27.744228,1.79739542 C27.744228,0.0266221463 30.3914646,-0.112652156 30.3914646,1.79739542 L30.3914646,8.99986647 C30.3914646,16.4410935 18.2060929,16.4410935 18.2060929,8.99986647 L18.2060929,1.79739542 C18.2060929,0.00672581746 20.8533295,-0.0728594981 20.8533295,1.79739542 L20.8533295,8.99986647 C20.8533295,12.9194433 27.744228,13.1581992 27.744228,8.99986647 Z" id="UANTA-Copy-16"></path>
                                    <path d="M81.7268104,13.4374269 C81.4026408,14.115329 80.6529985,14.2548971 79.9236168,14.115329 C79.2752775,13.7564397 78.8700655,13.0386609 79.2752775,12.2012524 L85.0900704,1.01586724 C85.6371067,-0.0408625538 87.0958701,-0.0807391498 87.6023851,1.01586724 L93.315875,12.2012524 C94.1465597,13.7564397 91.6950268,14.9926142 90.9656451,13.4374269 L90.0741786,11.6828567 L82.5980163,11.6828567 L81.7268104,13.4374269 Z M83.8541737,9.05100134 L88.6356758,9.05100134 L86.3462278,4.12624173 L83.8541737,9.05100134 Z" id="Combined-Shape-Copy-64"></path>
                                    <g id="Group-9">
                                        <path d="M7.49869032,14.9973806 C3.35727801,14.9973806 1.10134124e-13,11.6401026 1.10134124e-13,7.49869032 C1.10134124e-13,3.35727801 3.35727801,-1.42108547e-14 7.49869032,-1.42108547e-14 C11.6401026,-1.42108547e-14 14.9973806,3.35727801 14.9973806,7.49869032 C14.9973806,11.6401026 11.6401026,14.9973806 7.49869032,14.9973806 Z M7.49869032,12.372839 C10.1906083,12.372839 12.372839,10.1906083 12.372839,7.49869032 C12.372839,4.80677232 10.1906083,2.62454161 7.49869032,2.62454161 C4.80677232,2.62454161 2.62454161,4.80677232 2.62454161,7.49869032 C2.62454161,10.1906083 4.80677232,12.372839 7.49869032,12.372839 Z" id="Combined-Shape-Copy-66"></path>
                                        <path d="M5.1298841,8.22109464 C4.83406782,7.66372029 5.05711504,6.97777824 5.628074,6.6890002 C6.19903296,6.40022216 6.90169313,6.6179625 7.19750941,7.17533686 L9.65919957,12.0878583 C9.95501585,12.6452327 9.73196864,13.3311747 9.16100968,13.6199527 C8.59005071,13.9087308 7.88739054,13.6909904 7.59157426,13.1336161 L5.1298841,8.22109464 Z" id="Path-6-Copy-25" transform="translate(7.394542, 10.154476) rotate(26.000000) translate(-7.394542, -10.154476) "></path>
                                    </g>
                                </g>
                            </g>
                        </g>
                    </g>
                    <path d="M3.48755768,27.6210237 L2.84156158,27.6210237 L2.84156158,21.626883 L3.48755768,21.626883 L3.48755768,27.6210237 Z M5.17505768,27.6210237 L5.17505768,23.0199495 L5.80787018,23.0199495 L5.80787018,23.876883 L5.84302643,23.876883 C5.96167877,23.4945588 6.29126861,22.9452424 7.25806549,22.9452424 C8.18531158,22.9452424 8.83130768,23.455008 8.83130768,24.4789338 L8.83130768,27.6210237 L8.19410064,27.6210237 L8.19410064,24.6810823 C8.19410064,23.9384065 7.80738189,23.512137 7.11744049,23.512137 C6.22974518,23.512137 5.80787018,24.1976838 5.80787018,25.0282502 L5.80787018,27.6210237 L5.17505768,27.6210237 Z M10.206796,24.3075471 C10.206796,23.3671174 10.9934171,22.9452424 11.8635342,22.9452424 C12.8654874,22.9452424 13.4675381,23.4945588 13.4675381,24.2064729 L12.8698819,24.2064729 C12.8435147,23.8724885 12.531503,23.4813752 11.8371671,23.4813752 C11.265878,23.4813752 10.8308194,23.7450471 10.8308194,24.2372346 C10.8308194,24.8085237 11.4108975,24.9052034 11.9777921,25.0150666 C12.8391202,25.1776643 13.581796,25.3929963 13.581796,26.2938752 C13.581796,27.1991487 12.8347256,27.6957307 11.8020108,27.6957307 C10.7824796,27.6957307 10.1145108,27.2211213 10.1145108,26.4345002 L10.7385342,26.4345002 C10.7956631,26.8563752 11.0944913,27.168387 11.828378,27.168387 C12.5930264,27.168387 12.9489835,26.8256135 12.9489835,26.3685823 C12.9489835,25.8148713 12.4216397,25.7006135 11.7668546,25.5687776 C10.8967374,25.3842073 10.206796,25.1908479 10.206796,24.3075471 Z M16.956796,27.6957307 C16.2756436,27.6957307 15.8098233,27.3793245 15.6076749,26.9135041 L15.5725186,26.9135041 L15.5725186,29.1415315 L14.9397061,29.1415315 L14.9397061,23.0155549 L15.5417569,23.0155549 L15.5417569,23.7802034 L15.5769131,23.7802034 C15.7482999,23.3099885 16.2668546,22.9452424 16.9831631,22.9452424 C18.0554288,22.9452424 18.7541592,23.7011018 18.7541592,24.8920198 L18.7541592,25.7445588 C18.7541592,26.9574495 18.0378506,27.6957307 16.956796,27.6957307 Z M16.8732999,27.1332307 C17.6379483,27.1332307 18.1169522,26.5839143 18.1169522,25.5951448 L18.1169522,25.0502229 C18.1169522,24.0658479 17.6467374,23.512137 16.8513272,23.512137 C16.0559171,23.512137 15.5725186,24.074637 15.5725186,24.9359651 L15.5725186,25.7928987 C15.5725186,26.5751252 16.0998624,27.1332307 16.8732999,27.1332307 Z M21.8523038,27.6957307 C20.6394131,27.6957307 19.9362881,26.9091096 19.9362881,25.6830354 L19.9362881,24.9711213 C19.9362881,23.7230745 20.7097256,22.9452424 21.7951749,22.9452424 C22.8806241,22.9452424 23.6540616,23.7230745 23.6540616,24.9711213 L23.6540616,25.4852815 L20.5734952,25.4852815 L20.5734952,25.7269807 C20.5734952,26.5311799 21.0173428,27.1332307 21.8479092,27.1332307 C22.4543546,27.1332307 22.8322842,26.830008 22.9157803,26.5267854 L23.5881436,26.5267854 C23.5178311,27.0013948 22.9729092,27.6957307 21.8523038,27.6957307 Z M20.5734952,24.9886995 L23.0168546,24.9886995 L23.0168546,24.9139924 C23.0168546,24.0570588 22.5290616,23.512137 21.7951749,23.512137 C21.0612881,23.512137 20.5734952,24.0570588 20.5734952,24.9139924 L20.5734952,24.9886995 Z M24.8054288,25.7137971 L24.8054288,24.9139924 C24.8054288,23.7098909 25.5305264,22.9452424 26.6774991,22.9452424 C27.8112881,22.9452424 28.3781827,23.6571565 28.4001553,24.298758 L27.7673428,24.298758 C27.7102139,23.9999299 27.4641202,23.5253205 26.6862881,23.5253205 C25.8732999,23.5253205 25.4382413,24.074637 25.4382413,24.9491487 L25.4382413,25.7137971 C25.4382413,26.5795198 25.9128506,27.1156526 26.6906827,27.1156526 C27.4333585,27.1156526 27.7102139,26.7640901 27.7981046,26.4037385 L28.4309171,26.4037385 C28.4001553,27.0189729 27.8772061,27.6957307 26.6774991,27.6957307 C25.5261319,27.6957307 24.8054288,26.9398713 24.8054288,25.7137971 Z M29.9865811,23.0199495 L29.9865811,21.8685823 L30.6193936,21.8685823 L30.6193936,23.0199495 L31.7004483,23.0199495 L31.7004483,23.5516877 L30.6193936,23.5516877 L30.6193936,26.4037385 C30.6193936,26.970633 30.8039639,27.1200471 31.3972256,27.1200471 C31.5070889,27.1200471 31.6960538,27.1068635 31.7751553,27.0980745 L31.7751553,27.6298127 C31.7048428,27.6429963 31.3884366,27.664969 31.2434171,27.664969 C30.1931241,27.664969 29.9865811,27.2562776 29.9865811,26.3729768 L29.9865811,23.5516877 L29.2526944,23.5516877 L29.2526944,23.0199495 L29.9865811,23.0199495 Z M37.1189053,27.6957307 C36.4641202,27.6957307 35.9323819,27.3969026 35.7258389,26.9135041 L35.6950772,26.9135041 L35.6950772,27.6210237 L35.0886319,27.6210237 L35.0886319,21.3060823 L35.7258389,21.3060823 L35.7258389,23.7802034 L35.7566006,23.7802034 C35.8972256,23.2880159 36.4685147,22.9452424 37.1452725,22.9452424 C38.2263272,22.9452424 38.9162686,23.7054963 38.9162686,24.8920198 L38.9162686,25.7445588 C38.9162686,26.9398713 38.2175381,27.6957307 37.1189053,27.6957307 Z M37.0441983,27.1332307 C37.8220303,27.1332307 38.2790616,26.5663362 38.2790616,25.6039338 L38.2790616,25.059012 C38.2790616,24.083426 37.8132413,23.512137 37.0222256,23.512137 C36.23121,23.512137 35.7258389,24.074637 35.7258389,24.9579377 L35.7258389,25.770926 C35.7258389,26.5619416 36.2751553,27.1332307 37.0441983,27.1332307 Z M40.3444913,27.6210237 L40.3444913,21.3060823 L40.9816983,21.3060823 L40.9816983,27.6210237 L40.3444913,27.6210237 Z M44.3566983,22.9452424 C45.4509366,22.9452424 46.2946866,23.6703401 46.2946866,24.9579377 L46.2946866,25.6830354 C46.2946866,26.970633 45.4553311,27.6957307 44.3566983,27.6957307 C43.2360928,27.6957307 42.4143155,26.9838166 42.4143155,25.6830354 L42.4143155,24.9579377 C42.4143155,23.7098909 43.2492764,22.9452424 44.3566983,22.9452424 Z M44.3610928,23.512137 C43.5744717,23.512137 43.047128,24.1097932 43.047128,25.0326448 L43.047128,25.6171174 C43.047128,26.5575471 43.5481046,27.1332307 44.3610928,27.1332307 C45.1652921,27.1332307 45.6574796,26.5619416 45.6574796,25.6171174 L45.6574796,25.0326448 C45.6574796,24.1097932 45.1433194,23.512137 44.3610928,23.512137 Z M47.472421,25.7137971 L47.472421,24.9139924 C47.472421,23.7098909 48.1975186,22.9452424 49.3444913,22.9452424 C50.4782803,22.9452424 51.0451749,23.6571565 51.0671475,24.298758 L50.434335,24.298758 C50.3772061,23.9999299 50.1311124,23.5253205 49.3532803,23.5253205 C48.5402921,23.5253205 48.1052335,24.074637 48.1052335,24.9491487 L48.1052335,25.7137971 C48.1052335,26.5795198 48.5798428,27.1156526 49.3576749,27.1156526 C50.1003506,27.1156526 50.3772061,26.7640901 50.4650967,26.4037385 L51.0979092,26.4037385 C51.0671475,27.0189729 50.5441983,27.6957307 49.3444913,27.6957307 C48.1931241,27.6957307 47.472421,26.9398713 47.472421,25.7137971 Z M53.0622647,25.8763948 L53.0622647,27.6210237 L52.4294522,27.6210237 L52.4294522,21.3060823 L53.0622647,21.3060823 L53.0622647,25.1600862 L53.0886319,25.1600862 L55.1101163,23.0199495 L55.8615811,23.0199495 L53.9982999,25.0062776 L55.9802335,27.6210237 L55.215585,27.6210237 L53.5368741,25.4105745 L53.0622647,25.8763948 Z M56.7976163,25.7137971 L56.7976163,24.9139924 C56.7976163,23.7098909 57.5227139,22.9452424 58.6696866,22.9452424 C59.8034756,22.9452424 60.3703702,23.6571565 60.3923428,24.298758 L59.7595303,24.298758 C59.7024014,23.9999299 59.4563077,23.5253205 58.6784756,23.5253205 C57.8654874,23.5253205 57.4304288,24.074637 57.4304288,24.9491487 L57.4304288,25.7137971 C57.4304288,26.5795198 57.9050381,27.1156526 58.6828702,27.1156526 C59.425546,27.1156526 59.7024014,26.7640901 59.7902921,26.4037385 L60.4231046,26.4037385 C60.3923428,27.0189729 59.8693936,27.6957307 58.6696866,27.6957307 C57.5183194,27.6957307 56.7976163,26.9398713 56.7976163,25.7137971 Z M61.7546475,27.6210237 L61.7546475,21.3060823 L62.38746,21.3060823 L62.38746,23.876883 L62.4226163,23.876883 C62.519296,23.5385041 62.9060147,22.9452424 63.8728116,22.9452424 C64.7649014,22.9452424 65.4284756,23.4594026 65.4284756,24.4877229 L65.4284756,27.6210237 L64.7912686,27.6210237 L64.7912686,24.6898713 C64.7912686,23.9471955 64.3781827,23.512137 63.6882413,23.512137 C62.8269131,23.512137 62.38746,24.1932893 62.38746,25.0282502 L62.38746,27.6210237 L61.7546475,27.6210237 Z M68.2629483,27.6957307 C67.3708585,27.6957307 66.7600186,27.1376252 66.7600186,26.2894807 C66.7600186,25.4984651 67.3137296,24.9535432 68.3640225,24.9535432 L69.6208585,24.9535432 L69.6208585,24.4569612 C69.6208585,23.8065705 69.2077725,23.512137 68.566171,23.512137 C67.9201749,23.512137 67.656503,23.7758088 67.5598233,24.1010041 L66.9401944,24.1010041 C67.0105069,23.3539338 67.6301358,22.9452424 68.5969327,22.9452424 C69.5153897,22.9452424 70.26246,23.3583284 70.26246,24.4437776 L70.26246,27.6210237 L69.6472256,27.6210237 L69.6472256,26.9794221 L69.6164639,26.9794221 C69.4011319,27.3441682 68.9748624,27.6957307 68.2629483,27.6957307 Z M68.4167569,27.1332307 C69.0979092,27.1332307 69.6208585,26.6674104 69.6208585,26.043387 L69.6208585,25.4852815 L68.3772061,25.4852815 C67.6960538,25.4852815 67.4191983,25.8280549 67.4191983,26.2762971 C67.4191983,26.8563752 67.8850186,27.1332307 68.4167569,27.1332307 Z M71.9807217,27.6210237 L71.9807217,23.0199495 L72.6135342,23.0199495 L72.6135342,27.6210237 L71.9807217,27.6210237 Z M71.809335,21.6005159 C71.809335,21.3148713 72.0246671,21.1083284 72.2927335,21.1083284 C72.5739835,21.1083284 72.784921,21.3148713 72.784921,21.6005159 C72.784921,21.8729768 72.5739835,22.0839143 72.2927335,22.0839143 C72.0246671,22.0839143 71.809335,21.8729768 71.809335,21.6005159 Z M74.3537686,27.6210237 L74.3537686,23.0199495 L74.9865811,23.0199495 L74.9865811,23.876883 L75.0217374,23.876883 C75.1403897,23.4945588 75.4699796,22.9452424 76.4367764,22.9452424 C77.3640225,22.9452424 78.0100186,23.455008 78.0100186,24.4789338 L78.0100186,27.6210237 L77.3728116,27.6210237 L77.3728116,24.6810823 C77.3728116,23.9384065 76.9860928,23.512137 76.2961514,23.512137 C75.4084561,23.512137 74.9865811,24.1976838 74.9865811,25.0282502 L74.9865811,27.6210237 L74.3537686,27.6210237 Z M85.8103116,27.6210237 L85.2302335,26.9970002 C84.6193936,27.5551057 83.8811124,27.7352815 83.3054288,27.7352815 C82.2243741,27.7352815 81.3234952,27.111258 81.3234952,26.052176 C81.3234952,25.3007112 81.784921,24.7909455 82.5144131,24.3998323 C82.5759366,24.364676 82.6857999,24.3119416 82.7473233,24.2767854 C82.3386319,23.8505159 81.9870694,23.4330354 81.9870694,22.8793245 C81.9870694,22.1498323 82.5979092,21.5741487 83.4680264,21.5741487 C84.3205655,21.5741487 84.9445889,22.1322541 84.9445889,22.8969026 C84.9445889,23.6176057 84.3864835,24.0306916 83.6438077,24.4218049 L85.1950772,26.1049104 C85.4016202,25.7225862 85.4982999,25.1381135 85.5026944,24.3998323 C85.5026944,24.3866487 85.5070889,24.2284455 85.5070889,24.215262 L86.1135342,24.215262 L86.1135342,24.3998323 C86.1091397,25.2963166 85.9553311,26.0214143 85.6213467,26.5355745 L86.640878,27.6210237 L85.8103116,27.6210237 Z M82.8835538,24.7909455 C82.3298428,25.0941682 81.9694913,25.4457307 81.9694913,26.0126252 C81.9694913,26.7904573 82.6330655,27.1859651 83.3537686,27.1859651 C83.8371671,27.1859651 84.4524014,27.0101838 84.8479092,26.5839143 L83.1076749,24.6722932 C83.050546,24.7030549 82.9406827,24.7601838 82.8835538,24.7909455 Z M83.2834561,24.0438752 C83.9162686,23.727469 84.32496,23.4330354 84.32496,22.9100862 C84.32496,22.4266877 83.9646085,22.0927034 83.4680264,22.0927034 C82.9626553,22.0927034 82.6154874,22.4398713 82.6154874,22.9144807 C82.6154874,23.2572541 82.7912686,23.5428987 83.2834561,24.0438752 Z M89.3610928,25.7137971 L89.3610928,24.9139924 C89.3610928,23.7098909 90.0861905,22.9452424 91.2331631,22.9452424 C92.3669522,22.9452424 92.9338467,23.6571565 92.9558194,24.298758 L92.3230069,24.298758 C92.265878,23.9999299 92.0197842,23.5253205 91.2419522,23.5253205 C90.4289639,23.5253205 89.9939053,24.074637 89.9939053,24.9491487 L89.9939053,25.7137971 C89.9939053,26.5795198 90.4685147,27.1156526 91.2463467,27.1156526 C91.9890225,27.1156526 92.265878,26.7640901 92.3537686,26.4037385 L92.9865811,26.4037385 C92.9558194,27.0189729 92.4328702,27.6957307 91.2331631,27.6957307 C90.081796,27.6957307 89.3610928,26.9398713 89.3610928,25.7137971 Z M94.375253,27.6210237 L94.375253,23.0199495 L95.0080655,23.0199495 L95.0080655,23.7582307 L95.0388272,23.7582307 C95.153085,23.4374299 95.500253,22.949637 96.3396085,22.949637 C96.4406827,22.949637 96.5373624,22.9628205 96.625253,22.9716096 L96.625253,23.5648713 C96.5549405,23.5516877 96.409921,23.5428987 96.2649014,23.5428987 C95.4563077,23.5428987 95.0080655,24.0394807 95.0080655,24.7250276 L95.0080655,27.6210237 L94.375253,27.6210237 Z M99.4333585,22.9452424 C100.527597,22.9452424 101.371347,23.6703401 101.371347,24.9579377 L101.371347,25.6830354 C101.371347,26.970633 100.531991,27.6957307 99.4333585,27.6957307 C98.312753,27.6957307 97.4909756,26.9838166 97.4909756,25.6830354 L97.4909756,24.9579377 C97.4909756,23.7098909 98.3259366,22.9452424 99.4333585,22.9452424 Z M99.437753,23.512137 C98.6511319,23.512137 98.1237881,24.1097932 98.1237881,25.0326448 L98.1237881,25.6171174 C98.1237881,26.5575471 98.6247647,27.1332307 99.437753,27.1332307 C100.241952,27.1332307 100.73414,26.5619416 100.73414,25.6171174 L100.73414,25.0326448 C100.73414,24.1097932 100.21998,23.512137 99.437753,23.512137 Z M102.549081,24.3075471 C102.549081,23.3671174 103.335702,22.9452424 104.205819,22.9452424 C105.207773,22.9452424 105.809823,23.4945588 105.809823,24.2064729 L105.212167,24.2064729 C105.1858,23.8724885 104.873788,23.4813752 104.179452,23.4813752 C103.608163,23.4813752 103.173105,23.7450471 103.173105,24.2372346 C103.173105,24.8085237 103.753183,24.9052034 104.320077,25.0150666 C105.181405,25.1776643 105.924081,25.3929963 105.924081,26.2938752 C105.924081,27.1991487 105.177011,27.6957307 104.144296,27.6957307 C103.124765,27.6957307 102.456796,27.2211213 102.456796,26.4345002 L103.080819,26.4345002 C103.137948,26.8563752 103.436776,27.168387 104.170663,27.168387 C104.935312,27.168387 105.291269,26.8256135 105.291269,26.3685823 C105.291269,25.8148713 104.763925,25.7006135 104.10914,25.5687776 C103.239023,25.3842073 102.549081,25.1908479 102.549081,24.3075471 Z M107.053476,24.3075471 C107.053476,23.3671174 107.840097,22.9452424 108.710214,22.9452424 C109.712167,22.9452424 110.314218,23.4945588 110.314218,24.2064729 L109.716562,24.2064729 C109.690194,23.8724885 109.378183,23.4813752 108.683847,23.4813752 C108.112558,23.4813752 107.677499,23.7450471 107.677499,24.2372346 C107.677499,24.8085237 108.257577,24.9052034 108.824472,25.0150666 C109.6858,25.1776643 110.428476,25.3929963 110.428476,26.2938752 C110.428476,27.1991487 109.681405,27.6957307 108.64869,27.6957307 C107.629159,27.6957307 106.96119,27.2211213 106.96119,26.4345002 L107.585214,26.4345002 C107.642343,26.8563752 107.941171,27.168387 108.675058,27.168387 C109.439706,27.168387 109.795663,26.8256135 109.795663,26.3685823 C109.795663,25.8148713 109.268319,25.7006135 108.613534,25.5687776 C107.743417,25.3842073 107.053476,25.1908479 107.053476,24.3075471 Z M111.55787,25.7137971 L111.55787,24.9139924 C111.55787,23.7098909 112.282968,22.9452424 113.42994,22.9452424 C114.56373,22.9452424 115.130624,23.6571565 115.152597,24.298758 L114.519784,24.298758 C114.462655,23.9999299 114.216562,23.5253205 113.43873,23.5253205 C112.625741,23.5253205 112.190683,24.074637 112.190683,24.9491487 L112.190683,25.7137971 C112.190683,26.5795198 112.665292,27.1156526 113.443124,27.1156526 C114.1858,27.1156526 114.462655,26.7640901 114.550546,26.4037385 L115.183358,26.4037385 C115.152597,27.0189729 114.629648,27.6957307 113.42994,27.6957307 C112.278573,27.6957307 111.55787,26.9398713 111.55787,25.7137971 Z M116.514901,27.6210237 L116.514901,21.3060823 L117.147714,21.3060823 L117.147714,23.876883 L117.18287,23.876883 C117.27955,23.5385041 117.666269,22.9452424 118.633065,22.9452424 C119.525155,22.9452424 120.18873,23.4594026 120.18873,24.4877229 L120.18873,27.6210237 L119.551523,27.6210237 L119.551523,24.6898713 C119.551523,23.9471955 119.138437,23.512137 118.448495,23.512137 C117.587167,23.512137 117.147714,24.1932893 117.147714,25.0282502 L117.147714,27.6210237 L116.514901,27.6210237 Z M123.023202,27.6957307 C122.131112,27.6957307 121.520273,27.1376252 121.520273,26.2894807 C121.520273,25.4984651 122.073983,24.9535432 123.124276,24.9535432 L124.381112,24.9535432 L124.381112,24.4569612 C124.381112,23.8065705 123.968026,23.512137 123.326425,23.512137 C122.680429,23.512137 122.416757,23.7758088 122.320077,24.1010041 L121.700448,24.1010041 C121.770761,23.3539338 122.39039,22.9452424 123.357187,22.9452424 C124.275644,22.9452424 125.022714,23.3583284 125.022714,24.4437776 L125.022714,27.6210237 L124.40748,27.6210237 L124.40748,26.9794221 L124.376718,26.9794221 C124.161386,27.3441682 123.735116,27.6957307 123.023202,27.6957307 Z M123.177011,27.1332307 C123.858163,27.1332307 124.381112,26.6674104 124.381112,26.043387 L124.381112,25.4852815 L123.13746,25.4852815 C122.456308,25.4852815 122.179452,25.8280549 122.179452,26.2762971 C122.179452,26.8563752 122.645273,27.1332307 123.177011,27.1332307 Z M126.740976,27.6210237 L126.740976,23.0199495 L127.373788,23.0199495 L127.373788,27.6210237 L126.740976,27.6210237 Z M126.569589,21.6005159 C126.569589,21.3148713 126.784921,21.1083284 127.052987,21.1083284 C127.334237,21.1083284 127.545175,21.3148713 127.545175,21.6005159 C127.545175,21.8729768 127.334237,22.0839143 127.052987,22.0839143 C126.784921,22.0839143 126.569589,21.8729768 126.569589,21.6005159 Z M129.114023,27.6210237 L129.114023,23.0199495 L129.746835,23.0199495 L129.746835,23.876883 L129.781991,23.876883 C129.900644,23.4945588 130.230233,22.9452424 131.19703,22.9452424 C132.124276,22.9452424 132.770273,23.455008 132.770273,24.4789338 L132.770273,27.6210237 L132.133065,27.6210237 L132.133065,24.6810823 C132.133065,23.9384065 131.746347,23.512137 131.056405,23.512137 C130.16871,23.512137 129.746835,24.1976838 129.746835,25.0282502 L129.746835,27.6210237 L129.114023,27.6210237 Z M137.982187,22.9452424 C138.672128,22.9452424 139.16871,23.2792268 139.344491,23.7318635 L139.375253,23.7318635 L139.375253,21.3060823 L140.01246,21.3060823 L140.01246,27.6210237 L139.406015,27.6210237 L139.406015,26.8607698 L139.375253,26.8607698 C139.252206,27.3002229 138.689706,27.6913362 137.960214,27.6913362 C136.892343,27.6913362 136.184823,26.9442659 136.184823,25.7928987 L136.184823,24.8480745 C136.184823,23.6835237 136.923105,22.9452424 137.982187,22.9452424 Z M138.061288,23.512137 C137.309823,23.512137 136.82203,24.0570588 136.82203,25.0062776 L136.82203,25.6259065 C136.82203,26.5707307 137.309823,27.1288362 138.083261,27.1288362 C138.878671,27.1288362 139.375253,26.548758 139.375253,25.7006135 L139.375253,24.852469 C139.375253,24.0790315 138.830331,23.512137 138.061288,23.512137 Z M142.882089,27.6957307 C141.989999,27.6957307 141.379159,27.1376252 141.379159,26.2894807 C141.379159,25.4984651 141.93287,24.9535432 142.983163,24.9535432 L144.239999,24.9535432 L144.239999,24.4569612 C144.239999,23.8065705 143.826913,23.512137 143.185312,23.512137 C142.539315,23.512137 142.275644,23.7758088 142.178964,24.1010041 L141.559335,24.1010041 C141.629648,23.3539338 142.249276,22.9452424 143.216073,22.9452424 C144.13453,22.9452424 144.881601,23.3583284 144.881601,24.4437776 L144.881601,27.6210237 L144.266366,27.6210237 L144.266366,26.9794221 L144.235605,26.9794221 C144.020273,27.3441682 143.594003,27.6957307 142.882089,27.6957307 Z M143.035898,27.1332307 C143.71705,27.1332307 144.239999,26.6674104 144.239999,26.043387 L144.239999,25.4852815 L142.996347,25.4852815 C142.315194,25.4852815 142.038339,25.8280549 142.038339,26.2762971 C142.038339,26.8563752 142.504159,27.1332307 143.035898,27.1332307 Z M146.722909,23.0199495 L146.722909,21.8685823 L147.355722,21.8685823 L147.355722,23.0199495 L148.436776,23.0199495 L148.436776,23.5516877 L147.355722,23.5516877 L147.355722,26.4037385 C147.355722,26.970633 147.540292,27.1200471 148.133554,27.1200471 C148.243417,27.1200471 148.432382,27.1068635 148.511483,27.0980745 L148.511483,27.6298127 C148.441171,27.6429963 148.124765,27.664969 147.979745,27.664969 C146.929452,27.664969 146.722909,27.2562776 146.722909,26.3729768 L146.722909,23.5516877 L145.989023,23.5516877 L145.989023,23.0199495 L146.722909,23.0199495 Z M151.007577,27.6957307 C150.115487,27.6957307 149.504648,27.1376252 149.504648,26.2894807 C149.504648,25.4984651 150.058358,24.9535432 151.108651,24.9535432 L152.365487,24.9535432 L152.365487,24.4569612 C152.365487,23.8065705 151.952401,23.512137 151.3108,23.512137 C150.664804,23.512137 150.401132,23.7758088 150.304452,24.1010041 L149.684823,24.1010041 C149.755136,23.3539338 150.374765,22.9452424 151.341562,22.9452424 C152.260019,22.9452424 153.007089,23.3583284 153.007089,24.4437776 L153.007089,27.6210237 L152.391855,27.6210237 L152.391855,26.9794221 L152.361093,26.9794221 C152.145761,27.3441682 151.719491,27.6957307 151.007577,27.6957307 Z M151.161386,27.1332307 C151.842538,27.1332307 152.365487,26.6674104 152.365487,26.043387 L152.365487,25.4852815 L151.121835,25.4852815 C150.440683,25.4852815 150.163827,25.8280549 150.163827,26.2762971 C150.163827,26.8563752 150.629648,27.1332307 151.161386,27.1332307 Z" id="Inspect-blockchain-&amp;" opacity="0.578497024"></path>
                </g>
            </g>
        </g>
    </g>
</svg>