<?xml version="1.0" encoding="UTF-8"?>
<svg width="172px" height="29px" viewBox="0 0 172 29" version="1.1" xmlns="http://www.w3.org/2000/svg" xmlns:xlink="http://www.w3.org/1999/xlink">
    <!-- Generator: Sketch 52.6 (67491) - http://www.bohemiancoding.com/sketch -->
    <title>quantadex_link</title>
    <desc>Created with Sketch.</desc>
    <g id="--&gt;-EXCHANGE-MOBILE-V2" stroke="none" stroke-width="1" fill="none" fill-rule="evenodd">
        <g id="mobile_web_1" transform="translate(-100.000000, -72.000000)">
            <g id="property_selection" transform="translate(20.565406, 43.339000)">
                <g id="quantadex_link" transform="translate(79.000000, 28.000000)">
                    <path d="M3.18287018,27.7592758 L2.53687408,27.7592758 L2.53687408,22.3496078 L0.673592832,22.3496078 L0.673592832,21.7651352 L5.04615143,21.7651352 L5.04615143,22.3496078 L3.18287018,22.3496078 L3.18287018,27.7592758 Z M6.13599518,27.7592758 L6.13599518,23.1582016 L6.76880768,23.1582016 L6.76880768,23.8964828 L6.79956939,23.8964828 C6.91382721,23.575682 7.26099518,23.0878891 8.10035064,23.0878891 C8.20142486,23.0878891 8.29810455,23.1010727 8.38599518,23.1098617 L8.38599518,23.7031234 C8.31568268,23.6899398 8.17066314,23.6811508 8.02564361,23.6811508 C7.21704986,23.6811508 6.76880768,24.1777328 6.76880768,24.8632797 L6.76880768,27.7592758 L6.13599518,27.7592758 Z M10.7063077,27.8339828 C9.81421783,27.8339828 9.20337799,27.2758773 9.20337799,26.4277328 C9.20337799,25.6367172 9.75708893,25.0917953 10.8073819,25.0917953 L12.0642178,25.0917953 L12.0642178,24.5952133 C12.0642178,23.9448227 11.6511319,23.6503891 11.0095303,23.6503891 C10.3635342,23.6503891 10.0998624,23.9140609 10.0031827,24.2392562 L9.38355377,24.2392562 C9.45386627,23.4921859 10.0734952,23.0834945 11.0402921,23.0834945 C11.9587491,23.0834945 12.7058194,23.4965805 12.7058194,24.5820297 L12.7058194,27.7592758 L12.090585,27.7592758 L12.090585,27.1176742 L12.0598233,27.1176742 C11.8444913,27.4824203 11.4182217,27.8339828 10.7063077,27.8339828 Z M10.8601163,27.2714828 C11.5412686,27.2714828 12.0642178,26.8056625 12.0642178,26.1816391 L12.0642178,25.6235336 L10.8205655,25.6235336 C10.1394131,25.6235336 9.86255768,25.966307 9.86255768,26.4145492 C9.86255768,26.9946273 10.328378,27.2714828 10.8601163,27.2714828 Z M15.878671,23.0834945 C16.5686124,23.0834945 17.0651944,23.4174789 17.2409756,23.8701156 L17.2717374,23.8701156 L17.2717374,21.4443344 L17.9089444,21.4443344 L17.9089444,27.7592758 L17.3024991,27.7592758 L17.3024991,26.9990219 L17.2717374,26.9990219 C17.1486905,27.438475 16.5861905,27.8295883 15.8566983,27.8295883 C14.7888272,27.8295883 14.0813077,27.082518 14.0813077,25.9311508 L14.0813077,24.9863266 C14.0813077,23.8217758 14.8195889,23.0834945 15.878671,23.0834945 Z M15.9577725,23.6503891 C15.2063077,23.6503891 14.7185147,24.1953109 14.7185147,25.1445297 L14.7185147,25.7641586 C14.7185147,26.7089828 15.2063077,27.2670883 15.9797452,27.2670883 C16.7751553,27.2670883 17.2717374,26.6870102 17.2717374,25.8388656 L17.2717374,24.9907211 C17.2717374,24.2172836 16.7268155,23.6503891 15.9577725,23.6503891 Z M21.2399991,27.8339828 C20.0271085,27.8339828 19.3239835,27.0473617 19.3239835,25.8212875 L19.3239835,25.1093734 C19.3239835,23.8613266 20.097421,23.0834945 21.1828702,23.0834945 C22.2683194,23.0834945 23.0417569,23.8613266 23.0417569,25.1093734 L23.0417569,25.6235336 L19.9611905,25.6235336 L19.9611905,25.8652328 C19.9611905,26.669432 20.4050381,27.2714828 21.2356046,27.2714828 C21.8420499,27.2714828 22.2199796,26.9682602 22.3034756,26.6650375 L22.9758389,26.6650375 C22.9055264,27.1396469 22.3606046,27.8339828 21.2399991,27.8339828 Z M19.9611905,25.1269516 L22.4045499,25.1269516 L22.4045499,25.0522445 C22.4045499,24.1953109 21.9167569,23.6503891 21.1828702,23.6503891 C20.4489835,23.6503891 19.9611905,24.1953109 19.9611905,25.0522445 L19.9611905,25.1269516 Z M28.1789639,23.0834945 C29.2732022,23.0834945 30.1169522,23.8085922 30.1169522,25.0961898 L30.1169522,25.8212875 C30.1169522,27.1088852 29.2775967,27.8339828 28.1789639,27.8339828 C27.0583585,27.8339828 26.2365811,27.1220687 26.2365811,25.8212875 L26.2365811,25.0961898 C26.2365811,23.848143 27.0715421,23.0834945 28.1789639,23.0834945 Z M28.1833585,23.6503891 C27.3967374,23.6503891 26.8693936,24.2480453 26.8693936,25.1708969 L26.8693936,25.7553695 C26.8693936,26.6957992 27.3703702,27.2714828 28.1833585,27.2714828 C28.9875577,27.2714828 29.4797452,26.7001937 29.4797452,25.7553695 L29.4797452,25.1708969 C29.4797452,24.2480453 28.965585,23.6503891 28.1833585,23.6503891 Z M31.5188077,27.7592758 L31.5188077,23.1582016 L32.1516202,23.1582016 L32.1516202,24.0151352 L32.1867764,24.0151352 C32.3054288,23.6328109 32.6350186,23.0834945 33.6018155,23.0834945 C34.5290616,23.0834945 35.1750577,23.5932602 35.1750577,24.6171859 L35.1750577,27.7592758 L34.5378506,27.7592758 L34.5378506,24.8193344 C34.5378506,24.0766586 34.1511319,23.6503891 33.4611905,23.6503891 C32.5734952,23.6503891 32.1516202,24.3359359 32.1516202,25.1665023 L32.1516202,27.7592758 L31.5188077,27.7592758 Z M39.1784756,25.5795883 L36.409921,25.5795883 L36.409921,25.0126937 L39.1784756,25.0126937 L39.1784756,25.5795883 Z M40.215585,25.8520492 L40.215585,25.0522445 C40.215585,23.848143 40.9406827,23.0834945 42.0876553,23.0834945 C43.2214444,23.0834945 43.7883389,23.7954086 43.8103116,24.4370102 L43.1774991,24.4370102 C43.1203702,24.138182 42.8742764,23.6635727 42.0964444,23.6635727 C41.2834561,23.6635727 40.8483975,24.2128891 40.8483975,25.0874008 L40.8483975,25.8520492 C40.8483975,26.7177719 41.3230069,27.2539047 42.1008389,27.2539047 C42.8435147,27.2539047 43.1203702,26.9023422 43.2082608,26.5419906 L43.8410733,26.5419906 C43.8103116,27.157225 43.2873624,27.8339828 42.0876553,27.8339828 C40.9362881,27.8339828 40.215585,27.0781234 40.215585,25.8520492 Z M45.1726163,27.7592758 L45.1726163,21.4443344 L45.8054288,21.4443344 L45.8054288,24.0151352 L45.840585,24.0151352 C45.9372647,23.6767562 46.3239835,23.0834945 47.2907803,23.0834945 C48.1828702,23.0834945 48.8464444,23.5976547 48.8464444,24.625975 L48.8464444,27.7592758 L48.2092374,27.7592758 L48.2092374,24.8281234 C48.2092374,24.0854477 47.7961514,23.6503891 47.10621,23.6503891 C46.2448819,23.6503891 45.8054288,24.3315414 45.8054288,25.1665023 L45.8054288,27.7592758 L45.1726163,27.7592758 Z M51.6809171,27.8339828 C50.7888272,27.8339828 50.1779874,27.2758773 50.1779874,26.4277328 C50.1779874,25.6367172 50.7316983,25.0917953 51.7819913,25.0917953 L53.0388272,25.0917953 L53.0388272,24.5952133 C53.0388272,23.9448227 52.6257413,23.6503891 51.9841397,23.6503891 C51.3381436,23.6503891 51.0744717,23.9140609 50.9777921,24.2392562 L50.3581631,24.2392562 C50.4284756,23.4921859 51.0481046,23.0834945 52.0149014,23.0834945 C52.9333585,23.0834945 53.6804288,23.4965805 53.6804288,24.5820297 L53.6804288,27.7592758 L53.0651944,27.7592758 L53.0651944,27.1176742 L53.0344327,27.1176742 C52.8191006,27.4824203 52.3928311,27.8339828 51.6809171,27.8339828 Z M51.8347256,27.2714828 C52.515878,27.2714828 53.0388272,26.8056625 53.0388272,26.1816391 L53.0388272,25.6235336 L51.7951749,25.6235336 C51.1140225,25.6235336 50.8371671,25.966307 50.8371671,26.4145492 C50.8371671,26.9946273 51.3029874,27.2714828 51.8347256,27.2714828 Z M55.3986905,27.7592758 L55.3986905,23.1582016 L56.031503,23.1582016 L56.031503,27.7592758 L55.3986905,27.7592758 Z M55.2273038,21.738768 C55.2273038,21.4531234 55.4426358,21.2465805 55.7107022,21.2465805 C55.9919522,21.2465805 56.2028897,21.4531234 56.2028897,21.738768 C56.2028897,22.0112289 55.9919522,22.2221664 55.7107022,22.2221664 C55.4426358,22.2221664 55.2273038,22.0112289 55.2273038,21.738768 Z M57.7717374,27.7592758 L57.7717374,23.1582016 L58.4045499,23.1582016 L58.4045499,24.0151352 L58.4397061,24.0151352 C58.5583585,23.6328109 58.8879483,23.0834945 59.8547452,23.0834945 C60.7819913,23.0834945 61.4279874,23.5932602 61.4279874,24.6171859 L61.4279874,27.7592758 L60.7907803,27.7592758 L60.7907803,24.8193344 C60.7907803,24.0766586 60.4040616,23.6503891 59.7141202,23.6503891 C58.8264249,23.6503891 58.4045499,24.3359359 58.4045499,25.1665023 L58.4045499,27.7592758 L57.7717374,27.7592758 Z M62.9528897,29.3984359 L62.4519131,29.3984359 L63.0232022,27.0693344 L63.7790616,27.0693344 L62.9528897,29.3984359 Z M68.4460538,27.8339828 C67.5539639,27.8339828 66.9431241,27.2758773 66.9431241,26.4277328 C66.9431241,25.6367172 67.496835,25.0917953 68.547128,25.0917953 L69.8039639,25.0917953 L69.8039639,24.5952133 C69.8039639,23.9448227 69.390878,23.6503891 68.7492764,23.6503891 C68.1032803,23.6503891 67.8396085,23.9140609 67.7429288,24.2392562 L67.1232999,24.2392562 C67.1936124,23.4921859 67.8132413,23.0834945 68.7800381,23.0834945 C69.6984952,23.0834945 70.4455655,23.4965805 70.4455655,24.5820297 L70.4455655,27.7592758 L69.8303311,27.7592758 L69.8303311,27.1176742 L69.7995694,27.1176742 C69.5842374,27.4824203 69.1579678,27.8339828 68.4460538,27.8339828 Z M68.5998624,27.2714828 C69.2810147,27.2714828 69.8039639,26.8056625 69.8039639,26.1816391 L69.8039639,25.6235336 L68.5603116,25.6235336 C67.8791592,25.6235336 67.6023038,25.966307 67.6023038,26.4145492 C67.6023038,26.9946273 68.0681241,27.2714828 68.5998624,27.2714828 Z M72.0495694,27.7592758 L72.0495694,23.1582016 L72.6823819,23.1582016 L72.6823819,24.0151352 L72.7175381,24.0151352 C72.8361905,23.6328109 73.1657803,23.0834945 74.1325772,23.0834945 C75.0598233,23.0834945 75.7058194,23.5932602 75.7058194,24.6171859 L75.7058194,27.7592758 L75.0686124,27.7592758 L75.0686124,24.8193344 C75.0686124,24.0766586 74.6818936,23.6503891 73.9919522,23.6503891 C73.1042569,23.6503891 72.6823819,24.3359359 72.6823819,25.1665023 L72.6823819,27.7592758 L72.0495694,27.7592758 Z M78.8742764,23.0834945 C79.5642178,23.0834945 80.0607999,23.4174789 80.2365811,23.8701156 L80.2673428,23.8701156 L80.2673428,21.4443344 L80.9045499,21.4443344 L80.9045499,27.7592758 L80.2981046,27.7592758 L80.2981046,26.9990219 L80.2673428,26.9990219 C80.144296,27.438475 79.581796,27.8295883 78.8523038,27.8295883 C77.7844327,27.8295883 77.0769131,27.082518 77.0769131,25.9311508 L77.0769131,24.9863266 C77.0769131,23.8217758 77.8151944,23.0834945 78.8742764,23.0834945 Z M78.953378,23.6503891 C78.2019131,23.6503891 77.7141202,24.1953109 77.7141202,25.1445297 L77.7141202,25.7641586 C77.7141202,26.7089828 78.2019131,27.2670883 78.9753506,27.2670883 C79.7707608,27.2670883 80.2673428,26.6870102 80.2673428,25.8388656 L80.2673428,24.9907211 C80.2673428,24.2172836 79.722421,23.6503891 78.953378,23.6503891 Z M86.6086514,27.8339828 C85.9274991,27.8339828 85.4616788,27.5175766 85.2595303,27.0517562 L85.2243741,27.0517562 L85.2243741,29.2797836 L84.5915616,29.2797836 L84.5915616,23.153807 L85.1936124,23.153807 L85.1936124,23.9184555 L85.2287686,23.9184555 C85.4001553,23.4482406 85.91871,23.0834945 86.6350186,23.0834945 C87.7072842,23.0834945 88.4060147,23.8393539 88.4060147,25.0302719 L88.4060147,25.8828109 C88.4060147,27.0957016 87.6897061,27.8339828 86.6086514,27.8339828 Z M86.5251553,27.2714828 C87.2898038,27.2714828 87.7688077,26.7221664 87.7688077,25.7333969 L87.7688077,25.188475 C87.7688077,24.2041 87.2985928,23.6503891 86.5031827,23.6503891 C85.7077725,23.6503891 85.2243741,24.2128891 85.2243741,25.0742172 L85.2243741,25.9311508 C85.2243741,26.7133773 85.7517178,27.2714828 86.5251553,27.2714828 Z M91.0427335,27.8339828 C90.1506436,27.8339828 89.5398038,27.2758773 89.5398038,26.4277328 C89.5398038,25.6367172 90.0935147,25.0917953 91.1438077,25.0917953 L92.4006436,25.0917953 L92.4006436,24.5952133 C92.4006436,23.9448227 91.9875577,23.6503891 91.3459561,23.6503891 C90.69996,23.6503891 90.4362881,23.9140609 90.3396085,24.2392562 L89.7199796,24.2392562 C89.7902921,23.4921859 90.409921,23.0834945 91.3767178,23.0834945 C92.2951749,23.0834945 93.0422452,23.4965805 93.0422452,24.5820297 L93.0422452,27.7592758 L92.4270108,27.7592758 L92.4270108,27.1176742 L92.3962491,27.1176742 C92.1809171,27.4824203 91.7546475,27.8339828 91.0427335,27.8339828 Z M91.1965421,27.2714828 C91.8776944,27.2714828 92.4006436,26.8056625 92.4006436,26.1816391 L92.4006436,25.6235336 L91.1569913,25.6235336 C90.4758389,25.6235336 90.1989835,25.966307 90.1989835,26.4145492 C90.1989835,26.9946273 90.6648038,27.2714828 91.1965421,27.2714828 Z M98.1618741,23.1582016 L96.5007413,27.7988266 L96.3864835,28.0976547 C96.0481046,29.0029281 95.6174405,29.3588852 94.8967374,29.3588852 C94.7736905,29.3588852 94.6023038,29.3457016 94.4924405,29.3237289 L94.4924405,28.7832016 C94.5671475,28.7963852 94.7385342,28.8095687 94.8220303,28.8095687 C95.3274014,28.8095687 95.6042569,28.5854477 95.7580655,28.0624984 L95.828378,27.8295883 L94.1145108,23.1582016 L94.8220303,23.1582016 L96.1403897,27.1000961 L96.1711514,27.1000961 L97.4851163,23.1582016 L98.1618741,23.1582016 Z M101.101815,27.7592758 L101.101815,27.3066391 L103.646249,23.7646469 L103.646249,23.7207016 L101.084237,23.7207016 L101.084237,23.1582016 L104.441659,23.1582016 L104.441659,23.6152328 L101.892831,27.1616195 L101.892831,27.1967758 L104.454843,27.1967758 L104.454843,27.7592758 L101.101815,27.7592758 Z M107.500253,27.8339828 C106.287362,27.8339828 105.584237,27.0473617 105.584237,25.8212875 L105.584237,25.1093734 C105.584237,23.8613266 106.357675,23.0834945 107.443124,23.0834945 C108.528573,23.0834945 109.302011,23.8613266 109.302011,25.1093734 L109.302011,25.6235336 L106.221444,25.6235336 L106.221444,25.8652328 C106.221444,26.669432 106.665292,27.2714828 107.495858,27.2714828 C108.102304,27.2714828 108.480233,26.9682602 108.56373,26.6650375 L109.236093,26.6650375 C109.16578,27.1396469 108.620858,27.8339828 107.500253,27.8339828 Z M106.221444,25.1269516 L108.664804,25.1269516 L108.664804,25.0522445 C108.664804,24.1953109 108.177011,23.6503891 107.443124,23.6503891 C106.709237,23.6503891 106.221444,24.1953109 106.221444,25.0522445 L106.221444,25.1269516 Z M110.747812,27.7592758 L110.747812,23.1582016 L111.380624,23.1582016 L111.380624,23.8964828 L111.411386,23.8964828 C111.525644,23.575682 111.872812,23.0878891 112.712167,23.0878891 C112.813241,23.0878891 112.909921,23.1010727 112.997812,23.1098617 L112.997812,23.7031234 C112.927499,23.6899398 112.78248,23.6811508 112.63746,23.6811508 C111.828866,23.6811508 111.380624,24.1777328 111.380624,24.8632797 L111.380624,27.7592758 L110.747812,27.7592758 Z M115.805917,23.0834945 C116.900155,23.0834945 117.743905,23.8085922 117.743905,25.0961898 L117.743905,25.8212875 C117.743905,27.1088852 116.90455,27.8339828 115.805917,27.8339828 C114.685312,27.8339828 113.863534,27.1220687 113.863534,25.8212875 L113.863534,25.0961898 C113.863534,23.848143 114.698495,23.0834945 115.805917,23.0834945 Z M115.810312,23.6503891 C115.02369,23.6503891 114.496347,24.2480453 114.496347,25.1708969 L114.496347,25.7553695 C114.496347,26.6957992 114.997323,27.2714828 115.810312,27.2714828 C116.614511,27.2714828 117.106698,26.7001937 117.106698,25.7553695 L117.106698,25.1708969 C117.106698,24.2480453 116.592538,23.6503891 115.810312,23.6503891 Z M121.426523,23.1582016 L121.426523,22.0068344 L122.059335,22.0068344 L122.059335,23.1582016 L123.14039,23.1582016 L123.14039,23.6899398 L122.059335,23.6899398 L122.059335,26.5419906 C122.059335,27.1088852 122.243905,27.2582992 122.837167,27.2582992 C122.94703,27.2582992 123.135995,27.2451156 123.215097,27.2363266 L123.215097,27.7680648 C123.144784,27.7812484 122.828378,27.8032211 122.683358,27.8032211 C121.633065,27.8032211 121.426523,27.3945297 121.426523,26.5112289 L121.426523,23.6899398 L120.692636,23.6899398 L120.692636,23.1582016 L121.426523,23.1582016 Z M124.551034,27.7592758 L124.551034,23.1582016 L125.183847,23.1582016 L125.183847,23.8964828 L125.214608,23.8964828 C125.328866,23.575682 125.676034,23.0878891 126.51539,23.0878891 C126.616464,23.0878891 126.713144,23.1010727 126.801034,23.1098617 L126.801034,23.7031234 C126.730722,23.6899398 126.585702,23.6811508 126.440683,23.6811508 C125.632089,23.6811508 125.183847,24.1777328 125.183847,24.8632797 L125.183847,27.7592758 L124.551034,27.7592758 Z M129.121347,27.8339828 C128.229257,27.8339828 127.618417,27.2758773 127.618417,26.4277328 C127.618417,25.6367172 128.172128,25.0917953 129.222421,25.0917953 L130.479257,25.0917953 L130.479257,24.5952133 C130.479257,23.9448227 130.066171,23.6503891 129.424569,23.6503891 C128.778573,23.6503891 128.514901,23.9140609 128.418222,24.2392562 L127.798593,24.2392562 C127.868905,23.4921859 128.488534,23.0834945 129.455331,23.0834945 C130.373788,23.0834945 131.120858,23.4965805 131.120858,24.5820297 L131.120858,27.7592758 L130.505624,27.7592758 L130.505624,27.1176742 L130.474862,27.1176742 C130.25953,27.4824203 129.833261,27.8339828 129.121347,27.8339828 Z M129.275155,27.2714828 C129.956308,27.2714828 130.479257,26.8056625 130.479257,26.1816391 L130.479257,25.6235336 L129.235605,25.6235336 C128.554452,25.6235336 128.277597,25.966307 128.277597,26.4145492 C128.277597,26.9946273 128.743417,27.2714828 129.275155,27.2714828 Z M134.29371,23.0834945 C134.983651,23.0834945 135.480233,23.4174789 135.656015,23.8701156 L135.686776,23.8701156 L135.686776,21.4443344 L136.323983,21.4443344 L136.323983,27.7592758 L135.717538,27.7592758 L135.717538,26.9990219 L135.686776,26.9990219 C135.56373,27.438475 135.00123,27.8295883 134.271737,27.8295883 C133.203866,27.8295883 132.496347,27.082518 132.496347,25.9311508 L132.496347,24.9863266 C132.496347,23.8217758 133.234628,23.0834945 134.29371,23.0834945 Z M134.372812,23.6503891 C133.621347,23.6503891 133.133554,24.1953109 133.133554,25.1445297 L133.133554,25.7641586 C133.133554,26.7089828 133.621347,27.2670883 134.394784,27.2670883 C135.190194,27.2670883 135.686776,26.6870102 135.686776,25.8388656 L135.686776,24.9907211 C135.686776,24.2172836 135.141855,23.6503891 134.372812,23.6503891 Z M138.077401,27.7592758 L138.077401,23.1582016 L138.710214,23.1582016 L138.710214,27.7592758 L138.077401,27.7592758 Z M137.906015,21.738768 C137.906015,21.4531234 138.121347,21.2465805 138.389413,21.2465805 C138.670663,21.2465805 138.881601,21.4531234 138.881601,21.738768 C138.881601,22.0112289 138.670663,22.2221664 138.389413,22.2221664 C138.121347,22.2221664 137.906015,22.0112289 137.906015,21.738768 Z M140.450448,27.7592758 L140.450448,23.1582016 L141.083261,23.1582016 L141.083261,24.0151352 L141.118417,24.0151352 C141.237069,23.6328109 141.566659,23.0834945 142.533456,23.0834945 C143.460702,23.0834945 144.106698,23.5932602 144.106698,24.6171859 L144.106698,27.7592758 L143.469491,27.7592758 L143.469491,24.8193344 C143.469491,24.0766586 143.082773,23.6503891 142.392831,23.6503891 C141.505136,23.6503891 141.083261,24.3359359 141.083261,25.1665023 L141.083261,27.7592758 L140.450448,27.7592758 Z M147.310312,28.8666977 C148.17164,28.8666977 148.606698,28.4052719 148.606698,27.645018 L148.606698,26.9067367 L148.571542,26.9067367 C148.40455,27.2846664 147.93873,27.6669906 147.248788,27.6669906 C146.229257,27.6669906 145.420663,26.9462875 145.420663,25.7597641 L145.420663,24.9995102 C145.420663,23.7998031 146.238046,23.0834945 147.244394,23.0834945 C147.973886,23.0834945 148.461679,23.5185531 148.611093,23.8789047 L148.63746,23.8789047 L148.63746,23.1582016 L149.243905,23.1582016 L149.243905,27.6230453 C149.243905,28.844725 148.466073,29.4291977 147.283944,29.4291977 C146.15455,29.4291977 145.59205,28.8403305 145.526132,28.1987289 L146.189706,28.1987289 C146.246835,28.5415023 146.637948,28.8666977 147.310312,28.8666977 Z M147.363046,23.6503891 C146.576425,23.6503891 146.05787,24.2392562 146.05787,25.1489242 L146.05787,25.61035 C146.05787,26.5068344 146.607187,27.1000961 147.371835,27.1000961 C148.176034,27.1000961 148.606698,26.4365219 148.606698,25.7465805 L148.606698,25.0258773 C148.606698,24.3095687 148.145273,23.6503891 147.363046,23.6503891 Z M153.203378,27.7592758 L153.203378,23.6899398 L152.416757,23.6899398 L152.416757,23.1582016 L153.203378,23.1582016 L153.203378,22.6791977 C153.203378,21.8178695 153.60328,21.4135727 154.574472,21.4135727 C154.767831,21.4135727 154.983163,21.4311508 155.066659,21.4399398 L155.066659,21.9804672 C154.991952,21.9716781 154.767831,21.9628891 154.649179,21.9628891 C154.07789,21.9628891 153.83619,22.1386703 153.83619,22.723143 L153.83619,23.1582016 L154.948007,23.1582016 L154.948007,23.6899398 L153.83619,23.6899398 L153.83619,27.7592758 L153.203378,27.7592758 Z M157.923105,27.8339828 C156.710214,27.8339828 156.007089,27.0473617 156.007089,25.8212875 L156.007089,25.1093734 C156.007089,23.8613266 156.780526,23.0834945 157.865976,23.0834945 C158.951425,23.0834945 159.724862,23.8613266 159.724862,25.1093734 L159.724862,25.6235336 L156.644296,25.6235336 L156.644296,25.8652328 C156.644296,26.669432 157.088144,27.2714828 157.91871,27.2714828 C158.525155,27.2714828 158.903085,26.9682602 158.986581,26.6650375 L159.658944,26.6650375 C159.588632,27.1396469 159.04371,27.8339828 157.923105,27.8339828 Z M156.644296,25.1269516 L159.087655,25.1269516 L159.087655,25.0522445 C159.087655,24.1953109 158.599862,23.6503891 157.865976,23.6503891 C157.132089,23.6503891 156.644296,24.1953109 156.644296,25.0522445 L156.644296,25.1269516 Z M162.792245,27.8339828 C161.579355,27.8339828 160.87623,27.0473617 160.87623,25.8212875 L160.87623,25.1093734 C160.87623,23.8613266 161.649667,23.0834945 162.735116,23.0834945 C163.820565,23.0834945 164.594003,23.8613266 164.594003,25.1093734 L164.594003,25.6235336 L161.513437,25.6235336 L161.513437,25.8652328 C161.513437,26.669432 161.957284,27.2714828 162.787851,27.2714828 C163.394296,27.2714828 163.772226,26.9682602 163.855722,26.6650375 L164.528085,26.6650375 C164.457773,27.1396469 163.912851,27.8339828 162.792245,27.8339828 Z M161.513437,25.1269516 L163.956796,25.1269516 L163.956796,25.0522445 C163.956796,24.1953109 163.469003,23.6503891 162.735116,23.6503891 C162.00123,23.6503891 161.513437,24.1953109 161.513437,25.0522445 L161.513437,25.1269516 Z M165.74537,24.4457992 C165.74537,23.5053695 166.531991,23.0834945 167.402108,23.0834945 C168.404062,23.0834945 169.006112,23.6328109 169.006112,24.344725 L168.408456,24.344725 C168.382089,24.0107406 168.070077,23.6196273 167.375741,23.6196273 C166.804452,23.6196273 166.369394,23.8832992 166.369394,24.3754867 C166.369394,24.9467758 166.949472,25.0434555 167.516366,25.1533187 C168.377694,25.3159164 169.12037,25.5312484 169.12037,26.4321273 C169.12037,27.3374008 168.3733,27.8339828 167.340585,27.8339828 C166.321054,27.8339828 165.653085,27.3593734 165.653085,26.5727523 L166.277108,26.5727523 C166.334237,26.9946273 166.633065,27.3066391 167.366952,27.3066391 C168.131601,27.3066391 168.487558,26.9638656 168.487558,26.5068344 C168.487558,25.9531234 167.960214,25.8388656 167.305429,25.7070297 C166.435312,25.5224594 165.74537,25.3291 165.74537,24.4457992 Z M170.368417,27.2846664 C170.368417,26.9594711 170.614511,26.7177719 170.917733,26.7177719 C171.238534,26.7177719 171.484628,26.9594711 171.484628,27.2846664 C171.484628,27.5922836 171.238534,27.8339828 170.917733,27.8339828 C170.614511,27.8339828 170.368417,27.5922836 170.368417,27.2846664 Z" id="Trade-on-chain,-and" fill="#FFFFFF" opacity="0.578497024"></path>
                    <g id="logo" transform="translate(0.673593, 0.097837)">
                        <path d="M107.873302,3.30547278 L104.320986,3.30547278 L104.320986,12.7715337 L107.873302,12.7715337 C113.651166,12.7715337 113.90796,3.30547278 107.873302,3.30547278 Z M108.065898,15.349345 L102.972818,15.349345 C102.266634,15.349345 101.496253,14.9690122 101.496253,14.0393098 L101.496253,2.03769676 C101.496253,1.27703114 102.266634,0.727661533 102.972818,0.727661533 L107.873302,0.727661533 C117.652872,0.727661533 117.438877,15.349345 108.065898,15.349345 Z M128.006945,15.2754052 L119.960734,15.2754052 C119.211752,15.2754052 118.633966,14.704906 118.633966,13.96537 L118.633966,1.96375695 C118.633966,1.20309133 119.211752,0.653721724 119.960734,0.653721724 L127.643153,0.653721724 C129.611907,0.653721724 129.569108,3.40056977 127.643153,3.40056977 L121.480099,3.40056977 L121.480099,6.57000983 L126.872772,6.57000983 C128.777327,6.57000983 128.777327,9.33798747 126.872772,9.33798747 L121.480099,9.33798747 L121.480099,12.5074275 L128.006945,12.5074275 C129.954299,12.5074275 130.104095,15.2754052 128.006945,15.2754052 Z M136.336986,1.23477194 L140.060498,5.79876562 L143.784011,1.19251274 C144.896784,-0.244300084 147.058133,1.59397515 145.838362,2.96739917 C144.554392,4.4676008 143.206224,6.09458003 141.922254,7.76381845 L146.287751,13.1307369 C147.464724,14.715457 145.110779,16.2367882 143.955206,14.6731978 L140.017699,9.68661209 L136.144391,14.7788458 C135.053016,16.3213066 132.634873,14.5886794 133.854645,13.1518665 L138.155943,7.76381845 C136.807775,6.09458003 135.502406,4.4676008 134.197036,2.96739917 C132.848868,1.38267914 135.352609,-0.244300084 136.336986,1.23477194 Z" id="DEX" fill="#66D7D7"></path>
                        <g id="Group-34" transform="translate(0.671307, 0.603839)" fill="#FFFFFF">
                            <g id="quanta" transform="translate(0.026349, 0.147570)">
                                <path d="M37.5975318,14.2611193 C37.2587427,14.9695934 36.475293,15.1154558 35.7130177,14.9695934 C35.0354396,14.5945189 34.6119532,13.8443697 35.0354396,12.9691957 L41.1124682,1.2793716 C41.6841747,0.174985363 43.2087255,0.13331041 43.7380834,1.2793716 L49.7092405,12.9691957 C50.5773874,14.5945189 48.0152952,15.8864424 47.2530198,14.2611193 L46.3213499,12.4274214 L38.5080274,12.4274214 L37.5975318,14.2611193 Z M39.8208349,9.6768745 L44.8179735,9.6768745 L42.4252758,4.53001788 L39.8208349,9.6768745 Z" id="Combined-Shape-Copy-67"></path>
                                <path d="M52.9903676,13.5635925 L52.9903676,1.88592846 C52.9903676,1.12571886 53.1583839,0.386626203 54.2504901,0.386626203 C55.0065637,0.386626203 55.17458,0.576678601 55.7416351,1.12571886 L62.6933113,9.86812919 L62.6933113,1.67475912 C62.6933113,0.977900331 63.3023705,0.217690737 64.0164399,0.217690737 C64.7725135,0.217690737 65.507585,0.977900331 65.507585,1.67475912 L65.507585,13.5635925 C65.507585,14.4927375 64.9405298,14.8517254 64.3944767,15.0206609 C63.6594052,15.0206609 63.3023705,14.8517254 62.6933113,14.2815682 L55.7416351,5.41245629 L55.7416351,13.5635925 C55.7416351,14.4927375 55.17458,15.0206609 54.4185065,15.0206609 C53.6624329,15.0206609 52.9903676,14.4927375 52.9903676,13.5635925 Z" id="Path-Copy-22"></path>
                                <path d="M73.668535,13.6434698 L73.668535,3.10621134 L69.9848839,3.10621134 C68.153583,3.10621134 68.153583,0.435381475 69.9848839,0.435381475 L79.9412666,0.435381475 C81.8146663,0.435381475 81.8146663,3.10621134 79.9412666,3.10621134 L76.4470604,3.10621134 L76.4470604,13.6434698 C76.4470604,15.4587994 73.668535,15.5005312 73.668535,13.6434698 Z" id="Path-Copy-21"></path>
                                <path d="M28.9954383,9.4057428 L28.9954383,1.87845443 C28.9954383,0.0278227529 31.7620601,-0.117732547 31.7620601,1.87845443 L31.7620601,9.4057428 C31.7620601,17.1825546 19.027152,17.1825546 19.027152,9.4057428 L19.027152,1.87845443 C19.027152,0.00702913863 21.7937738,-0.0761453186 21.7937738,1.87845443 L21.7937738,9.4057428 C21.7937738,13.5020848 28.9954383,13.7516082 28.9954383,9.4057428 Z" id="UANTA-Copy-16"></path>
                                <path d="M85.4125293,14.0434285 C85.0737403,14.7519027 84.2902906,14.897765 83.5280152,14.7519027 C82.8504371,14.3768281 82.4269508,13.626679 82.8504371,12.751505 L88.9274657,1.06168086 C89.4991723,-0.0427053748 91.023723,-0.0843803271 91.5530809,1.06168086 L97.524238,12.751505 C98.3923849,14.3768281 95.8302927,15.6687517 95.0680173,14.0434285 L94.1363474,12.2097306 L86.3230249,12.2097306 L85.4125293,14.0434285 Z M87.6358325,9.45918376 L92.632971,9.45918376 L90.2402733,4.31232714 L87.6358325,9.45918376 Z" id="Combined-Shape-Copy-64"></path>
                                <g id="Group-9">
                                    <path d="M7.83686655,15.6737331 C3.50868467,15.6737331 1.10134124e-13,12.1650484 1.10134124e-13,7.83686655 C1.10134124e-13,3.50868467 3.50868467,-1.42108547e-14 7.83686655,-1.42108547e-14 C12.1650484,-1.42108547e-14 15.6737331,3.50868467 15.6737331,7.83686655 C15.6737331,12.1650484 12.1650484,15.6737331 7.83686655,15.6737331 Z M7.83686655,12.9308298 C10.6501848,12.9308298 12.9308298,10.6501848 12.9308298,7.83686655 C12.9308298,5.02354832 10.6501848,2.74290329 7.83686655,2.74290329 C5.02354832,2.74290329 2.74290329,5.02354832 2.74290329,7.83686655 C2.74290329,10.6501848 5.02354832,12.9308298 7.83686655,12.9308298 Z" id="Combined-Shape-Copy-66"></path>
                                    <path d="M5.36123182,8.59184989 C5.0520748,8.00933904 5.28518101,7.29246235 5.8818891,6.99066099 C6.4785972,6.68885963 7.21294596,6.91641963 7.52210297,7.49893048 L10.0948105,12.632997 C10.4039675,13.2155078 10.1708613,13.9323845 9.57415325,14.2341859 C8.97744516,14.5359873 8.24309639,14.3084273 7.93393938,13.7259164 L5.36123182,8.59184989 Z" id="Path-6-Copy-25" transform="translate(7.728021, 10.612423) rotate(26.000000) translate(-7.728021, -10.612423) "></path>
                                </g>
                            </g>
                        </g>
                    </g>
                </g>
            </g>
        </g>
    </g>
</svg>