<?xml version="1.0" encoding="UTF-8"?>
<svg width="160px" height="29px" viewBox="0 0 160 29" version="1.1" xmlns="http://www.w3.org/2000/svg" xmlns:xlink="http://www.w3.org/1999/xlink">
    <!-- Generator: Sketch 52.6 (67491) - http://www.bohemiancoding.com/sketch -->
    <title>quantexplorer_link</title>
    <desc>Created with Sketch.</desc>
    <g id="--&gt;-EXCHANGE-MOBILE-V2" stroke="none" stroke-width="1" fill="none" fill-rule="evenodd">
        <g id="mobile_web_1" transform="translate(-102.000000, -166.000000)" fill="#FFFFFF">
            <g id="property_selection" transform="translate(20.565406, 43.339000)">
                <g id="quantexplorer_link" transform="translate(81.000000, 119.000000)">
                    <g id="quanta_explorer">
                        <path d="M102.053686,14.9691682 L102.053686,16.6210237 L94.9814205,16.6210237 L94.9814205,5.29045727 L102.053686,5.29045727 L102.053686,6.94231273 L96.8573971,6.94231273 L96.8573971,10.0883088 L101.746557,10.0883088 L101.746557,11.6571565 L96.8573971,11.6571565 L96.8573971,14.9691682 L102.053686,14.9691682 Z M109.615698,16.6210237 L107.739721,13.5497346 L107.665014,13.5497346 L105.780737,16.6210237 L103.780249,16.6210237 L106.610815,12.2631135 L103.722143,7.83879711 L105.880346,7.83879711 L107.714819,10.9017854 L107.789526,10.9017854 L109.682104,7.83879711 L111.732397,7.83879711 L108.810522,12.1635041 L111.724096,16.6210237 L109.615698,16.6210237 Z M118.157202,16.7455354 C116.953588,16.7455354 116.048803,16.2225862 115.650366,15.2928987 L115.559057,15.2928987 L115.559057,19.5345979 L113.716284,19.5345979 L113.716284,7.83049633 L115.509253,7.83049633 L115.509253,9.23332836 L115.600561,9.23332836 C115.957495,8.2870393 116.945288,7.72258617 118.198706,7.72258617 C120.240698,7.72258617 121.502417,9.18352367 121.502417,11.5741487 L121.502417,12.8773713 C121.502417,15.2845979 120.232397,16.7455354 118.157202,16.7455354 Z M117.634253,15.168387 C118.904272,15.168387 119.634741,14.2470002 119.634741,12.6532502 L119.634741,11.8231721 C119.634741,10.2128205 118.904272,9.29973461 117.601049,9.29973461 C116.339331,9.29973461 115.559057,10.1879182 115.559057,11.6571565 L115.559057,12.9354768 C115.559057,14.2719026 116.397436,15.168387 117.634253,15.168387 Z M123.942846,16.6210237 L123.942846,4.69280102 L125.78562,4.69280102 L125.78562,16.6210237 L123.942846,16.6210237 Z M132.119116,7.68938305 C134.410131,7.68938305 136.012182,9.19182445 136.012182,11.6654573 L136.012182,12.7611604 C136.012182,15.3261018 134.410131,16.7704377 132.119116,16.7704377 C129.794897,16.7704377 128.209448,15.3427034 128.209448,12.7611604 L128.209448,11.673758 C128.209448,9.2582307 129.819799,7.68938305 132.119116,7.68938305 Z M132.127417,9.23332836 C130.815893,9.23332836 130.068823,10.3207307 130.068823,11.7484651 L130.068823,12.7113557 C130.068823,14.1390901 130.766088,15.2264924 132.127417,15.2264924 C133.472143,15.2264924 134.161108,14.1473909 134.161108,12.7113557 L134.161108,11.7484651 C134.161108,10.3207307 133.43894,9.23332836 132.127417,9.23332836 Z M138.494116,16.6210237 L138.494116,7.83879711 L140.328588,7.83879711 L140.328588,9.20842602 L140.428198,9.20842602 C140.619116,8.61907055 141.258276,7.70598461 142.727514,7.70598461 C142.976538,7.70598461 143.175756,7.73088695 143.350073,7.76409008 L143.350073,9.46575023 C143.192358,9.41594555 142.868628,9.39934398 142.561499,9.39934398 C141.08396,9.39934398 140.361792,10.2626252 140.361792,11.449637 L140.361792,16.6210237 L138.494116,16.6210237 Z M148.704077,16.7704377 C146.313452,16.7704377 144.827612,15.3095002 144.827612,12.8026643 L144.827612,11.6571565 C144.827612,9.13371898 146.454565,7.68938305 148.596167,7.68938305 C150.795874,7.68938305 152.34812,9.2167268 152.34812,11.6571565 L152.34812,12.6781526 L146.653784,12.6781526 L146.653784,13.1097932 C146.653784,14.3383088 147.400854,15.243094 148.695776,15.243094 C149.658667,15.243094 150.322729,14.786551 150.447241,14.2386995 L152.24851,14.2386995 C152.1406,15.2762971 151.069799,16.7704377 148.704077,16.7704377 Z M146.653784,11.4413362 L150.54685,11.4413362 L150.54685,11.333426 C150.54685,10.0468049 149.774878,9.19182445 148.604467,9.19182445 C147.434057,9.19182445 146.653784,10.0468049 146.653784,11.333426 L146.653784,11.4413362 Z M154.788549,16.6210237 L154.788549,7.83879711 L156.623022,7.83879711 L156.623022,9.20842602 L156.722631,9.20842602 C156.913549,8.61907055 157.55271,7.70598461 159.021948,7.70598461 C159.270971,7.70598461 159.47019,7.73088695 159.644506,7.76409008 L159.644506,9.46575023 C159.486792,9.41594555 159.163061,9.39934398 158.855932,9.39934398 C157.378393,9.39934398 156.656225,10.2626252 156.656225,11.449637 L156.656225,16.6210237 L154.788549,16.6210237 Z" id="Explorer"></path>
                        <g id="logo" transform="translate(0.282112, 3.621024)">
                            <g id="Group-34" transform="translate(0.606654, 0.545684)">
                                <g id="quanta" transform="translate(0.023811, 0.133358)">
                                    <path d="M33.9765062,12.8876281 C33.670346,13.527869 32.9623505,13.6596833 32.27349,13.527869 C31.6611696,13.1889179 31.2784693,12.5110158 31.6611696,11.72013 L37.1529184,1.15615507 C37.6695638,0.158132488 39.0472848,0.120471259 39.5256601,1.15615507 L44.9217339,11.72013 C45.7062694,13.1889179 43.3909328,14.356416 42.7020723,12.8876281 L41.8601317,11.230534 L34.7993118,11.230534 L33.9765062,12.8876281 Z M35.9856826,8.74489284 L40.5015458,8.74489284 L38.3392893,4.09373098 L35.9856826,8.74489284 Z" id="Combined-Shape-Copy-67"></path>
                                    <path d="M47.886855,12.2572803 L47.886855,1.70429432 C47.886855,1.01730066 48.0386896,0.349390158 49.0256149,0.349390158 C49.7088708,0.349390158 49.8607055,0.521138573 50.3731475,1.01730066 L56.6553063,8.91772775 L56.6553063,1.51346275 C56.6553063,0.88371856 57.2057069,0.1967249 57.8510042,0.1967249 C58.5342601,0.1967249 59.1985368,0.88371856 59.1985368,1.51346275 L59.1985368,12.2572803 C59.1985368,13.0969392 58.6860948,13.4213529 58.1926322,13.5740181 C57.5283556,13.5740181 57.2057069,13.4213529 56.6553063,12.9061076 L50.3731475,4.89118158 L50.3731475,12.2572803 C50.3731475,13.0969392 49.8607055,13.5740181 49.1774496,13.5740181 C48.4941936,13.5740181 47.886855,13.0969392 47.886855,12.2572803 Z" id="Path-Copy-22"></path>
                                    <path d="M66.5735041,12.3294646 L66.5735041,2.80705152 L63.2446261,2.80705152 C61.5896982,2.80705152 61.5896982,0.3934498 63.2446261,0.3934498 L72.2421077,0.3934498 C73.9350799,0.3934498 73.9350799,2.80705152 72.2421077,2.80705152 L69.0844292,2.80705152 L69.0844292,12.3294646 C69.0844292,13.9699595 66.5735041,14.007672 66.5735041,12.3294646 Z" id="Path-Copy-21"></path>
                                    <path d="M26.202882,8.49987389 L26.202882,1.69754012 C26.202882,0.0251431382 28.7030499,-0.106393703 28.7030499,1.69754012 L28.7030499,8.49987389 C28.7030499,15.5276994 17.1946433,15.5276994 17.1946433,8.49987389 L17.1946433,1.69754012 C17.1946433,0.00635216093 19.6948112,-0.0688117482 19.6948112,1.69754012 L19.6948112,8.49987389 C19.6948112,12.2016964 26.202882,12.4271881 26.202882,8.49987389 Z" id="UANTA-Copy-16"></path>
                                    <path d="M77.1864321,12.6909032 C76.8802718,13.3311441 76.1722763,13.4629584 75.4834159,13.3311441 C74.8710954,12.992193 74.4883952,12.3142909 74.8710954,11.5234051 L80.3628443,0.959430173 C80.8794896,-0.0385924119 82.2572106,-0.0762536415 82.7355859,0.959430173 L88.1316597,11.5234051 C88.9161953,12.992193 86.6008586,14.1596911 85.9119982,12.6909032 L85.0700576,11.0338091 L78.0092376,11.0338091 L77.1864321,12.6909032 Z M79.1956085,8.54816794 L83.7114716,8.54816794 L81.5492151,3.89700608 L79.1956085,8.54816794 Z" id="Combined-Shape-Copy-64"></path>
                                    <g id="Group-9">
                                        <path d="M7.08209641,14.1641928 C3.17076257,14.1641928 1.10134124e-13,10.9934303 1.10134124e-13,7.08209641 C1.10134124e-13,3.17076257 3.17076257,-1.42108547e-14 7.08209641,-1.42108547e-14 C10.9934303,-1.42108547e-14 14.1641928,3.17076257 14.1641928,7.08209641 C14.1641928,10.9934303 10.9934303,14.1641928 7.08209641,14.1641928 Z M7.08209641,11.6854591 C9.62446341,11.6854591 11.6854591,9.62446341 11.6854591,7.08209641 C11.6854591,4.53972941 9.62446341,2.47873374 7.08209641,2.47873374 C4.53972941,2.47873374 2.47873374,4.53972941 2.47873374,7.08209641 C2.47873374,9.62446341 4.53972941,11.6854591 7.08209641,11.6854591 Z" id="Combined-Shape-Copy-66"></path>
                                        <path d="M4.84489054,7.76436716 C4.5655085,7.23795805 4.7761642,6.59012389 5.31540322,6.31738908 C5.85464224,6.04465426 6.51826574,6.25029791 6.79764778,6.77670703 L9.12257737,11.4163106 C9.40195942,11.9427197 9.19130371,12.5905539 8.65206469,12.8632887 C8.11282567,13.1360235 7.44920218,12.9303799 7.16982014,12.4039707 L4.84489054,7.76436716 Z" id="Path-6-Copy-25" transform="translate(6.983734, 9.590339) rotate(26.000000) translate(-6.983734, -9.590339) "></path>
                                    </g>
                                </g>
                            </g>
                        </g>
                    </g>
                    <path d="M3.48755768,30.6210237 L2.84156158,30.6210237 L2.84156158,24.626883 L3.48755768,24.626883 L3.48755768,30.6210237 Z M5.17505768,30.6210237 L5.17505768,26.0199495 L5.80787018,26.0199495 L5.80787018,26.876883 L5.84302643,26.876883 C5.96167877,26.4945588 6.29126861,25.9452424 7.25806549,25.9452424 C8.18531158,25.9452424 8.83130768,26.455008 8.83130768,27.4789338 L8.83130768,30.6210237 L8.19410064,30.6210237 L8.19410064,27.6810823 C8.19410064,26.9384065 7.80738189,26.512137 7.11744049,26.512137 C6.22974518,26.512137 5.80787018,27.1976838 5.80787018,28.0282502 L5.80787018,30.6210237 L5.17505768,30.6210237 Z M10.206796,27.3075471 C10.206796,26.3671174 10.9934171,25.9452424 11.8635342,25.9452424 C12.8654874,25.9452424 13.4675381,26.4945588 13.4675381,27.2064729 L12.8698819,27.2064729 C12.8435147,26.8724885 12.531503,26.4813752 11.8371671,26.4813752 C11.265878,26.4813752 10.8308194,26.7450471 10.8308194,27.2372346 C10.8308194,27.8085237 11.4108975,27.9052034 11.9777921,28.0150666 C12.8391202,28.1776643 13.581796,28.3929963 13.581796,29.2938752 C13.581796,30.1991487 12.8347256,30.6957307 11.8020108,30.6957307 C10.7824796,30.6957307 10.1145108,30.2211213 10.1145108,29.4345002 L10.7385342,29.4345002 C10.7956631,29.8563752 11.0944913,30.168387 11.828378,30.168387 C12.5930264,30.168387 12.9489835,29.8256135 12.9489835,29.3685823 C12.9489835,28.8148713 12.4216397,28.7006135 11.7668546,28.5687776 C10.8967374,28.3842073 10.206796,28.1908479 10.206796,27.3075471 Z M16.956796,30.6957307 C16.2756436,30.6957307 15.8098233,30.3793245 15.6076749,29.9135041 L15.5725186,29.9135041 L15.5725186,32.1415315 L14.9397061,32.1415315 L14.9397061,26.0155549 L15.5417569,26.0155549 L15.5417569,26.7802034 L15.5769131,26.7802034 C15.7482999,26.3099885 16.2668546,25.9452424 16.9831631,25.9452424 C18.0554288,25.9452424 18.7541592,26.7011018 18.7541592,27.8920198 L18.7541592,28.7445588 C18.7541592,29.9574495 18.0378506,30.6957307 16.956796,30.6957307 Z M16.8732999,30.1332307 C17.6379483,30.1332307 18.1169522,29.5839143 18.1169522,28.5951448 L18.1169522,28.0502229 C18.1169522,27.0658479 17.6467374,26.512137 16.8513272,26.512137 C16.0559171,26.512137 15.5725186,27.074637 15.5725186,27.9359651 L15.5725186,28.7928987 C15.5725186,29.5751252 16.0998624,30.1332307 16.8732999,30.1332307 Z M21.8523038,30.6957307 C20.6394131,30.6957307 19.9362881,29.9091096 19.9362881,28.6830354 L19.9362881,27.9711213 C19.9362881,26.7230745 20.7097256,25.9452424 21.7951749,25.9452424 C22.8806241,25.9452424 23.6540616,26.7230745 23.6540616,27.9711213 L23.6540616,28.4852815 L20.5734952,28.4852815 L20.5734952,28.7269807 C20.5734952,29.5311799 21.0173428,30.1332307 21.8479092,30.1332307 C22.4543546,30.1332307 22.8322842,29.830008 22.9157803,29.5267854 L23.5881436,29.5267854 C23.5178311,30.0013948 22.9729092,30.6957307 21.8523038,30.6957307 Z M20.5734952,27.9886995 L23.0168546,27.9886995 L23.0168546,27.9139924 C23.0168546,27.0570588 22.5290616,26.512137 21.7951749,26.512137 C21.0612881,26.512137 20.5734952,27.0570588 20.5734952,27.9139924 L20.5734952,27.9886995 Z M24.8054288,28.7137971 L24.8054288,27.9139924 C24.8054288,26.7098909 25.5305264,25.9452424 26.6774991,25.9452424 C27.8112881,25.9452424 28.3781827,26.6571565 28.4001553,27.298758 L27.7673428,27.298758 C27.7102139,26.9999299 27.4641202,26.5253205 26.6862881,26.5253205 C25.8732999,26.5253205 25.4382413,27.074637 25.4382413,27.9491487 L25.4382413,28.7137971 C25.4382413,29.5795198 25.9128506,30.1156526 26.6906827,30.1156526 C27.4333585,30.1156526 27.7102139,29.7640901 27.7981046,29.4037385 L28.4309171,29.4037385 C28.4001553,30.0189729 27.8772061,30.6957307 26.6774991,30.6957307 C25.5261319,30.6957307 24.8054288,29.9398713 24.8054288,28.7137971 Z M29.9865811,26.0199495 L29.9865811,24.8685823 L30.6193936,24.8685823 L30.6193936,26.0199495 L31.7004483,26.0199495 L31.7004483,26.5516877 L30.6193936,26.5516877 L30.6193936,29.4037385 C30.6193936,29.970633 30.8039639,30.1200471 31.3972256,30.1200471 C31.5070889,30.1200471 31.6960538,30.1068635 31.7751553,30.0980745 L31.7751553,30.6298127 C31.7048428,30.6429963 31.3884366,30.664969 31.2434171,30.664969 C30.1931241,30.664969 29.9865811,30.2562776 29.9865811,29.3729768 L29.9865811,26.5516877 L29.2526944,26.5516877 L29.2526944,26.0199495 L29.9865811,26.0199495 Z M37.1189053,30.6957307 C36.4641202,30.6957307 35.9323819,30.3969026 35.7258389,29.9135041 L35.6950772,29.9135041 L35.6950772,30.6210237 L35.0886319,30.6210237 L35.0886319,24.3060823 L35.7258389,24.3060823 L35.7258389,26.7802034 L35.7566006,26.7802034 C35.8972256,26.2880159 36.4685147,25.9452424 37.1452725,25.9452424 C38.2263272,25.9452424 38.9162686,26.7054963 38.9162686,27.8920198 L38.9162686,28.7445588 C38.9162686,29.9398713 38.2175381,30.6957307 37.1189053,30.6957307 Z M37.0441983,30.1332307 C37.8220303,30.1332307 38.2790616,29.5663362 38.2790616,28.6039338 L38.2790616,28.059012 C38.2790616,27.083426 37.8132413,26.512137 37.0222256,26.512137 C36.23121,26.512137 35.7258389,27.074637 35.7258389,27.9579377 L35.7258389,28.770926 C35.7258389,29.5619416 36.2751553,30.1332307 37.0441983,30.1332307 Z M40.3444913,30.6210237 L40.3444913,24.3060823 L40.9816983,24.3060823 L40.9816983,30.6210237 L40.3444913,30.6210237 Z M44.3566983,25.9452424 C45.4509366,25.9452424 46.2946866,26.6703401 46.2946866,27.9579377 L46.2946866,28.6830354 C46.2946866,29.970633 45.4553311,30.6957307 44.3566983,30.6957307 C43.2360928,30.6957307 42.4143155,29.9838166 42.4143155,28.6830354 L42.4143155,27.9579377 C42.4143155,26.7098909 43.2492764,25.9452424 44.3566983,25.9452424 Z M44.3610928,26.512137 C43.5744717,26.512137 43.047128,27.1097932 43.047128,28.0326448 L43.047128,28.6171174 C43.047128,29.5575471 43.5481046,30.1332307 44.3610928,30.1332307 C45.1652921,30.1332307 45.6574796,29.5619416 45.6574796,28.6171174 L45.6574796,28.0326448 C45.6574796,27.1097932 45.1433194,26.512137 44.3610928,26.512137 Z M47.472421,28.7137971 L47.472421,27.9139924 C47.472421,26.7098909 48.1975186,25.9452424 49.3444913,25.9452424 C50.4782803,25.9452424 51.0451749,26.6571565 51.0671475,27.298758 L50.434335,27.298758 C50.3772061,26.9999299 50.1311124,26.5253205 49.3532803,26.5253205 C48.5402921,26.5253205 48.1052335,27.074637 48.1052335,27.9491487 L48.1052335,28.7137971 C48.1052335,29.5795198 48.5798428,30.1156526 49.3576749,30.1156526 C50.1003506,30.1156526 50.3772061,29.7640901 50.4650967,29.4037385 L51.0979092,29.4037385 C51.0671475,30.0189729 50.5441983,30.6957307 49.3444913,30.6957307 C48.1931241,30.6957307 47.472421,29.9398713 47.472421,28.7137971 Z M53.0622647,28.8763948 L53.0622647,30.6210237 L52.4294522,30.6210237 L52.4294522,24.3060823 L53.0622647,24.3060823 L53.0622647,28.1600862 L53.0886319,28.1600862 L55.1101163,26.0199495 L55.8615811,26.0199495 L53.9982999,28.0062776 L55.9802335,30.6210237 L55.215585,30.6210237 L53.5368741,28.4105745 L53.0622647,28.8763948 Z M56.7976163,28.7137971 L56.7976163,27.9139924 C56.7976163,26.7098909 57.5227139,25.9452424 58.6696866,25.9452424 C59.8034756,25.9452424 60.3703702,26.6571565 60.3923428,27.298758 L59.7595303,27.298758 C59.7024014,26.9999299 59.4563077,26.5253205 58.6784756,26.5253205 C57.8654874,26.5253205 57.4304288,27.074637 57.4304288,27.9491487 L57.4304288,28.7137971 C57.4304288,29.5795198 57.9050381,30.1156526 58.6828702,30.1156526 C59.425546,30.1156526 59.7024014,29.7640901 59.7902921,29.4037385 L60.4231046,29.4037385 C60.3923428,30.0189729 59.8693936,30.6957307 58.6696866,30.6957307 C57.5183194,30.6957307 56.7976163,29.9398713 56.7976163,28.7137971 Z M61.7546475,30.6210237 L61.7546475,24.3060823 L62.38746,24.3060823 L62.38746,26.876883 L62.4226163,26.876883 C62.519296,26.5385041 62.9060147,25.9452424 63.8728116,25.9452424 C64.7649014,25.9452424 65.4284756,26.4594026 65.4284756,27.4877229 L65.4284756,30.6210237 L64.7912686,30.6210237 L64.7912686,27.6898713 C64.7912686,26.9471955 64.3781827,26.512137 63.6882413,26.512137 C62.8269131,26.512137 62.38746,27.1932893 62.38746,28.0282502 L62.38746,30.6210237 L61.7546475,30.6210237 Z M68.2629483,30.6957307 C67.3708585,30.6957307 66.7600186,30.1376252 66.7600186,29.2894807 C66.7600186,28.4984651 67.3137296,27.9535432 68.3640225,27.9535432 L69.6208585,27.9535432 L69.6208585,27.4569612 C69.6208585,26.8065705 69.2077725,26.512137 68.566171,26.512137 C67.9201749,26.512137 67.656503,26.7758088 67.5598233,27.1010041 L66.9401944,27.1010041 C67.0105069,26.3539338 67.6301358,25.9452424 68.5969327,25.9452424 C69.5153897,25.9452424 70.26246,26.3583284 70.26246,27.4437776 L70.26246,30.6210237 L69.6472256,30.6210237 L69.6472256,29.9794221 L69.6164639,29.9794221 C69.4011319,30.3441682 68.9748624,30.6957307 68.2629483,30.6957307 Z M68.4167569,30.1332307 C69.0979092,30.1332307 69.6208585,29.6674104 69.6208585,29.043387 L69.6208585,28.4852815 L68.3772061,28.4852815 C67.6960538,28.4852815 67.4191983,28.8280549 67.4191983,29.2762971 C67.4191983,29.8563752 67.8850186,30.1332307 68.4167569,30.1332307 Z M71.9807217,30.6210237 L71.9807217,26.0199495 L72.6135342,26.0199495 L72.6135342,30.6210237 L71.9807217,30.6210237 Z M71.809335,24.6005159 C71.809335,24.3148713 72.0246671,24.1083284 72.2927335,24.1083284 C72.5739835,24.1083284 72.784921,24.3148713 72.784921,24.6005159 C72.784921,24.8729768 72.5739835,25.0839143 72.2927335,25.0839143 C72.0246671,25.0839143 71.809335,24.8729768 71.809335,24.6005159 Z M74.3537686,30.6210237 L74.3537686,26.0199495 L74.9865811,26.0199495 L74.9865811,26.876883 L75.0217374,26.876883 C75.1403897,26.4945588 75.4699796,25.9452424 76.4367764,25.9452424 C77.3640225,25.9452424 78.0100186,26.455008 78.0100186,27.4789338 L78.0100186,30.6210237 L77.3728116,30.6210237 L77.3728116,27.6810823 C77.3728116,26.9384065 76.9860928,26.512137 76.2961514,26.512137 C75.4084561,26.512137 74.9865811,27.1976838 74.9865811,28.0282502 L74.9865811,30.6210237 L74.3537686,30.6210237 Z M85.8103116,30.6210237 L85.2302335,29.9970002 C84.6193936,30.5551057 83.8811124,30.7352815 83.3054288,30.7352815 C82.2243741,30.7352815 81.3234952,30.111258 81.3234952,29.052176 C81.3234952,28.3007112 81.784921,27.7909455 82.5144131,27.3998323 C82.5759366,27.364676 82.6857999,27.3119416 82.7473233,27.2767854 C82.3386319,26.8505159 81.9870694,26.4330354 81.9870694,25.8793245 C81.9870694,25.1498323 82.5979092,24.5741487 83.4680264,24.5741487 C84.3205655,24.5741487 84.9445889,25.1322541 84.9445889,25.8969026 C84.9445889,26.6176057 84.3864835,27.0306916 83.6438077,27.4218049 L85.1950772,29.1049104 C85.4016202,28.7225862 85.4982999,28.1381135 85.5026944,27.3998323 C85.5026944,27.3866487 85.5070889,27.2284455 85.5070889,27.215262 L86.1135342,27.215262 L86.1135342,27.3998323 C86.1091397,28.2963166 85.9553311,29.0214143 85.6213467,29.5355745 L86.640878,30.6210237 L85.8103116,30.6210237 Z M82.8835538,27.7909455 C82.3298428,28.0941682 81.9694913,28.4457307 81.9694913,29.0126252 C81.9694913,29.7904573 82.6330655,30.1859651 83.3537686,30.1859651 C83.8371671,30.1859651 84.4524014,30.0101838 84.8479092,29.5839143 L83.1076749,27.6722932 C83.050546,27.7030549 82.9406827,27.7601838 82.8835538,27.7909455 Z M83.2834561,27.0438752 C83.9162686,26.727469 84.32496,26.4330354 84.32496,25.9100862 C84.32496,25.4266877 83.9646085,25.0927034 83.4680264,25.0927034 C82.9626553,25.0927034 82.6154874,25.4398713 82.6154874,25.9144807 C82.6154874,26.2572541 82.7912686,26.5428987 83.2834561,27.0438752 Z M89.3610928,28.7137971 L89.3610928,27.9139924 C89.3610928,26.7098909 90.0861905,25.9452424 91.2331631,25.9452424 C92.3669522,25.9452424 92.9338467,26.6571565 92.9558194,27.298758 L92.3230069,27.298758 C92.265878,26.9999299 92.0197842,26.5253205 91.2419522,26.5253205 C90.4289639,26.5253205 89.9939053,27.074637 89.9939053,27.9491487 L89.9939053,28.7137971 C89.9939053,29.5795198 90.4685147,30.1156526 91.2463467,30.1156526 C91.9890225,30.1156526 92.265878,29.7640901 92.3537686,29.4037385 L92.9865811,29.4037385 C92.9558194,30.0189729 92.4328702,30.6957307 91.2331631,30.6957307 C90.081796,30.6957307 89.3610928,29.9398713 89.3610928,28.7137971 Z M94.375253,30.6210237 L94.375253,26.0199495 L95.0080655,26.0199495 L95.0080655,26.7582307 L95.0388272,26.7582307 C95.153085,26.4374299 95.500253,25.949637 96.3396085,25.949637 C96.4406827,25.949637 96.5373624,25.9628205 96.625253,25.9716096 L96.625253,26.5648713 C96.5549405,26.5516877 96.409921,26.5428987 96.2649014,26.5428987 C95.4563077,26.5428987 95.0080655,27.0394807 95.0080655,27.7250276 L95.0080655,30.6210237 L94.375253,30.6210237 Z M99.4333585,25.9452424 C100.527597,25.9452424 101.371347,26.6703401 101.371347,27.9579377 L101.371347,28.6830354 C101.371347,29.970633 100.531991,30.6957307 99.4333585,30.6957307 C98.312753,30.6957307 97.4909756,29.9838166 97.4909756,28.6830354 L97.4909756,27.9579377 C97.4909756,26.7098909 98.3259366,25.9452424 99.4333585,25.9452424 Z M99.437753,26.512137 C98.6511319,26.512137 98.1237881,27.1097932 98.1237881,28.0326448 L98.1237881,28.6171174 C98.1237881,29.5575471 98.6247647,30.1332307 99.437753,30.1332307 C100.241952,30.1332307 100.73414,29.5619416 100.73414,28.6171174 L100.73414,28.0326448 C100.73414,27.1097932 100.21998,26.512137 99.437753,26.512137 Z M102.549081,27.3075471 C102.549081,26.3671174 103.335702,25.9452424 104.205819,25.9452424 C105.207773,25.9452424 105.809823,26.4945588 105.809823,27.2064729 L105.212167,27.2064729 C105.1858,26.8724885 104.873788,26.4813752 104.179452,26.4813752 C103.608163,26.4813752 103.173105,26.7450471 103.173105,27.2372346 C103.173105,27.8085237 103.753183,27.9052034 104.320077,28.0150666 C105.181405,28.1776643 105.924081,28.3929963 105.924081,29.2938752 C105.924081,30.1991487 105.177011,30.6957307 104.144296,30.6957307 C103.124765,30.6957307 102.456796,30.2211213 102.456796,29.4345002 L103.080819,29.4345002 C103.137948,29.8563752 103.436776,30.168387 104.170663,30.168387 C104.935312,30.168387 105.291269,29.8256135 105.291269,29.3685823 C105.291269,28.8148713 104.763925,28.7006135 104.10914,28.5687776 C103.239023,28.3842073 102.549081,28.1908479 102.549081,27.3075471 Z M107.053476,27.3075471 C107.053476,26.3671174 107.840097,25.9452424 108.710214,25.9452424 C109.712167,25.9452424 110.314218,26.4945588 110.314218,27.2064729 L109.716562,27.2064729 C109.690194,26.8724885 109.378183,26.4813752 108.683847,26.4813752 C108.112558,26.4813752 107.677499,26.7450471 107.677499,27.2372346 C107.677499,27.8085237 108.257577,27.9052034 108.824472,28.0150666 C109.6858,28.1776643 110.428476,28.3929963 110.428476,29.2938752 C110.428476,30.1991487 109.681405,30.6957307 108.64869,30.6957307 C107.629159,30.6957307 106.96119,30.2211213 106.96119,29.4345002 L107.585214,29.4345002 C107.642343,29.8563752 107.941171,30.168387 108.675058,30.168387 C109.439706,30.168387 109.795663,29.8256135 109.795663,29.3685823 C109.795663,28.8148713 109.268319,28.7006135 108.613534,28.5687776 C107.743417,28.3842073 107.053476,28.1908479 107.053476,27.3075471 Z M111.55787,28.7137971 L111.55787,27.9139924 C111.55787,26.7098909 112.282968,25.9452424 113.42994,25.9452424 C114.56373,25.9452424 115.130624,26.6571565 115.152597,27.298758 L114.519784,27.298758 C114.462655,26.9999299 114.216562,26.5253205 113.43873,26.5253205 C112.625741,26.5253205 112.190683,27.074637 112.190683,27.9491487 L112.190683,28.7137971 C112.190683,29.5795198 112.665292,30.1156526 113.443124,30.1156526 C114.1858,30.1156526 114.462655,29.7640901 114.550546,29.4037385 L115.183358,29.4037385 C115.152597,30.0189729 114.629648,30.6957307 113.42994,30.6957307 C112.278573,30.6957307 111.55787,29.9398713 111.55787,28.7137971 Z M116.514901,30.6210237 L116.514901,24.3060823 L117.147714,24.3060823 L117.147714,26.876883 L117.18287,26.876883 C117.27955,26.5385041 117.666269,25.9452424 118.633065,25.9452424 C119.525155,25.9452424 120.18873,26.4594026 120.18873,27.4877229 L120.18873,30.6210237 L119.551523,30.6210237 L119.551523,27.6898713 C119.551523,26.9471955 119.138437,26.512137 118.448495,26.512137 C117.587167,26.512137 117.147714,27.1932893 117.147714,28.0282502 L117.147714,30.6210237 L116.514901,30.6210237 Z M123.023202,30.6957307 C122.131112,30.6957307 121.520273,30.1376252 121.520273,29.2894807 C121.520273,28.4984651 122.073983,27.9535432 123.124276,27.9535432 L124.381112,27.9535432 L124.381112,27.4569612 C124.381112,26.8065705 123.968026,26.512137 123.326425,26.512137 C122.680429,26.512137 122.416757,26.7758088 122.320077,27.1010041 L121.700448,27.1010041 C121.770761,26.3539338 122.39039,25.9452424 123.357187,25.9452424 C124.275644,25.9452424 125.022714,26.3583284 125.022714,27.4437776 L125.022714,30.6210237 L124.40748,30.6210237 L124.40748,29.9794221 L124.376718,29.9794221 C124.161386,30.3441682 123.735116,30.6957307 123.023202,30.6957307 Z M123.177011,30.1332307 C123.858163,30.1332307 124.381112,29.6674104 124.381112,29.043387 L124.381112,28.4852815 L123.13746,28.4852815 C122.456308,28.4852815 122.179452,28.8280549 122.179452,29.2762971 C122.179452,29.8563752 122.645273,30.1332307 123.177011,30.1332307 Z M126.740976,30.6210237 L126.740976,26.0199495 L127.373788,26.0199495 L127.373788,30.6210237 L126.740976,30.6210237 Z M126.569589,24.6005159 C126.569589,24.3148713 126.784921,24.1083284 127.052987,24.1083284 C127.334237,24.1083284 127.545175,24.3148713 127.545175,24.6005159 C127.545175,24.8729768 127.334237,25.0839143 127.052987,25.0839143 C126.784921,25.0839143 126.569589,24.8729768 126.569589,24.6005159 Z M129.114023,30.6210237 L129.114023,26.0199495 L129.746835,26.0199495 L129.746835,26.876883 L129.781991,26.876883 C129.900644,26.4945588 130.230233,25.9452424 131.19703,25.9452424 C132.124276,25.9452424 132.770273,26.455008 132.770273,27.4789338 L132.770273,30.6210237 L132.133065,30.6210237 L132.133065,27.6810823 C132.133065,26.9384065 131.746347,26.512137 131.056405,26.512137 C130.16871,26.512137 129.746835,27.1976838 129.746835,28.0282502 L129.746835,30.6210237 L129.114023,30.6210237 Z M137.982187,25.9452424 C138.672128,25.9452424 139.16871,26.2792268 139.344491,26.7318635 L139.375253,26.7318635 L139.375253,24.3060823 L140.01246,24.3060823 L140.01246,30.6210237 L139.406015,30.6210237 L139.406015,29.8607698 L139.375253,29.8607698 C139.252206,30.3002229 138.689706,30.6913362 137.960214,30.6913362 C136.892343,30.6913362 136.184823,29.9442659 136.184823,28.7928987 L136.184823,27.8480745 C136.184823,26.6835237 136.923105,25.9452424 137.982187,25.9452424 Z M138.061288,26.512137 C137.309823,26.512137 136.82203,27.0570588 136.82203,28.0062776 L136.82203,28.6259065 C136.82203,29.5707307 137.309823,30.1288362 138.083261,30.1288362 C138.878671,30.1288362 139.375253,29.548758 139.375253,28.7006135 L139.375253,27.852469 C139.375253,27.0790315 138.830331,26.512137 138.061288,26.512137 Z M142.882089,30.6957307 C141.989999,30.6957307 141.379159,30.1376252 141.379159,29.2894807 C141.379159,28.4984651 141.93287,27.9535432 142.983163,27.9535432 L144.239999,27.9535432 L144.239999,27.4569612 C144.239999,26.8065705 143.826913,26.512137 143.185312,26.512137 C142.539315,26.512137 142.275644,26.7758088 142.178964,27.1010041 L141.559335,27.1010041 C141.629648,26.3539338 142.249276,25.9452424 143.216073,25.9452424 C144.13453,25.9452424 144.881601,26.3583284 144.881601,27.4437776 L144.881601,30.6210237 L144.266366,30.6210237 L144.266366,29.9794221 L144.235605,29.9794221 C144.020273,30.3441682 143.594003,30.6957307 142.882089,30.6957307 Z M143.035898,30.1332307 C143.71705,30.1332307 144.239999,29.6674104 144.239999,29.043387 L144.239999,28.4852815 L142.996347,28.4852815 C142.315194,28.4852815 142.038339,28.8280549 142.038339,29.2762971 C142.038339,29.8563752 142.504159,30.1332307 143.035898,30.1332307 Z M146.722909,26.0199495 L146.722909,24.8685823 L147.355722,24.8685823 L147.355722,26.0199495 L148.436776,26.0199495 L148.436776,26.5516877 L147.355722,26.5516877 L147.355722,29.4037385 C147.355722,29.970633 147.540292,30.1200471 148.133554,30.1200471 C148.243417,30.1200471 148.432382,30.1068635 148.511483,30.0980745 L148.511483,30.6298127 C148.441171,30.6429963 148.124765,30.664969 147.979745,30.664969 C146.929452,30.664969 146.722909,30.2562776 146.722909,29.3729768 L146.722909,26.5516877 L145.989023,26.5516877 L145.989023,26.0199495 L146.722909,26.0199495 Z M151.007577,30.6957307 C150.115487,30.6957307 149.504648,30.1376252 149.504648,29.2894807 C149.504648,28.4984651 150.058358,27.9535432 151.108651,27.9535432 L152.365487,27.9535432 L152.365487,27.4569612 C152.365487,26.8065705 151.952401,26.512137 151.3108,26.512137 C150.664804,26.512137 150.401132,26.7758088 150.304452,27.1010041 L149.684823,27.1010041 C149.755136,26.3539338 150.374765,25.9452424 151.341562,25.9452424 C152.260019,25.9452424 153.007089,26.3583284 153.007089,27.4437776 L153.007089,30.6210237 L152.391855,30.6210237 L152.391855,29.9794221 L152.361093,29.9794221 C152.145761,30.3441682 151.719491,30.6957307 151.007577,30.6957307 Z M151.161386,30.1332307 C151.842538,30.1332307 152.365487,29.6674104 152.365487,29.043387 L152.365487,28.4852815 L151.121835,28.4852815 C150.440683,28.4852815 150.163827,28.8280549 150.163827,29.2762971 C150.163827,29.8563752 150.629648,30.1332307 151.161386,30.1332307 Z" id="Inspect-blockchain-&amp;" opacity="0.578497024"></path>
                </g>
            </g>
        </g>
    </g>
</svg>