<svg xmlns="http://www.w3.org/2000/svg" width="11" height="11" viewBox="0 0 11 11">
    <path fill="#66D7D7" fill-rule="nonzero" d="M5.55.674a5.154 5.154 0 1 0 0 10.308 5.154 5.154 0 0 0 0-10.308zm.003 1.804c.512 0 1.01.178 1.397.491.387.314.66.776.66 1.313 0 .523-.128.892-.333 1.156-.205.263-.457.414-.673.568-.215.153-.4.304-.543.571-.144.267-.25.665-.25 1.313a.258.258 0 0 1-.515 0c0-.705.12-1.197.314-1.558s.46-.577.696-.745c.236-.168.427-.296.56-.467.133-.172.23-.395.23-.838 0-.365-.174-.68-.464-.914a1.759 1.759 0 0 0-1.079-.374c-.785 0-1.42.553-1.554 1.09a.258.258 0 1 1-.5-.124c.203-.808 1.034-1.482 2.054-1.482zm0 5.927a.386.386 0 1 1 0 .773.386.386 0 0 1 0-.773z"/>
</svg>
