<svg xmlns="http://www.w3.org/2000/svg" width="28" height="10" viewBox="0 0 28 10">
    <path fill="#FFF" fill-rule="nonzero" d="M13.744 1.1L11.9 9.676H9.707l1.83-8.578h2.207zm9.342 5.538l1.168-3.224.683 3.224h-1.851zm2.459 3.039h2.048l-1.768-8.578h-1.899a1.01 1.01 0 0 0-.95.615l-3.305 7.97h2.33l.464-1.264h2.847l.233 1.257zm-5.799-2.8c0-2.268-3.134-2.39-3.107-3.415 0-.307.3-.615.943-.717.751-.072 1.509.06 2.192.382l.39-1.844a5.99 5.99 0 0 0-2.05-.382c-2.199 0-3.735 1.161-3.749 2.834-.027 1.27 1.079 1.953 1.919 2.35.84.396 1.154.682 1.147 1.065 0 .58-.683.833-1.331.84a4.637 4.637 0 0 1-2.295-.54l-.403 1.885c.784.304 1.618.46 2.459.458 2.328 0 3.858-1.148 3.865-2.937l.02.02zm-9.171-5.778l-3.6 8.584H4.634l-1.755-6.85a.942.942 0 0 0-.526-.744 9.288 9.288 0 0 0-2.206-.737l.055-.246h3.77c.51-.003.946.37 1.024.874l.936 4.965 2.308-5.84 2.336-.006z"/>
</svg>
