<svg xmlns="http://www.w3.org/2000/svg" width="16" height="14" viewBox="0 0 16 14">
    <path fill="#FFF" fill-rule="nonzero" d="M16 2.038a6.553 6.553 0 0 1-1.886.518A3.29 3.29 0 0 0 15.558.739a6.534 6.534 0 0 1-2.085.797A3.278 3.278 0 0 0 11.077.5 3.281 3.281 0 0 0 7.88 4.53 9.32 9.32 0 0 1 1.115 1.1 3.278 3.278 0 0 0 2.13 5.48a3.262 3.262 0 0 1-1.488-.41v.041A3.284 3.284 0 0 0 3.276 8.33a3.3 3.3 0 0 1-1.482.056 3.285 3.285 0 0 0 3.067 2.28A6.584 6.584 0 0 1 0 12.025 9.295 9.295 0 0 0 5.033 13.5c6.038 0 9.34-5.003 9.34-9.339l-.01-.425A6.656 6.656 0 0 0 16 2.038z" opacity=".592"/>
</svg>
