<svg xmlns="http://www.w3.org/2000/svg" width="19" height="16" viewBox="0 0 19 16">
    <path fill="#FFF" fill-rule="nonzero" d="M5.985.287a.492.492 0 0 0-.446.492v6.637H1.314a.492.492 0 0 0-.445.491v7.129c0 .271.22.491.491.491h7.375c.271 0 .492-.22.492-.491V8.399h.983v6.637c0 .271.22.491.491.491h7.375c.272 0 .492-.22.492-.491V7.907a.492.492 0 0 0-.492-.491h-4.179V.779a.492.492 0 0 0-.491-.492H5.985zm.538.983h6.39v6.146H6.524V1.27zM1.852 8.4h6.391v6.145H1.852V8.4zm9.341 0H17.585v6.145h-6.392V8.4z"/>
</svg>
