<svg xmlns="http://www.w3.org/2000/svg" width="143" height="155" viewBox="0 0 143 155">
    <g fill="#5045D2" fill-rule="evenodd">
        <path fill-rule="nonzero" d="M109.569 90.869c-14.493 0-26.668-5.231-32.851-12.788v5.038c0 2.519.966 5.037 2.318 7.362-2.512-.581-5.024-.968-7.536-.968-2.512 0-5.218.387-7.73.968 1.546-2.325 2.32-4.65 2.32-7.362V78.08C59.904 85.831 47.73 90.87 33.237 90.87 18.745 90.869 6.57 85.638.386 78.08v5.038c0 10.85 14.687 19.762 32.852 19.762 4.638 0 9.082-.581 13.14-1.55-1.16 1.55-2.319 3.1-3.285 4.844-3.092.581-6.377.775-9.855.775-14.493 0-26.668-5.231-32.852-12.788v4.65c0 10.85 14.687 19.763 32.852 19.763 1.932 0 3.865-.194 5.797-.388-.193 1.357-.193 2.52-.193 3.876v.193c-1.74.194-3.672.194-5.604.194-14.493 0-26.668-5.231-32.852-12.788v5.038c0 10.85 14.687 19.763 32.852 19.763 2.705 0 5.217-.194 7.536-.582C45.8 146.281 57.586 155 71.694 155c14.106 0 25.894-8.719 30.532-21.119 2.512.388 4.83.582 7.536.582 18.165 0 32.852-8.913 32.852-19.763v-5.038c-6.184 7.75-18.359 12.788-32.852 12.788-1.932 0-3.671 0-5.41-.194v-.194c0-1.356 0-2.712-.194-3.874 1.933.193 3.672.387 5.604.387 18.165 0 32.852-8.913 32.852-19.763v-5.037c-6.184 7.75-18.359 12.787-32.852 12.787-3.478 0-6.57-.193-9.662-.775-.966-1.743-2.126-3.293-3.285-4.843 4.058.968 8.31 1.55 12.947 1.55 18.165 0 32.852-8.913 32.852-19.763v-5.037c-6.378 8.137-18.359 13.175-33.045 13.175zM98.94 122.256c0 7.363-2.9 14.144-7.923 19.375-5.218 5.232-11.982 7.944-19.325 7.944s-14.107-2.906-19.324-7.944c-5.218-5.231-7.923-12.012-7.923-19.375 0-7.362 2.899-14.144 7.923-19.375 5.217-5.231 11.981-7.944 19.324-7.944 7.343 0 14.107 2.907 19.325 7.944 5.024 5.231 7.923 12.013 7.923 19.375z"/>
        <path d="M109.569 75.175c-14.493 0-26.668-5.231-32.851-12.787v5.037c0 10.85 14.686 19.763 32.85 19.763 18.166 0 32.852-8.913 32.852-19.763v-5.037c-6.184 7.556-18.165 12.787-32.851 12.787z"/>
        <path d="M109.569 59.288c-14.493 0-26.668-5.232-32.851-12.788v5.038c0 10.85 14.686 19.762 32.85 19.762 18.166 0 32.852-8.912 32.852-19.762V46.5c-6.184 7.75-18.165 12.788-32.851 12.788z"/>
        <path d="M109.569 43.594c-14.493 0-26.668-5.232-32.851-12.788v5.038c0 10.85 14.686 19.762 32.85 19.762 18.166 0 32.852-8.912 32.852-19.762v-5.038c-6.184 7.556-18.165 12.788-32.851 12.788z"/>
        <path d="M109.569 0C91.404 0 76.718 8.912 76.718 19.762s14.686 19.763 32.85 19.763c18.166 0 32.852-8.912 32.852-19.762S127.734 0 109.57 0zM33.431 86.994c18.165 0 32.851-8.913 32.851-19.763 0-10.85-14.686-19.762-32.85-19.762C15.265 47.469.58 56.38.58 67.23S15.266 86.994 33.43 86.994zM69.954 114.506c.58-.387 1.353-.581 2.319-.581 1.932 0 3.478.388 4.445 1.356l1.546 1.163 3.671-6.007-1.74-.775c-1.545-.968-3.284-1.55-5.023-1.937v-4.456h-6.764v4.65c-2.126.581-2.899 1.356-4.058 2.519-1.353 1.55-2.126 3.293-2.126 5.424 0 3.682 2.899 6.588 8.503 9.107 1.353.581 3.865 1.744 3.865 3.293 0 .582-.193 1.163-.773 1.55-.58.582-1.546.775-2.705.775-2.126 0-3.672-.58-5.218-1.743l-1.353-.969-3.285 5.813.966.775c1.74 1.356 3.672 2.13 5.798 2.518v4.263h6.956v-4.65c1.74-.582 3.286-1.55 4.445-2.906 1.546-1.744 2.319-3.488 2.319-5.62 0-2.13-.58-4.068-1.933-5.618-1.159-1.356-3.285-2.713-5.99-3.875-4.251-1.938-4.251-3.1-4.251-3.1-.194-.387 0-.581.386-.969z"/>
    </g>
</svg>
