<svg xmlns="http://www.w3.org/2000/svg" width="218" height="35" viewBox="0 0 218 35">
    <g fill="#FFF" fill-rule="evenodd">
        <path d="M17.105 34.243C7.658 34.243 0 26.578 0 17.122S7.658 0 17.105 0c9.446 0 17.104 7.666 17.104 17.122s-7.658 17.121-17.104 17.121zm0-5.992c6.14 0 11.118-4.983 11.118-11.13 0-6.146-4.978-11.128-11.118-11.128-6.14 0-11.118 4.982-11.118 11.129 0 6.146 4.977 11.129 11.118 11.129z"/>
        <path d="M14.402 17.698a2.623 2.623 0 0 1 2.556-2.685 2.618 2.618 0 0 1 2.682 2.556l.01 12.612a2.623 2.623 0 0 1-2.557 2.685 2.618 2.618 0 0 1-2.682-2.556l-.01-12.612zM66.536 20.828V4.284c0-4.068 5.98-4.388 5.98 0v16.544c0 17.092-27.53 17.092-27.53 0V4.284c0-4.113 5.98-4.296 5.98 0v16.544c0 9.003 15.57 9.551 15.57 0z"/>
        <path d="M17.105 34.243C7.658 34.243 0 26.578 0 17.122S7.658 0 17.105 0c9.446 0 17.104 7.666 17.104 17.122s-7.658 17.121-17.104 17.121zm0-5.992c6.14 0 11.118-4.983 11.118-11.13 0-6.146-4.978-11.128-11.118-11.128-6.14 0-11.118 4.982-11.118 11.129 0 6.146 4.977 11.129 11.118 11.129zM191.392 31.18c-.73 1.553-2.42 1.873-4.063 1.553-1.461-.822-2.374-2.468-1.461-4.387l13.103-25.639c1.233-2.422 4.52-2.513 5.662 0l12.875 25.639c1.872 3.565-3.653 6.398-5.296 2.833l-2.01-4.021h-16.846l-1.964 4.021zm4.794-10.055h10.775l-5.159-11.288-5.616 11.288zM86.027 31.607c-.73 1.554-2.42 1.874-4.064 1.554-1.46-.822-2.374-2.468-1.46-4.387L93.605 3.135c1.232-2.422 4.52-2.513 5.661 0l12.875 25.639c1.872 3.565-3.652 6.398-5.296 2.833l-2.009-4.021H87.99l-1.963 4.021zm4.794-10.054h10.774l-5.159-11.288-5.615 11.288z"/>
        <path d="M14.402 17.698a2.623 2.623 0 0 1 2.556-2.685 2.618 2.618 0 0 1 2.682 2.556l.01 12.612a2.623 2.623 0 0 1-2.557 2.685 2.618 2.618 0 0 1-2.682-2.556l-.01-12.612zM122.286 29.74V4.467c0-1.646.365-3.245 2.74-3.245 1.643 0 2.008.411 3.24 1.6l15.113 18.92V4.01c0-1.509 1.324-3.154 2.876-3.154 1.644 0 3.242 1.645 3.242 3.154v25.73c0 2.01-1.233 2.787-2.42 3.153-1.598 0-2.374-.366-3.698-1.6L128.267 12.1v17.64c0 2.012-1.233 3.154-2.877 3.154-1.643 0-3.104-1.142-3.104-3.153zM167.471 30.06V6.98h-7.99c-3.972 0-3.972-5.85 0-5.85h21.596c4.063 0 4.063 5.85 0 5.85h-7.579v23.08c0 3.976-6.027 4.067-6.027 0z"/>
    </g>
</svg>
