<svg xmlns="http://www.w3.org/2000/svg" width="38" height="32" viewBox="0 0 38 32">
    <g fill="#72747A" fill-rule="evenodd">
        <path d="M2.384.654C1.08.654.03 1.624.03 2.815v20.014c0 1.19 1.05 2.147 2.355 2.147H16.17v5.155h1.701v-5.155-.707a.822.822 0 0 0-.808-.833H3.04c-.825 0-1.492-.529-1.492-1.186V3.38c0-.658.667-1.186 1.492-1.186h31.363c.825 0 1.491.528 1.491 1.186v18.87c0 .657-.666 1.186-1.491 1.186H20.826a.774.774 0 0 0-.767.777c0 .425.344.763.767.763h14.218c1.306 0 2.37-.957 2.37-2.147V2.815c0-1.19-1.064-2.161-2.37-2.161H2.384z"/>
        <path d="M13.776 30.11a.774.774 0 0 0-.766.778c0 .425.343.762.766.762h7.416a.762.762 0 0 0 .767-.762.774.774 0 0 0-.767-.777h-7.415z"/>
        <g>
            <path d="M4.924 14.553H7.15v5.412H4.924zM8.42 9.56h2.225v6.765H8.419zM9.586 16.121v2.114M29.887 9.56h2.225v6.764h-2.225zM31.055 16.121v2.114M31.055 8.133v2.114M26.393 5.566h2.225v6.765h-2.225zM27.56 12.626v2.114M27.56 5.137v2.114M9.586 8.562v2.255M20.07 13.126v2.114M20.07 8.562v2.255M22.898 12.556h2.225v2.255h-2.225zM24.065 10.559v2.255M24.065 14.054v2.255M15.409 12.057h2.225v4.51H15.41zM16.576 15.622v2.114M16.576 10.559v2.255M6.091 12.556v2.255M6.091 18.048v2.255M19.403 10.559h2.225v3.157h-2.225zM11.914 9.56h2.225v3.157h-2.225zM13.081 11.628v2.114M13.081 7.135v2.113"/>
        </g>
    </g>
</svg>
