<svg xmlns="http://www.w3.org/2000/svg" width="17" height="16" viewBox="0 0 17 16">
    <g fill="#FFF" fill-rule="nonzero" stroke="#FFF" stroke-width=".5" opacity=".3">
        <path d="M11.668 1.028H2.797c-.99 0-1.797.81-1.797 1.805 0 .995.806 1.805 1.797 1.805v-1.14a.664.664 0 0 1 0-1.33h8.304v1.9h1.135v-2.47a.569.569 0 0 0-.568-.57z"/>
        <path d="M15.433 3.498H2.797a.664.664 0 0 1-.662-.665.569.569 0 1 0-1.135 0v10.165c0 .995.806 1.805 1.797 1.805h12.636a.569.569 0 0 0 .567-.57V4.068a.569.569 0 0 0-.567-.57zm-.568 10.165H2.797a.664.664 0 0 1-.662-.665V4.511c.205.082.428.127.662.127h12.068v9.025z"/>
        <path d="M12.898 10.186a.911.911 0 0 1 0-1.824h2.516v-1.14h-2.516a2.05 2.05 0 0 0-2.043 2.052 2.05 2.05 0 0 0 2.043 2.052h2.535v-1.14h-2.535z"/>
    </g>
</svg>
