<svg xmlns="http://www.w3.org/2000/svg" width="51" height="28" viewBox="0 0 51 28">
    <defs>
        <linearGradient id="a" x1="69.897%" x2="82.593%" y1="-63.167%" y2="174.463%">
            <stop offset="0%" stop-color="#D3AE0D"/>
            <stop offset="53.769%" stop-color="#FFED47"/>
            <stop offset="100%" stop-color="#DAB511"/>
            <stop offset="100%" stop-color="#D9B310"/>
        </linearGradient>
    </defs>
    <g fill="url(#a)" fill-rule="evenodd" transform="translate(-360 -284)">
        <path d="M368.952 293.74c-.03-.002-.06-.01-.09-.01h-6.322a2.03 2.03 0 0 0-2.03 2.03v4.711c0 1.121.91 2.03 2.03 2.03h6.323c.03 0 .059-.008.089-.009 1.816 5.262 6.8 9.049 12.68 9.049v-26.85c-5.88 0-10.864 3.786-12.68 9.049zM408.36 293.73h-6.322c-.03 0-.059.008-.089.01-1.816-5.263-6.8-9.049-12.68-9.049v7.975h-4.297a1.073 1.073 0 1 0 0 2.148h4.296v6.605h-4.296a1.074 1.074 0 1 0 0 2.148h4.296v7.974c5.88 0 10.865-3.787 12.681-9.049.03.001.059.01.089.01h6.323c1.12 0 2.029-.91 2.029-2.03v-4.712a2.03 2.03 0 0 0-2.03-2.03z"/>
    </g>
</svg>
