<?xml version="1.0" encoding="UTF-8"?>
<svg width="20px" height="20px" viewBox="0 0 20 20" version="1.1" xmlns="http://www.w3.org/2000/svg" xmlns:xlink="http://www.w3.org/1999/xlink">
    <!-- Generator: Sketch 52.6 (67491) - http://www.bohemiancoding.com/sketch -->
    <title>dice</title>
    <desc>Created with Sketch.</desc>
    <g id="dice" stroke="none" stroke-width="1" fill="none" fill-rule="evenodd">
        <g id="Group" transform="translate(0.500000, 0.500000)" fill="#FFFFFF" fill-rule="nonzero">
            <path d="M5.11538462,11.6923077 C3.90460651,11.6923077 2.92307692,12.6738373 2.92307692,13.8846154 C2.92307692,15.0953935 3.90460651,16.0769231 5.11538462,16.0769231 C6.32616272,16.0769231 7.30769231,15.0953935 7.30769231,13.8846154 C7.30769231,12.6738373 6.32616272,11.6923077 5.11538462,11.6923077 Z M5.11538462,14.6153846 C4.71179191,14.6153846 4.38461538,14.2882081 4.38461538,13.8846154 C4.38461538,13.4810227 4.71179191,13.1538462 5.11538462,13.1538462 C5.51897732,13.1538462 5.84615385,13.4810227 5.84615385,13.8846154 C5.84615385,14.2882081 5.51897732,14.6153846 5.11538462,14.6153846 Z" id="Shape"></path>
            <path d="M13.8846154,11.6923077 C12.9979097,11.6923077 12.1985148,12.2264463 11.8591872,13.0456556 C11.5198596,13.8648648 11.7074241,14.8078154 12.3344197,15.434811 C12.9614154,16.0618066 13.904366,16.2493712 14.7235752,15.9100436 C15.5427845,15.570716 16.0769231,14.7713211 16.0769231,13.8846154 C16.0769231,12.6738373 15.0953935,11.6923077 13.8846154,11.6923077 Z M13.8846154,14.6153846 C13.4810227,14.6153846 13.1538462,14.2882081 13.1538462,13.8846154 C13.1538462,13.4810227 13.4810227,13.1538462 13.8846154,13.1538462 C14.2882081,13.1538462 14.6153846,13.4810227 14.6153846,13.8846154 C14.6153846,14.2882081 14.2882081,14.6153846 13.8846154,14.6153846 Z" id="Shape"></path>
            <path d="M9.5,7.30769231 C8.28922189,7.30769231 7.30769231,8.28922189 7.30769231,9.5 C7.30769231,10.7107781 8.28922189,11.6923077 9.5,11.6923077 C10.7107781,11.6923077 11.6923077,10.7107781 11.6923077,9.5 C11.6923077,8.28922189 10.7107781,7.30769231 9.5,7.30769231 Z M9.5,10.2307692 C9.0964073,10.2307692 8.76923077,9.9035927 8.76923077,9.5 C8.76923077,9.0964073 9.0964073,8.76923077 9.5,8.76923077 C9.9035927,8.76923077 10.2307692,9.0964073 10.2307692,9.5 C10.2307692,9.9035927 9.9035927,10.2307692 9.5,10.2307692 Z" id="Shape"></path>
            <path d="M13.8846154,2.92307692 C12.9979097,2.92307692 12.1985148,3.45721554 11.8591872,4.27642478 C11.5198596,5.09563402 11.7074241,6.03858464 12.3344197,6.66558025 C12.9614154,7.29257586 13.904366,7.4801404 14.7235752,7.14081282 C15.5427845,6.80148524 16.0769231,6.00209031 16.0769231,5.11538462 C16.0769231,3.90460651 15.0953935,2.92307692 13.8846154,2.92307692 Z M13.8846154,5.84615385 C13.4810227,5.84615385 13.1538462,5.51897732 13.1538462,5.11538462 C13.1538462,4.71179191 13.4810227,4.38461538 13.8846154,4.38461538 C14.2882081,4.38461538 14.6153846,4.71179191 14.6153846,5.11538462 C14.6153846,5.51897732 14.2882081,5.84615385 13.8846154,5.84615385 Z" id="Shape"></path>
            <path d="M5.11538462,7.30769231 C6.32616272,7.30769231 7.30769231,6.32616272 7.30769231,5.11538462 C7.30769231,3.90460651 6.32616272,2.92307692 5.11538462,2.92307692 C3.90460651,2.92307692 2.92307692,3.90460651 2.92307692,5.11538462 C2.92307692,6.32616272 3.90460651,7.30769231 5.11538462,7.30769231 Z M5.11538462,4.38461538 C5.51897732,4.38461538 5.84615385,4.71179191 5.84615385,5.11538462 C5.84615385,5.51897732 5.51897732,5.84615385 5.11538462,5.84615385 C4.71179191,5.84615385 4.38461538,5.51897732 4.38461538,5.11538462 C4.38461538,4.71179191 4.71179191,4.38461538 5.11538462,4.38461538 Z" id="Shape"></path>
            <path d="M16.8076923,0 L2.19230769,0 C0.981529587,0 0,0.981529587 0,2.19230769 L0,16.8076923 C0,18.0184704 0.981529587,19 2.19230769,19 L16.8076923,19 C18.0184704,19 19,18.0184704 19,16.8076923 L19,2.19230769 C19,0.981529587 18.0184704,0 16.8076923,0 Z M17.5384615,16.8076923 C17.5384615,17.211285 17.211285,17.5384615 16.8076923,17.5384615 L2.19230769,17.5384615 C1.78871499,17.5384615 1.46153846,17.211285 1.46153846,16.8076923 L1.46153846,2.19230769 C1.46153846,1.78871499 1.78871499,1.46153846 2.19230769,1.46153846 L16.8076923,1.46153846 C17.211285,1.46153846 17.5384615,1.78871499 17.5384615,2.19230769 L17.5384615,16.8076923 Z" id="Shape"></path>
        </g>
    </g>
</svg>