<svg xmlns="http://www.w3.org/2000/svg" width="32" height="32" viewBox="0 0 32 32">
    <g fill="none" fill-rule="evenodd" opacity=".806" transform="translate(1.438 1.248)">
        <circle cx="14.563" cy="14.563" r="14.563" stroke="#FFF" stroke-width="2"/>
        <path fill="#FFF" fill-rule="nonzero" d="M22.069 8.934H7.058a.941.941 0 0 0-.938.938v9.382c0 .516.422.938.938.938h15.01a.941.941 0 0 0 .939-.938V9.872a.941.941 0 0 0-.938-.938zm-5.63 1.407h1.877v1.877H16.44V10.34zm3.284 3.284v1.876h-1.876v-1.876h1.876zm-6.098-3.284h1.876v1.877h-1.876V10.34zm3.284 3.284v1.876h-1.877v-1.876h1.877zm-6.098-3.284h1.876v1.877H10.81V10.34zm3.283 3.284v1.876h-1.876v-1.876h1.876zm-6.098-3.284h1.876v1.877H7.996V10.34zm1.407 3.284h1.877v1.876H9.403v-1.876zm8.913 5.16H10.81V16.91h7.505v1.876zm2.814-6.567h-1.876V10.34h1.876v1.877z"/>
    </g>
</svg>
