<?xml version="1.0" encoding="UTF-8"?>
<svg width="20px" height="20px" viewBox="0 0 20 20" version="1.1" xmlns="http://www.w3.org/2000/svg" xmlns:xlink="http://www.w3.org/1999/xlink">
    <!-- Generator: Sketch 52.6 (67491) - http://www.bohemiancoding.com/sketch -->
    <title>list</title>
    <desc>Created with Sketch.</desc>
    <g id="list" stroke="none" stroke-width="1" fill="none" fill-rule="evenodd">
        <g transform="translate(-0.640625, 0.301758)" fill="#FFFFFF" fill-rule="nonzero" id="Shape">
            <path d="M7.125,3.27272727 C6.68777458,3.27272727 6.33333333,2.90641479 6.33333333,2.45454545 C6.33333333,2.00267612 6.68777458,1.63636364 7.125,1.63636364 L18.2083333,1.63636364 C18.6455588,1.63636364 19,2.00267612 19,2.45454545 C19,2.90641479 18.6455588,3.27272727 18.2083333,3.27272727 L7.125,3.27272727 Z M0.791666667,2.45454545 C0.791666667,1.55088352 1.50013379,0.818181818 2.375,0.818181818 C3.24986621,0.818181818 3.95833333,1.55088352 3.95833333,2.45454545 C3.95833333,3.35820739 3.24986621,4.09090909 2.375,4.09090909 C1.50013379,4.09090909 0.791666667,3.35820739 0.791666667,2.45454545 Z M7.125,9.81818182 C6.68777458,9.81818182 6.33333333,9.45186938 6.33333333,9 C6.33333333,8.54813062 6.68777458,8.18181818 7.125,8.18181818 L18.2083333,8.18181818 C18.6455588,8.18181818 19,8.54813062 19,9 C19,9.45186938 18.6455588,9.81818182 18.2083333,9.81818182 L7.125,9.81818182 Z M0.791666667,9 C0.791666667,8.09633798 1.50013379,7.36363636 2.375,7.36363636 C3.24986621,7.36363636 3.95833333,8.09633798 3.95833333,9 C3.95833333,9.90366202 3.24986621,10.6363636 2.375,10.6363636 C1.50013379,10.6363636 0.791666667,9.90366202 0.791666667,9 Z M7.125,16.3636364 C6.68777458,16.3636364 6.33333333,15.9973239 6.33333333,15.5454545 C6.33333333,15.0935852 6.68777458,14.7272727 7.125,14.7272727 L18.2083333,14.7272727 C18.6455588,14.7272727 19,15.0935852 19,15.5454545 C19,15.9973239 18.6455588,16.3636364 18.2083333,16.3636364 L7.125,16.3636364 Z M0.791666667,15.5454545 C0.791666667,14.6417925 1.50013379,13.9090909 2.375,13.9090909 C3.24986621,13.9090909 3.95833333,14.6417925 3.95833333,15.5454545 C3.95833333,16.4491166 3.24986621,17.1818182 2.375,17.1818182 C1.50013379,17.1818182 0.791666667,16.4491166 0.791666667,15.5454545 Z"></path>
        </g>
    </g>
</svg>