<svg xmlns="http://www.w3.org/2000/svg" width="13" height="16" viewBox="0 0 13 16">
    <g fill="#66D7D7" fill-rule="nonzero">
        <path d="M10.38 6.114V3.878c0-2.1-1.71-3.808-3.808-3.808a3.812 3.812 0 0 0-3.808 3.808.53.53 0 0 0 1.062 0 2.749 2.749 0 0 1 2.746-2.746 2.75 2.75 0 0 1 2.746 2.746v2.236H.864v9.816H12.28V6.114h-1.9zm.838 8.755H1.926V7.175h9.292v7.694z"/>
        <path d="M6.572 13.661c.74 0 1.343-.603 1.343-1.344V10.17c0-.741-.603-1.344-1.343-1.344s-1.343.603-1.343 1.344v2.148c0 .741.602 1.344 1.343 1.344zM6.29 10.17a.282.282 0 0 1 .564 0v2.149a.282.282 0 0 1-.564 0v-2.15z"/>
    </g>
</svg>
