<?xml version="1.0" encoding="UTF-8"?>
<svg width="22px" height="22px" viewBox="0 0 22 22" version="1.1" xmlns="http://www.w3.org/2000/svg" xmlns:xlink="http://www.w3.org/1999/xlink">
    <!-- Generator: Sketch 52.6 (67491) - http://www.bohemiancoding.com/sketch -->
    <title>white_lock</title>
    <desc>Created with Sketch.</desc>
    <g id="white_lock" stroke="none" stroke-width="1" fill="none" fill-rule="evenodd">
        <g id="lock" transform="translate(4.500000, 3.000000)" fill="#FFFFFF" fill-rule="nonzero">
            <path d="M10.1818266,5.80817711 L10.1818266,4.26394521 C10.1818266,2.14355561 8.45631651,0.418314832 6.33619627,0.418314832 C5.3088632,0.418314832 4.34294385,0.818312108 3.61621479,1.54477181 C2.88975509,2.27150086 2.4892191,3.23688149 2.48975782,4.26421456 L2.48975782,5.80844647 L0.570040252,5.80844647 L0.570040252,15.7235305 L12.1010055,15.7235305 L12.1010055,5.80844647 L10.1818266,5.80844647 L10.1818266,5.80817711 Z M3.56207375,4.26367585 C3.56207375,3.52320951 3.85028727,2.8266486 4.37445879,2.3030158 C4.89836094,1.77911364 5.59492185,1.4903614 6.33619627,1.4903614 C7.86561346,1.4903614 9.10978007,2.73452801 9.10978007,4.26367585 L9.10978007,5.80790776 L3.56207375,5.80790776 L3.56207375,4.26367585 Z M11.0289589,14.6509452 L1.6428949,14.6509452 L1.6428949,6.88022368 L11.0289589,6.88022368 L11.0289589,14.6509452 Z" id="Shape"></path>
            <path d="M5.25041242,12.3457757 L7.42117204,12.3457757 C8.16918042,12.3457757 8.7784692,11.7370256 8.7784692,10.9887479 C8.7784692,10.2407395 8.16918042,9.63225881 7.42117204,9.63225881 L5.25041242,9.63225881 C4.50240404,9.63225881 3.89365398,10.2407395 3.89365398,10.9887479 C3.89365398,11.7370256 4.50213468,12.3457757 5.25041242,12.3457757 Z M5.25041242,10.7043054 L7.42117204,10.7043054 C7.57793865,10.7043054 7.70588391,10.8319813 7.70588391,10.9887479 C7.70588391,11.1457839 7.57793865,11.2734598 7.42117204,11.2734598 L5.25041242,11.2734598 C5.09364581,11.2734598 4.96570055,11.1457839 4.96570055,10.9887479 C4.96570055,10.8319813 5.09364581,10.7043054 5.25041242,10.7043054 Z" id="Shape"></path>
        </g>
    </g>
</svg>