<svg xmlns="http://www.w3.org/2000/svg" width="16" height="16" viewBox="0 0 16 16">
    <g fill="#FFF" fill-rule="nonzero" opacity=".3">
        <path d="M1.054 6.304h13.892c.39 0 .744-.212.908-.542a.885.885 0 0 0-.145-.997L11.839.506a1.05 1.05 0 0 0-1.41-.108.892.892 0 0 0-.116 1.317l2.473 2.72H1.054c-.552 0-1 .419-1 .935 0 .515.448.934 1 .934zM14.946 9.211H1.054c-.39 0-.744.212-.908.542a.885.885 0 0 0 .145.996l3.87 4.26c.199.217.48.33.764.33.229 0 .458-.073.647-.222a.892.892 0 0 0 .115-1.317l-2.473-2.72h11.732c.553 0 1-.419 1-.935s-.447-.934-1-.934z"/>
    </g>
</svg>
