<svg xmlns="http://www.w3.org/2000/svg" width="34" height="33" viewBox="0 0 34 33">
    <g fill="#72747A" fill-rule="evenodd">
        <path fill-rule="nonzero" d="M6.707 20.248a6.374 6.374 0 1 0 6.373 6.374 6.381 6.381 0 0 0-6.373-6.374zm0 10.926a4.553 4.553 0 1 1 0-9.105 4.553 4.553 0 0 1 0 9.105z"/>
        <path d="M29.203 18.694a.91.91 0 0 0-1.288 0l-1.82 1.821a.91.91 0 0 0 1.287 1.288l.266-.267V24.8a3.001 3.001 0 0 1-2.731 2.731h-5.463a.91.91 0 1 0 0 1.821h5.463a4.795 4.795 0 0 0 4.552-4.552v-3.265l.267.267a.91.91 0 1 0 1.288-1.288l-1.821-1.821zM17.633 5.68h-7.284a4.795 4.795 0 0 0-4.553 4.553v3.265l-.266-.267a.91.91 0 0 0-1.288 1.288l1.821 1.82a.91.91 0 0 0 1.288 0l1.82-1.82a.91.91 0 0 0-1.287-1.288l-.267.267v-3.265A3.001 3.001 0 0 1 10.35 7.5h7.284a.91.91 0 0 0 0-1.82zM30.38 5.68h-3.642a.91.91 0 1 1 0-1.82H32.2a.91.91 0 1 0 0-1.822h-2.732v-.91a.91.91 0 1 0-1.82 0v.91h-.911a2.732 2.732 0 0 0 0 5.463h3.642a.91.91 0 1 1 0 1.821h-5.463a.91.91 0 1 0 0 1.821h2.731v.91a.91.91 0 1 0 1.821 0v-.91h.91a2.732 2.732 0 0 0 0-5.463z"/>
    </g>
</svg>
