<svg xmlns="http://www.w3.org/2000/svg" width="86" height="54" viewBox="0 0 86 54">
    <g fill="none" fill-rule="evenodd">
        <path fill="#5045D2" d="M47.729 41.652l11.56-8.808c1.404-1.07 3.01 1.037 1.605 2.107L49.44 43.68a6.622 6.622 0 1 1-1.711-2.026zM43.44 50.85a3.973 3.973 0 1 0 0-7.947 3.973 3.973 0 0 0 0 7.947zM42.117 8.466a1.324 1.324 0 1 1 2.649 0v6.622a1.324 1.324 0 1 1-2.649 0V8.466zM14.281 24.537l5.735 3.311c1.53.883.205 3.177-1.324 2.294l-5.735-3.31c-1.53-.884-.205-3.178 1.324-2.295zm59.645 2.294l-5.735 3.311c-1.53.883-2.854-1.41-1.324-2.294l5.735-3.31c1.53-.884 2.854 1.41 1.324 2.293zM27.37 12.417l3.312 5.736c.883 1.529-1.411 2.853-2.294 1.324l-3.312-5.735c-.883-1.53 1.411-2.854 2.294-1.325zm34.437 1.325l-3.312 5.735c-.883 1.53-3.177.205-2.294-1.324l3.312-5.736c.883-1.529 3.177-.204 2.294 1.325zm16.07 30.485h-6.622c-1.766 0-1.766-2.65 0-2.65h6.623c1.766 0 1.766 2.65 0 2.65zm-62.25 0H9.006c-1.766 0-1.766-2.65 0-2.65h6.623c1.766 0 1.766 2.65 0 2.65z"/>
        <path fill-rule="nonzero" stroke="#5045D2" stroke-width="2.5" d="M83.325 53.19a41.602 41.602 0 0 0 1.175-9.846c0-22.92-18.58-41.5-41.5-41.5s-41.5 18.58-41.5 41.5c0 3.485.43 6.87 1.239 10.105"/>
    </g>
</svg>
