<?xml version="1.0" encoding="UTF-8"?>
<svg width="29px" height="29px" viewBox="0 0 29 29" version="1.1" xmlns="http://www.w3.org/2000/svg" xmlns:xlink="http://www.w3.org/1999/xlink">
    <!-- Generator: Sketch 52.6 (67491) - http://www.bohemiancoding.com/sketch -->
    <title>logo</title>
    <desc>Created with Sketch.</desc>
    <g id="logo" stroke="none" stroke-width="1" fill="none" fill-rule="evenodd">
        <path d="M12.0941449,23.7676897 L12.063904,15.2851424 C12.0316779,14.0848702 12.9873579,13.0905746 14.1984751,13.064321 C15.4095923,13.0380675 16.4175213,13.9897976 16.4497474,15.1900698 L16.4804199,23.7936853 C20.5981595,22.8380801 23.6639761,19.1835151 23.6639761,14.8210197 C23.6639761,9.73097723 19.4902973,5.60468252 14.3418037,5.60468252 C9.19331003,5.60468252 5.01963129,9.73097723 5.01963129,14.8210197 C5.01963129,19.1449193 8.03144017,22.7733596 12.0941449,23.7676897 Z M14.3418037,29 C6.42104422,29 0,22.6518543 0,14.8210197 C0,6.99018512 6.42104422,0.642039415 14.3418037,0.642039415 C22.2625631,0.642039415 28.6836073,6.99018512 28.6836073,14.8210197 C28.6836073,22.6518543 22.2625631,29 14.3418037,29 Z" id="Combined-Shape" fill="#66D7D7"></path>
    </g>
</svg>