<svg xmlns="http://www.w3.org/2000/svg" width="35" height="35" viewBox="0 0 35 35">
    <g fill="#66D7D7" fill-rule="nonzero">
        <path d="M17.315 25.35c4.31 0 7.817-3.507 7.817-7.818 0-4.31-3.507-7.818-7.817-7.818-4.311 0-7.819 3.507-7.819 7.818 0 4.31 3.508 7.817 7.819 7.817zm0-14.235a6.424 6.424 0 0 1 6.416 6.417 6.424 6.424 0 0 1-6.416 6.416 6.424 6.424 0 0 1-6.417-6.416 6.424 6.424 0 0 1 6.417-6.417z"/>
        <path d="M1.028 21.078l3.962 1.005c.117.313.248.628.393.942L3.29 26.54a.7.7 0 0 0 .107.854l4.055 4.055a.7.7 0 0 0 .854.107l3.515-2.093c.313.145.628.276.942.393l1.005 3.962c.08.31.358.528.68.528h5.733c.321 0 .6-.217.68-.528l1.004-3.962c.314-.117.63-.248.943-.393l3.515 2.093a.7.7 0 0 0 .853-.107l4.056-4.055a.7.7 0 0 0 .106-.854l-2.093-3.515c.145-.314.277-.629.394-.942l3.962-1.005a.7.7 0 0 0 .528-.68v-5.734a.7.7 0 0 0-.528-.679l-3.963-1.004a13.17 13.17 0 0 0-.393-.943l2.093-3.515a.7.7 0 0 0-.106-.853l-4.056-4.056a.702.702 0 0 0-.853-.106L22.808 5.6a13.07 13.07 0 0 0-.943-.393l-1.004-3.962a.701.701 0 0 0-.68-.529h-5.734c-.32 0-.6.218-.68.529l-1.004 3.962c-.315.117-.63.248-.942.393L8.306 3.508a.7.7 0 0 0-.854.106L3.397 7.67a.7.7 0 0 0-.107.853l2.093 3.515a13.17 13.17 0 0 0-.393.943l-3.962 1.004a.7.7 0 0 0-.528.68v5.734c0 .32.218.6.528.679zm.873-5.869l3.797-.962a.701.701 0 0 0 .492-.456c.163-.488.37-.984.615-1.477a.7.7 0 0 0-.026-.67l-2.006-3.37 3.285-3.283 3.368 2.006a.704.704 0 0 0 .671.025c.488-.242.985-.45 1.477-.615a.701.701 0 0 0 .456-.492l.962-3.797h4.644l.963 3.797c.059.23.23.416.455.492.492.166.99.373 1.477.615a.704.704 0 0 0 .671-.025l3.369-2.006 3.285 3.284-2.007 3.37a.7.7 0 0 0-.025.67c.244.492.451.988.615 1.476a.701.701 0 0 0 .492.456l3.797.962v4.645l-3.797.963a.701.701 0 0 0-.492.456c-.163.486-.37.983-.615 1.476a.7.7 0 0 0 .025.67l2.006 3.37-3.284 3.284-3.369-2.007a.7.7 0 0 0-.67-.025c-.491.244-.988.45-1.477.615a.701.701 0 0 0-.456.492l-.963 3.797h-4.644l-.962-3.797a.701.701 0 0 0-.457-.492c-.489-.164-.985-.371-1.476-.615a.7.7 0 0 0-.67.025l-3.37 2.007-3.284-3.284 2.006-3.37a.7.7 0 0 0 .026-.67 11.65 11.65 0 0 1-.615-1.476.701.701 0 0 0-.492-.456L1.9 19.854v-4.645z"/>
    </g>
</svg>
