<svg xmlns="http://www.w3.org/2000/svg" width="14" height="15" viewBox="0 0 14 15">
    <path fill="#FFF" fill-rule="nonzero" d="M6.843.385A6.844 6.844 0 0 0 .008 7.221a6.844 6.844 0 0 0 6.835 6.835 6.844 6.844 0 0 0 6.835-6.835A6.844 6.844 0 0 0 6.843.385zm0 1.094a5.733 5.733 0 0 1 5.742 5.742 5.733 5.733 0 0 1-5.742 5.741 5.733 5.733 0 0 1-5.742-5.741 5.733 5.733 0 0 1 5.742-5.742zm0 1.64a.547.547 0 0 0-.547.547v3.555c0 .15.064.285.163.384.709.693 1.421 1.419 2.127 2.128a.542.542 0 0 0 .77 0 .542.542 0 0 0 0-.77L7.39 7V3.666a.547.547 0 0 0-.547-.546z"/>
</svg>
