<?xml version="1.0" encoding="UTF-8"?>
<svg width="20px" height="20px" viewBox="0 0 20 20" version="1.1" xmlns="http://www.w3.org/2000/svg" xmlns:xlink="http://www.w3.org/1999/xlink">
    <!-- Generator: Sketch 52.6 (67491) - http://www.bohemiancoding.com/sketch -->
    <title>chat</title>
    <desc>Created with Sketch.</desc>
    <g id="chat" stroke="none" stroke-width="1" fill="none" fill-rule="evenodd">
        <g id="Group" transform="translate(-0.154297, 0.301758)" fill="#FFFFFF">
            <path d="M9.96078459,0.700952941 C4.81079341,0.700952941 0.622549035,4.88918824 0.622549035,10.0391882 C0.622549035,15.1891765 4.81048024,19.3795647 9.96078459,19.3774235 C11.3943071,19.3768235 12.7944071,19.0121882 14.0754447,18.3779412 C16.5763965,19.3495294 18.6746471,19.3774235 18.6746471,19.3774235 C18.9267211,19.3780669 19.1543101,19.226653 19.2511102,18.9939053 C19.3479103,18.7611576 19.2948184,18.4930081 19.1166329,18.3147059 C18.2914682,17.4895412 17.7849424,16.5068941 17.4417082,15.5746471 C18.6292741,13.9724824 19.2982565,12.0412353 19.29902,10.0391882 C19.30102,4.88890588 15.1107753,0.700952941 9.96078459,0.700952941 Z M9.96078459,1.94604706 C14.4378753,1.94604706 18.0556294,5.56237647 18.0539224,10.0391882 C18.0532165,11.8885765 17.4155553,13.6815882 16.2513259,15.1198941 C16.1173781,15.2853521 16.0772513,15.5077779 16.1449376,15.7096118 C16.3929647,16.4481882 16.8097247,17.2297529 17.3243765,17.9937059 C16.5334812,17.8666706 15.4694682,17.6238353 14.3016082,17.1437765 C14.129483,17.0731555 13.9347951,17.0832107 13.7708612,17.1711882 C12.5983059,17.8002118 11.2897454,18.1318118 9.96078812,18.1323647 C5.48401153,18.1347176 1.86765059,14.5163176 1.86765059,10.0392353 C1.86765059,5.56214118 5.48369776,1.94609412 9.96078812,1.94609412 L9.96078459,1.94604706 Z" id="Shape" fill-rule="nonzero"></path>
            <path d="M10.583334,10.0391647 C10.583335,10.2042757 10.5177457,10.3626244 10.400995,10.4793759 C10.2842443,10.5961273 10.1258959,10.6617176 9.96078494,10.6617176 C9.79567399,10.6617176 9.63732561,10.5961273 9.52057491,10.4793759 C9.4038242,10.3626244 9.33823485,10.2042757 9.33823588,10.0391647 C9.33824024,9.69534343 9.61696367,9.41662353 9.96078494,9.41662353 C10.3046062,9.41662353 10.5833296,9.69534343 10.583334,10.0391647 Z" id="Path"></path>
            <path d="M14.3186259,10.0391647 C14.3186269,10.2042757 14.2530375,10.3626246 14.1362867,10.479376 C14.0195359,10.5961274 13.8611875,10.6617177 13.6960765,10.6617176 C13.5309657,10.6617174 13.3726175,10.596127 13.255867,10.4793756 C13.1391164,10.3626242 13.0735272,10.2042755 13.0735282,10.0391647 C13.0735326,9.69534375 13.3522555,9.41662398 13.6960765,9.41662353 C14.0398979,9.41662333 14.3186215,9.6953433 14.3186259,10.0391647 Z" id="Path"></path>
            <path d="M6.84804071,10.0391647 C6.84804174,10.2042757 6.78245239,10.3626244 6.66570168,10.4793759 C6.54895097,10.5961273 6.3906026,10.6617176 6.22549165,10.6617176 C6.0603807,10.6617176 5.90203232,10.5961273 5.78528161,10.4793759 C5.66853091,10.3626244 5.60294156,10.2042757 5.60294259,10.0391647 C5.60294694,9.69534343 5.88167037,9.41662353 6.22549165,9.41662353 C6.56931292,9.41662353 6.84803635,9.69534343 6.84804071,10.0391647 Z" id="Path"></path>
        </g>
    </g>
</svg>