<svg xmlns="http://www.w3.org/2000/svg" width="51" height="45" viewBox="0 0 51 45">
    <defs>
        <linearGradient id="a" x1="69.897%" x2="82.593%" y1="-63.167%" y2="174.463%">
            <stop offset="0%" stop-color="#D3AE0D"/>
            <stop offset="53.769%" stop-color="#FFED47"/>
            <stop offset="100%" stop-color="#DAB511"/>
            <stop offset="100%" stop-color="#D9B310"/>
        </linearGradient>
    </defs>
    <path fill="url(#a)" fill-rule="nonzero" d="M85.377 114.092c0-.742-.54-1.422-1.281-1.608l-22.99-7.17a2.031 2.031 0 0 0-1.213 0l-22.989 7.17h-.067s-.068 0-.068.062c-.134.062-.202.124-.337.186a.507.507 0 0 0-.27.247l-.067.062c-.067.062-.135.185-.202.309-.135.123-.202.247-.202.37v.063c0 .123-.068.247-.068.309v27.323c0 .742.54 1.422 1.281 1.607l22.99 6.862c.067 0 .134.062.269.062H60.837c.067 0 .135 0 .202-.062l22.99-6.862c.74-.247 1.28-.865 1.28-1.607v-27.323c.068.061.068.061.068 0zM60.5 108.775l17.056 5.255-17.056 5.13-17.056-5.068 17.056-5.317zm-21.101 7.728l19.213 5.749v23.676l-19.213-5.75v-23.675zM81.6 140.179l-19.28 5.749v-23.676l19.28-5.75v23.677zm-30.54-8.964c0 1.73-.943 3.153-2.09 3.153-1.145 0-2.09-1.422-2.09-3.153 0-1.73.945-3.153 2.09-3.153 1.147 0 2.09 1.422 2.09 3.153zm4.72-17.247c0 .742-1.146 1.36-2.562 1.36s-2.562-.618-2.562-1.36c0-.742 1.146-1.36 2.562-1.36s2.562.618 2.562 1.36zm9.303 0c0-.742 1.146-1.36 2.562-1.36s2.562.618 2.562 1.36c0 .742-1.146 1.36-2.562 1.36s-2.562-.618-2.562-1.36zm-.876 25.221c0-1.73.944-3.152 2.09-3.152s2.09 1.422 2.09 3.152c0 1.731-.944 3.153-2.09 3.153-1.214 0-2.09-1.422-2.09-3.153zm5.73-7.974c0-1.73.944-3.153 2.09-3.153s2.09 1.422 2.09 3.153c0 1.73-.944 3.153-2.09 3.153s-2.09-1.36-2.09-3.153zm5.73-7.974c0-1.731.945-3.153 2.09-3.153 1.147 0 2.09 1.422 2.09 3.153 0 1.73-.943 3.152-2.09 3.152-1.145.062-2.09-1.36-2.09-3.152z" transform="translate(-35.11 -105.027)"/>
</svg>
