<svg xmlns="http://www.w3.org/2000/svg" width="32" height="32" viewBox="0 0 32 32">
    <g fill="none" fill-rule="evenodd" opacity=".806" transform="translate(1.745 1.477)">
        <path fill="#FFF" fill-rule="nonzero" d="M7.334 8.06A.334.334 0 0 0 7 8.394V21.42c0 .184.15.334.334.334h14.694a.334.334 0 1 0 0-.668H7.668V8.395a.334.334 0 0 0-.334-.335zm12.19 1.837c-.642 0-1.17.528-1.17 1.17 0 .263.091.502.24.698L16.613 14.6a1.156 1.156 0 0 0-.261-.026c-.326 0-.622.131-.835.35l-1.398-.815c.04-.117.062-.24.062-.37 0-.642-.527-1.17-1.169-1.17-.641 0-1.169.528-1.169 1.17 0 .263.091.503.24.699L10.1 17.27a1.174 1.174 0 0 0-1.43 1.143c0 .642.527 1.17 1.169 1.17.641 0 1.169-.528 1.169-1.17 0-.313-.126-.603-.33-.814l1.937-2.765c.124.045.257.073.396.073.272 0 .521-.099.72-.256l1.477.861a1.158 1.158 0 0 0-.026.23c0 .641.527 1.168 1.169 1.168.641 0 1.169-.527 1.169-1.168 0-.313-.126-.604-.329-.814l1.936-2.766c.124.045.257.073.396.073.642 0 1.17-.527 1.17-1.169 0-.641-.528-1.169-1.17-1.169z"/>
        <circle cx="14.563" cy="14.563" r="14.563" stroke="#FFF" stroke-width="2"/>
    </g>
</svg>
