<?xml version="1.0" encoding="UTF-8"?>
<svg width="152px" height="54px" viewBox="0 0 152 54" version="1.1" xmlns="http://www.w3.org/2000/svg" xmlns:xlink="http://www.w3.org/1999/xlink">
    <!-- Generator: Sketch 52.6 (67491) - http://www.bohemiancoding.com/sketch -->
    <title>logo</title>
    <desc>Created with Sketch.</desc>
    <defs>
        <linearGradient x1="69.8970169%" y1="-63.1673177%" x2="82.5929778%" y2="174.462891%" id="linearGradient-1">
            <stop stop-color="#D3AE0D" offset="0%"></stop>
            <stop stop-color="#FFED47" offset="53.7694932%"></stop>
            <stop stop-color="#DAB511" offset="100%"></stop>
            <stop stop-color="#D9B310" offset="100%"></stop>
        </linearGradient>
    </defs>
    <g id="Dice" stroke="none" stroke-width="1" fill="none" fill-rule="evenodd">
        <g id="quanta_dice" transform="translate(-32.000000, -10.000000)">
            <g id="header">
                <g id="logo" transform="translate(31.832184, 10.000000)">
                    <g transform="translate(54.661483, 2.155458)" fill="#FFFFFF" id="Group-34">
                        <g transform="translate(0.371019, 0.306014)">
                            <g id="quanta" transform="translate(0.014563, 0.074786)">
                                <path d="M20.7794465,7.22724718 C20.5922042,7.58628759 20.1592063,7.66020768 19.7379111,7.58628759 C19.3634265,7.39620738 19.1293736,7.01604694 19.3634265,6.57252644 L22.7220856,0.648359685 C23.038057,0.0886790473 23.8806474,0.0675590232 24.1732135,0.648359685 L27.4733594,6.57252644 C27.9531678,7.39620738 26.5371478,8.05092812 26.1158526,7.22724718 L25.6009362,6.29796612 L21.2826602,6.29796612 L20.7794465,7.22724718 Z M22.0082242,4.90404454 L24.7700484,4.90404454 L23.4476495,2.29572156 L22.0082242,4.90404454 Z" id="Combined-Shape-Copy-67"></path>
                                <path d="M29.2867764,6.87375471 L29.2867764,0.955750449 C29.2867764,0.570491582 29.3796359,0.19593435 29.9832224,0.19593435 C30.40109,0.19593435 30.4939494,0.292249067 30.8073501,0.570491582 L34.6494104,5.00096855 L34.6494104,0.848734097 C34.6494104,0.495580136 34.9860259,0.110321269 35.3806786,0.110321269 C35.7985462,0.110321269 36.2048064,0.495580136 36.2048064,0.848734097 L36.2048064,6.87375471 C36.2048064,7.34462666 35.8914057,7.52655446 35.5896124,7.61216754 C35.1833523,7.61216754 34.9860259,7.52655446 34.6494104,7.23761031 L30.8073501,2.74292353 L30.8073501,6.87375471 C30.8073501,7.34462666 30.4939494,7.61216754 30.0760819,7.61216754 C29.6582143,7.61216754 29.2867764,7.34462666 29.2867764,6.87375471 Z" id="Path-Copy-22"></path>
                                <path d="M40.7152095,6.9142349 L40.7152095,1.57416516 L38.679325,1.57416516 C37.6671996,1.57416516 37.6671996,0.220642537 38.679325,0.220642537 L44.1820299,0.220642537 C45.2174226,0.220642537 45.2174226,1.57416516 44.1820299,1.57416516 L42.250848,1.57416516 L42.250848,6.9142349 C42.250848,7.83420731 40.7152095,7.85535611 40.7152095,6.9142349 Z" id="Path-Copy-21"></path>
                                <path d="M16.0252317,4.76664047 L16.0252317,0.951962761 C16.0252317,0.0141000092 17.5542914,-0.0596644769 17.5542914,0.951962761 L17.5542914,4.76664047 C17.5542914,8.70777158 10.5159479,8.70777158 10.5159479,4.76664047 L10.5159479,0.951962761 C10.5159479,0.00356222548 12.0450076,-0.0385889094 12.0450076,0.951962761 L12.0450076,4.76664047 C12.0450076,6.84258386 16.0252317,6.96903727 16.0252317,4.76664047 Z" id="UANTA-Copy-16"></path>
                                <path d="M47.2058936,7.11692591 C47.0186513,7.47596632 46.5856534,7.54988641 46.1643582,7.47596632 C45.7898735,7.28588611 45.5558206,6.90572567 45.7898735,6.46220517 L49.1485326,0.538038417 C49.464504,-0.0216422214 50.3070945,-0.0427622454 50.5996606,0.538038417 L53.8998065,6.46220517 C54.3796149,7.28588611 52.9635949,7.94060685 52.5422997,7.11692591 L52.0273833,6.18764486 L47.7091073,6.18764486 L47.2058936,7.11692591 Z M48.4346713,4.79372327 L51.1964955,4.79372327 L49.8740966,2.18540029 L48.4346713,4.79372327 Z" id="Combined-Shape-Copy-64"></path>
                                <g id="Group-9">
                                    <path d="M4.33128829,7.94313134 C1.93918382,7.94313134 1.10134124e-13,6.16500083 1.10134124e-13,3.97156567 C1.10134124e-13,1.77813052 1.93918382,-1.42108547e-14 4.33128829,-1.42108547e-14 C6.72339276,-1.42108547e-14 8.66257658,1.77813052 8.66257658,3.97156567 C8.66257658,6.16500083 6.72339276,7.94313134 4.33128829,7.94313134 Z M4.33128829,6.55308336 C5.8861562,6.55308336 7.14662568,5.39729852 7.14662568,3.97156567 C7.14662568,2.54583282 5.8861562,1.39004799 4.33128829,1.39004799 C2.77642039,1.39004799 1.5159509,2.54583282 1.5159509,3.97156567 C1.5159509,5.39729852 2.77642039,6.55308336 4.33128829,6.55308336 Z" id="Combined-Shape-Copy-66"></path>
                                    <path d="M3.02047154,4.37915712 C2.86286824,4.08440538 3.00261043,3.7105675 3.33259447,3.54416684 C3.66257851,3.37776618 4.05784615,3.48181529 4.21544945,3.77656703 L5.52179148,6.37716657 C5.67939478,6.67191831 5.53965258,7.04575619 5.20966855,7.21215685 C4.87968451,7.37855751 4.48441687,7.2745084 4.32681357,6.97975666 L3.02047154,4.37915712 Z" id="Path-6-Copy-25" transform="translate(4.271132, 5.378162) rotate(26.000000) translate(-4.271132, -5.378162) "></path>
                                </g>
                            </g>
                        </g>
                    </g>
                    <text id="DICE" fill="url(#linearGradient-1)" font-family="Assassin$" font-size="27" font-weight="normal">
                        <tspan x="52.2948345" y="33.7829351">DICE</tspan>
                    </text>
                    <path d="M44.2506717,7.82707797 C44.2506717,7.19908289 43.794088,6.62342073 43.1662856,6.46642196 L23.7044087,0.39580281 C23.361971,0.291136963 23.0195333,0.291136963 22.6770956,0.39580281 L3.21521871,6.46642196 C3.21521871,6.46642196 3.15814576,6.46642196 3.15814576,6.46642196 C3.15814576,6.46642196 3.10107281,6.46642196 3.10107281,6.51875488 C2.9869269,6.5710878 2.92985395,6.62342073 2.81570804,6.67575365 C2.81570804,6.67575365 2.81570804,6.67575365 2.81570804,6.67575365 C2.81570804,6.67575365 2.81570804,6.67575365 2.81570804,6.67575365 C2.70156214,6.72808657 2.64448919,6.7804195 2.58741623,6.88508535 C2.58741623,6.88508535 2.53034328,6.93741827 2.53034328,6.93741827 C2.47327033,6.98975119 2.41619738,7.09441704 2.35912442,7.19908289 C2.35912442,7.19908289 2.35912442,7.19908289 2.35912442,7.19908289 C2.24497852,7.30374873 2.18790556,7.40841458 2.18790556,7.51308043 C2.18790556,7.51308043 2.18790556,7.56541335 2.18790556,7.56541335 C2.18790556,7.6700792 2.13083261,7.77474505 2.13083261,7.82707797 C2.13083261,7.82707797 2.13083261,7.82707797 2.13083261,7.82707797 L2.13083261,30.9582302 C2.13083261,31.5862253 2.58741623,32.1618875 3.21521871,32.3188862 L22.6770956,38.1278408 C22.6770956,38.1278408 22.6770956,38.1278408 22.6770956,38.1278408 C22.7341685,38.1278408 22.7912415,38.1801737 22.9053874,38.1801737 C22.9053874,38.1801737 22.9053874,38.1801737 22.9624603,38.1801737 C23.0195333,38.1801737 23.1336792,38.1801737 23.1907521,38.1801737 C23.2478251,38.1801737 23.361971,38.1801737 23.4190439,38.1801737 C23.4190439,38.1801737 23.4761169,38.1801737 23.4761169,38.1801737 C23.5331899,38.1801737 23.5902628,38.1801737 23.6473358,38.1278408 C23.6473358,38.1278408 23.6473358,38.1278408 23.6473358,38.1278408 L43.1092126,32.3188862 C43.7370151,32.1095546 44.1935987,31.5862253 44.1935987,30.9582302 L44.1935987,7.82707797 C44.2506717,7.87941089 44.2506717,7.87941089 44.2506717,7.82707797 C44.2506717,7.82707797 44.2506717,7.82707797 44.2506717,7.82707797 Z M23.1907521,3.32644654 L37.6302092,7.77474505 L23.1907521,12.1183777 L8.75129512,7.82707797 L23.1907521,3.32644654 Z M5.32691796,9.86806199 L21.5927095,14.7350239 L21.5927095,34.7785337 L5.32691796,29.9115718 L5.32691796,9.86806199 Z M41.0545863,29.9115718 L24.7317219,34.7785337 L24.7317219,14.7350239 L41.0545863,9.86806199 L41.0545863,29.9115718 Z M15.2005388,22.3232978 C15.2005388,23.7886197 14.4015174,24.9922769 13.4312772,24.9922769 C12.461037,24.9922769 11.6620157,23.7886197 11.6620157,22.3232978 C11.6620157,20.857976 12.461037,19.6543187 13.4312772,19.6543187 C14.4015174,19.6543187 15.2005388,20.857976 15.2005388,22.3232978 Z M19.1956455,7.72241212 C19.1956455,8.35040721 18.2254053,8.87373644 17.0268733,8.87373644 C15.8283412,8.87373644 14.8581011,8.35040721 14.8581011,7.72241212 C14.8581011,7.09441704 15.8283412,6.5710878 17.0268733,6.5710878 C18.2254053,6.5710878 19.1956455,7.09441704 19.1956455,7.72241212 Z M27.0717129,7.72241212 C27.0717129,7.09441704 28.0419531,6.5710878 29.2404851,6.5710878 C30.4390171,6.5710878 31.4092573,7.09441704 31.4092573,7.72241212 C31.4092573,8.35040721 30.4390171,8.87373644 29.2404851,8.87373644 C28.0419531,8.87373644 27.0717129,8.35040721 27.0717129,7.72241212 Z M26.3297645,29.074245 C26.3297645,27.6089231 27.1287859,26.4052659 28.0990261,26.4052659 C29.0692663,26.4052659 29.8682876,27.6089231 29.8682876,29.074245 C29.8682876,30.5395668 29.0692663,31.7432241 28.0990261,31.7432241 C27.0717129,31.7432241 26.3297645,30.5395668 26.3297645,29.074245 Z M31.1809655,22.3232978 C31.1809655,20.857976 31.9799868,19.6543187 32.950227,19.6543187 C33.9204672,19.6543187 34.7194886,20.857976 34.7194886,22.3232978 C34.7194886,23.7886197 33.9204672,24.9922769 32.950227,24.9922769 C31.9799868,24.9922769 31.1809655,23.8409526 31.1809655,22.3232978 Z M36.0321665,15.5723507 C36.0321665,14.1070288 36.8311878,12.9033716 37.801428,12.9033716 C38.7716682,12.9033716 39.5706895,14.1070288 39.5706895,15.5723507 C39.5706895,17.0376725 38.7716682,18.2413298 37.801428,18.2413298 C36.8311878,18.2936627 36.0321665,17.0900055 36.0321665,15.5723507 Z" id="Shape" fill="url(#linearGradient-1)" fill-rule="nonzero"></path>
                    <path d="M3.90658569,46.7273763 L2.28158569,46.7273763 L2.28158569,50.4661458 L1.11361694,50.4661458 L1.11361694,41.2239583 L3.70346069,41.2239583 C4.60906418,41.2239583 5.2946042,41.4598772 5.76010132,41.931722 C6.22559844,42.4035668 6.45834351,43.0943965 6.45834351,44.0042318 C6.45834351,44.5755237 6.33244958,45.0738097 6.08065796,45.4991048 C5.82886634,45.9243999 5.47234321,46.2449533 5.01107788,46.4607747 L6.80111694,50.389974 L6.80111694,50.4661458 L5.55062866,50.4661458 L3.90658569,46.7273763 Z M2.28158569,45.7307943 L3.69076538,45.7307943 C3.95736828,45.7307943 4.19011334,45.6853032 4.38900757,45.5943197 C4.58790179,45.5033361 4.75399714,45.380616 4.88729858,45.2261556 C5.02060003,45.0716952 5.12110358,44.8897309 5.18881226,44.6802572 C5.25652093,44.4707835 5.29037476,44.2454439 5.29037476,44.0042318 C5.29037476,43.7376289 5.26075266,43.4953624 5.20150757,43.2774251 C5.14226248,43.0594878 5.04916445,42.8722339 4.92221069,42.7156576 C4.79525693,42.5590812 4.63127745,42.438477 4.43026733,42.3538411 C4.22925721,42.2692053 3.98699076,42.226888 3.70346069,42.226888 L2.28158569,42.226888 L2.28158569,45.7307943 Z M7.6199646,46.714681 C7.6199646,46.1772434 7.68873019,45.7064636 7.82626343,45.3023275 C7.96379667,44.8981913 8.15210859,44.560711 8.39120483,44.2898763 C8.63030108,44.0190416 8.9106531,43.8148607 9.23226929,43.6773275 C9.55388548,43.5397942 9.89877135,43.4710286 10.2669373,43.4710286 C10.639335,43.4710286 10.9884526,43.5397942 11.3143005,43.6773275 C11.6401485,43.8148607 11.9226164,44.0190416 12.1617126,44.2898763 C12.4008089,44.560711 12.5891208,44.8981913 12.7266541,45.3023275 C12.8641873,45.7064636 12.9329529,46.1772434 12.9329529,46.714681 L12.9329529,47.3621419 C12.9329529,47.8953477 12.8641873,48.3640117 12.7266541,48.7681478 C12.5891208,49.1722839 12.4008089,49.5097643 12.1617126,49.780599 C11.9226164,50.0514336 11.6422644,50.2545566 11.3206482,50.389974 C10.999032,50.5253913 10.6520303,50.593099 10.2796326,50.593099 C9.90723487,50.593099 9.5591752,50.5253913 9.23544312,50.389974 C8.91171103,50.2545566 8.63030108,50.0514336 8.39120483,49.780599 C8.15210859,49.5097643 7.96379667,49.1722839 7.82626343,48.7681478 C7.68873019,48.3640117 7.6199646,47.8953477 7.6199646,47.3621419 L7.6199646,46.714681 Z M8.74349976,47.3621419 C8.74349976,47.7430032 8.78264324,48.0751939 8.8609314,48.358724 C8.93921955,48.642254 9.04712863,48.8781729 9.18466187,49.0664876 C9.3221951,49.2548024 9.48405872,49.3965653 9.67025757,49.4917806 C9.85645642,49.5869959 10.0595794,49.6346029 10.2796326,49.6346029 C11.2994944,49.6346029 11.8094177,48.8771235 11.8094177,47.3621419 L11.8094177,46.714681 C11.8094177,46.3380515 11.7702742,46.0079767 11.6919861,45.7244466 C11.6136979,45.4409166 11.5057889,45.2039398 11.3682556,45.0135091 C11.2307224,44.8230785 11.0678008,44.6791997 10.8794861,44.5818685 C10.6911713,44.4845373 10.4869904,44.4358724 10.2669373,44.4358724 C10.0511159,44.4358724 9.85010876,44.4845373 9.66390991,44.5818685 C9.47771106,44.6791997 9.31690538,44.8230785 9.18148804,45.0135091 C9.04607069,45.2039398 8.93921955,45.4409166 8.8609314,45.7244466 C8.78264324,46.0079767 8.74349976,46.3380515 8.74349976,46.714681 L8.74349976,47.3621419 Z M15.5926208,50.4661458 L14.4690857,50.4661458 L14.4690857,40.7161458 L15.5926208,40.7161458 L15.5926208,50.4661458 Z M18.5696716,50.4661458 L17.4461365,50.4661458 L17.4461365,40.7161458 L18.5696716,40.7161458 L18.5696716,50.4661458 Z M23.1272888,47.9842122 C23.1272888,47.7133776 23.1643164,47.4647635 23.2383728,47.2383626 C23.3124292,47.0119618 23.4161065,46.8003753 23.549408,46.603597 C23.6827094,46.4068187 23.8424572,46.2174488 24.028656,46.0354818 C24.2148549,45.8535147 24.4200937,45.6694345 24.6443787,45.4832357 C24.5089613,45.292805 24.3851833,45.1087248 24.2730408,44.9309896 C24.1608983,44.7532543 24.0646265,44.5776376 23.9842224,44.4041341 C23.9038184,44.2306306 23.8424583,44.0571298 23.8001404,43.8836263 C23.7578225,43.7101228 23.7366638,43.5302744 23.7366638,43.3440755 C23.7366638,42.9843732 23.7842708,42.6648777 23.8794861,42.3855794 C23.9747014,42.1062812 24.1101167,41.8714202 24.2857361,41.6809896 C24.4613555,41.4905589 24.6718839,41.3456222 24.9173279,41.2461751 C25.1627718,41.146728 25.4357183,41.0970052 25.7361755,41.0970052 C26.032401,41.0970052 26.2989999,41.1499018 26.5359802,41.2556966 C26.7729606,41.3614914 26.9739677,41.5032543 27.1390076,41.6809896 C27.3040475,41.8587248 27.4309993,42.0660795 27.5198669,42.3030599 C27.6087346,42.5400402 27.6531677,42.7897122 27.6531677,43.0520833 C27.6531677,43.2763683 27.6288353,43.4805492 27.5801697,43.6646322 C27.5315041,43.8487151 27.4627385,44.022216 27.3738708,44.18514 C27.2850032,44.348064 27.1749783,44.5004062 27.0437927,44.6421712 C26.9126072,44.7839363 26.7644967,44.9246412 26.5994568,45.0642904 L26.0218201,45.5594076 L27.6468201,47.9016927 C27.7441513,47.6562488 27.8182065,47.3917657 27.868988,47.1082357 C27.9197695,46.8247056 27.9451599,46.522137 27.9451599,46.2005208 L28.9480896,46.2005208 C28.9480896,46.7210312 28.8962509,47.2013324 28.792572,47.6414388 C28.6888931,48.0815452 28.5249136,48.4814435 28.3006287,48.8411458 L29.4305115,50.4661458 L28.0848083,50.4661458 L27.6150818,49.7869466 C27.4838962,49.922364 27.3400175,50.0408524 27.1834412,50.1424154 C27.0268649,50.2439784 26.8639433,50.3286129 26.6946716,50.3963216 C26.5254,50.4640303 26.3540149,50.5137531 26.1805115,50.5454915 C26.007008,50.57723 25.8377389,50.593099 25.672699,50.593099 C25.2791423,50.593099 24.9247351,50.5285651 24.6094666,50.3994954 C24.294198,50.2704258 24.0275992,50.0905773 23.8096619,49.8599447 C23.5917246,49.629312 23.4235134,49.3542496 23.3050232,49.0347493 C23.186533,48.7152491 23.1272888,48.3650735 23.1272888,47.9842122 Z M25.672699,49.6346029 C25.9139111,49.6346029 26.1508879,49.5753587 26.3836365,49.4568685 C26.616385,49.3383783 26.8343191,49.1648774 27.0374451,48.9363607 L25.2029724,46.2639974 L25.0125427,46.4226888 C24.8348075,46.5919605 24.6951604,46.75594 24.5935974,46.9146322 C24.4920344,47.0733244 24.4148054,47.2203769 24.361908,47.3557943 C24.3090106,47.4912116 24.2762147,47.6128738 24.2635193,47.7207845 C24.2508239,47.8286952 24.2444763,47.9165036 24.2444763,47.9842122 C24.2444763,48.2084972 24.2740984,48.4211416 24.3333435,48.6221517 C24.3925886,48.8231618 24.4814549,48.9987785 24.5999451,49.1490072 C24.7184352,49.2992358 24.8665457,49.4177242 25.044281,49.5044759 C25.2220163,49.5912276 25.4314868,49.6346029 25.672699,49.6346029 Z M24.8538513,43.3059896 C24.8538513,43.5345064 24.9109797,43.7693673 25.025238,44.0105794 C25.1394964,44.2517916 25.2876069,44.5078111 25.469574,44.7786458 L25.9583435,44.3597005 C26.0683701,44.2708329 26.1656999,44.1819666 26.2503357,44.093099 C26.3349715,44.0042313 26.4047951,43.9090174 26.4598083,43.8074544 C26.5148216,43.7058914 26.556081,43.5948085 26.5835876,43.4742025 C26.6110943,43.3535964 26.6248474,43.2128914 26.6248474,43.0520833 C26.6248474,42.9251296 26.6047467,42.8024094 26.5645447,42.6839193 C26.5243427,42.5654291 26.4661564,42.4606938 26.3899841,42.3697103 C26.3138119,42.2787268 26.2207138,42.2046715 26.1106873,42.1475423 C26.0006607,42.0904131 25.8737088,42.061849 25.7298279,42.061849 C25.585947,42.061849 25.4589951,42.0946449 25.3489685,42.1602376 C25.2389419,42.2258304 25.1479598,42.3157546 25.0760193,42.430013 C25.0040788,42.5442714 24.9490664,42.6765129 24.9109802,42.8267415 C24.8728941,42.9769702 24.8538513,43.1367179 24.8538513,43.3059896 Z M35.2767029,47.5525716 L35.3973083,48.5872396 L35.5813904,47.6731771 L37.0603943,41.2239583 L38.0315857,41.2239583 L39.466156,47.6731771 L39.650238,48.6126302 L39.7835388,47.546224 L40.9134216,41.2239583 L42.0750427,41.2239583 L40.2342224,50.4661458 L39.1868591,50.4661458 L37.6443787,43.7312826 L37.5491638,43.1853841 L37.453949,43.7312826 L35.8543396,50.4661458 L34.8006287,50.4661458 L32.966156,41.2239583 L34.1277771,41.2239583 L35.2767029,47.5525716 Z M44.4681091,50.4661458 L43.344574,50.4661458 L43.344574,43.5979818 L44.4681091,43.5979818 L44.4681091,50.4661458 Z M43.2810974,41.7762044 C43.2810974,41.5857738 43.333994,41.4249681 43.4397888,41.2937826 C43.5455836,41.162597 43.7042734,41.0970052 43.915863,41.0970052 C44.1274526,41.0970052 44.2872004,41.1636549 44.3951111,41.2969564 C44.5030218,41.4302578 44.5569763,41.5900056 44.5569763,41.7762044 C44.5569763,41.9666351 44.5040797,42.1253249 44.3982849,42.2522786 C44.2924901,42.3792324 44.1316844,42.4427083 43.915863,42.4427083 C43.7042734,42.4427083 43.5455836,42.3792324 43.4397888,42.2522786 C43.333994,42.1253249 43.2810974,41.9666351 43.2810974,41.7762044 Z M47.2928162,43.5979818 L47.3245544,44.3406576 C47.5319123,44.0655911 47.7762946,43.8518888 48.0577087,43.6995443 C48.3391229,43.5471998 48.6512129,43.4710286 48.993988,43.4710286 C49.2732863,43.4710286 49.52719,43.5165197 49.7557068,43.6075033 C49.9842236,43.6984868 50.1788831,43.8444814 50.3396912,44.0454915 C50.5004993,44.2465017 50.6242773,44.5046371 50.7110291,44.8199056 C50.7977808,45.1351741 50.841156,45.5170876 50.841156,45.9656576 L50.841156,50.4661458 L49.7239685,50.4661458 L49.7239685,45.9529622 C49.7239685,45.4155247 49.6340443,45.0336112 49.4541931,44.8072103 C49.274342,44.5808094 49.0045693,44.4676107 48.6448669,44.4676107 C48.3655687,44.4676107 48.1148388,44.5607087 47.8926697,44.7469076 C47.6705006,44.9331064 47.4917101,45.1764308 47.3562927,45.476888 L47.3562927,50.4661458 L46.2327576,50.4661458 L46.2327576,43.5979818 L47.2928162,43.5979818 Z M59.0042419,49.8631185 C58.8265067,50.095867 58.603283,50.2757155 58.3345642,50.4026693 C58.0658454,50.529623 57.745292,50.593099 57.3728943,50.593099 C57.0893642,50.593099 56.8312288,50.545492 56.5984802,50.4502767 C56.3657317,50.3550614 56.1668404,50.204835 56.0018005,49.9995931 C55.8367606,49.7943512 55.7087509,49.5298682 55.6177673,49.2061361 C55.5267838,48.882404 55.4812927,48.492027 55.4812927,48.0349935 L55.4812927,43.5979818 L56.5984802,43.5979818 L56.5984802,48.0476888 C56.5984802,48.3566096 56.6270444,48.6115713 56.6841736,48.8125814 C56.7413028,49.0135915 56.815358,49.1722813 56.9063416,49.2886556 C56.9973251,49.4050299 57.1010024,49.4854327 57.2173767,49.5298665 C57.333751,49.5743004 57.4490656,49.5965169 57.563324,49.5965169 C57.9357217,49.5965169 58.2340585,49.5139982 58.4583435,49.3489583 C58.6826285,49.1839184 58.8540135,48.9617527 58.9725037,48.6824544 L58.9725037,43.5979818 L60.0960388,43.5979818 L60.0960388,50.4661458 L59.0296326,50.4661458 L59.0042419,49.8631185 Z M66.7483826,47.3621419 C66.7483826,48.4497125 66.5526651,49.2600885 66.1612244,49.7932943 C65.7697836,50.3265001 65.2164851,50.593099 64.5013123,50.593099 C64.1416099,50.593099 63.8316358,50.5264492 63.5713806,50.3931478 C63.3111254,50.2598463 63.0900176,50.0662448 62.9080505,49.8123372 L62.9080505,53.1067708 L61.790863,53.1067708 L61.790863,43.5979818 L62.806488,43.5979818 L62.8636169,44.3597005 C63.045584,44.0719387 63.2688077,43.8518888 63.5332947,43.6995443 C63.7977817,43.5471998 64.1141034,43.4710286 64.4822693,43.4710286 C64.8504352,43.4710286 65.1752204,43.5345046 65.4566345,43.6614583 C65.7380487,43.7884121 65.9739676,43.9841295 66.1643982,44.2486165 C66.3548288,44.5131035 66.4997655,44.8505839 66.5992126,45.2610677 C66.6986598,45.6715515 66.7483826,46.1582003 66.7483826,46.7210286 L66.7483826,47.3621419 Z M65.6311951,46.7210286 C65.6311951,45.9508425 65.5127067,45.382733 65.2757263,45.0166829 C65.038746,44.6506329 64.6578904,44.4676107 64.1331482,44.4676107 C63.8411545,44.4676107 63.5946564,44.5427239 63.3936462,44.6929525 C63.1926361,44.8431811 63.0307725,45.0367827 62.9080505,45.273763 L62.9080505,48.8474935 C63.0307725,49.080242 63.1894623,49.2696119 63.3841248,49.4156087 C63.5787872,49.5616055 63.8326909,49.6346029 64.1458435,49.6346029 C64.6578903,49.6346029 65.0334562,49.4484068 65.2725525,49.0760091 C65.5116487,48.7036114 65.6311951,48.1323281 65.6311951,47.3621419 L65.6311951,46.7210286 Z M72.6453552,41.9348958 L72.6453552,43.5979818 L73.6800232,43.5979818 L73.6800232,44.5056966 L72.6453552,44.5056966 L72.6453552,48.764974 C72.6453552,48.9427092 72.6622821,49.0855301 72.6961365,49.1934408 C72.7299908,49.3013515 72.774424,49.3849281 72.8294373,49.4441732 C72.8844506,49.5034183 72.9468685,49.5425618 73.0166931,49.5616048 C73.0865177,49.5806479 73.159515,49.5901693 73.2356873,49.5901693 C73.3118595,49.5901693 73.3964941,49.5806479 73.4895935,49.5616048 C73.5826929,49.5425618 73.6482847,49.5266928 73.6863708,49.5139974 L73.6736755,50.4661458 C73.5975033,50.4915366 73.4969997,50.5190428 73.3721619,50.5486654 C73.247324,50.5782879 73.0875763,50.593099 72.8929138,50.593099 C72.7109468,50.593099 72.5374459,50.5624189 72.372406,50.5010579 C72.2073661,50.439697 72.0624294,50.3370775 71.9375916,50.1931966 C71.8127537,50.0493157 71.7133081,49.8599458 71.6392517,49.6250814 C71.5651953,49.3902169 71.5281677,49.1014015 71.5281677,48.7586263 L71.5281677,44.5056966 L70.4808044,44.5056966 L70.4808044,43.5979818 L71.5281677,43.5979818 L71.5281677,41.9348958 L72.6453552,41.9348958 Z M74.7781677,46.714681 C74.7781677,46.1772434 74.8469333,45.7064636 74.9844666,45.3023275 C75.1219998,44.8981913 75.3103117,44.560711 75.549408,44.2898763 C75.7885042,44.0190416 76.0688562,43.8148607 76.3904724,43.6773275 C76.7120886,43.5397942 77.0569745,43.4710286 77.4251404,43.4710286 C77.7975381,43.4710286 78.1466557,43.5397942 78.4725037,43.6773275 C78.7983516,43.8148607 79.0808195,44.0190416 79.3199158,44.2898763 C79.559012,44.560711 79.7473239,44.8981913 79.8848572,45.3023275 C80.0223904,45.7064636 80.091156,46.1772434 80.091156,46.714681 L80.091156,47.3621419 C80.091156,47.8953477 80.0223904,48.3640117 79.8848572,48.7681478 C79.7473239,49.1722839 79.559012,49.5097643 79.3199158,49.780599 C79.0808195,50.0514336 78.8004675,50.2545566 78.4788513,50.389974 C78.1572351,50.5253913 77.8102334,50.593099 77.4378357,50.593099 C77.065438,50.593099 76.7173783,50.5253913 76.3936462,50.389974 C76.0699142,50.2545566 75.7885042,50.0514336 75.549408,49.780599 C75.3103117,49.5097643 75.1219998,49.1722839 74.9844666,48.7681478 C74.8469333,48.3640117 74.7781677,47.8953477 74.7781677,47.3621419 L74.7781677,46.714681 Z M75.9017029,47.3621419 C75.9017029,47.7430032 75.9408464,48.0751939 76.0191345,48.358724 C76.0974227,48.642254 76.2053318,48.8781729 76.342865,49.0664876 C76.4803982,49.2548024 76.6422618,49.3965653 76.8284607,49.4917806 C77.0146595,49.5869959 77.2177825,49.6346029 77.4378357,49.6346029 C78.4576976,49.6346029 78.9676208,48.8771235 78.9676208,47.3621419 L78.9676208,46.714681 C78.9676208,46.3380515 78.9284774,46.0079767 78.8501892,45.7244466 C78.7719011,45.4409166 78.663992,45.2039398 78.5264587,45.0135091 C78.3889255,44.8230785 78.226004,44.6791997 78.0376892,44.5818685 C77.8493745,44.4845373 77.6451936,44.4358724 77.4251404,44.4358724 C77.209319,44.4358724 77.0083119,44.4845373 76.822113,44.5818685 C76.6359142,44.6791997 76.4751085,44.8230785 76.3396912,45.0135091 C76.2042738,45.2039398 76.0974227,45.4409166 76.0191345,45.7244466 C75.9408464,46.0079767 75.9017029,46.3380515 75.9017029,46.714681 L75.9017029,47.3621419 Z M87.7654724,50.4661458 L86.6355896,50.4661458 L86.6355896,42.6394857 L84.6932068,43.5091146 L84.6932068,42.4427083 L87.587738,41.1795247 L87.7654724,41.1795247 L87.7654724,50.4661458 Z M95.7762146,46.5242513 C95.7762146,47.2817421 95.7180283,47.9196751 95.6016541,48.4380697 C95.4852798,48.9564642 95.3202424,49.3754053 95.1065369,49.6949056 C94.8928314,50.0144059 94.633638,50.2439772 94.328949,50.3836263 C94.02426,50.5232754 93.6836058,50.593099 93.3069763,50.593099 C92.9345786,50.593099 92.5960403,50.5232754 92.2913513,50.3836263 C91.9866623,50.2439772 91.7253531,50.0144059 91.5074158,49.6949056 C91.2894785,49.3754053 91.1212673,48.9564642 91.0027771,48.4380697 C90.8842869,47.9196751 90.8250427,47.2817421 90.8250427,46.5242513 L90.8250427,45.1150716 C90.8250427,44.3575808 90.8842869,43.7228216 91.0027771,43.2107747 C91.1212673,42.6987279 91.2884206,42.2861344 91.5042419,41.9729818 C91.7200633,41.6598292 91.9792567,41.4355476 92.2818298,41.3001302 C92.584403,41.1647129 92.9218833,41.0970052 93.294281,41.0970052 C93.6709105,41.0970052 94.0115646,41.1647129 94.3162537,41.3001302 C94.6209427,41.4355476 94.881194,41.6598292 95.0970154,41.9729818 C95.3128368,42.2861344 95.47999,42.6987279 95.5984802,43.2107747 C95.7169704,43.7228216 95.7762146,44.3575808 95.7762146,45.1150716 L95.7762146,46.5242513 Z M94.6526794,44.9182943 C94.6526794,44.3977839 94.6230573,43.9555682 94.5638123,43.5916341 C94.5045672,43.2277 94.4178167,42.9325369 94.3035583,42.7061361 C94.1893,42.4797352 94.0475371,42.3157557 93.8782654,42.2141927 C93.7089937,42.1126297 93.5143342,42.061849 93.294281,42.061849 C93.0784596,42.061849 92.8869739,42.1126297 92.7198181,42.2141927 C92.5526623,42.3157557 92.4119574,42.4797352 92.297699,42.7061361 C92.1834406,42.9325369 92.0956322,43.2277 92.0342712,43.5916341 C91.9729103,43.9555682 91.9422302,44.3977839 91.9422302,44.9182943 L91.9422302,46.7083333 C91.9422302,47.224612 91.9729103,47.6678855 92.0342712,48.0381673 C92.0956322,48.4084491 92.1844985,48.7120756 92.3008728,48.949056 C92.4172471,49.1860363 92.5600679,49.3595372 92.7293396,49.4695638 C92.8986113,49.5795904 93.0911549,49.6346029 93.3069763,49.6346029 C93.5270295,49.6346029 93.721689,49.5795904 93.8909607,49.4695638 C94.0602324,49.3595372 94.2009373,49.1860363 94.3130798,48.949056 C94.4252223,48.7120756 94.5098569,48.4084491 94.5669861,48.0381673 C94.6241153,47.6678855 94.6526794,47.224612 94.6526794,46.7083333 L94.6526794,44.9182943 Z M102.193695,46.5242513 C102.193695,47.2817421 102.135509,47.9196751 102.019135,48.4380697 C101.90276,48.9564642 101.737723,49.3754053 101.524017,49.6949056 C101.310312,50.0144059 101.051118,50.2439772 100.746429,50.3836263 C100.44174,50.5232754 100.101086,50.593099 99.7244568,50.593099 C99.3520591,50.593099 99.0135208,50.5232754 98.7088318,50.3836263 C98.4041428,50.2439772 98.1428335,50.0144059 97.9248962,49.6949056 C97.706959,49.3754053 97.5387477,48.9564642 97.4202576,48.4380697 C97.3017674,47.9196751 97.2425232,47.2817421 97.2425232,46.5242513 L97.2425232,45.1150716 C97.2425232,44.3575808 97.3017674,43.7228216 97.4202576,43.2107747 C97.5387477,42.6987279 97.705901,42.2861344 97.9217224,41.9729818 C98.1375438,41.6598292 98.3967372,41.4355476 98.6993103,41.3001302 C99.0018834,41.1647129 99.3393638,41.0970052 99.7117615,41.0970052 C100.088391,41.0970052 100.429045,41.1647129 100.733734,41.3001302 C101.038423,41.4355476 101.298674,41.6598292 101.514496,41.9729818 C101.730317,42.2861344 101.897471,42.6987279 102.015961,43.2107747 C102.134451,43.7228216 102.193695,44.3575808 102.193695,45.1150716 L102.193695,46.5242513 Z M101.07016,44.9182943 C101.07016,44.3977839 101.040538,43.9555682 100.981293,43.5916341 C100.922048,43.2277 100.835297,42.9325369 100.721039,42.7061361 C100.60678,42.4797352 100.465018,42.3157557 100.295746,42.2141927 C100.126474,42.1126297 99.9318147,42.061849 99.7117615,42.061849 C99.4959401,42.061849 99.3044544,42.1126297 99.1372986,42.2141927 C98.9701428,42.3157557 98.8294378,42.4797352 98.7151794,42.7061361 C98.6009211,42.9325369 98.5131127,43.2277 98.4517517,43.5916341 C98.3903907,43.9555682 98.3597107,44.3977839 98.3597107,44.9182943 L98.3597107,46.7083333 C98.3597107,47.224612 98.3903907,47.6678855 98.4517517,48.0381673 C98.5131127,48.4084491 98.601979,48.7120756 98.7183533,48.949056 C98.8347276,49.1860363 98.9775484,49.3595372 99.1468201,49.4695638 C99.3160917,49.5795904 99.5086354,49.6346029 99.7244568,49.6346029 C99.94451,49.6346029 100.139169,49.5795904 100.308441,49.4695638 C100.477713,49.3595372 100.618418,49.1860363 100.73056,48.949056 C100.842703,48.7120756 100.927337,48.4084491 100.984467,48.0381673 C101.041596,47.6678855 101.07016,47.224612 101.07016,46.7083333 L101.07016,44.9182943 Z M106.522797,44.7659505 L108.262054,41.2239583 L109.626801,41.2239583 L107.221039,45.8069661 L109.677582,50.4661458 L108.30014,50.4661458 L106.522797,46.8606771 L104.739105,50.4661458 L103.361664,50.4661458 L105.830902,45.8069661 L103.412445,41.2239583 L104.770844,41.2239583 L106.522797,44.7659505 Z M119.859222,47.5335286 C119.833832,48.0117211 119.754487,48.4391257 119.621185,48.8157552 C119.487884,49.1923847 119.298514,49.5129381 119.05307,49.7774251 C118.807626,50.0419121 118.504,50.2439772 118.142181,50.3836263 C117.780363,50.5232754 117.360364,50.593099 116.882172,50.593099 C116.416675,50.593099 115.997733,50.5021168 115.625336,50.3201497 C115.252938,50.1381827 114.935558,49.8779314 114.673187,49.539388 C114.410816,49.2008447 114.208751,48.7924829 114.066986,48.3142904 C113.925221,47.8360979 113.85434,47.2986683 113.85434,46.7019857 L113.85434,44.9944661 C113.85434,44.4020153 113.925221,43.8656437 114.066986,43.3853353 C114.208751,42.9050269 114.41399,42.4956072 114.682709,42.1570638 C114.951428,41.8185204 115.280444,41.5572112 115.669769,41.3731283 C116.059094,41.1890453 116.499194,41.0970052 116.990082,41.0970052 C117.438652,41.0970052 117.835376,41.1647129 118.180267,41.3001302 C118.525158,41.4355476 118.818206,41.6344388 119.059418,41.8968099 C119.30063,42.159181 119.488942,42.4829082 119.624359,42.8680013 C119.759776,43.2530944 119.838063,43.69531 119.859222,44.1946615 L118.684906,44.1946615 C118.659515,43.8307273 118.61085,43.5175794 118.53891,43.2552083 C118.466969,42.9928372 118.363292,42.7759611 118.227875,42.6045736 C118.092457,42.433186 117.923188,42.3062341 117.720062,42.2237142 C117.516936,42.1411942 117.273612,42.0999349 116.990082,42.0999349 C116.651538,42.0999349 116.359549,42.1687005 116.114105,42.3062337 C115.868661,42.443767 115.665538,42.6373685 115.50473,42.8870443 C115.343922,43.13672 115.224376,43.4392886 115.146088,43.7947591 C115.067799,44.1502296 115.028656,44.5458963 115.028656,44.9817708 L115.028656,46.7019857 C115.028656,47.1082377 115.061452,47.4869774 115.127045,47.8382161 C115.192637,48.1894549 115.298431,48.4962552 115.444427,48.7586263 C115.590424,49.0209974 115.78191,49.2272942 116.01889,49.3775228 C116.255871,49.5277514 116.543628,49.6028646 116.882172,49.6028646 C117.199556,49.6028646 117.467213,49.5637211 117.68515,49.4854329 C117.903087,49.4071448 118.08082,49.2844247 118.218353,49.1172689 C118.355887,48.9501131 118.460622,48.7364108 118.532562,48.4761556 C118.604503,48.2159004 118.655283,47.9016945 118.684906,47.5335286 L119.859222,47.5335286 Z M124.112152,44.6516927 C124.023284,44.6347655 123.940766,44.6231283 123.864594,44.6167806 C123.788421,44.6104329 123.701671,44.6072591 123.60434,44.6072591 C123.299651,44.6072591 123.048921,44.6918937 122.852142,44.8611654 C122.655364,45.030437 122.50408,45.2610662 122.398285,45.5530599 L122.398285,50.4661458 L121.27475,50.4661458 L121.27475,43.5979818 L122.366547,43.5979818 L122.38559,44.296224 C122.525239,44.0423164 122.699798,43.8413093 122.909271,43.6931966 C123.118745,43.5450839 123.369475,43.4710286 123.661469,43.4710286 C123.695323,43.4710286 123.734466,43.4742024 123.7789,43.4805501 C123.823334,43.4868978 123.866709,43.4943033 123.909027,43.5027669 C123.951345,43.5112305 123.990489,43.5207519 124.026459,43.5313314 C124.062429,43.5419109 124.088877,43.5514322 124.105804,43.5598958 L124.112152,44.6516927 Z M127.108246,48.5999349 L128.358734,43.5979818 L129.552094,43.5979818 L127.279633,51.5262044 C127.228851,51.6954761 127.15797,51.8795563 127.066986,52.0784505 C126.976003,52.2773447 126.860688,52.4624829 126.721039,52.6338704 C126.58139,52.805258 126.413178,52.9491368 126.2164,53.0655111 C126.019622,53.1818853 125.792166,53.2400716 125.534027,53.2400716 C125.491709,53.2400716 125.443044,53.2358399 125.388031,53.2273763 C125.333018,53.2189127 125.278005,53.2093913 125.222992,53.1988118 C125.167979,53.1882324 125.11614,53.177653 125.067474,53.1670736 C125.018809,53.1564941 124.979665,53.1469727 124.950043,53.1385091 L124.950043,52.1863607 C124.975433,52.1948243 125.016693,52.2011719 125.073822,52.2054036 C125.130951,52.2096354 125.172211,52.2117513 125.197601,52.2117513 C125.362641,52.2117513 125.508636,52.1927085 125.63559,52.1546224 C125.762543,52.1165363 125.875742,52.0541183 125.975189,51.9673665 C126.074636,51.8806148 126.161387,51.7653002 126.235443,51.6214193 C126.309499,51.4775383 126.376149,51.2998057 126.435394,51.0882161 L126.632172,50.4090169 L124.613617,43.5979818 L125.838715,43.5979818 L127.108246,48.5999349 Z M135.607758,47.3621419 C135.607758,48.4497125 135.41204,49.2600885 135.020599,49.7932943 C134.629159,50.3265001 134.07586,50.593099 133.360687,50.593099 C133.000985,50.593099 132.691011,50.5264492 132.430756,50.3931478 C132.1705,50.2598463 131.949393,50.0662448 131.767426,49.8123372 L131.767426,53.1067708 L130.650238,53.1067708 L130.650238,43.5979818 L131.665863,43.5979818 L131.722992,44.3597005 C131.904959,44.0719387 132.128183,43.8518888 132.39267,43.6995443 C132.657157,43.5471998 132.973478,43.4710286 133.341644,43.4710286 C133.70981,43.4710286 134.034595,43.5345046 134.31601,43.6614583 C134.597424,43.7884121 134.833343,43.9841295 135.023773,44.2486165 C135.214204,44.5131035 135.359141,44.8505839 135.458588,45.2610677 C135.558035,45.6715515 135.607758,46.1582003 135.607758,46.7210286 L135.607758,47.3621419 Z M134.49057,46.7210286 C134.49057,45.9508425 134.372082,45.382733 134.135101,45.0166829 C133.898121,44.6506329 133.517265,44.4676107 132.992523,44.4676107 C132.70053,44.4676107 132.454031,44.5427239 132.253021,44.6929525 C132.052011,44.8431811 131.890148,45.0367827 131.767426,45.273763 L131.767426,48.8474935 C131.890148,49.080242 132.048837,49.2696119 132.2435,49.4156087 C132.438162,49.5616055 132.692066,49.6346029 133.005219,49.6346029 C133.517265,49.6346029 133.892831,49.4484068 134.131927,49.0760091 C134.371024,48.7036114 134.49057,48.1323281 134.49057,47.3621419 L134.49057,46.7210286 Z M138.527679,41.9348958 L138.527679,43.5979818 L139.562347,43.5979818 L139.562347,44.5056966 L138.527679,44.5056966 L138.527679,48.764974 C138.527679,48.9427092 138.544606,49.0855301 138.578461,49.1934408 C138.612315,49.3013515 138.656748,49.3849281 138.711761,49.4441732 C138.766775,49.5034183 138.829193,49.5425618 138.899017,49.5616048 C138.968842,49.5806479 139.041839,49.5901693 139.118011,49.5901693 C139.194184,49.5901693 139.278818,49.5806479 139.371918,49.5616048 C139.465017,49.5425618 139.530609,49.5266928 139.568695,49.5139974 L139.556,50.4661458 C139.479827,50.4915366 139.379324,50.5190428 139.254486,50.5486654 C139.129648,50.5782879 138.9699,50.593099 138.775238,50.593099 C138.593271,50.593099 138.41977,50.5624189 138.25473,50.5010579 C138.08969,50.439697 137.944754,50.3370775 137.819916,50.1931966 C137.695078,50.0493157 137.595632,49.8599458 137.521576,49.6250814 C137.44752,49.3902169 137.410492,49.1014015 137.410492,48.7586263 L137.410492,44.5056966 L136.363129,44.5056966 L136.363129,43.5979818 L137.410492,43.5979818 L137.410492,41.9348958 L138.527679,41.9348958 Z M140.660492,46.714681 C140.660492,46.1772434 140.729258,45.7064636 140.866791,45.3023275 C141.004324,44.8981913 141.192636,44.560711 141.431732,44.2898763 C141.670828,44.0190416 141.95118,43.8148607 142.272797,43.6773275 C142.594413,43.5397942 142.939299,43.4710286 143.307465,43.4710286 C143.679862,43.4710286 144.02898,43.5397942 144.354828,43.6773275 C144.680676,43.8148607 144.963144,44.0190416 145.20224,44.2898763 C145.441336,44.560711 145.629648,44.8981913 145.767181,45.3023275 C145.904715,45.7064636 145.97348,46.1772434 145.97348,46.714681 L145.97348,47.3621419 C145.97348,47.8953477 145.904715,48.3640117 145.767181,48.7681478 C145.629648,49.1722839 145.441336,49.5097643 145.20224,49.780599 C144.963144,50.0514336 144.682792,50.2545566 144.361176,50.389974 C144.039559,50.5253913 143.692558,50.593099 143.32016,50.593099 C142.947762,50.593099 142.599703,50.5253913 142.27597,50.389974 C141.952238,50.2545566 141.670828,50.0514336 141.431732,49.780599 C141.192636,49.5097643 141.004324,49.1722839 140.866791,48.7681478 C140.729258,48.3640117 140.660492,47.8953477 140.660492,47.3621419 L140.660492,46.714681 Z M141.784027,47.3621419 C141.784027,47.7430032 141.823171,48.0751939 141.901459,48.358724 C141.979747,48.642254 142.087656,48.8781729 142.225189,49.0664876 C142.362722,49.2548024 142.524586,49.3965653 142.710785,49.4917806 C142.896984,49.5869959 143.100107,49.6346029 143.32016,49.6346029 C144.340022,49.6346029 144.849945,48.8771235 144.849945,47.3621419 L144.849945,46.714681 C144.849945,46.3380515 144.810802,46.0079767 144.732513,45.7244466 C144.654225,45.4409166 144.546316,45.2039398 144.408783,45.0135091 C144.27125,44.8230785 144.108328,44.6791997 143.920013,44.5818685 C143.731699,44.4845373 143.527518,44.4358724 143.307465,44.4358724 C143.091643,44.4358724 142.890636,44.4845373 142.704437,44.5818685 C142.518238,44.6791997 142.357433,44.8230785 142.222015,45.0135091 C142.086598,45.2039398 141.979747,45.4409166 141.901459,45.7244466 C141.823171,46.0079767 141.784027,46.3380515 141.784027,46.714681 L141.784027,47.3621419 Z M150.759613,48.7078451 C150.759613,48.5808913 150.736339,48.4655767 150.689789,48.3618978 C150.643239,48.2582189 150.567068,48.1587733 150.461273,48.0635579 C150.355478,47.9683426 150.219005,47.8741867 150.051849,47.7810872 C149.884694,47.6879878 149.678397,47.5864263 149.432953,47.4763997 C149.115568,47.3452142 148.830985,47.2161465 148.579193,47.0891927 C148.327401,46.9622389 148.115815,46.821534 147.944427,46.6670736 C147.77304,46.5126132 147.641856,46.3348806 147.550873,46.1338704 C147.459889,45.9328603 147.414398,45.6948256 147.414398,45.4197591 C147.414398,45.1489244 147.466237,44.8950207 147.569916,44.6580404 C147.673595,44.42106 147.820647,44.2147632 148.011078,44.0391439 C148.201509,43.8635245 148.430022,43.7249354 148.696625,43.6233724 C148.963228,43.5218094 149.261565,43.4710286 149.591644,43.4710286 C149.938651,43.4710286 150.249683,43.5239253 150.52475,43.6297201 C150.799816,43.7355149 151.032561,43.8825674 151.222992,44.0708822 C151.413423,44.2591969 151.559417,44.4803047 151.66098,44.7342122 C151.762543,44.9881198 151.813324,45.2610662 151.813324,45.5530599 L150.696136,45.5530599 C150.696136,45.4134108 150.671804,45.2769375 150.623138,45.1436361 C150.574473,45.0103346 150.502533,44.8907883 150.407318,44.7849935 C150.312103,44.6791987 150.196788,44.5945641 150.061371,44.5310872 C149.925954,44.4676104 149.76938,44.4358724 149.591644,44.4358724 C149.401214,44.4358724 149.23935,44.4623207 149.106049,44.5152181 C148.972747,44.5681155 148.86378,44.637939 148.779144,44.7246908 C148.694508,44.8114425 148.63209,44.911946 148.591888,45.0262044 C148.551686,45.1404628 148.531586,45.2589512 148.531586,45.3816732 C148.531586,45.5086269 148.549571,45.6175939 148.585541,45.7085775 C148.621511,45.799561 148.683929,45.8852535 148.772797,45.9656576 C148.861664,46.0460616 148.983326,46.1264644 149.137787,46.2068685 C149.292247,46.2872725 149.490081,46.3803706 149.731293,46.4861654 C150.0783,46.6215827 150.386158,46.758056 150.654877,46.8955892 C150.923596,47.0331224 151.148935,47.1833488 151.330902,47.3462728 C151.512869,47.5091968 151.6504,47.6943349 151.7435,47.9016927 C151.836599,48.1090505 151.883148,48.350259 151.883148,48.6253255 C151.883148,48.9257828 151.829194,49.1976713 151.721283,49.4409993 C151.613372,49.6843274 151.459972,49.8916821 151.261078,50.0630697 C151.062184,50.2344572 150.823091,50.3656408 150.543793,50.4566243 C150.264494,50.5476079 149.955578,50.593099 149.617035,50.593099 C149.22771,50.593099 148.882824,50.5327968 148.582367,50.4121908 C148.28191,50.2915847 148.030122,50.130779 147.826996,49.9297689 C147.62387,49.7287588 147.47047,49.4970716 147.366791,49.2347005 C147.263112,48.9723294 147.211273,48.6993829 147.211273,48.4158529 L148.341156,48.4158529 C148.34962,48.657065 148.394053,48.8559562 148.474457,49.0125326 C148.554861,49.1691089 148.655364,49.2939448 148.77597,49.3870443 C148.896577,49.4801437 149.030934,49.5446776 149.179047,49.5806478 C149.327159,49.616618 149.473154,49.6346029 149.617035,49.6346029 C149.989433,49.6346029 150.272958,49.5510262 150.467621,49.3838704 C150.662283,49.2167147 150.759613,48.9913751 150.759613,48.7078451 Z" id="Roll-&amp;-Win-up-to-100" fill="#FFFFFF" opacity="0.798223586"></path>
                </g>
            </g>
        </g>
    </g>
</svg>