<?xml version="1.0" encoding="UTF-8"?>
<svg width="114px" height="54px" viewBox="0 0 114 54" version="1.1" xmlns="http://www.w3.org/2000/svg" xmlns:xlink="http://www.w3.org/1999/xlink">
    <!-- Generator: Sketch 52.6 (67491) - http://www.bohemiancoding.com/sketch -->
    <title>logo</title>
    <desc>Created with Sketch.</desc>
    <defs>
        <linearGradient x1="69.8970169%" y1="-63.1673177%" x2="82.5929778%" y2="174.462891%" id="linearGradient-1">
            <stop stop-color="#D3AE0D" offset="0%"></stop>
            <stop stop-color="#FFED47" offset="53.7694932%"></stop>
            <stop stop-color="#DAB511" offset="100%"></stop>
            <stop stop-color="#D9B310" offset="100%"></stop>
        </linearGradient>
        <path d="M60.2308345,18.3929351 L55.7488345,18.3929351 L55.7488345,30.4889351 L60.2308345,30.4889351 C67.5208345,30.4889351 67.8448345,18.3929351 60.2308345,18.3929351 Z M60.4738345,33.7829351 L54.0478345,33.7829351 C53.1568345,33.7829351 52.1848345,33.2969351 52.1848345,32.1089351 L52.1848345,16.7729351 C52.1848345,15.8009351 53.1568345,15.0989351 54.0478345,15.0989351 L60.2308345,15.0989351 C72.5698345,15.0989351 72.2998345,33.7829351 60.4738345,33.7829351 Z M72.7588345,32.1359351 L72.7588345,16.7189351 C72.7588345,14.5049351 76.3228345,14.4239351 76.3228345,16.7189351 L76.3228345,32.1359351 C76.3228345,34.3769351 72.7588345,34.4309351 72.7588345,32.1359351 Z M89.1208345,33.9719351 C82.5868345,33.9719351 79.6438345,29.5169351 79.6438345,24.3059351 C79.6438345,19.0949351 82.9108345,14.6129351 89.1208345,14.6129351 C91.4698345,14.6129351 93.3328345,15.3149351 95.3038345,17.0159351 C96.0328345,17.6909351 96.1138345,18.8789351 95.3848345,19.6349351 C94.6558345,20.2829351 93.5488345,20.2019351 92.9008345,19.5539351 C91.7938345,18.3929351 90.6598345,18.0689351 89.1208345,18.0689351 C84.9628345,18.0689351 82.9648345,21.0119351 82.9648345,24.3059351 C82.9648345,27.6539351 84.9358345,30.7319351 89.1208345,30.7319351 C90.6598345,30.7319351 92.0908345,30.1109351 93.3328345,29.0039351 C94.1698345,28.3559351 95.3308345,28.6799351 95.8168345,29.3279351 C96.2488345,29.9219351 96.4648345,30.9209351 95.5198345,31.8659351 C93.6298345,33.6209351 91.3618345,33.9719351 89.1208345,33.9719351 Z M111.125835,33.7829351 L100.973835,33.7829351 C100.028835,33.7829351 99.2998345,33.0539351 99.2998345,32.1089351 L99.2998345,16.7729351 C99.2998345,15.8009351 100.028835,15.0989351 100.973835,15.0989351 L110.666835,15.0989351 C113.150835,15.0989351 113.096835,18.6089351 110.666835,18.6089351 L102.890835,18.6089351 L102.890835,22.6589351 L109.694835,22.6589351 C112.097835,22.6589351 112.097835,26.1959351 109.694835,26.1959351 L102.890835,26.1959351 L102.890835,30.2459351 L111.125835,30.2459351 C113.582835,30.2459351 113.771835,33.7829351 111.125835,33.7829351 Z" id="path-2"></path>
    </defs>
    <g id="Dice" stroke="none" stroke-width="1" fill="none" fill-rule="evenodd">
        <g id="quanta_dice" transform="translate(-33.000000, -10.000000)">
            <g id="header">
                <g id="logo" transform="translate(33.832184, 10.000000)">
                    <g transform="translate(52.661483, 2.155458)" fill="#FFFFFF" id="Group-34">
                        <g transform="translate(0.371019, 0.306014)">
                            <g id="quanta" transform="translate(0.014563, 0.074786)">
                                <path d="M20.7794465,7.22724718 C20.5922042,7.58628759 20.1592063,7.66020768 19.7379111,7.58628759 C19.3634265,7.39620738 19.1293736,7.01604694 19.3634265,6.57252644 L22.7220856,0.648359685 C23.038057,0.0886790473 23.8806474,0.0675590232 24.1732135,0.648359685 L27.4733594,6.57252644 C27.9531678,7.39620738 26.5371478,8.05092812 26.1158526,7.22724718 L25.6009362,6.29796612 L21.2826602,6.29796612 L20.7794465,7.22724718 Z M22.0082242,4.90404454 L24.7700484,4.90404454 L23.4476495,2.29572156 L22.0082242,4.90404454 Z" id="Combined-Shape-Copy-67"></path>
                                <path d="M29.2867764,6.87375471 L29.2867764,0.955750449 C29.2867764,0.570491582 29.3796359,0.19593435 29.9832224,0.19593435 C30.40109,0.19593435 30.4939494,0.292249067 30.8073501,0.570491582 L34.6494104,5.00096855 L34.6494104,0.848734097 C34.6494104,0.495580136 34.9860259,0.110321269 35.3806786,0.110321269 C35.7985462,0.110321269 36.2048064,0.495580136 36.2048064,0.848734097 L36.2048064,6.87375471 C36.2048064,7.34462666 35.8914057,7.52655446 35.5896124,7.61216754 C35.1833523,7.61216754 34.9860259,7.52655446 34.6494104,7.23761031 L30.8073501,2.74292353 L30.8073501,6.87375471 C30.8073501,7.34462666 30.4939494,7.61216754 30.0760819,7.61216754 C29.6582143,7.61216754 29.2867764,7.34462666 29.2867764,6.87375471 Z" id="Path-Copy-22"></path>
                                <path d="M40.7152095,6.9142349 L40.7152095,1.57416516 L38.679325,1.57416516 C37.6671996,1.57416516 37.6671996,0.220642537 38.679325,0.220642537 L44.1820299,0.220642537 C45.2174226,0.220642537 45.2174226,1.57416516 44.1820299,1.57416516 L42.250848,1.57416516 L42.250848,6.9142349 C42.250848,7.83420731 40.7152095,7.85535611 40.7152095,6.9142349 Z" id="Path-Copy-21"></path>
                                <path d="M16.0252317,4.76664047 L16.0252317,0.951962761 C16.0252317,0.0141000092 17.5542914,-0.0596644769 17.5542914,0.951962761 L17.5542914,4.76664047 C17.5542914,8.70777158 10.5159479,8.70777158 10.5159479,4.76664047 L10.5159479,0.951962761 C10.5159479,0.00356222548 12.0450076,-0.0385889094 12.0450076,0.951962761 L12.0450076,4.76664047 C12.0450076,6.84258386 16.0252317,6.96903727 16.0252317,4.76664047 Z" id="UANTA-Copy-16"></path>
                                <path d="M47.2058936,7.11692591 C47.0186513,7.47596632 46.5856534,7.54988641 46.1643582,7.47596632 C45.7898735,7.28588611 45.5558206,6.90572567 45.7898735,6.46220517 L49.1485326,0.538038417 C49.464504,-0.0216422214 50.3070945,-0.0427622454 50.5996606,0.538038417 L53.8998065,6.46220517 C54.3796149,7.28588611 52.9635949,7.94060685 52.5422997,7.11692591 L52.0273833,6.18764486 L47.7091073,6.18764486 L47.2058936,7.11692591 Z M48.4346713,4.79372327 L51.1964955,4.79372327 L49.8740966,2.18540029 L48.4346713,4.79372327 Z" id="Combined-Shape-Copy-64"></path>
                                <g id="Group-9">
                                    <path d="M4.33128829,7.94313134 C1.93918382,7.94313134 1.10134124e-13,6.16500083 1.10134124e-13,3.97156567 C1.10134124e-13,1.77813052 1.93918382,-1.42108547e-14 4.33128829,-1.42108547e-14 C6.72339276,-1.42108547e-14 8.66257658,1.77813052 8.66257658,3.97156567 C8.66257658,6.16500083 6.72339276,7.94313134 4.33128829,7.94313134 Z M4.33128829,6.55308336 C5.8861562,6.55308336 7.14662568,5.39729852 7.14662568,3.97156567 C7.14662568,2.54583282 5.8861562,1.39004799 4.33128829,1.39004799 C2.77642039,1.39004799 1.5159509,2.54583282 1.5159509,3.97156567 C1.5159509,5.39729852 2.77642039,6.55308336 4.33128829,6.55308336 Z" id="Combined-Shape-Copy-66"></path>
                                    <path d="M3.02047154,4.37915712 C2.86286824,4.08440538 3.00261043,3.7105675 3.33259447,3.54416684 C3.66257851,3.37776618 4.05784615,3.48181529 4.21544945,3.77656703 L5.52179148,6.37716657 C5.67939478,6.67191831 5.53965258,7.04575619 5.20966855,7.21215685 C4.87968451,7.37855751 4.48441687,7.2745084 4.32681357,6.97975666 L3.02047154,4.37915712 Z" id="Path-6-Copy-25" transform="translate(4.271132, 5.378162) rotate(26.000000) translate(-4.271132, -5.378162) "></path>
                                </g>
                            </g>
                        </g>
                    </g>
                    <g id="DICE">
                        <use fill="#FFFD37" xlink:href="#path-2"></use>
                        <use fill="url(#linearGradient-1)" xlink:href="#path-2"></use>
                    </g>
                    <path d="M42.2506717,7.82707797 C42.2506717,7.19908289 41.794088,6.62342073 41.1662856,6.46642196 L21.7044087,0.39580281 C21.361971,0.291136963 21.0195333,0.291136963 20.6770956,0.39580281 L1.21521871,6.46642196 C1.21521871,6.46642196 1.15814576,6.46642196 1.15814576,6.46642196 C1.15814576,6.46642196 1.10107281,6.46642196 1.10107281,6.51875488 C0.986926902,6.5710878 0.929853949,6.62342073 0.815708044,6.67575365 C0.815708044,6.67575365 0.815708044,6.67575365 0.815708044,6.67575365 C0.815708044,6.67575365 0.815708044,6.67575365 0.815708044,6.67575365 C0.701562139,6.72808657 0.644489186,6.7804195 0.587416233,6.88508535 C0.587416233,6.88508535 0.530343281,6.93741827 0.530343281,6.93741827 C0.473270328,6.98975119 0.416197375,7.09441704 0.359124423,7.19908289 C0.359124423,7.19908289 0.359124423,7.19908289 0.359124423,7.19908289 C0.244978517,7.30374873 0.187905565,7.40841458 0.187905565,7.51308043 C0.187905565,7.51308043 0.187905565,7.56541335 0.187905565,7.56541335 C0.187905565,7.6700792 0.130832612,7.77474505 0.130832612,7.82707797 C0.130832612,7.82707797 0.130832612,7.82707797 0.130832612,7.82707797 L0.130832612,30.9582302 C0.130832612,31.5862253 0.587416233,32.1618875 1.21521871,32.3188862 L20.6770956,38.1278408 C20.6770956,38.1278408 20.6770956,38.1278408 20.6770956,38.1278408 C20.7341685,38.1278408 20.7912415,38.1801737 20.9053874,38.1801737 C20.9053874,38.1801737 20.9053874,38.1801737 20.9624603,38.1801737 C21.0195333,38.1801737 21.1336792,38.1801737 21.1907521,38.1801737 C21.2478251,38.1801737 21.361971,38.1801737 21.4190439,38.1801737 C21.4190439,38.1801737 21.4761169,38.1801737 21.4761169,38.1801737 C21.5331899,38.1801737 21.5902628,38.1801737 21.6473358,38.1278408 C21.6473358,38.1278408 21.6473358,38.1278408 21.6473358,38.1278408 L41.1092126,32.3188862 C41.7370151,32.1095546 42.1935987,31.5862253 42.1935987,30.9582302 L42.1935987,7.82707797 C42.2506717,7.87941089 42.2506717,7.87941089 42.2506717,7.82707797 C42.2506717,7.82707797 42.2506717,7.82707797 42.2506717,7.82707797 Z M21.1907521,3.32644654 L35.6302092,7.77474505 L21.1907521,12.1183777 L6.75129512,7.82707797 L21.1907521,3.32644654 Z M3.32691796,9.86806199 L19.5927095,14.7350239 L19.5927095,34.7785337 L3.32691796,29.9115718 L3.32691796,9.86806199 Z M39.0545863,29.9115718 L22.7317219,34.7785337 L22.7317219,14.7350239 L39.0545863,9.86806199 L39.0545863,29.9115718 Z M13.2005388,22.3232978 C13.2005388,23.7886197 12.4015174,24.9922769 11.4312772,24.9922769 C10.461037,24.9922769 9.6620157,23.7886197 9.6620157,22.3232978 C9.6620157,20.857976 10.461037,19.6543187 11.4312772,19.6543187 C12.4015174,19.6543187 13.2005388,20.857976 13.2005388,22.3232978 Z M17.1956455,7.72241212 C17.1956455,8.35040721 16.2254053,8.87373644 15.0268733,8.87373644 C13.8283412,8.87373644 12.8581011,8.35040721 12.8581011,7.72241212 C12.8581011,7.09441704 13.8283412,6.5710878 15.0268733,6.5710878 C16.2254053,6.5710878 17.1956455,7.09441704 17.1956455,7.72241212 Z M25.0717129,7.72241212 C25.0717129,7.09441704 26.0419531,6.5710878 27.2404851,6.5710878 C28.4390171,6.5710878 29.4092573,7.09441704 29.4092573,7.72241212 C29.4092573,8.35040721 28.4390171,8.87373644 27.2404851,8.87373644 C26.0419531,8.87373644 25.0717129,8.35040721 25.0717129,7.72241212 Z M24.3297645,29.074245 C24.3297645,27.6089231 25.1287859,26.4052659 26.0990261,26.4052659 C27.0692663,26.4052659 27.8682876,27.6089231 27.8682876,29.074245 C27.8682876,30.5395668 27.0692663,31.7432241 26.0990261,31.7432241 C25.0717129,31.7432241 24.3297645,30.5395668 24.3297645,29.074245 Z M29.1809655,22.3232978 C29.1809655,20.857976 29.9799868,19.6543187 30.950227,19.6543187 C31.9204672,19.6543187 32.7194886,20.857976 32.7194886,22.3232978 C32.7194886,23.7886197 31.9204672,24.9922769 30.950227,24.9922769 C29.9799868,24.9922769 29.1809655,23.8409526 29.1809655,22.3232978 Z M34.0321665,15.5723507 C34.0321665,14.1070288 34.8311878,12.9033716 35.801428,12.9033716 C36.7716682,12.9033716 37.5706895,14.1070288 37.5706895,15.5723507 C37.5706895,17.0376725 36.7716682,18.2413298 35.801428,18.2413298 C34.8311878,18.2936627 34.0321665,17.0900055 34.0321665,15.5723507 Z" id="Shape" fill="url(#linearGradient-1)" fill-rule="nonzero"></path>
                    <path d="M2.99816442,46.9244787 L1.31988225,46.9244787 L1.31988225,50.7858389 L0.113616943,50.7858389 L0.113616943,41.240609 L2.78837915,41.240609 C3.7236765,41.240609 4.43169471,41.4842634 4.91245502,41.9715796 C5.39321534,42.4588957 5.63359189,43.172377 5.63359189,44.1120449 C5.63359189,44.7020689 5.50357003,45.2166933 5.2435224,45.6559334 C4.98347478,46.0951735 4.6152616,46.4262376 4.13887184,46.6491355 L5.98760454,50.7071694 L5.98760454,50.7858389 L4.69611396,50.7858389 L2.99816442,46.9244787 Z M1.31988225,45.8952197 L2.77526757,45.8952197 C3.05061212,45.8952197 3.29098867,45.848237 3.49640444,45.7542702 C3.70182021,45.6603034 3.87336166,45.5335594 4.01103394,45.3740344 C4.14870621,45.2145094 4.25250517,45.0265787 4.32243395,44.8102365 C4.39236272,44.5938944 4.42732658,44.3611662 4.42732658,44.1120449 C4.42732658,43.8367004 4.3967332,43.5864902 4.33554553,43.361407 C4.27435785,43.1363237 4.17820723,42.9429299 4.04709078,42.7812196 C3.91597433,42.6195093 3.74661812,42.4949505 3.53901708,42.4075396 C3.33141603,42.3201286 3.08120589,42.2764238 2.78837915,42.2764238 L1.31988225,42.2764238 L1.31988225,45.8952197 Z M6.83330141,46.9113671 C6.83330141,46.3563075 6.90432176,45.8700913 7.04636458,45.4527039 C7.1884074,45.0353165 7.38289388,44.6867705 7.62982986,44.4070554 C7.87676585,44.1273404 8.16631033,43.9164646 8.498472,43.7744217 C8.83063368,43.6323789 9.18682802,43.5613586 9.56706573,43.5613586 C9.95167398,43.5613586 10.3122388,43.6323789 10.648771,43.7744217 C10.9853033,43.9164646 11.277033,44.1273404 11.523969,44.4070554 C11.7709049,44.6867705 11.9653914,45.0353165 12.1074342,45.4527039 C12.2494771,45.8700913 12.3204974,46.3563075 12.3204974,46.9113671 L12.3204974,47.5800577 C12.3204974,48.1307468 12.2494771,48.6147777 12.1074342,49.0321651 C11.9653914,49.4495525 11.7709049,49.7980985 11.523969,50.0778136 C11.277033,50.3575287 10.9874885,50.5673118 10.6553268,50.7071694 C10.3231651,50.8470269 9.96478556,50.9169546 9.58017731,50.9169546 C9.19556905,50.9169546 8.83609685,50.8470269 8.5017499,50.7071694 C8.16740295,50.5673118 7.87676585,50.3575287 7.62982986,50.0778136 C7.38289388,49.7980985 7.1884074,49.4495525 7.04636458,49.0321651 C6.90432176,48.6147777 6.83330141,48.1307468 6.83330141,47.5800577 L6.83330141,46.9113671 Z M7.99367619,47.5800577 C7.99367619,47.973407 8.03410316,48.3164899 8.1149583,48.6093167 C8.19581345,48.9021434 8.30726076,49.1457978 8.44930358,49.3402872 C8.5913464,49.5347766 8.75851737,49.6811878 8.95082149,49.7795251 C9.14312562,49.8778625 9.35290879,49.9270304 9.58017731,49.9270304 C10.6334795,49.9270304 11.1601226,49.144714 11.1601226,47.5800577 L11.1601226,46.9113671 C11.1601226,46.5223883 11.1196957,46.1814907 11.0388405,45.8886639 C10.9579854,45.5958372 10.8465381,45.3510902 10.7044952,45.1544155 C10.5624524,44.9577408 10.3941888,44.8091444 10.1996994,44.7086218 C10.00521,44.6080992 9.79433424,44.5578386 9.56706573,44.5578386 C9.34416776,44.5578386 9.13656983,44.6080992 8.9442657,44.7086218 C8.75196158,44.8091444 8.58588323,44.9577408 8.44602569,45.1544155 C8.30616814,45.3510902 8.19581345,45.5958372 8.1149583,45.8886639 C8.03410316,46.1814907 7.99367619,46.5223883 7.99367619,46.9113671 L7.99367619,47.5800577 Z M15.0673733,50.7858389 L13.9069985,50.7858389 L13.9069985,40.7161458 L15.0673733,40.7161458 L15.0673733,50.7858389 Z M18.1420387,50.7858389 L16.9816639,50.7858389 L16.9816639,40.7161458 L18.1420387,40.7161458 L18.1420387,50.7858389 Z M22.8490957,48.2225251 C22.8490957,47.94281 22.8873374,47.6860441 22.963822,47.4522198 C23.0403066,47.2183954 23.1473835,46.9998713 23.2850557,46.7966408 C23.422728,46.5934103 23.5877137,46.3978312 23.7800179,46.2098976 C23.972322,46.021964 24.1842904,45.831848 24.4159295,45.6395439 C24.2760719,45.4428692 24.1482353,45.2527532 24.0324158,45.0691902 C23.9165962,44.8856272 23.8171677,44.7042521 23.7341273,44.5250597 C23.6510869,44.3458672 23.5877149,44.1666774 23.5440094,43.9874849 C23.5003039,43.8082924 23.4784515,43.6225469 23.4784515,43.4302428 C23.4784515,43.0587462 23.5276195,42.7287747 23.6259568,42.4403185 C23.7242941,42.1518623 23.8641496,41.9093005 24.0455273,41.7126259 C24.2269051,41.5159512 24.4443366,41.3662622 24.6978284,41.2635543 C24.9513202,41.1608464 25.2332164,41.1094932 25.5435253,41.1094932 C25.8494637,41.1094932 26.1248041,41.1641243 26.3695548,41.273388 C26.6143055,41.3826517 26.8219034,41.5290628 26.9923548,41.7126259 C27.1628062,41.8961889 27.2939207,42.1103426 27.3857022,42.3550933 C27.4774837,42.599844 27.5233738,42.8577025 27.5233738,43.1286765 C27.5233738,43.3603155 27.4982435,43.5711913 27.4479822,43.7613102 C27.3977209,43.951429 27.3267006,44.1306188 27.234919,44.2988849 C27.1431375,44.467151 27.029505,44.6244884 26.894018,44.7709018 C26.758531,44.9173151 26.6055641,45.0626337 26.4351127,45.2068618 L25.8385358,45.7182134 L27.516818,48.1372998 C27.6173406,47.883808 27.6938241,47.6106528 27.7462706,47.3178261 C27.7987172,47.0249993 27.8249401,46.7125098 27.8249401,46.3803482 L28.8607549,46.3803482 C28.8607549,46.9179256 28.8072165,47.4139754 28.700138,47.8685124 C28.5930596,48.3230495 28.4237034,48.7360601 28.1920643,49.1075567 L29.3589949,50.7858389 L27.9691675,50.7858389 L27.484039,50.0843694 C27.3485521,50.2242269 27.1999556,50.3466004 27.0382453,50.4514936 C26.8765351,50.5563867 26.7082715,50.6437964 26.5334495,50.7137252 C26.3586276,50.7836539 26.1816231,50.8350071 26.0024306,50.8677862 C25.8232381,50.9005653 25.6484188,50.9169546 25.4779674,50.9169546 C25.0715064,50.9169546 24.7054785,50.8503048 24.3798726,50.7170031 C24.0542668,50.5837013 23.7789263,50.3979558 23.5538431,50.1597609 C23.3287599,49.921566 23.1550332,49.6374847 23.0326578,49.3075083 C22.9102825,48.9775319 22.8490957,48.6158744 22.8490957,48.2225251 Z M25.4779674,49.9270304 C25.7270886,49.9270304 25.9718357,49.8658436 26.2122158,49.7434683 C26.452596,49.6210929 26.6776759,49.4419031 26.8874622,49.2058935 L24.992839,46.4459061 L24.7961653,46.6098008 C24.6126022,46.7846227 24.4683763,46.9539789 24.3634831,47.1178745 C24.25859,47.2817701 24.1788287,47.4336443 24.1241968,47.5735019 C24.069565,47.7133594 24.0356937,47.8390108 24.0225821,47.9504598 C24.0094704,48.0619088 24.0029147,48.1525963 24.0029147,48.2225251 C24.0029147,48.4541641 24.0335081,48.6737809 24.0946958,48.8813819 C24.1558834,49.088983 24.2476636,49.270358 24.3700389,49.4255125 C24.4924143,49.580667 24.6453812,49.7030405 24.8289442,49.7926367 C25.0125072,49.8822329 25.2288461,49.9270304 25.4779674,49.9270304 Z M24.6322705,43.390908 C24.6322705,43.6269177 24.691272,43.8694794 24.8092768,44.1186007 C24.9272816,44.367722 25.0802485,44.6321362 25.2681821,44.9118513 L25.7729779,44.4791691 C25.8866122,44.3873876 25.9871333,44.2956075 26.0745443,44.203826 C26.1619552,44.1120445 26.2340682,44.0137086 26.2908853,43.9088154 C26.3477024,43.8039223 26.3903147,43.6891971 26.4187232,43.5646365 C26.4471318,43.4400758 26.4613359,43.2947573 26.4613359,43.1286765 C26.4613359,42.99756 26.4405761,42.870816 26.3990558,42.7484406 C26.3575356,42.6260653 26.2974415,42.5178958 26.2187716,42.4239291 C26.1401018,42.3299623 26.0439511,42.2534788 25.9303169,42.1944764 C25.8166826,42.135474 25.6855681,42.1059733 25.5369695,42.1059733 C25.3883709,42.1059733 25.2572564,42.1398445 25.1436221,42.207588 C25.0299879,42.2753315 24.9360225,42.3682043 24.8617232,42.4862091 C24.7874238,42.6042139 24.7306076,42.7407915 24.6912726,42.8959459 C24.6519377,43.0511004 24.6322705,43.2160861 24.6322705,43.390908 Z M35.3968772,47.7767314 L35.5214373,48.8453251 L35.7115552,47.9012914 L37.2390542,41.240609 L38.24209,41.240609 L39.7236985,47.9012914 L39.9138164,48.8715483 L40.051488,47.7701756 L41.2184185,41.240609 L42.418128,41.240609 L40.516949,50.7858389 L39.4352437,50.7858389 L37.8421868,43.830146 L37.74385,43.266348 L37.6455131,43.830146 L35.9934541,50.7858389 L34.905193,50.7858389 L33.0105698,41.240609 L34.2102793,41.240609 L35.3968772,47.7767314 Z M44.8896608,50.7858389 L43.729286,50.7858389 L43.729286,43.6924744 L44.8896608,43.6924744 L44.8896608,50.7858389 Z M43.6637281,41.8109627 C43.6637281,41.614288 43.7183591,41.4482097 43.8276228,41.3127227 C43.9368865,41.1772357 44.1007796,41.1094932 44.3193071,41.1094932 C44.5378345,41.1094932 44.7028202,41.1783283 44.8142692,41.3160006 C44.9257182,41.4536729 44.9814418,41.6186586 44.9814418,41.8109627 C44.9814418,42.0076374 44.9268108,42.1715305 44.8175471,42.3026469 C44.7082834,42.4337634 44.542205,42.4993206 44.3193071,42.4993206 C44.1007796,42.4993206 43.9368865,42.4337634 43.8276228,42.3026469 C43.7183591,42.1715305 43.6637281,42.0076374 43.6637281,41.8109627 Z M47.8069872,43.6924744 L47.8397661,44.4595018 C48.053923,44.1754161 48.3063184,43.9547067 48.5969599,43.797367 C48.8876013,43.6400273 49.2099244,43.5613586 49.5639388,43.5613586 C49.852395,43.5613586 50.114624,43.6083413 50.3506336,43.7023081 C50.5866432,43.7962748 50.7876854,43.9470565 50.9537663,44.1546575 C51.1198471,44.3622586 51.2476837,44.628858 51.33728,44.9544639 C51.4268762,45.2800697 51.4716737,45.6745058 51.4716737,46.1377839 L51.4716737,50.7858389 L50.3178547,50.7858389 L50.3178547,46.1246724 C50.3178547,45.5696127 50.2249819,45.1751766 50.0392336,44.9413523 C49.8534853,44.707528 49.574867,44.5906176 49.2033704,44.5906176 C48.9149142,44.5906176 48.6559631,44.6867682 48.4265093,44.8790723 C48.1970555,45.0713764 48.0124026,45.3226792 47.8725451,45.6329881 L47.8725451,50.7858389 L46.7121703,50.7858389 L46.7121703,43.6924744 L47.8069872,43.6924744 Z M59.9024192,50.1630388 C59.7188562,50.403419 59.4883132,50.5891645 59.2107834,50.720281 C58.9332536,50.8513974 58.6021895,50.9169546 58.2175813,50.9169546 C57.9247545,50.9169546 57.6581551,50.8677867 57.4177749,50.7694494 C57.1773948,50.671112 56.9719821,50.5159599 56.8015307,50.3039883 C56.6310793,50.0920167 56.4988722,49.8188615 56.4049054,49.4845146 C56.3109386,49.1501676 56.2639559,48.7469906 56.2639559,48.2749714 L56.2639559,43.6924744 L57.4177749,43.6924744 L57.4177749,48.288083 C57.4177749,48.607133 57.4472757,48.8704546 57.5062781,49.0780556 C57.5652805,49.2856567 57.641764,49.4495498 57.7357307,49.5697399 C57.8296975,49.6899299 57.9367744,49.7729691 58.0569644,49.8188599 C58.1771545,49.8647506 58.2962502,49.8876957 58.414255,49.8876957 C58.7988632,49.8876957 59.1069823,49.8024712 59.3386213,49.6320199 C59.5702604,49.4615685 59.7472649,49.2321181 59.8696403,48.9436619 L59.8696403,43.6924744 L61.0300151,43.6924744 L61.0300151,50.7858389 L59.9286424,50.7858389 L59.9024192,50.1630388 Z M67.9004827,47.5800577 C67.9004827,48.7032886 67.6983479,49.5402361 67.2940722,50.0909251 C66.8897964,50.6416142 66.3183558,50.9169546 65.5797331,50.9169546 C65.2082365,50.9169546 64.8880987,50.8481195 64.61931,50.7104473 C64.3505212,50.572775 64.1221635,50.3728254 63.9342299,50.1105925 L63.9342299,53.5130474 L62.7804109,53.5130474 L62.7804109,43.6924744 L63.8293373,43.6924744 L63.8883394,44.4791691 C64.076273,44.1819718 64.3068159,43.9547067 64.5799752,43.797367 C64.8531345,43.6400273 65.1798281,43.5613586 65.5600658,43.5613586 C65.9403035,43.5613586 66.275738,43.6269158 66.5663795,43.7580323 C66.857021,43.8891487 67.1006754,44.0912835 67.2973501,44.3644428 C67.4940247,44.6376021 67.6437138,44.9861481 67.7464217,45.4100913 C67.8491295,45.8340345 67.9004827,46.33664 67.9004827,46.9179229 L67.9004827,47.5800577 Z M66.7466637,46.9179229 C66.7466637,46.1224831 66.6242902,45.5357458 66.3795395,45.1576934 C66.1347888,44.7796409 65.7414453,44.5906176 65.1994973,44.5906176 C64.8979295,44.5906176 64.6433489,44.6681936 64.4357478,44.8233481 C64.2281468,44.9785026 64.0609758,45.1784521 63.9342299,45.4232029 L63.9342299,49.1141125 C64.0609758,49.3544926 64.2248689,49.5500717 64.4259142,49.7008557 C64.6269594,49.8516396 64.8891883,49.9270304 65.2126089,49.9270304 C65.7414453,49.9270304 66.1293256,49.7347292 66.3762616,49.3501209 C66.6231976,48.9655126 66.7466637,48.3754975 66.7466637,47.5800577 L66.7466637,46.9179229 Z M73.9908114,41.9748575 L73.9908114,43.6924744 L75.0594051,43.6924744 L75.0594051,44.6299523 L73.9908114,44.6299523 L73.9908114,49.0288872 C73.9908114,49.2124502 74.0082933,49.359954 74.0432577,49.471403 C74.0782221,49.582852 74.1241121,49.669169 74.1809293,49.7303567 C74.2377464,49.7915444 74.302211,49.8319713 74.3743251,49.8516388 C74.4464391,49.8713063 74.5218299,49.8811399 74.6004998,49.8811399 C74.6791697,49.8811399 74.7665793,49.8713063 74.8627314,49.8516388 C74.9588835,49.8319713 75.0266259,49.815582 75.0659609,49.8024704 L75.0528493,50.7858389 C74.9741794,50.8120621 74.8703805,50.8404703 74.7414493,50.8710641 C74.6125181,50.901658 74.4475324,50.9169546 74.2464872,50.9169546 C74.0585536,50.9169546 73.8793638,50.8852686 73.7089124,50.8218957 C73.538461,50.7585227 73.388772,50.6525385 73.2598408,50.5039399 C73.1309096,50.3553413 73.0282033,50.1597621 72.9517187,49.9171967 C72.8752341,49.6746313 72.8369924,49.3763458 72.8369924,49.0223314 L72.8369924,44.6299523 L71.7552871,44.6299523 L71.7552871,43.6924744 L72.8369924,43.6924744 L72.8369924,41.9748575 L73.9908114,41.9748575 Z M76.1935567,46.9113671 C76.1935567,46.3563075 76.2645771,45.8700913 76.4066199,45.4527039 C76.5486627,45.0353165 76.7431492,44.6867705 76.9900852,44.4070554 C77.2370211,44.1273404 77.5265656,43.9164646 77.8587273,43.7744217 C78.190889,43.6323789 78.5470833,43.5613586 78.927321,43.5613586 C79.3119293,43.5613586 79.6724941,43.6323789 80.0090263,43.7744217 C80.3455586,43.9164646 80.6372883,44.1273404 80.8842243,44.4070554 C81.1311602,44.6867705 81.3256467,45.0353165 81.4676895,45.4527039 C81.6097324,45.8700913 81.6807527,46.3563075 81.6807527,46.9113671 L81.6807527,47.5800577 C81.6807527,48.1307468 81.6097324,48.6147777 81.4676895,49.0321651 C81.3256467,49.4495525 81.1311602,49.7980985 80.8842243,50.0778136 C80.6372883,50.3575287 80.3477438,50.5673118 80.0155821,50.7071694 C79.6834205,50.8470269 79.3250409,50.9169546 78.9404326,50.9169546 C78.5558244,50.9169546 78.1963521,50.8470269 77.8620052,50.7071694 C77.5276583,50.5673118 77.2370211,50.3575287 76.9900852,50.0778136 C76.7431492,49.7980985 76.5486627,49.4495525 76.4066199,49.0321651 C76.2645771,48.6147777 76.1935567,48.1307468 76.1935567,47.5800577 L76.1935567,46.9113671 Z M77.3539315,47.5800577 C77.3539315,47.973407 77.3943585,48.3164899 77.4752136,48.6093167 C77.5560687,48.9021434 77.6675161,49.1457978 77.8095589,49.3402872 C77.9516017,49.5347766 78.1187727,49.6811878 78.3110768,49.7795251 C78.5033809,49.8778625 78.7131641,49.9270304 78.9404326,49.9270304 C79.9937348,49.9270304 80.5203779,49.144714 80.5203779,47.5800577 L80.5203779,46.9113671 C80.5203779,46.5223883 80.479951,46.1814907 80.3990958,45.8886639 C80.3182407,45.5958372 80.2067934,45.3510902 80.0647505,45.1544155 C79.9227077,44.9577408 79.7544441,44.8091444 79.5599547,44.7086218 C79.3654653,44.6080992 79.1545895,44.5578386 78.927321,44.5578386 C78.7044231,44.5578386 78.4968251,44.6080992 78.304521,44.7086218 C78.1122169,44.8091444 77.9461385,44.9577408 77.806281,45.1544155 C77.6664234,45.3510902 77.5560687,45.5958372 77.4752136,45.8886639 C77.3943585,46.1814907 77.3539315,46.5223883 77.3539315,46.9113671 L77.3539315,47.5800577 Z M89.6067025,50.7858389 L88.4397719,50.7858389 L88.4397719,42.7025501 L86.4337003,43.6006933 L86.4337003,42.4993206 L89.4231404,41.1947185 L89.6067025,41.1947185 L89.6067025,50.7858389 Z M97.8801091,46.7146934 C97.8801091,47.4970216 97.820015,48.1558719 97.6998249,48.691264 C97.5796348,49.2266562 97.409186,49.659334 97.1884733,49.9893104 C96.9677606,50.3192868 96.7000685,50.5563855 96.3853891,50.7006136 C96.0707096,50.8448417 95.7188857,50.9169546 95.3299069,50.9169546 C94.9452987,50.9169546 94.59566,50.8448417 94.2809806,50.7006136 C93.9663011,50.5563855 93.6964238,50.3192868 93.4713405,49.9893104 C93.2462573,49.659334 93.0725306,49.2266562 92.9501553,48.691264 C92.8277799,48.1558719 92.7665931,47.4970216 92.7665931,46.7146934 L92.7665931,45.2593081 C92.7665931,44.47698 92.8277799,43.8214075 92.9501553,43.2925712 C93.0725306,42.7637348 93.2451647,42.3376128 93.4680626,42.0141922 C93.6909606,41.6907716 93.9586527,41.459136 94.2711469,41.3192785 C94.5836411,41.1794209 94.9321871,41.1094932 95.3167953,41.1094932 C95.7057741,41.1094932 96.057598,41.1794209 96.3722775,41.3192785 C96.686957,41.459136 96.9557417,41.6907716 97.1786396,42.0141922 C97.4015376,42.3376128 97.5741717,42.7637348 97.696547,43.2925712 C97.8189224,43.8214075 97.8801091,44.47698 97.8801091,45.2593081 L97.8801091,46.7146934 Z M96.7197343,45.0560786 C96.7197343,44.5185012 96.689141,44.0617857 96.6279533,43.6859186 C96.5667656,43.3100514 96.4771707,43.0052102 96.3591659,42.7713859 C96.2411611,42.5375616 96.0947499,42.3682054 95.919928,42.2633122 C95.7451061,42.158419 95.5440639,42.1059733 95.3167953,42.1059733 C95.0938974,42.1059733 94.896133,42.158419 94.7234964,42.2633122 C94.5508597,42.3682054 94.4055412,42.5375616 94.2875364,42.7713859 C94.1695316,43.0052102 94.078844,43.3100514 94.0154711,43.6859186 C93.9520981,44.0617857 93.9204121,44.5185012 93.9204121,45.0560786 L93.9204121,46.9048113 C93.9204121,47.4380182 93.9520981,47.8958263 94.0154711,48.2782493 C94.078844,48.6606723 94.1706242,48.9742544 94.2908143,49.2190051 C94.4110043,49.4637558 94.5585081,49.6429456 94.7333301,49.7565799 C94.908152,49.8702141 95.107009,49.9270304 95.3299069,49.9270304 C95.5571754,49.9270304 95.7582176,49.8702141 95.9330396,49.7565799 C96.1078615,49.6429456 96.2531801,49.4637558 96.3689996,49.2190051 C96.4848191,48.9742544 96.5722288,48.6606723 96.6312312,48.2782493 C96.6902336,47.8958263 96.7197343,47.4380182 96.7197343,46.9048113 L96.7197343,45.0560786 Z M104.508013,46.7146934 C104.508013,47.4970216 104.447918,48.1558719 104.327728,48.691264 C104.207538,49.2266562 104.037089,49.659334 103.816377,49.9893104 C103.595664,50.3192868 103.327972,50.5563855 103.013292,50.7006136 C102.698613,50.8448417 102.346789,50.9169546 101.95781,50.9169546 C101.573202,50.9169546 101.223563,50.8448417 100.908884,50.7006136 C100.594205,50.5563855 100.324327,50.3192868 100.099244,49.9893104 C99.8741607,49.659334 99.700434,49.2266562 99.5780587,48.691264 C99.4556833,48.1558719 99.3944966,47.4970216 99.3944966,46.7146934 L99.3944966,45.2593081 C99.3944966,44.47698 99.4556833,43.8214075 99.5780587,43.2925712 C99.700434,42.7637348 99.8730681,42.3376128 100.095966,42.0141922 C100.318864,41.6907716 100.586556,41.459136 100.89905,41.3192785 C101.211545,41.1794209 101.560091,41.1094932 101.944699,41.1094932 C102.333678,41.1094932 102.685501,41.1794209 103.000181,41.3192785 C103.31486,41.459136 103.583645,41.6907716 103.806543,42.0141922 C104.029441,42.3376128 104.202075,42.7637348 104.32445,43.2925712 C104.446826,43.8214075 104.508013,44.47698 104.508013,45.2593081 L104.508013,46.7146934 Z M103.347638,45.0560786 C103.347638,44.5185012 103.317044,44.0617857 103.255857,43.6859186 C103.194669,43.3100514 103.105074,43.0052102 102.987069,42.7713859 C102.869065,42.5375616 102.722653,42.3682054 102.547831,42.2633122 C102.373009,42.158419 102.171967,42.1059733 101.944699,42.1059733 C101.721801,42.1059733 101.524036,42.158419 101.3514,42.2633122 C101.178763,42.3682054 101.033445,42.5375616 100.91544,42.7713859 C100.797435,43.0052102 100.706747,43.3100514 100.643374,43.6859186 C100.580002,44.0617857 100.548316,44.5185012 100.548316,45.0560786 L100.548316,46.9048113 C100.548316,47.4380182 100.580002,47.8958263 100.643374,48.2782493 C100.706747,48.6606723 100.798528,48.9742544 100.918718,49.2190051 C101.038908,49.4637558 101.186412,49.6429456 101.361233,49.7565799 C101.536055,49.8702141 101.734912,49.9270304 101.95781,49.9270304 C102.185079,49.9270304 102.386121,49.8702141 102.560943,49.7565799 C102.735765,49.6429456 102.881083,49.4637558 102.996903,49.2190051 C103.112723,48.9742544 103.200132,48.6606723 103.259135,48.2782493 C103.318137,47.8958263 103.347638,47.4380182 103.347638,46.9048113 L103.347638,45.0560786 Z M108.979061,44.8987397 L110.775348,41.240609 L112.184842,41.240609 L109.700198,45.9738892 L112.237289,50.7858389 L110.814682,50.7858389 L108.979061,47.0621503 L107.136884,50.7858389 L105.714278,50.7858389 L108.26448,45.9738892 L105.766724,41.240609 L107.169663,41.240609 L108.979061,44.8987397 Z" id="Roll-&amp;-Win-up-to-100" fill="#FFFFFF" opacity="0.798223586"></path>
                </g>
            </g>
        </g>
    </g>
</svg>