<svg xmlns="http://www.w3.org/2000/svg" width="138" height="46" viewBox="0 0 138 46">
    <defs>
        <linearGradient id="a" x1="69.897%" x2="82.593%" y1="-63.167%" y2="174.463%">
            <stop offset="0%" stop-color="#D3AE0D"/>
            <stop offset="53.769%" stop-color="#FFED47"/>
            <stop offset="100%" stop-color="#DAB511"/>
            <stop offset="100%" stop-color="#D9B310"/>
        </linearGradient>
    </defs>
    <g fill="none" fill-rule="evenodd">
        <g fill="#FFF">
            <path d="M88.038 11.533c-.22.424-.732.511-1.23.424-.442-.224-.719-.674-.442-1.197l3.967-6.998c.373-.661 1.369-.686 1.714 0l3.898 6.998c.567.973-1.105 1.746-1.603.773l-.608-1.098h-5.101l-.595 1.098zm1.452-2.744h3.262L91.19 5.708l-1.7 3.08zM98.087 11.115v-6.99c0-.455.11-.898.823-.898.494 0 .603.114.974.443l4.538 5.233V3.998c0-.417.398-.872.864-.872.493 0 .973.455.973.872v7.117c0 .557-.37.772-.726.873-.48 0-.713-.101-1.111-.443l-4.538-5.31v4.88c0 .557-.37.873-.864.873s-.933-.316-.933-.873zM111.587 11.163V4.855h-2.405c-1.195 0-1.195-1.598 0-1.598h6.5c1.223 0 1.223 1.598 0 1.598h-2.281v6.308c0 1.087-1.814 1.112-1.814 0zM82.423 8.626V4.12c0-1.107 1.806-1.195 1.806 0v4.506c0 4.656-8.314 4.656-8.314 0V4.12c0-1.12 1.806-1.17 1.806 0v4.506c0 2.453 4.702 2.602 4.702 0zM119.254 11.403c-.221.424-.733.511-1.23.424-.443-.225-.72-.674-.443-1.198l3.968-6.998c.373-.66 1.368-.686 1.714 0l3.898 6.998c.567.973-1.106 1.747-1.603.774l-.609-1.098h-5.1l-.595 1.098zm1.452-2.745h3.262l-1.562-3.08-1.7 3.08zM68.61 12.379c-2.826 0-5.117-2.1-5.117-4.692 0-2.59 2.29-4.691 5.116-4.691 2.826 0 5.117 2.1 5.117 4.691 0 2.591-2.291 4.692-5.117 4.692zm0-1.642c1.836 0 3.325-1.366 3.325-3.05 0-1.684-1.49-3.05-3.326-3.05s-3.325 1.366-3.325 3.05c0 1.684 1.489 3.05 3.325 3.05z"/>
            <path d="M67.728 7.64c-.015-.394.327-.719.763-.724.437-.006.803.309.817.704l.04 3.437c.015.395-.327.72-.763.725-.437.006-.802-.31-.817-.704l-.04-3.437z"/>
        </g>
        <text fill="url(#a)" font-family="Assassin$" font-size="31" transform="translate(.832)">
            <tspan x="59.41" y="41.1">DICE</tspan>
        </text>
        <path fill="url(#a)" fill-rule="nonzero" d="M49.908 9.246c0-.742-.54-1.422-1.281-1.608L25.637.468a2.031 2.031 0 0 0-1.213 0L1.435 7.638h-.067s-.067 0-.067.062c-.135.062-.203.124-.337.186a.507.507 0 0 0-.27.247l-.068.062c-.067.062-.134.185-.202.309-.135.123-.202.247-.202.37v.062c0 .124-.067.248-.067.31v27.323c0 .742.539 1.422 1.28 1.607l22.99 6.862c.067 0 .134.062.27.062h.673c.068 0 .135 0 .202-.062l22.99-6.862c.741-.247 1.28-.865 1.28-1.607V9.246c.068.061.068.061.068 0zM25.03 3.929l17.056 5.255-17.056 5.13L7.975 9.247 25.03 3.929zM3.93 11.656l19.214 5.75V41.08L3.93 35.332V11.656zm42.202 23.676l-19.28 5.75V17.404l19.28-5.749v23.676zm-30.54-8.963c0 1.73-.943 3.153-2.089 3.153s-2.09-1.422-2.09-3.153c0-1.73.944-3.153 2.09-3.153s2.09 1.422 2.09 3.153zm4.72-17.247c0 .742-1.146 1.36-2.562 1.36s-2.562-.618-2.562-1.36c0-.742 1.146-1.36 2.562-1.36s2.562.618 2.562 1.36zm9.303 0c0-.742 1.147-1.36 2.562-1.36 1.416 0 2.562.618 2.562 1.36 0 .742-1.146 1.36-2.562 1.36-1.415 0-2.562-.618-2.562-1.36zm-.876 25.221c0-1.73.944-3.152 2.09-3.152s2.09 1.422 2.09 3.152c0 1.731-.944 3.153-2.09 3.153-1.214 0-2.09-1.422-2.09-3.153zm5.73-7.974c0-1.73.944-3.153 2.09-3.153s2.09 1.422 2.09 3.153c0 1.73-.944 3.153-2.09 3.153s-2.09-1.36-2.09-3.153zm5.73-7.974c0-1.731.945-3.153 2.09-3.153 1.147 0 2.09 1.422 2.09 3.153 0 1.73-.943 3.152-2.09 3.152-1.145.062-2.09-1.36-2.09-3.152z" transform="translate(.832)"/>
    </g>
</svg>
