<svg xmlns="http://www.w3.org/2000/svg" width="32" height="32" viewBox="0 0 32 32">
    <g fill="none" fill-rule="evenodd" opacity=".806" transform="translate(1.182 1.477)">
        <g fill="#F7F7F7">
            <path d="M14.149 7.868l-4.483 3.667-2.513.238c-.526.05-.917.492-.917 1.002v3.395c0 .527.39.968.917 1.002l2.513.238 4.483 3.667a.561.561 0 0 0 .916-.441V8.292c-.017-.458-.56-.73-.916-.424zM18.376 10.38a.355.355 0 0 0-.509-.05l-.611.543a.343.343 0 0 0-.034.475 4.97 4.97 0 0 1 1.086 3.108 4.97 4.97 0 0 1-1.086 3.107.345.345 0 0 0 .034.475l.611.543c.153.136.374.12.51-.05a6.524 6.524 0 0 0 1.443-4.092 6.333 6.333 0 0 0-1.444-4.058z"/>
            <path d="M20.244 8.649c-.119-.153-.357-.153-.492-.034l-.612.56a.345.345 0 0 0-.034.475 7.5 7.5 0 0 1 1.732 4.806 7.5 7.5 0 0 1-1.732 4.805.343.343 0 0 0 .034.475l.612.56a.335.335 0 0 0 .492-.034 9.013 9.013 0 0 0 2.122-5.823c0-2.225-.798-4.211-2.122-5.79z"/>
        </g>
        <circle cx="14.563" cy="14.563" r="14.563" stroke="#FFF" stroke-width="2"/>
    </g>
</svg>
