<svg xmlns="http://www.w3.org/2000/svg" width="12" height="16" viewBox="0 0 12 16">
    <g fill="#66D7D7" fill-rule="nonzero">
        <path d="M10.02 5.808V4.264A3.85 3.85 0 0 0 6.174.418c-1.027 0-1.993.4-2.72 1.127a3.819 3.819 0 0 0-1.126 2.72v1.543H.408v9.916h11.53V5.808H10.02zM3.4 4.264c0-.74.288-1.437.812-1.961a2.756 2.756 0 0 1 1.962-.813 2.777 2.777 0 0 1 2.774 2.774v1.544H3.4V4.264zm7.467 10.387H1.48V6.88h9.386v7.77z"/>
        <path d="M5.088 12.346H7.26c.748 0 1.357-.609 1.357-1.357S8.007 9.632 7.26 9.632H5.09c-.749 0-1.357.609-1.357 1.357s.608 1.357 1.356 1.357zm0-1.642H7.26a.285.285 0 0 1 0 .57H5.09a.285.285 0 0 1 0-.57z"/>
    </g>
</svg>
