<svg xmlns="http://www.w3.org/2000/svg" width="55" height="59" viewBox="0 0 55 59">
    <g fill="none" fill-rule="evenodd">
        <path stroke="#979797" stroke-linecap="square" d="M54.5 0v58" opacity=".535"/>
        <path fill="#000" d="M19.439 30.895H5.329l6.962-7.156c.61-.626.61-1.642 0-2.269a1.53 1.53 0 0 0-2.207 0L.457 31.365a1.636 1.636 0 0 0 0 2.27l9.627 9.895a1.534 1.534 0 0 0 2.207 0c.61-.627.61-1.643 0-2.27L5.33 34.106h14.109c.862 0 1.561-.719 1.561-1.605s-.699-1.605-1.561-1.605z"/>
    </g>
</svg>
