<svg xmlns="http://www.w3.org/2000/svg" xmlns:xlink="http://www.w3.org/1999/xlink" width="20" height="20" viewBox="0 0 20 20">
    <defs>
        <rect id="a" width="20" height="20" rx="2"/>
        <path id="c" d="M6-3h1v25H6z"/>
    </defs>
    <g fill="none" fill-rule="evenodd">
        <mask id="b" fill="#fff">
            <use xlink:href="#a"/>
        </mask>
        <rect width="19" height="19" x=".5" y=".5" stroke="#FFF" rx="2"/>
        <path fill="#FFF" fill-rule="nonzero" d="M14.948 10.54l-3.09 3.553a.458.458 0 0 1-.71 0 .642.642 0 0 1 0-.818l2.733-3.144-2.734-3.143a.642.642 0 0 1 0-.818.458.458 0 0 1 .712 0l3.09 3.552a.624.624 0 0 1 .147.41c0 .147-.05.295-.148.408z" mask="url(#b)" transform="rotate(-180 13.048 10.131)"/>
        <g mask="url(#b)">
            <use fill="#D8D8D8" xlink:href="#c"/>
            <path stroke="#FFF" d="M6.5-2.5h1v24h-1z"/>
        </g>
    </g>
</svg>
