<svg xmlns="http://www.w3.org/2000/svg" width="27" height="26" viewBox="0 0 27 26">
    <g fill="#ADADAD" fill-rule="nonzero">
        <path d="M7.27 15.993a2.995 2.995 0 1 0 0 5.99 2.995 2.995 0 0 0 0-5.99zm0 3.993a.998.998 0 1 1 0-1.997.998.998 0 0 1 0 1.997zM19.248 15.993a2.995 2.995 0 1 0 0 5.99 2.995 2.995 0 0 0 0-5.99zm0 3.993a.998.998 0 1 1 0-1.997.998.998 0 0 1 0 1.997zM13.259 10.004a2.995 2.995 0 1 0 0 5.989 2.995 2.995 0 0 0 0-5.99zm0 3.993a.998.998 0 1 1 0-1.997.998.998 0 0 1 0 1.997zM19.248 4.015a2.995 2.995 0 1 0 0 5.989 2.995 2.995 0 0 0 0-5.99zm0 3.992a.998.998 0 1 1 0-1.996.998.998 0 0 1 0 1.996zM7.27 10.004a2.995 2.995 0 1 0 0-5.99 2.995 2.995 0 0 0 0 5.99zm0-3.993a.998.998 0 1 1 0 1.996.998.998 0 0 1 0-1.996z"/>
        <path d="M23.24.022H3.278A2.995 2.995 0 0 0 .282 3.017V22.98a2.995 2.995 0 0 0 2.995 2.995H23.24a2.995 2.995 0 0 0 2.994-2.995V3.017A2.995 2.995 0 0 0 23.241.022zm.999 22.958a.998.998 0 0 1-.998.998H3.277a.998.998 0 0 1-.998-.998V3.017c0-.552.447-.999.998-.999H23.24c.55 0 .998.447.998.999V22.98z"/>
    </g>
</svg>
