<svg xmlns="http://www.w3.org/2000/svg" width="11" height="11" viewBox="0 0 11 11">
    <path fill="#3B3B3B" fill-rule="nonzero" d="M10.395.605A1.986 1.986 0 0 0 8.938 0H2.063C1.494 0 1.009.202.605.605.202 1.01 0 1.495 0 2.062v6.875c0 .569.202 1.054.605 1.458.404.403.89.605 1.458.605h6.875c.568 0 1.054-.202 1.457-.605.403-.404.605-.89.605-1.458V2.062c0-.568-.202-1.054-.605-1.457zM9.167 5.73c0 .2-.093.341-.28.423a.499.499 0 0 1-.179.035.426.426 0 0 1-.322-.136l-1.031-1.03L3.53 8.843a.441.441 0 0 1-.323.136.44.44 0 0 1-.322-.136l-.73-.73a.44.44 0 0 1-.136-.322.44.44 0 0 1 .136-.323L5.98 3.645 4.949 2.614c-.148-.139-.182-.306-.1-.501a.428.428 0 0 1 .422-.28h3.437c.125 0 .232.046.323.136a.44.44 0 0 1 .136.323v3.437z" opacity=".303"/>
</svg>
