<svg xmlns="http://www.w3.org/2000/svg" width="13" height="13" viewBox="0 0 13 13">
    <path fill="#FFF" fill-rule="nonzero" d="M12.285.715A2.347 2.347 0 0 0 10.563 0H2.438C1.766 0 1.192.238.715.715A2.348 2.348 0 0 0 0 2.437v8.125c0 .672.238 1.246.715 1.723A2.348 2.348 0 0 0 2.438 13h8.125c.671 0 1.245-.238 1.722-.715A2.348 2.348 0 0 0 13 10.562V2.437c0-.67-.238-1.245-.715-1.722zm-1.452 6.056c0 .237-.11.403-.33.5a.59.59 0 0 1-.211.041.504.504 0 0 1-.381-.16l-1.219-1.22-4.52 4.52a.521.521 0 0 1-.38.161.52.52 0 0 1-.381-.16l-.863-.864a.52.52 0 0 1-.161-.38.52.52 0 0 1 .16-.382l4.52-4.52L5.85 3.09c-.175-.164-.215-.36-.119-.592a.506.506 0 0 1 .5-.33h4.062c.146 0 .273.053.38.16a.52.52 0 0 1 .161.381v4.063z" opacity=".404"/>
</svg>
