<svg xmlns="http://www.w3.org/2000/svg" width="331" height="38" viewBox="0 0 331 38">
    <g fill="none" fill-rule="evenodd">
        <path fill="#FFF" d="M18.14 37.32C8.12 37.32 0 29.2 0 19.18 0 9.164 8.121 1.042 18.14 1.042c10.018 0 18.14 8.122 18.14 18.14s-8.122 18.14-18.14 18.14zm0-6.348c6.512 0 11.79-5.28 11.79-11.791 0-6.512-5.278-11.791-11.79-11.791S6.349 12.669 6.349 19.18c0 6.513 5.279 11.792 11.79 11.792z"/>
        <path fill="#FFF" d="M15.271 19.789a2.778 2.778 0 0 1 5.554-.135l.016 13.365a2.778 2.778 0 0 1-5.554.135L15.27 19.79z"/>
        <path fill="#66D7D7" d="M15.284 30.482l-.013-10.834a2.778 2.778 0 0 1 5.554-.135l.013 11.007c5.211-1.22 9.092-5.897 9.092-11.48 0-6.512-5.278-11.791-11.79-11.791S6.349 12.528 6.349 19.039c0 5.528 3.803 10.166 8.935 11.443zm2.856 6.697C8.12 37.18 0 29.058 0 19.04 0 9.022 8.121.9 18.14.9c10.018 0 18.14 8.121 18.14 18.14 0 10.018-8.122 18.14-18.14 18.14z"/>
        <path fill="#1C1A1C" d="M168.458 2.997h-2.913v7.862h2.913c4.739 0 4.95-7.862 0-7.862zM168.616 13h-4.177c-.579 0-1.21-.316-1.21-1.088V1.943c0-.631.631-1.088 1.21-1.088h4.02c8.02 0 7.844 12.145.157 12.145zm17.468 0h-6.599a1.072 1.072 0 0 1-1.088-1.088V1.943c0-.631.474-1.088 1.088-1.088h6.3c1.615 0 1.58 2.282 0 2.282h-5.054v2.632h4.423c1.562 0 1.562 2.3 0 2.3h-4.423V10.7h5.353c1.597 0 1.72 2.299 0 2.299zm10.781.123c-4.247 0-6.16-2.896-6.16-6.283 0-3.387 2.124-6.3 6.16-6.3 1.527 0 2.738.456 4.02 1.561.473.44.526 1.211.052 1.703a1.19 1.19 0 0 1-1.615-.053c-.72-.754-1.456-.965-2.457-.965-2.702 0-4.001 1.913-4.001 4.054 0 2.176 1.281 4.177 4.001 4.177 1 0 1.93-.404 2.738-1.123.544-.422 1.299-.211 1.615.21.28.386.421 1.036-.193 1.65-1.229 1.14-2.703 1.369-4.16 1.369zm16.24-.123h-6.6a1.072 1.072 0 0 1-1.087-1.088V1.943c0-.631.474-1.088 1.088-1.088h6.3c1.615 0 1.58 2.282 0 2.282h-5.054v2.632h4.423c1.561 0 1.561 2.3 0 2.3h-4.423V10.7h5.353c1.597 0 1.72 2.299 0 2.299zm5.077-1.211V2.084c0-.632.14-1.246 1.053-1.246.632 0 .772.158 1.246.614l5.81 7.266v-6.81c0-.579.508-1.21 1.105-1.21.632 0 1.246.631 1.246 1.21v9.881c0 .772-.474 1.07-.93 1.211-.614 0-.913-.14-1.422-.614l-5.809-7.371v6.774c0 .772-.474 1.211-1.105 1.211-.632 0-1.194-.439-1.194-1.211zm18.135.123V3.049h-3.071c-1.527 0-1.527-2.246 0-2.246h8.3c1.563 0 1.563 2.246 0 2.246h-2.913v8.863c0 1.527-2.316 1.562-2.316 0zm12.343-3.23v3.177c0 1.527-2.334 1.58-2.334.035V1.926c0-.614.474-1.07 1.053-1.07h4.668c4.458 0 5.37 5.966 1.65 7.458l2.334 2.843c.913 1.352-.913 2.65-1.966 1.316l-2.65-3.79h-2.755zm0-5.703v3.685h3.387c2.282 0 2.422-3.685 0-3.685h-3.387zm12.782 9.424c-.28.597-.93.72-1.562.597-.562-.316-.913-.948-.562-1.685l5.037-9.845c.474-.93 1.738-.966 2.177 0l4.949 9.845c.72 1.37-1.404 2.457-2.036 1.088l-.772-1.544h-6.476l-.755 1.544zm1.843-3.86h4.142l-1.984-4.336-2.158 4.335zm11.729 3.386V1.91c0-.58.491-1.071 1.105-1.071.562 0 1.036.491 1.036 1.07v8.793h4.773c1.72 0 1.755 2.299 0 2.299h-5.809c-.614 0-1.105-.439-1.105-1.07zm12.08 0V1.91c0-1.44 2.316-1.492 2.316 0v10.02c0 1.457-2.316 1.492-2.316 0zM301.77 13h-7.582c-1.105 0-1.544-1.07-.912-1.825l6.248-8.301h-5.178c-1.526 0-1.404-2.159 0-2.159h7.073c1.334 0 1.72 1.264.772 2.282l-5.984 7.774h5.703c1.404 0 1.58 2.229-.14 2.229zm12.484 0h-6.6a1.072 1.072 0 0 1-1.087-1.088V1.943c0-.631.474-1.088 1.088-1.088h6.3c1.615 0 1.58 2.282 0 2.282h-5.054v2.632h4.422c1.562 0 1.562 2.3 0 2.3h-4.422V10.7h5.353c1.597 0 1.72 2.299 0 2.299zm10.29-10.003h-2.914v7.862h2.913c4.739 0 4.95-7.862 0-7.862zM324.701 13h-4.176c-.58 0-1.211-.316-1.211-1.088V1.943c0-.631.631-1.088 1.21-1.088h4.02c8.02 0 7.844 12.145.157 12.145zM169.898 36h-6.599a1.072 1.072 0 0 1-1.088-1.088v-9.968c0-.632.474-1.089 1.088-1.089h6.3c1.615 0 1.58 2.282 0 2.282h-5.054v2.632h4.423c1.562 0 1.562 2.3 0 2.3h-4.423V33.7h5.353c1.597 0 1.72 2.299 0 2.299zm6.499-11.723l3.054 3.79 3.053-3.826c.913-1.193 2.685.334 1.685 1.475a99.047 99.047 0 0 0-3.212 3.984l3.58 4.457c.966 1.317-.965 2.58-1.912 1.281l-3.23-4.141-3.176 4.23c-.895 1.28-2.878-.159-1.878-1.352l3.528-4.475c-1.106-1.387-2.177-2.738-3.247-3.984-1.106-1.317.948-2.668 1.755-1.44zm17.538 11.846c-4.247 0-6.16-2.896-6.16-6.283 0-3.387 2.123-6.3 6.16-6.3 1.527 0 2.738.456 4.019 1.561.474.44.526 1.211.052 1.703a1.19 1.19 0 0 1-1.614-.053c-.72-.755-1.457-.965-2.457-.965-2.703 0-4.002 1.913-4.002 4.054 0 2.176 1.282 4.177 4.002 4.177 1 0 1.93-.404 2.738-1.123.544-.422 1.298-.21 1.614.21.281.386.421 1.036-.193 1.65-1.228 1.14-2.702 1.369-4.16 1.369zm9.833-.123c-.79 0-1.246-.474-1.246-1.088v-9.968c0-.632.457-1.089 1.246-1.089.615 0 1.071.457 1.071 1.088v3.826h5.721v-3.825c0-.632.562-1.089 1.194-1.089.614 0 1.088.457 1.088 1.088v9.969c0 .614-.474 1.088-1.088 1.088-.632 0-1.194-.474-1.194-1.088v-3.844h-5.721v3.844c0 .614-.456 1.088-1.07 1.088zm14.766-.597c-.281.597-.93.72-1.562.597-.562-.316-.913-.948-.562-1.685l5.037-9.845c.474-.93 1.737-.966 2.176 0l4.95 9.845c.719 1.37-1.405 2.457-2.037 1.088l-.772-1.544h-6.476l-.754 1.544zm1.842-3.86h4.142l-1.983-4.336-2.159 4.335zm11.747 3.246v-9.705c0-.632.14-1.246 1.053-1.246.632 0 .772.158 1.246.614l5.809 7.266v-6.81c0-.579.509-1.21 1.106-1.21.631 0 1.246.631 1.246 1.21v9.881c0 .772-.474 1.07-.93 1.211-.615 0-.913-.14-1.422-.614l-5.81-7.371v6.774c0 .772-.473 1.211-1.105 1.211s-1.193-.439-1.193-1.21zm25.628-1.088c0 .316-.14.614-.438.948-1.246 1.035-2.773 1.474-4.318 1.474-3.685 0-6.3-2.106-6.3-6.283 0-3.545 2.755-6.3 6.458-6.3 1.387 0 2.914.473 4.002 1.544 1.07 1.053-.474 2.615-1.527 1.685-.65-.632-1.562-1.106-2.475-1.106-2.123 0-4.177 1.702-4.177 4.177 0 2.597 1.72 4.177 4.02 4.177 1.07 0 1.982-.316 2.632-.79v-2.159h-2.633c-1.562 0-1.404-2.14 0-2.14h3.51c.65 0 1.246.49 1.246 1.035V33.7zM269.901 36h-6.598a1.072 1.072 0 0 1-1.088-1.088v-9.968c0-.632.473-1.089 1.088-1.089h6.3c1.615 0 1.58 2.282 0 2.282h-5.054v2.632h4.422c1.562 0 1.562 2.3 0 2.3h-4.422V33.7h5.352c1.598 0 1.72 2.299 0 2.299zM59.064 7.344h-8.391V29.99h8.39c13.65 0 14.256-22.646 0-22.646zm.455 28.813H47.488c-1.668 0-3.488-.91-3.488-3.134V4.311c0-1.82 1.82-3.134 3.488-3.134h11.576c23.101 0 22.596 34.98.455 34.98zm45.817 0H86.329c-1.77 0-3.134-1.364-3.134-3.134V4.311c0-1.82 1.365-3.134 3.134-3.134h18.147c4.65 0 4.55 6.571 0 6.571H89.918v7.583h12.738c4.5 0 4.5 6.622 0 6.622H89.918v7.582h15.418c4.6 0 4.954 6.622 0 6.622zM119.559 2.39l8.795 10.919 8.796-11.02c2.629-3.437 7.734.96 4.853 4.246-3.033 3.59-6.218 7.482-9.25 11.475l10.311 12.84c2.78 3.791-2.78 7.43-5.51 3.69l-9.3-11.93-9.15 12.183c-2.578 3.69-8.29-.455-5.41-3.893l10.161-12.89c-3.184-3.993-6.268-7.886-9.351-11.475-3.185-3.791 2.73-7.683 5.055-4.145z"/>
    </g>
</svg>
