<svg xmlns="http://www.w3.org/2000/svg" width="220" height="26" viewBox="0 0 220 26">
    <g fill="none" fill-rule="evenodd">
        <path fill="#66D7D7" d="M10.377 20.816l-.009-7.223a1.852 1.852 0 0 1 3.703-.09l.008 7.338a7.86 7.86 0 1 0-3.703-.025zm1.904 4.464C5.6 25.28.187 19.866.187 13.187S5.602 1.094 12.281 1.094c6.678 0 12.093 5.414 12.093 12.093 0 6.68-5.415 12.093-12.093 12.093z"/>
        <path fill="#FFF" d="M111.493 2.731h-1.942v5.242h1.942c3.16 0 3.3-5.242 0-5.242zm.105 6.669h-2.784c-.386 0-.808-.21-.808-.725V2.029c0-.421.422-.725.808-.725h2.68c5.346 0 5.229 8.096.104 8.096zm11.646 0h-4.4a.714.714 0 0 1-.725-.725V2.029c0-.421.316-.725.725-.725h4.2c1.077 0 1.054 1.52 0 1.52h-3.369V4.58h2.948c1.042 0 1.042 1.532 0 1.532h-2.948v1.755h3.569c1.064 0 1.146 1.533 0 1.533zm7.187.082c-2.831 0-4.107-1.93-4.107-4.189 0-2.258 1.416-4.2 4.107-4.2 1.018 0 1.825.304 2.68 1.041a.798.798 0 0 1 .034 1.135.793.793 0 0 1-1.076-.035c-.48-.503-.971-.643-1.638-.643-1.802 0-2.668 1.275-2.668 2.702 0 1.451.855 2.785 2.668 2.785.667 0 1.287-.27 1.825-.749.363-.28.866-.14 1.077.14.187.258.28.69-.129 1.1-.819.76-1.802.913-2.773.913zm10.826-.082h-4.399a.714.714 0 0 1-.725-.725V2.029c0-.421.316-.725.725-.725h4.2c1.077 0 1.053 1.52 0 1.52h-3.37V4.58h2.95c1.04 0 1.04 1.532 0 1.532h-2.95v1.755h3.57c1.064 0 1.146 1.533 0 1.533zm3.385-.807v-6.47c0-.422.094-.831.702-.831.421 0 .515.105.831.41l3.873 4.843v-4.54c0-.385.339-.807.737-.807.421 0 .83.421.83.808v6.587c0 .514-.315.713-.62.807-.41 0-.608-.094-.947-.41l-3.873-4.913v4.516c0 .514-.316.807-.737.807s-.796-.293-.796-.807zm12.09.082V2.766h-2.047c-1.018 0-1.018-1.498 0-1.498h5.534c1.041 0 1.041 1.498 0 1.498h-1.943v5.909c0 1.018-1.544 1.04-1.544 0zm8.229-2.153v2.117c0 1.018-1.556 1.054-1.556.024V2.017a.7.7 0 0 1 .702-.713h3.112c2.972 0 3.58 3.978 1.1 4.972l1.556 1.896c.608.9-.609 1.766-1.31.877l-1.767-2.527h-1.837zm0-3.803v2.457h2.258c1.521 0 1.615-2.457 0-2.457h-2.258zm8.521 6.283c-.187.398-.62.48-1.041.398-.375-.21-.609-.632-.375-1.123l3.358-6.564c.316-.62 1.159-.643 1.451 0l3.3 6.564c.48.912-.936 1.638-1.358.725l-.514-1.03h-4.318l-.503 1.03zm1.229-2.574h2.76l-1.321-2.89-1.44 2.89zm7.819 2.258v-6.68a.73.73 0 0 1 .737-.714c.374 0 .69.327.69.714v5.861h3.183c1.146 0 1.17 1.533 0 1.533h-3.873c-.41 0-.737-.293-.737-.714zm8.053 0v-6.68c0-.96 1.545-.995 1.545 0v6.68c0 .971-1.545.995-1.545 0zm9.785.714h-5.054c-.737 0-1.03-.714-.609-1.217l4.166-5.534h-3.452c-1.018 0-.936-1.439 0-1.439h4.715c.89 0 1.147.842.515 1.521l-3.99 5.183h3.803c.936 0 1.053 1.486-.094 1.486zm8.323 0h-4.4a.714.714 0 0 1-.725-.725V2.029c0-.421.316-.725.725-.725h4.2c1.077 0 1.054 1.52 0 1.52h-3.369V4.58h2.948c1.042 0 1.042 1.532 0 1.532h-2.948v1.755h3.569c1.064 0 1.146 1.533 0 1.533zm6.86-6.669h-1.943v5.242h1.942c3.16 0 3.3-5.242 0-5.242zm.105 6.669h-2.785c-.386 0-.807-.21-.807-.725V2.029c0-.421.421-.725.807-.725h2.68c5.346 0 5.23 8.096.105 8.096zm-102.537 15h-4.399a.714.714 0 0 1-.725-.725v-6.646c0-.421.316-.725.725-.725h4.2c1.077 0 1.053 1.52 0 1.52h-3.37v1.756h2.95c1.04 0 1.04 1.532 0 1.532h-2.95v1.755h3.57c1.064 0 1.146 1.533 0 1.533zm4.333-7.816l2.036 2.528 2.036-2.551c.608-.796 1.79.222 1.123.983-.702.83-1.44 1.731-2.141 2.656l2.387 2.972c.643.877-.644 1.72-1.276.854l-2.153-2.762-2.117 2.82c-.597.854-1.919-.105-1.252-.9l2.352-2.984c-.738-.925-1.451-1.825-2.165-2.656-.737-.878.632-1.779 1.17-.96zm11.692 7.898c-2.831 0-4.107-1.93-4.107-4.189 0-2.258 1.416-4.2 4.107-4.2 1.018 0 1.825.304 2.68 1.041a.798.798 0 0 1 .034 1.135.793.793 0 0 1-1.076-.035c-.48-.503-.971-.643-1.638-.643-1.802 0-2.668 1.275-2.668 2.702 0 1.451.855 2.785 2.668 2.785.667 0 1.287-.27 1.825-.749.363-.28.866-.14 1.077.14.187.258.28.69-.129 1.1-.819.76-1.802.913-2.773.913zm6.556-.082c-.527 0-.83-.316-.83-.725v-6.646c0-.421.303-.725.83-.725.41 0 .713.304.713.725v2.55h3.815v-2.55c0-.421.374-.725.795-.725.41 0 .726.304.726.725v6.646c0 .41-.316.725-.726.725-.42 0-.795-.316-.795-.725v-2.563h-3.815v2.563c0 .41-.304.725-.713.725zm9.843-.398c-.187.398-.62.48-1.041.398-.375-.21-.609-.632-.375-1.123l3.358-6.564c.316-.62 1.159-.643 1.451 0l3.3 6.564c.48.912-.936 1.638-1.358.725l-.514-1.03h-4.318l-.503 1.03zm1.229-2.574h2.76l-1.321-2.89-1.44 2.89zm7.83 2.165v-6.47c0-.422.094-.831.703-.831.42 0 .514.105.83.41l3.873 4.843v-4.54c0-.386.34-.807.737-.807.421 0 .83.421.83.808v6.587c0 .515-.315.713-.62.807-.409 0-.608-.094-.947-.41l-3.873-4.913v4.516c0 .515-.316.807-.737.807-.42 0-.795-.292-.795-.807zm17.086-.726c0 .21-.093.41-.292.632-.83.69-1.849.983-2.878.983-2.457 0-4.2-1.404-4.2-4.189 0-2.363 1.836-4.2 4.305-4.2.924 0 1.942.316 2.668 1.03.713.702-.316 1.743-1.018 1.123-.433-.421-1.042-.737-1.65-.737-1.416 0-2.785 1.135-2.785 2.784 0 1.732 1.147 2.785 2.68 2.785.713 0 1.322-.21 1.755-.527v-1.439h-1.755c-1.042 0-.936-1.427 0-1.427h2.34c.433 0 .83.328.83.69v2.492zm8.1 1.533h-4.399a.714.714 0 0 1-.725-.725v-6.646c0-.421.316-.725.725-.725h4.2c1.077 0 1.054 1.52 0 1.52h-3.37v1.756h2.95c1.04 0 1.04 1.532 0 1.532h-2.95v1.755h3.57c1.064 0 1.146 1.533 0 1.533z" opacity=".319"/>
        <path fill="#FFF" d="M39.59 5.191h-5.595v15.098h5.594c9.1 0 9.503-15.098 0-15.098zm.302 19.209h-8.02c-1.112 0-2.326-.607-2.326-2.09V3.17c0-1.213 1.214-2.09 2.326-2.09h7.717c15.401 0 15.064 23.321.303 23.321zm30.545 0H57.766c-1.18 0-2.09-.91-2.09-2.09V3.17c0-1.213.91-2.09 2.09-2.09h12.098c3.1 0 3.033 4.382 0 4.382h-9.706v5.055h8.493c3 0 3 4.414 0 4.414h-8.493v5.055h10.279c3.067 0 3.302 4.415 0 4.415zm9.482-22.512l5.864 7.28 5.863-7.347c1.753-2.292 5.157.64 3.236 2.83-2.022 2.394-4.145 4.988-6.167 7.65l6.874 8.56c1.854 2.528-1.853 4.954-3.673 2.46l-6.2-7.953-6.1 8.122c-1.72 2.46-5.527-.303-3.606-2.595l6.773-8.593c-2.123-2.663-4.178-5.257-6.234-7.65-2.123-2.528 1.82-5.123 3.37-2.764z"/>
    </g>
</svg>
