<?xml version="1.0" encoding="UTF-8"?>
<svg width="210px" height="40px" viewBox="0 0 210 40" version="1.1" xmlns="http://www.w3.org/2000/svg" xmlns:xlink="http://www.w3.org/1999/xlink">
    <!-- Generator: Sketch 52.6 (67491) - http://www.bohemiancoding.com/sketch -->
    <title>logo</title>
    <desc>Created with Sketch.</desc>
    <g id="-&gt;-TRADING-V2.1" stroke="none" stroke-width="1" fill="none" fill-rule="evenodd">
        <g id="Exchange_master" transform="translate(-29.000000, -16.000000)">
            <g id="logo" transform="translate(28.504687, 15.634023)">
                <path d="M153.427256,4.6707029 L148.407758,4.6707029 L148.407758,18.0464471 L153.427256,18.0464471 C161.5915,18.0464471 161.954355,4.6707029 153.427256,4.6707029 Z M153.699398,21.6889489 L146.502768,21.6889489 C145.504916,21.6889489 144.41635,21.1515306 144.41635,19.8378414 L144.41635,2.87930859 C144.41635,1.804472 145.504916,1.02820113 146.502768,1.02820113 L153.427256,1.02820113 C167.245995,1.02820113 166.943615,21.6889489 153.699398,21.6889489 Z M181.876519,21.5844704 L170.507053,21.5844704 C169.448726,21.5844704 168.632301,20.778343 168.632301,19.7333629 L168.632301,2.77483007 C168.632301,1.69999348 169.448726,0.923722614 170.507053,0.923722614 L181.362474,0.923722614 C184.144364,0.923722614 184.083888,4.80507697 181.362474,4.80507697 L172.653947,4.80507697 L172.653947,9.28356276 L180.273908,9.28356276 C182.965085,9.28356276 182.965085,13.1947737 180.273908,13.1947737 L172.653947,13.1947737 L172.653947,17.6732595 L181.876519,17.6732595 C184.628171,17.6732595 184.839837,21.5844704 181.876519,21.5844704 Z M193.647043,1.74475885 L198.908445,8.19377839 L204.169846,1.68504571 C205.742219,-0.345201183 208.796251,2.25232058 207.072688,4.19299775 C205.258412,6.31281436 203.353422,8.6117704 201.539145,10.9704396 L207.707685,18.5540089 C209.370772,20.7932517 206.044598,22.9429249 204.41175,20.7335386 L198.847969,13.6873876 L193.374902,20.8828215 C191.832767,23.0623512 188.415879,20.6141123 190.139442,18.5838654 L196.217268,10.9704396 C194.312278,8.6117704 192.467763,6.31281436 190.623249,4.19299775 C188.718259,1.95375486 192.256098,-0.345201183 193.647043,1.74475885 Z" id="DEX" fill="#66D7D7"></path>
                <g id="Group-34" transform="translate(1.948572, 0.853238)" fill="#FFFFFF">
                    <g id="quanta" transform="translate(0.037232, 0.208520)">
                        <path d="M53.1261071,20.1512629 C52.647391,21.1523519 51.54036,21.3584585 50.4632488,21.1523519 C49.5058166,20.6223637 48.9074215,19.5623871 49.5058166,18.3257477 L58.0927866,1.80777911 C58.90062,0.247258016 61.0548424,0.188370427 61.8028363,1.80777911 L70.2402075,18.3257477 C71.4669175,20.6223637 67.846627,22.4478789 66.7695158,20.1512629 L65.4530465,17.560209 L54.4126566,17.560209 L53.1261071,20.1512629 Z M56.2676815,13.6736282 L63.3287439,13.6736282 L59.9478114,6.40101102 L56.2676815,13.6736282 Z" id="Combined-Shape-Copy-67"></path>
                        <path d="M74.8765094,19.1656429 L74.8765094,2.66485677 C74.8765094,1.59066455 75.1139201,0.546310996 76.6570892,0.546310996 C77.7254371,0.546310996 77.9628478,0.814859052 78.7641087,1.59066455 L88.586974,13.9438751 L88.586974,2.36647004 C88.586974,1.38179384 89.4475875,0.307601613 90.4565828,0.307601613 C91.5249306,0.307601613 92.5636022,1.38179384 92.5636022,2.36647004 L92.5636022,19.1656429 C92.5636022,20.4785445 91.7623413,20.9858019 90.9907567,21.2245113 C89.9520851,21.2245113 89.4475875,20.9858019 88.586974,20.1801578 L78.7641087,7.64791515 L78.7641087,19.1656429 C78.7641087,20.4785445 77.9628478,21.2245113 76.8944999,21.2245113 C75.826152,21.2245113 74.8765094,20.4785445 74.8765094,19.1656429 Z" id="Path-Copy-22"></path>
                        <path d="M104.095197,19.2785112 L104.095197,4.38914227 L98.8901202,4.38914227 C96.3024534,4.38914227 96.3024534,0.615203226 98.8901202,0.615203226 L112.958699,0.615203226 C115.605853,0.615203226 115.605853,4.38914227 112.958699,4.38914227 L108.021312,4.38914227 L108.021312,19.2785112 C108.021312,21.8436104 104.095197,21.9025782 104.095197,19.2785112 Z" id="Path-Copy-21"></path>
                        <path d="M40.9711672,13.2905134 L40.9711672,2.65429581 C40.9711672,0.039314138 44.8804623,-0.166358578 44.8804623,2.65429581 L44.8804623,13.2905134 C44.8804623,24.2793128 26.8857679,24.2793128 26.8857679,13.2905134 L26.8857679,2.65429581 C26.8857679,0.00993232147 30.795063,-0.107594945 30.795063,2.65429581 L30.795063,13.2905134 C30.795063,19.0787312 40.9711672,19.431313 40.9711672,13.2905134 Z" id="UANTA-Copy-16"></path>
                        <path d="M120.689709,19.8436613 C120.210993,20.8447503 119.103962,21.0508569 118.026851,20.8447503 C117.069419,20.314762 116.471024,19.2547854 117.069419,18.0181461 L125.656389,1.5001775 C126.464222,-0.0603435973 128.618445,-0.119231186 129.366438,1.5001775 L137.80381,18.0181461 C139.03052,20.314762 135.410229,22.1402773 134.333118,19.8436613 L133.016649,17.2526074 L121.976259,17.2526074 L120.689709,19.8436613 Z M123.831284,13.3660266 L130.892346,13.3660266 L127.511414,6.09340941 L123.831284,13.3660266 Z" id="Combined-Shape-Copy-64"></path>
                        <g id="Group-9">
                            <path d="M11.0736581,22.1473162 C4.9578456,22.1473162 1.10134124e-13,17.1894706 1.10134124e-13,11.0736581 C1.10134124e-13,4.9578456 4.9578456,-1.42108547e-14 11.0736581,-1.42108547e-14 C17.1894706,-1.42108547e-14 22.1473162,4.9578456 22.1473162,11.0736581 C22.1473162,17.1894706 17.1894706,22.1473162 11.0736581,22.1473162 Z M11.0736581,18.2715358 C15.0489362,18.2715358 18.2715358,15.0489362 18.2715358,11.0736581 C18.2715358,7.09837996 15.0489362,3.87578033 11.0736581,3.87578033 C7.09837996,3.87578033 3.87578033,7.09837996 3.87578033,11.0736581 C3.87578033,15.0489362 7.09837996,18.2715358 11.0736581,18.2715358 Z" id="Combined-Shape-Copy-66"></path>
                            <path d="M7.57553388,12.1404655 C7.13868848,11.3173654 7.46807248,10.3044034 8.31123363,9.87795174 C9.15439478,9.45150004 10.1920451,9.77304713 10.6288905,10.5961473 L14.2641807,17.8506918 C14.7010261,18.6737919 14.3716421,19.6867538 13.5284809,20.1132055 C12.6853198,20.5396573 11.6476694,20.2181102 11.210824,19.39501 L7.57553388,12.1404655 Z" id="Path-6-Copy-25" transform="translate(10.919857, 14.995579) rotate(26.000000) translate(-10.919857, -14.995579) "></path>
                        </g>
                    </g>
                </g>
                <path d="M4.72138672,37.3841665 L3.55341797,37.3841665 L3.55341797,29.766979 L0.938183594,29.766979 L0.938183594,28.7196157 L7.33027344,28.7196157 L7.33027344,29.766979 L4.72138672,29.766979 L4.72138672,37.3841665 Z M7.38398438,37.3841665 L7.38398438,30.7064321 L8.53291016,30.7064321 L8.53291016,31.7347524 L8.59003906,31.7347524 C8.75507813,31.2904165 9.2375,30.6048696 10.4181641,30.6048696 C10.5641602,30.6048696 10.7038086,30.6175649 10.8371094,30.6366079 L10.8371094,31.6966665 C10.7291992,31.6712759 10.5006836,31.6585806 10.2975586,31.6585806 C9.12324219,31.6585806 8.53925781,32.3631704 8.53925781,33.2645376 L8.53925781,37.3841665 L7.38398438,37.3841665 Z M13.1759766,37.4920766 C11.8810547,37.4920766 10.9923828,36.6795766 10.9923828,35.4417837 C10.9923828,34.2738149 11.8048828,33.4803579 13.3410156,33.4803579 L15.0866211,33.4803579 L15.0866211,32.8202016 C15.0866211,31.9696157 14.5470703,31.5824087 13.6901367,31.5824087 C12.8458984,31.5824087 12.4904297,31.9061391 12.3571289,32.3695181 L11.2462891,32.3695181 C11.3478516,31.2396352 12.2365234,30.598522 13.7282227,30.598522 C15.1056641,30.598522 16.2418945,31.188854 16.2418945,32.8265493 L16.2418945,37.3841665 L15.1374023,37.3841665 L15.1374023,36.5018423 L15.0866211,36.5018423 C14.7628906,37.0350454 14.1598633,37.4920766 13.1759766,37.4920766 Z M13.4933594,36.5208852 C14.3947266,36.5208852 15.0866211,35.9115102 15.0866211,35.1053579 L15.0866211,34.3563345 L13.4362305,34.3563345 C12.5348633,34.3563345 12.1666992,34.8070181 12.1666992,35.4036977 C12.1666992,36.1654165 12.8014648,36.5208852 13.4933594,36.5208852 Z M19.7296875,30.6048696 C20.6691406,30.6048696 21.3991211,31.0174673 21.6657227,31.6966665 L21.7228516,31.6966665 L21.7228516,28.2625845 L22.8717773,28.2625845 L22.8717773,37.3841665 L21.7672852,37.3841665 L21.7672852,36.3177602 L21.7101563,36.3177602 C21.5133789,36.9969595 20.6818359,37.4793813 19.7042969,37.4793813 C18.1491211,37.4793813 17.1398438,36.3875845 17.1398438,34.6864126 L17.1398438,33.404186 C17.1398438,31.6966665 18.1745117,30.6048696 19.7296875,30.6048696 Z M19.9645508,31.6014516 C18.9235352,31.6014516 18.2951172,32.3568227 18.2951172,33.6327016 L18.2951172,34.438854 C18.2951172,35.7274282 18.9362305,36.4827993 19.9962891,36.4827993 C21.0436523,36.4827993 21.7228516,35.7401235 21.7228516,34.5467641 L21.7228516,33.404186 C21.7228516,32.3441274 20.9801758,31.6014516 19.9645508,31.6014516 Z M26.6833008,37.4920766 C24.8869141,37.4920766 23.8268555,36.3558462 23.8268555,34.5467641 L23.8268555,33.5438345 C23.8268555,31.7157095 24.9948242,30.5921743 26.5944336,30.5921743 C28.2130859,30.5921743 29.3683594,31.7411001 29.3683594,33.5438345 L29.3683594,34.3436391 L24.9694336,34.3436391 L24.9694336,34.6800649 C24.9694336,35.7147329 25.5661133,36.5081899 26.6769531,36.5081899 C27.4577148,36.5081899 27.9845703,36.1336782 28.0988281,35.7210806 L29.2794922,35.7210806 C29.1779297,36.4447134 28.3717773,37.4920766 26.6833008,37.4920766 Z M24.9694336,33.5120962 L28.2257813,33.5120962 L28.2257813,33.404186 C28.2257813,32.2996938 27.5783203,31.576061 26.6007813,31.576061 C25.6232422,31.576061 24.9694336,32.2996938 24.9694336,33.404186 L24.9694336,33.5120962 Z M34.7697266,30.5921743 C36.4264648,30.5921743 37.6515625,31.6839712 37.6515625,33.5501821 L37.6515625,34.5277212 C37.6515625,36.4193227 36.4264648,37.4920766 34.7697266,37.4920766 C33.08125,37.4920766 31.881543,36.4320181 31.881543,34.5277212 L31.881543,33.5501821 C31.881543,31.7474477 33.100293,30.5921743 34.7697266,30.5921743 Z M34.7760742,31.5824087 C33.7033203,31.5824087 33.0304688,32.4393423 33.0304688,33.645397 L33.0304688,34.4452016 C33.0304688,35.676647 33.6588867,36.5081899 34.7760742,36.5081899 C35.8805664,36.5081899 36.4962891,35.676647 36.4962891,34.4452016 L36.4962891,33.645397 C36.4962891,32.4329946 35.8488281,31.5824087 34.7760742,31.5824087 Z M38.58125,37.3841665 L38.58125,30.7064321 L39.7174805,30.7064321 L39.7174805,31.9188345 L39.780957,31.9188345 C39.9459961,31.391979 40.409375,30.598522 41.8058594,30.598522 C43.1515625,30.598522 44.0719727,31.3285024 44.0719727,32.8265493 L44.0719727,37.3841665 L42.9230469,37.3841665 L42.9230469,33.1947134 C42.9230469,32.1473501 42.3834961,31.614147 41.4757813,31.614147 C40.3014648,31.614147 39.7301758,32.5155141 39.7301758,33.6644399 L39.7301758,37.3841665 L38.58125,37.3841665 Z M48.8356445,34.3499868 L44.8366211,34.3499868 L44.8366211,33.3089712 L48.8356445,33.3089712 L48.8356445,34.3499868 Z M49.3083008,34.5721548 L49.3083008,33.4867056 C49.3083008,31.7347524 50.3810547,30.5921743 52.0949219,30.5921743 C53.7643555,30.5921743 54.6276367,31.6268423 54.659375,32.6488149 L53.5358398,32.6488149 C53.4660156,32.2489126 53.1549805,31.614147 52.1139648,31.614147 C51.022168,31.614147 50.4572266,32.3631704 50.4572266,33.5311391 L50.4572266,34.5785024 C50.4572266,35.7401235 51.0856445,36.4764516 52.1139648,36.4764516 C53.0978516,36.4764516 53.4660156,36.0321157 53.5866211,35.5179556 L54.7038086,35.5179556 C54.6657227,36.5145376 53.8595703,37.4920766 52.0949219,37.4920766 C50.374707,37.4920766 49.3083008,36.3685415 49.3083008,34.5721548 Z M55.5382813,37.3841665 L55.5382813,28.2625845 L56.687207,28.2625845 L56.687207,31.9188345 L56.7443359,31.9188345 C56.8776367,31.4554556 57.4235352,30.598522 58.8136719,30.598522 C60.1022461,30.598522 61.0543945,31.3411977 61.0543945,32.8392446 L61.0543945,37.3841665 L59.9054688,37.3841665 L59.9054688,33.2074087 C59.9054688,32.1600454 59.327832,31.614147 58.4264648,31.614147 C57.2838867,31.614147 56.687207,32.5091665 56.687207,33.6644399 L56.687207,37.3841665 L55.5382813,37.3841665 Z M64.0788086,37.4920766 C62.7838867,37.4920766 61.8952148,36.6795766 61.8952148,35.4417837 C61.8952148,34.2738149 62.7077148,33.4803579 64.2438477,33.4803579 L65.9894531,33.4803579 L65.9894531,32.8202016 C65.9894531,31.9696157 65.4499023,31.5824087 64.5929688,31.5824087 C63.7487305,31.5824087 63.3932617,31.9061391 63.2599609,32.3695181 L62.1491211,32.3695181 C62.2506836,31.2396352 63.1393555,30.598522 64.6310547,30.598522 C66.0084961,30.598522 67.1447266,31.188854 67.1447266,32.8265493 L67.1447266,37.3841665 L66.0402344,37.3841665 L66.0402344,36.5018423 L65.9894531,36.5018423 C65.6657227,37.0350454 65.0626953,37.4920766 64.0788086,37.4920766 Z M64.3961914,36.5208852 C65.2975586,36.5208852 65.9894531,35.9115102 65.9894531,35.1053579 L65.9894531,34.3563345 L64.3390625,34.3563345 C63.4376953,34.3563345 63.0695313,34.8070181 63.0695313,35.4036977 C63.0695313,36.1654165 63.7042969,36.5208852 64.3961914,36.5208852 Z M68.5250977,37.3841665 L68.5250977,30.7064321 L69.6740234,30.7064321 L69.6740234,37.3841665 L68.5250977,37.3841665 Z M68.2838867,28.6497915 C68.2838867,28.1864126 68.6330078,27.8499868 69.0900391,27.8499868 C69.5724609,27.8499868 69.921582,28.1864126 69.921582,28.6497915 C69.921582,29.1068227 69.5724609,29.4432485 69.0900391,29.4432485 C68.6330078,29.4432485 68.2838867,29.1068227 68.2838867,28.6497915 Z M71.0924805,37.3841665 L71.0924805,30.7064321 L72.2287109,30.7064321 L72.2287109,31.9188345 L72.2921875,31.9188345 C72.4572266,31.391979 72.9206055,30.598522 74.3170898,30.598522 C75.662793,30.598522 76.5832031,31.3285024 76.5832031,32.8265493 L76.5832031,37.3841665 L75.4342773,37.3841665 L75.4342773,33.1947134 C75.4342773,32.1473501 74.8947266,31.614147 73.9870117,31.614147 C72.8126953,31.614147 72.2414063,32.5155141 72.2414063,33.6644399 L72.2414063,37.3841665 L71.0924805,37.3841665 Z M77.8556641,39.7518423 L76.9542969,39.7518423 L77.8048828,36.1717641 L79.1061523,36.1717641 L77.8556641,39.7518423 Z M83.7775391,37.4920766 C82.4826172,37.4920766 81.5939453,36.6795766 81.5939453,35.4417837 C81.5939453,34.2738149 82.4064453,33.4803579 83.9425781,33.4803579 L85.6881836,33.4803579 L85.6881836,32.8202016 C85.6881836,31.9696157 85.1486328,31.5824087 84.2916992,31.5824087 C83.4474609,31.5824087 83.0919922,31.9061391 82.9586914,32.3695181 L81.8478516,32.3695181 C81.9494141,31.2396352 82.8380859,30.598522 84.3297852,30.598522 C85.7072266,30.598522 86.843457,31.188854 86.843457,32.8265493 L86.843457,37.3841665 L85.7389648,37.3841665 L85.7389648,36.5018423 L85.6881836,36.5018423 C85.3644531,37.0350454 84.7614258,37.4920766 83.7775391,37.4920766 Z M84.0949219,36.5208852 C84.9962891,36.5208852 85.6881836,35.9115102 85.6881836,35.1053579 L85.6881836,34.3563345 L84.037793,34.3563345 C83.1364258,34.3563345 82.7682617,34.8070181 82.7682617,35.4036977 C82.7682617,36.1654165 83.4030273,36.5208852 84.0949219,36.5208852 Z M88.0651367,37.3841665 L88.0651367,30.7064321 L89.2013672,30.7064321 L89.2013672,31.9188345 L89.2648438,31.9188345 C89.4298828,31.391979 89.8932617,30.598522 91.2897461,30.598522 C92.6354492,30.598522 93.5558594,31.3285024 93.5558594,32.8265493 L93.5558594,37.3841665 L92.4069336,37.3841665 L92.4069336,33.1947134 C92.4069336,32.1473501 91.8673828,31.614147 90.959668,31.614147 C89.7853516,31.614147 89.2140625,32.5155141 89.2140625,33.6644399 L89.2140625,37.3841665 L88.0651367,37.3841665 Z M97.05,30.6048696 C97.9894531,30.6048696 98.7194336,31.0174673 98.9860352,31.6966665 L99.0431641,31.6966665 L99.0431641,28.2625845 L100.19209,28.2625845 L100.19209,37.3841665 L99.0875977,37.3841665 L99.0875977,36.3177602 L99.0304688,36.3177602 C98.8336914,36.9969595 98.0021484,37.4793813 97.0246094,37.4793813 C95.4694336,37.4793813 94.4601563,36.3875845 94.4601563,34.6864126 L94.4601563,33.404186 C94.4601563,31.6966665 95.4948242,30.6048696 97.05,30.6048696 Z M97.2848633,31.6014516 C96.2438477,31.6014516 95.6154297,32.3568227 95.6154297,33.6327016 L95.6154297,34.438854 C95.6154297,35.7274282 96.256543,36.4827993 97.3166016,36.4827993 C98.3639648,36.4827993 99.0431641,35.7401235 99.0431641,34.5467641 L99.0431641,33.404186 C99.0431641,32.3441274 98.3004883,31.6014516 97.2848633,31.6014516 Z M106.539258,37.485729 C105.618848,37.485729 104.933301,37.0921743 104.622266,36.3939321 L104.565137,36.3939321 L104.565137,39.5994985 L103.416211,39.5994985 L103.416211,30.7000845 L104.520703,30.7000845 L104.520703,31.7601431 L104.577832,31.7601431 C104.850781,31.0428579 105.618848,30.6048696 106.577344,30.6048696 C108.145215,30.6048696 109.129102,31.7093618 109.129102,33.4740102 L109.129102,34.6102407 C109.129102,36.3875845 108.13252,37.485729 106.539258,37.485729 Z M106.304395,36.489147 C107.358105,36.489147 107.973828,35.7274282 107.973828,34.4007681 L107.973828,33.7025259 C107.973828,32.3631704 107.358105,31.6014516 106.272656,31.6014516 C105.218945,31.6014516 104.565137,32.3377798 104.565137,33.5374868 L104.565137,34.6864126 C104.565137,35.7528188 105.276074,36.489147 106.304395,36.489147 Z M111.880566,37.4920766 C110.585645,37.4920766 109.696973,36.6795766 109.696973,35.4417837 C109.696973,34.2738149 110.509473,33.4803579 112.045605,33.4803579 L113.791211,33.4803579 L113.791211,32.8202016 C113.791211,31.9696157 113.25166,31.5824087 112.394727,31.5824087 C111.550488,31.5824087 111.19502,31.9061391 111.061719,32.3695181 L109.950879,32.3695181 C110.052441,31.2396352 110.941113,30.598522 112.432813,30.598522 C113.810254,30.598522 114.946484,31.188854 114.946484,32.8265493 L114.946484,37.3841665 L113.841992,37.3841665 L113.841992,36.5018423 L113.791211,36.5018423 C113.46748,37.0350454 112.864453,37.4920766 111.880566,37.4920766 Z M112.197949,36.5208852 C113.099316,36.5208852 113.791211,35.9115102 113.791211,35.1053579 L113.791211,34.3563345 L112.14082,34.3563345 C111.239453,34.3563345 110.871289,34.8070181 110.871289,35.4036977 C110.871289,36.1654165 111.506055,36.5208852 112.197949,36.5208852 Z M121.385938,30.7064321 C121.278027,31.0999868 119.024609,37.3778188 119.024609,37.3905141 L118.884961,37.7523306 C118.351758,39.1805532 117.678906,39.7264516 116.517285,39.7264516 C116.31416,39.7264516 116.022168,39.7074087 115.857129,39.6693227 L115.857129,38.7298696 C115.958691,38.7489126 116.212598,38.7679556 116.345898,38.7679556 C117.094922,38.7679556 117.482129,38.4632681 117.685254,37.7142446 L117.755078,37.466686 L115.304883,30.7064321 L116.580762,30.7064321 L118.34541,36.247936 L118.396191,36.247936 L120.167188,30.7064321 L121.385938,30.7064321 Z M123.569043,37.3841665 L123.569043,36.6161001 L127.09834,31.7664907 L127.09834,31.7030141 L123.556348,31.7030141 L123.556348,30.7064321 L128.526563,30.7064321 L128.526563,31.4998891 L125.016309,36.3241079 L125.016309,36.3875845 L128.564648,36.3875845 L128.564648,37.3841665 L123.569043,37.3841665 Z M131.957227,37.4920766 C130.16084,37.4920766 129.100781,36.3558462 129.100781,34.5467641 L129.100781,33.5438345 C129.100781,31.7157095 130.26875,30.5921743 131.868359,30.5921743 C133.487012,30.5921743 134.642285,31.7411001 134.642285,33.5438345 L134.642285,34.3436391 L130.243359,34.3436391 L130.243359,34.6800649 C130.243359,35.7147329 130.840039,36.5081899 131.950879,36.5081899 C132.731641,36.5081899 133.258496,36.1336782 133.372754,35.7210806 L134.553418,35.7210806 C134.451855,36.4447134 133.645703,37.4920766 131.957227,37.4920766 Z M130.243359,33.5120962 L133.499707,33.5120962 L133.499707,33.404186 C133.499707,32.2996938 132.852246,31.576061 131.874707,31.576061 C130.897168,31.576061 130.243359,32.2996938 130.243359,33.404186 L130.243359,33.5120962 Z M135.641797,37.3841665 L135.641797,30.7064321 L136.790723,30.7064321 L136.790723,31.7347524 L136.847852,31.7347524 C137.012891,31.2904165 137.495313,30.6048696 138.675977,30.6048696 C138.821973,30.6048696 138.961621,30.6175649 139.094922,30.6366079 L139.094922,31.6966665 C138.987012,31.6712759 138.758496,31.6585806 138.555371,31.6585806 C137.381055,31.6585806 136.79707,32.3631704 136.79707,33.2645376 L136.79707,37.3841665 L135.641797,37.3841665 Z M142.176465,30.5921743 C143.833203,30.5921743 145.058301,31.6839712 145.058301,33.5501821 L145.058301,34.5277212 C145.058301,36.4193227 143.833203,37.4920766 142.176465,37.4920766 C140.487988,37.4920766 139.288281,36.4320181 139.288281,34.5277212 L139.288281,33.5501821 C139.288281,31.7474477 140.507031,30.5921743 142.176465,30.5921743 Z M142.182813,31.5824087 C141.110059,31.5824087 140.437207,32.4393423 140.437207,33.645397 L140.437207,34.4452016 C140.437207,35.676647 141.065625,36.5081899 142.182813,36.5081899 C143.287305,36.5081899 143.903027,35.676647 143.903027,34.4452016 L143.903027,33.645397 C143.903027,32.4329946 143.255566,31.5824087 142.182813,31.5824087 Z M148.301465,30.7254751 L148.301465,29.0496938 L149.437695,29.0496938 L149.437695,30.7254751 L150.948438,30.7254751 L150.948438,31.6712759 L149.437695,31.6712759 L149.437695,35.4925649 C149.437695,36.2733266 149.704297,36.4764516 150.516797,36.4764516 C150.681836,36.4764516 150.935742,36.4637563 151.043652,36.451061 L151.043652,37.3841665 C150.948438,37.4032095 150.478711,37.4412954 150.224805,37.4412954 C148.637891,37.4412954 148.295117,36.8319204 148.295117,35.5116079 L148.295117,31.6712759 L147.273145,31.6712759 L147.273145,30.7254751 L148.301465,30.7254751 Z M151.922559,37.3841665 L151.922559,30.7064321 L153.071484,30.7064321 L153.071484,31.7347524 L153.128613,31.7347524 C153.293652,31.2904165 153.776074,30.6048696 154.956738,30.6048696 C155.102734,30.6048696 155.242383,30.6175649 155.375684,30.6366079 L155.375684,31.6966665 C155.267773,31.6712759 155.039258,31.6585806 154.836133,31.6585806 C153.661816,31.6585806 153.077832,32.3631704 153.077832,33.2645376 L153.077832,37.3841665 L151.922559,37.3841665 Z M157.714551,37.4920766 C156.419629,37.4920766 155.530957,36.6795766 155.530957,35.4417837 C155.530957,34.2738149 156.343457,33.4803579 157.87959,33.4803579 L159.625195,33.4803579 L159.625195,32.8202016 C159.625195,31.9696157 159.085645,31.5824087 158.228711,31.5824087 C157.384473,31.5824087 157.029004,31.9061391 156.895703,32.3695181 L155.784863,32.3695181 C155.886426,31.2396352 156.775098,30.598522 158.266797,30.598522 C159.644238,30.598522 160.780469,31.188854 160.780469,32.8265493 L160.780469,37.3841665 L159.675977,37.3841665 L159.675977,36.5018423 L159.625195,36.5018423 C159.301465,37.0350454 158.698438,37.4920766 157.714551,37.4920766 Z M158.031934,36.5208852 C158.933301,36.5208852 159.625195,35.9115102 159.625195,35.1053579 L159.625195,34.3563345 L157.974805,34.3563345 C157.073438,34.3563345 156.705273,34.8070181 156.705273,35.4036977 C156.705273,36.1654165 157.340039,36.5208852 158.031934,36.5208852 Z M164.268262,30.6048696 C165.207715,30.6048696 165.937695,31.0174673 166.204297,31.6966665 L166.261426,31.6966665 L166.261426,28.2625845 L167.410352,28.2625845 L167.410352,37.3841665 L166.305859,37.3841665 L166.305859,36.3177602 L166.24873,36.3177602 C166.051953,36.9969595 165.22041,37.4793813 164.242871,37.4793813 C162.687695,37.4793813 161.678418,36.3875845 161.678418,34.6864126 L161.678418,33.404186 C161.678418,31.6966665 162.713086,30.6048696 164.268262,30.6048696 Z M164.503125,31.6014516 C163.462109,31.6014516 162.833691,32.3568227 162.833691,33.6327016 L162.833691,34.438854 C162.833691,35.7274282 163.474805,36.4827993 164.534863,36.4827993 C165.582227,36.4827993 166.261426,35.7401235 166.261426,34.5467641 L166.261426,33.404186 C166.261426,32.3441274 165.51875,31.6014516 164.503125,31.6014516 Z M168.847852,37.3841665 L168.847852,30.7064321 L169.996777,30.7064321 L169.996777,37.3841665 L168.847852,37.3841665 Z M168.606641,28.6497915 C168.606641,28.1864126 168.955762,27.8499868 169.412793,27.8499868 C169.895215,27.8499868 170.244336,28.1864126 170.244336,28.6497915 C170.244336,29.1068227 169.895215,29.4432485 169.412793,29.4432485 C168.955762,29.4432485 168.606641,29.1068227 168.606641,28.6497915 Z M171.415234,37.3841665 L171.415234,30.7064321 L172.551465,30.7064321 L172.551465,31.9188345 L172.614941,31.9188345 C172.77998,31.391979 173.243359,30.598522 174.639844,30.598522 C175.985547,30.598522 176.905957,31.3285024 176.905957,32.8265493 L176.905957,37.3841665 L175.757031,37.3841665 L175.757031,33.1947134 C175.757031,32.1473501 175.21748,31.614147 174.309766,31.614147 C173.135449,31.614147 172.56416,32.5155141 172.56416,33.6644399 L172.56416,37.3841665 L171.415234,37.3841665 Z M180.546094,38.8568227 C181.72041,38.8568227 182.298047,38.2284048 182.298047,37.1810415 L182.298047,36.2161977 L182.23457,36.2161977 C181.974316,36.7938345 181.28877,37.263561 180.362012,37.263561 C178.883008,37.263561 177.727734,36.2161977 177.727734,34.4515493 L177.727734,33.4295766 C177.727734,31.6649282 178.87666,30.6048696 180.355664,30.6048696 C181.358594,30.6048696 182.069531,31.1634634 182.291699,31.7093618 L182.348828,31.7093618 L182.348828,30.7064321 L183.446973,30.7064321 L183.446973,37.1873891 C183.446973,39.0282095 182.215527,39.8280141 180.508008,39.8280141 C178.800488,39.8280141 177.962598,38.9647329 177.87373,37.9935415 L179.041699,37.9935415 C179.130566,38.4632681 179.670117,38.8568227 180.546094,38.8568227 Z M180.641309,31.6014516 C179.555859,31.6014516 178.883008,32.4202993 178.883008,33.6390493 L178.883008,34.2611196 C178.883008,35.473522 179.619336,36.286022 180.654004,36.286022 C181.72041,36.286022 182.298047,35.4100454 182.298047,34.457897 L182.298047,33.4613149 C182.298047,32.4837759 181.688672,31.6014516 180.641309,31.6014516 Z M187.102734,37.3841665 L187.102734,31.6712759 L185.979199,31.6712759 L185.979199,30.7254751 L187.102734,30.7254751 L187.102734,30.0526235 C187.102734,28.770397 187.705762,28.1864126 189.197461,28.1864126 C189.495801,28.1864126 189.825879,28.2118032 189.95918,28.2244985 L189.95918,29.157604 C189.857617,29.1449087 189.527539,29.1322134 189.3625,29.1322134 C188.575391,29.1322134 188.238965,29.3670766 188.238965,30.1478384 L188.238965,30.7254751 L189.787793,30.7254751 L189.787793,31.6712759 L188.25166,31.6712759 L188.25166,37.3841665 L187.102734,37.3841665 Z M192.901074,37.4920766 C191.104688,37.4920766 190.044629,36.3558462 190.044629,34.5467641 L190.044629,33.5438345 C190.044629,31.7157095 191.212598,30.5921743 192.812207,30.5921743 C194.430859,30.5921743 195.586133,31.7411001 195.586133,33.5438345 L195.586133,34.3436391 L191.187207,34.3436391 L191.187207,34.6800649 C191.187207,35.7147329 191.783887,36.5081899 192.894727,36.5081899 C193.675488,36.5081899 194.202344,36.1336782 194.316602,35.7210806 L195.497266,35.7210806 C195.395703,36.4447134 194.589551,37.4920766 192.901074,37.4920766 Z M191.187207,33.5120962 L194.443555,33.5120962 L194.443555,33.404186 C194.443555,32.2996938 193.796094,31.576061 192.818555,31.576061 C191.841016,31.576061 191.187207,32.2996938 191.187207,33.404186 L191.187207,33.5120962 Z M199.016797,37.4920766 C197.22041,37.4920766 196.160352,36.3558462 196.160352,34.5467641 L196.160352,33.5438345 C196.160352,31.7157095 197.32832,30.5921743 198.92793,30.5921743 C200.546582,30.5921743 201.701855,31.7411001 201.701855,33.5438345 L201.701855,34.3436391 L197.30293,34.3436391 L197.30293,34.6800649 C197.30293,35.7147329 197.899609,36.5081899 199.010449,36.5081899 C199.791211,36.5081899 200.318066,36.1336782 200.432324,35.7210806 L201.612988,35.7210806 C201.511426,36.4447134 200.705273,37.4920766 199.016797,37.4920766 Z M197.30293,33.5120962 L200.559277,33.5120962 L200.559277,33.404186 C200.559277,32.2996938 199.911816,31.576061 198.934277,31.576061 C197.956738,31.576061 197.30293,32.2996938 197.30293,33.404186 L197.30293,33.5120962 Z M202.282422,32.6234243 C202.282422,31.2015493 203.469434,30.5921743 204.770703,30.5921743 C206.211621,30.5921743 207.16377,31.3411977 207.16377,32.4710806 L206.097363,32.4710806 C206.059277,32.001354 205.627637,31.5062368 204.732617,31.5062368 C203.951855,31.5062368 203.393262,31.8680532 203.393262,32.5028188 C203.393262,33.2962759 204.294629,33.404186 205.05,33.5374868 C206.300488,33.7596548 207.335156,34.1087759 207.335156,35.4036977 C207.335156,36.7367056 206.26875,37.4920766 204.669141,37.4920766 C203.183789,37.4920766 202.161816,36.8255727 202.161816,35.6258657 L203.285352,35.6258657 C203.374219,36.2161977 203.786816,36.5843618 204.719922,36.5843618 C205.773633,36.5843618 206.205273,36.1146352 206.205273,35.5433462 C206.205273,34.8006704 205.462598,34.6673696 204.53584,34.4832876 C203.291699,34.2293813 202.282422,33.9373891 202.282422,32.6234243 Z M207.947461,36.5970571 C207.947461,36.0511587 208.353711,35.6702993 208.855176,35.6702993 C209.382031,35.6702993 209.781934,36.0511587 209.781934,36.5970571 C209.781934,37.1175649 209.382031,37.4984243 208.855176,37.4984243 C208.353711,37.4984243 207.947461,37.1175649 207.947461,36.5970571 Z" id="Trade-on-chain,-and" fill="#7B7B7B"></path>
            </g>
        </g>
    </g>
</svg>