<svg xmlns="http://www.w3.org/2000/svg" width="26" height="26" viewBox="0 0 26 26">
    <g fill="#FFF" fill-rule="evenodd">
        <path d="M18.09 9.213a.544.544 0 0 0-.765.079l-4.49 5.521-2.988-2.493a.544.544 0 0 0-.697.836l3.411 2.845a.545.545 0 0 0 .771-.074l4.837-5.949a.544.544 0 0 0-.079-.765z"/>
        <path fill-rule="nonzero" d="M13.196 1.246c6.4 0 11.608 5.207 11.608 11.608 0 6.4-5.207 11.608-11.608 11.608-6.4 0-11.608-5.208-11.608-11.608S6.795 1.246 13.196 1.246zm0-1.088C6.183.158.5 5.842.5 12.854S6.183 25.55 13.196 25.55s12.696-5.684 12.696-12.696S20.209.158 13.196.158z"/>
    </g>
</svg>
