<svg xmlns="http://www.w3.org/2000/svg" width="10" height="10" viewBox="0 0 10 10">
    <path fill="#FFF" fill-rule="nonzero" d="M9.565 3.24L6.81 2.978a.476.476 0 0 1-.394-.292L5.43.296a.472.472 0 0 0-.876 0l-.978 2.39a.466.466 0 0 1-.395.293l-2.754.26a.476.476 0 0 0-.268.829L2.234 5.89c.134.118.19.292.15.465l-.623 2.557a.476.476 0 0 0 .702.52L4.76 8.085a.477.477 0 0 1 .482 0l2.296 1.35a.474.474 0 0 0 .702-.521l-.615-2.557a.472.472 0 0 1 .15-.465l2.075-1.823c.3-.276.126-.79-.284-.829z" opacity=".139"/>
</svg>
